<svg width="200" height="343" viewBox="0 0 200 343" fill="none" xmlns="http://www.w3.org/2000/svg">
  <path d="M16.3516 141.305C16.2738 141.149 16.4294 140.682 16.7407 140.371C16.8186 140.293 16.8964 140.216 17.0521 140.138C17.1299 140.06 17.2077 139.904 17.2856 139.826C17.4412 139.593 17.5969 139.437 17.7526 139.204C17.8304 139.126 17.986 138.971 17.8304 138.971C17.4412 139.048 17.6747 138.504 17.5969 138.348C17.4412 138.037 17.7525 137.881 17.8304 137.725C17.9082 137.57 18.0638 137.336 18.0638 137.025C18.0638 136.87 18.0638 136.714 18.2195 136.558C18.6086 136.091 18.3752 135.547 18.3752 135.158C18.3752 134.846 18.2973 134.613 18.3752 134.224C18.5308 132.901 18.3752 131.5 17.986 130.178C17.9082 129.711 17.6747 129.244 17.519 128.777C17.3634 128.31 17.1299 127.921 16.8964 127.454C16.7408 127.143 16.7408 126.831 16.5851 126.598L16.4295 126.365C16.0403 125.976 15.5734 125.742 15.4177 125.197C15.1842 125.042 15.0285 124.886 14.795 124.653C14.6394 124.419 14.4059 124.264 14.1724 124.108C14.0946 124.108 13.939 124.03 13.8611 123.952C13.472 123.641 13.0828 123.33 12.6159 123.174L11.9154 122.863C11.7598 122.785 11.6819 122.785 11.6041 122.785C11.5263 122.785 11.4484 122.707 11.2928 122.707C11.1371 122.707 10.9815 122.63 10.8258 122.552C9.9697 122.474 9.03578 122.707 8.02401 122.474C7.40139 122.396 6.70093 122.396 6.0783 122.474C5.45568 122.474 4.83303 122.474 4.2104 122.396C3.82126 122.396 3.43212 122.318 3.04298 122.318C2.65384 122.318 2.18687 122.24 1.64208 122.085C1.40859 122.007 1.17509 121.929 0.941601 121.774C0.708118 121.618 0.47464 121.462 0.318985 121.307C-0.303642 120.684 -0.614956 120.217 -1.23758 119.673C-1.31541 119.673 -1.47106 119.361 -1.47106 119.206C-1.47106 119.05 -1.54889 118.817 -1.62672 118.583C-2.32718 117.572 -2.24935 116.327 -2.40501 115.471C-2.63849 114.226 -2.32717 113.058 -2.24934 111.969C-2.17151 111.191 -2.17154 110.413 -1.93806 109.635C-1.70457 108.467 -1.54889 107.3 -1.62672 106.133C-1.62672 105.277 -1.54889 104.343 -1.62672 103.409C-1.62672 103.176 -1.62672 102.943 -1.62672 102.787V102.709C-1.70455 102.553 -1.78237 102.398 -1.8602 102.164C-1.93803 101.386 -2.24937 100.764 -2.71634 100.219C-3.18331 99.5965 -3.65025 99.0518 -4.19505 98.5071C-4.42854 98.1959 -4.81769 98.118 -5.129 97.8846C-6.45208 97.0286 -8.08648 96.4061 -9.7987 96.2505C-10.2657 96.1727 -10.7326 96.0949 -11.1996 95.9392C-11.2774 95.9392 -11.3553 95.8614 -11.4331 95.8614C-12.0557 96.0949 -12.7562 95.8614 -13.3788 95.8614C-15.8693 95.7836 -18.4377 95.7836 -21.0838 95.8614C-22.4847 95.8614 -23.9634 95.8614 -25.4422 95.7058C-25.8313 95.628 -26.2983 95.5502 -26.6875 95.3945C-27.4658 95.0833 -27.4657 95.1611 -26.9988 94.8498C-28.3218 94.6942 -29.5671 94.2273 -30.5789 93.3714C-30.7345 93.2157 -30.8124 93.1379 -30.7346 93.0601C-30.8124 92.9823 -30.8123 92.9045 -30.8902 92.9045C-31.1237 92.3598 -31.0458 92.3598 -30.2676 92.5932C-30.1119 92.5932 -29.8784 92.7489 -29.8784 92.671C-29.8784 92.5154 -30.1119 92.5932 -30.2676 92.5154C-30.5789 92.3598 -30.7345 92.1263 -30.968 91.9707C-31.3572 91.5816 -31.902 91.3482 -32.2911 90.8813C-32.4468 90.6479 -32.6803 90.4922 -32.5246 90.3366C-32.3689 90.181 -32.1355 90.1032 -31.7463 90.4144C-31.435 90.6479 -31.0458 90.7257 -30.8124 91.1148C-30.8124 91.1926 -30.6567 91.1926 -30.5789 91.1926C-30.1897 91.2704 -29.8006 91.5816 -29.3336 91.5816C-29.1001 91.5816 -29.0223 91.6595 -28.9445 91.5038C-28.7888 91.2704 -28.4775 91.1926 -27.9327 91.3482C-26.3761 91.8151 -24.6639 92.0485 -22.8739 92.2042C-22.1734 92.282 -21.473 92.3598 -20.8503 92.4376C-20.4612 92.5154 -19.9942 92.3598 -19.6051 92.3598C-17.348 92.3598 -15.0132 92.5154 -12.6005 92.671C-10.4213 92.8267 -8.16431 93.1379 -5.90728 93.9939C-4.5842 94.5386 -3.26113 95.1611 -2.17153 96.1727C-1.93805 96.4061 -1.62671 96.6396 -1.47106 96.873C-1.23757 97.1065 -1.00412 97.3399 -0.770632 97.6512C-0.537148 97.9624 -0.381451 98.1959 -0.147964 98.5071C0.0855179 98.8184 0.241138 99.1296 0.396793 99.5187C1.01942 100.842 1.25293 102.32 1.25293 103.565C1.25293 104.343 1.33076 105.121 1.25293 105.822C1.09728 106.989 0.94162 108.078 0.863792 109.168C0.708138 110.646 0.552452 112.047 0.396793 113.37C0.318966 114.615 0.396832 115.782 0.630318 116.716C0.785973 117.416 1.17511 117.883 1.64208 118.194C1.71991 118.272 1.79773 118.272 1.87555 118.35C1.95338 118.428 2.03122 118.505 2.03122 118.505C2.03122 118.583 2.18685 118.661 2.3425 118.739C2.65382 118.894 3.12079 118.817 3.50993 118.894C4.05473 118.894 4.67738 118.661 5.14435 119.05C5.45567 118.972 5.92261 119.05 6.23392 118.972C6.85655 118.817 7.40136 119.05 7.94616 118.972C8.25747 118.894 8.17967 119.128 8.41315 119.206C8.56881 119.284 8.72443 119.439 8.95791 119.206C9.11357 118.972 9.81403 118.972 10.281 119.206C10.4367 119.284 10.6702 119.361 10.8258 119.284C11.1371 119.128 11.4484 119.128 11.7598 119.361C11.8376 119.439 12.0711 119.517 12.2267 119.517C12.3045 119.517 12.4602 119.517 12.538 119.517C12.6159 119.517 12.6937 119.517 12.7715 119.595C12.9272 119.673 13.0828 119.75 13.2385 119.828C13.5498 119.984 13.8611 120.217 14.2503 120.295C14.4059 120.373 14.4838 120.451 14.4838 120.529C14.4059 120.684 14.5616 120.84 14.8729 120.84C15.3399 120.918 15.8847 121.229 16.196 121.618C17.4412 122.707 18.5308 123.952 19.3869 125.353C20.3987 127.298 21.177 129.322 21.4104 131.5C21.4883 132.123 21.4883 132.745 21.5661 133.29C21.5661 133.913 21.5661 134.535 21.5661 135.158C21.4883 135.624 21.4105 136.091 21.3326 136.48C21.2548 136.947 21.0213 137.336 20.8657 137.725C20.6322 138.192 20.4765 138.581 20.243 139.048L19.9317 139.749C19.8539 139.982 19.6983 140.216 19.5426 140.449C19.3869 140.76 19.1535 141.071 18.92 141.227C18.6865 141.383 18.453 141.383 18.3752 141.227C18.2973 141.071 18.2974 140.76 18.5308 140.371C18.6865 140.06 18.8421 139.749 18.9978 139.437C19.0756 139.126 19.1534 138.815 19.2313 138.504C19.3869 137.959 19.6204 137.181 19.8539 136.558C19.9317 136.014 20.0874 135.391 20.1652 134.769C20.1652 134.691 20.1652 134.613 20.1652 134.457C20.1652 134.302 20.0874 134.146 20.0095 134.146C19.9317 134.146 19.9317 134.379 19.9317 134.457C19.8539 135.936 19.3869 137.336 18.6865 138.581C18.6086 138.737 18.5308 138.971 18.3752 139.126L17.986 139.593C17.7525 139.904 17.5191 140.293 17.2077 140.527C17.1299 140.605 16.9742 140.76 16.8964 140.838C16.7408 141.461 16.4294 141.538 16.3516 141.305ZM-30.3454 91.5816L-30.4232 91.5038C-30.4232 91.5816 -30.4232 91.5816 -30.3454 91.5816C-30.3454 91.6595 -30.2676 91.6595 -30.3454 91.5816Z" fill="#BAE7FF" />
  <path d="M185.395 202.467C185.395 202.623 185.317 202.857 185.317 202.779C185.317 202.701 185.317 202.701 185.239 202.623C185.239 202.623 185.162 202.545 185.239 202.701C185.395 203.012 185.317 202.934 185.317 203.012C185.317 203.012 185.317 203.09 185.395 203.09C185.395 203.168 185.395 203.168 185.395 203.09C185.162 202.934 185.395 203.168 185.473 203.246C185.551 203.323 185.551 203.323 185.473 203.323C185.317 203.323 185.239 203.479 185.162 203.557C185.084 203.635 185.162 203.712 185.084 203.712L184.928 203.79C184.928 203.79 185.006 203.79 185.006 203.712C184.928 203.712 184.928 203.712 184.928 203.712C184.928 203.712 184.85 203.79 184.928 203.712C184.928 203.868 185.006 203.79 185.006 203.79C185.006 203.79 185.006 203.79 185.006 203.946C185.084 203.946 185.084 203.712 185.239 203.868C185.317 203.946 185.395 203.868 185.473 203.79C185.551 203.712 185.629 203.712 185.706 203.712C185.784 203.712 185.784 203.635 185.784 203.635C185.862 203.479 185.862 203.401 186.018 203.401C186.173 203.401 186.329 203.401 186.173 203.168C186.173 203.168 186.173 203.09 186.251 203.168C186.329 203.168 186.407 203.168 186.329 203.168C186.251 202.934 186.485 202.934 186.407 202.701C186.251 202.545 186.485 202.39 186.485 202.234C186.407 202.156 186.407 202.078 186.407 201.923C186.485 201.689 186.329 201.534 186.173 201.378C186.018 201.3 186.018 201.067 185.94 200.911C185.94 200.833 185.94 200.833 185.94 200.756C185.862 200.756 185.784 200.756 185.784 200.756C185.706 200.444 185.239 200.366 185.162 199.977C185.162 199.9 185.006 199.9 184.928 199.9C184.695 199.666 184.461 199.355 183.994 199.199C183.916 199.199 183.838 199.044 183.838 198.888V198.81C183.527 198.966 183.527 198.732 183.372 198.655L183.294 198.577L184.305 198.966C184.228 199.044 184.15 199.121 184.15 199.355C184.15 199.511 184.15 199.588 184.228 199.666H184.15C184.072 199.666 184.072 199.666 183.683 199.588C183.761 199.744 183.683 199.744 183.372 199.9C183.294 199.9 183.294 199.977 183.138 199.977H183.06C182.671 200.055 182.671 200.133 182.515 199.977C182.515 199.977 182.515 199.9 182.438 199.9C182.36 199.9 182.438 199.977 182.438 199.977C182.438 200.055 182.36 200.133 182.282 200.211C182.204 200.366 182.282 200.444 182.204 200.6C182.204 200.678 182.204 200.756 181.971 200.833C181.815 200.911 181.581 200.989 181.504 200.833C181.426 200.756 181.27 200.6 181.426 200.444C181.426 200.444 181.426 200.366 181.348 200.366C181.192 200.289 181.27 200.055 181.114 199.977C181.037 199.9 181.037 199.822 180.881 199.822C180.57 199.822 180.414 199.666 180.414 199.433C180.492 198.732 180.725 198.032 181.037 197.487C181.192 197.254 181.426 197.098 181.659 196.943C181.815 196.865 181.815 196.631 181.971 196.554C182.515 196.009 183.371 195.775 184.228 195.775H184.85L185.317 196.164L185.551 196.32C185.94 196.631 186.329 196.943 186.718 197.332C186.952 197.565 187.263 197.721 187.496 197.954C187.885 198.421 188.43 198.888 188.664 199.588C188.742 199.744 188.897 199.9 188.975 200.133C189.053 200.444 189.131 200.833 189.286 201.145C189.442 201.534 189.52 202.234 189.442 202.779C189.364 203.246 189.286 203.79 189.053 204.179C188.897 204.491 188.819 204.802 188.586 205.113C188.508 205.269 188.352 205.424 188.119 205.58C187.963 205.658 187.886 205.891 187.808 205.969C187.652 206.125 187.574 206.514 187.185 206.28C187.107 206.436 186.952 206.436 186.874 206.592C186.718 206.825 186.407 206.747 186.251 206.903C186.095 206.981 186.095 206.825 186.018 206.747C185.94 206.747 185.862 206.514 185.862 206.825C185.862 207.136 185.551 207.136 185.317 206.903C185.239 206.825 185.162 206.825 185.084 206.903C185.006 207.059 184.85 207.136 184.695 206.981C184.617 206.903 184.617 206.903 184.539 206.903C184.228 207.214 183.916 206.825 183.683 206.825C183.605 206.825 183.605 206.747 183.605 206.669C183.683 206.514 183.605 206.436 183.449 206.514C183.216 206.669 182.982 206.436 182.827 206.28C182.282 205.736 181.815 205.113 181.737 204.491C181.659 203.635 181.659 202.857 181.971 202.234C182.126 201.845 182.282 201.456 182.515 201.067C182.671 200.756 182.982 200.522 183.294 200.522C183.683 200.444 183.994 200.211 184.383 200.133C184.539 200.133 184.695 200.055 184.772 200.211C184.85 200.289 184.928 200.522 184.928 200.678C184.928 200.833 184.85 201.067 184.772 201.067C184.539 201.067 184.461 201.3 184.383 201.456C184.305 201.611 184.15 201.611 183.994 201.767C183.838 201.845 183.761 201.923 183.683 202.078C183.683 202.078 183.605 202.078 183.605 202.156C183.605 202.234 183.605 202.234 183.683 202.312C183.761 202.39 183.761 202.312 183.761 202.312C183.916 202.001 184.305 201.923 184.617 201.923C184.772 201.923 184.928 201.923 185.084 202.001C185.084 202.001 185.162 202.001 185.162 202.078C185.395 202.001 185.395 202.156 185.395 202.467ZM181.504 200.289C181.504 200.366 181.504 200.366 181.504 200.289C181.581 200.366 181.581 200.366 181.504 200.289C181.581 200.289 181.581 200.289 181.504 200.289Z" fill="#BAE7FF" />
  <path d="M146.325 190.25C146.481 190.328 146.637 190.484 146.559 190.562C146.481 190.717 146.481 190.795 146.325 190.951C146.325 190.951 146.247 191.029 146.403 191.029C146.714 190.951 146.714 191.106 146.87 191.184C147.181 191.262 146.948 191.262 146.87 191.34C146.87 191.418 146.792 191.495 146.87 191.495C146.948 191.495 146.948 191.573 146.87 191.573C146.637 191.729 146.948 191.807 147.026 191.885C147.104 191.962 147.181 191.962 147.104 192.04C147.026 192.351 147.181 192.585 147.259 192.896C147.337 193.052 147.493 193.207 147.571 193.363C147.571 193.441 147.571 193.596 147.571 193.596C147.726 193.519 147.882 193.363 147.804 193.674C147.96 193.519 147.96 193.986 148.115 193.752C148.115 193.752 148.193 193.674 148.193 193.752C148.427 193.908 148.505 193.83 148.582 193.83C148.582 193.83 148.66 193.83 148.66 193.908C148.816 193.908 148.738 193.674 148.971 193.752C149.127 193.83 149.127 193.752 149.205 193.674C149.205 193.596 149.283 193.596 149.361 193.519C149.438 193.519 149.438 193.441 149.438 193.441C149.438 193.363 149.283 193.285 149.516 193.207C149.75 193.13 149.828 192.974 149.594 192.974C149.594 192.974 149.516 192.974 149.672 192.896C149.828 192.818 149.828 192.818 149.75 192.818C149.438 192.818 149.75 192.507 149.438 192.507C149.127 192.585 149.361 192.196 149.127 192.196C148.972 192.196 148.894 192.196 148.816 192.118C148.738 191.962 148.505 192.118 148.427 192.274C148.349 192.429 148.271 192.429 148.193 192.507H148.115C148.115 192.585 148.115 192.663 148.115 192.663C148.038 192.74 148.038 192.818 147.96 192.974C147.96 193.052 147.96 193.13 147.882 193.285C147.804 193.363 147.96 193.363 147.96 193.441C147.96 193.596 147.96 193.908 148.115 193.83C148.193 193.83 148.193 193.83 148.115 194.063C148.115 194.063 148.038 194.141 148.115 194.141C148.349 193.752 148.271 193.986 148.349 194.063C148.427 194.063 148.427 194.063 148.505 194.063C148.582 193.986 148.738 193.83 148.738 193.596C148.738 193.441 148.66 193.363 148.66 193.285C148.66 193.285 148.66 193.285 148.738 193.363C148.816 193.441 148.816 193.363 149.127 193.674C149.049 193.519 149.127 193.519 149.438 193.441C149.516 193.441 149.516 193.441 149.672 193.441H149.75C150.139 193.363 150.217 193.363 150.295 193.596C150.295 193.596 150.295 193.674 150.372 193.674C150.45 193.674 150.372 193.596 150.372 193.596C150.372 193.519 150.45 193.441 150.528 193.363C150.606 193.207 150.528 193.052 150.606 192.818C150.684 192.74 150.684 192.585 150.839 192.585C151.073 192.507 151.229 192.507 151.306 192.74C151.384 192.896 151.462 193.052 151.306 193.207V193.285C151.462 193.441 151.306 193.674 151.462 193.908C151.54 193.986 151.54 194.063 151.696 194.141C152.007 194.219 152.085 194.452 152.007 194.764C151.773 195.697 151.306 196.631 150.684 197.254C150.45 197.487 150.139 197.721 149.905 197.798C149.75 197.876 149.594 198.11 149.438 198.188C148.894 198.499 148.271 198.732 147.726 198.888L146.792 198.032C146.092 197.487 145.547 196.631 145.236 195.464C145.158 195.153 145.08 194.841 145.08 194.452V193.908C145.08 193.674 145.158 193.519 145.158 193.285C145.391 191.807 146.325 190.25 147.415 189.628C147.726 189.472 148.038 189.161 148.349 189.083C148.582 189.005 148.894 188.928 149.127 189.005C149.361 189.005 149.594 189.005 149.905 189.005C150.606 189.083 151.306 189.394 151.851 189.939C152.318 190.406 152.707 190.951 152.941 191.573C153.096 192.04 153.252 192.507 153.33 192.974C153.33 193.285 153.33 193.596 153.174 193.908C153.019 194.141 153.096 194.375 153.019 194.686C152.941 194.997 152.941 195.386 152.474 195.464C152.474 195.697 152.24 195.775 152.163 195.931C152.007 196.242 151.696 196.32 151.462 196.553C151.306 196.709 151.229 196.476 151.151 196.476C151.073 196.476 150.839 196.32 150.917 196.631C150.995 196.865 150.684 197.02 150.295 196.865C150.139 196.787 150.061 196.787 150.061 196.942C149.983 197.176 149.828 197.176 149.672 197.098C149.594 197.098 149.516 197.02 149.516 197.098C149.283 197.487 148.816 197.176 148.505 197.254C148.427 197.254 148.349 197.176 148.427 197.176C148.427 196.942 148.349 196.942 148.271 197.098C148.038 197.254 147.804 197.254 147.648 197.098C147.026 196.865 146.325 196.631 145.858 196.164C145.236 195.542 144.691 194.919 144.38 194.141C144.224 193.752 143.99 193.285 143.835 192.896C143.757 192.585 143.679 192.274 143.835 191.962C143.99 191.651 143.913 191.262 143.99 190.951C143.99 190.795 143.99 190.717 144.146 190.639C144.302 190.562 144.457 190.562 144.613 190.562C144.769 190.639 144.924 190.717 144.924 190.873C144.924 191.106 145.002 191.34 145.158 191.495C145.313 191.651 145.236 191.885 145.236 192.118C145.236 192.274 145.236 192.507 145.313 192.663V192.74C145.313 192.818 145.391 192.818 145.469 192.74C145.547 192.74 145.547 192.663 145.469 192.663C145.313 192.274 145.469 191.807 145.547 191.34C145.625 191.106 145.703 190.873 145.78 190.639C145.78 190.562 145.858 190.562 145.858 190.562C145.858 190.173 146.014 190.173 146.325 190.25ZM151.384 193.13C151.384 193.052 151.306 193.13 151.384 193.13C151.306 193.13 151.384 193.13 151.384 193.13Z" fill="#BAE7FF" />
  <path d="M107.723 213.206C107.8 213.361 107.8 213.595 107.645 213.672C107.567 213.75 107.489 213.75 107.333 213.828C107.256 213.906 107.1 213.984 107.1 213.906C107.1 213.906 107.022 213.906 107.1 213.984C107.333 214.217 107.256 214.217 107.411 214.295C107.645 214.451 107.411 214.373 107.411 214.373C107.411 214.373 107.256 214.373 107.333 214.373C107.411 214.373 107.411 214.373 107.333 214.373C107.022 214.295 107.256 214.451 107.411 214.451C107.489 214.451 107.567 214.451 107.489 214.451C107.333 214.528 107.411 214.606 107.411 214.684C107.567 214.917 107.8 215.073 108.034 215.307C108.112 215.384 108.112 215.54 108.19 215.618L108.267 215.696C108.501 215.696 108.657 215.54 108.734 215.929C108.968 215.851 108.968 216.24 109.201 216.162H109.279C109.513 216.396 109.902 216.396 110.213 216.396C110.291 216.396 110.369 216.396 110.369 216.552C110.68 216.629 110.914 216.396 111.225 216.552C111.381 216.629 111.614 216.552 111.77 216.474C111.925 216.396 112.081 216.396 112.237 216.396C112.315 216.396 112.47 216.318 112.548 216.24C112.704 216.085 112.859 215.929 113.093 215.929C113.326 215.929 113.482 215.929 113.482 215.618C113.482 215.618 113.482 215.54 113.638 215.54C113.715 215.618 113.793 215.54 113.793 215.54C113.793 215.229 114.182 215.151 114.182 214.84C114.182 214.684 114.26 214.528 114.338 214.373C114.416 214.217 114.572 214.139 114.572 213.984C114.649 213.75 114.649 213.517 114.727 213.361C114.883 213.05 114.883 212.661 114.805 212.35C114.727 212.116 114.805 211.805 114.727 211.494C114.727 211.416 114.727 211.338 114.805 211.26C114.727 211.182 114.649 211.182 114.649 211.105C114.649 210.56 114.182 210.249 114.105 209.782C114.105 209.626 113.871 209.626 113.793 209.548C113.482 209.159 113.093 208.848 112.626 208.77C112.47 208.77 112.392 208.692 112.315 208.459C112.315 208.459 112.315 208.381 112.237 208.381C111.925 208.614 111.848 208.381 111.692 208.381C110.991 208.303 110.291 208.303 109.668 208.614C109.513 208.692 109.357 208.77 109.201 208.848C109.046 208.926 108.89 209.004 108.734 209.159C108.657 209.237 108.579 209.237 108.423 209.237C108.19 209.237 108.19 209.237 108.112 208.926C107.878 209.159 107.645 209.315 107.178 209.315C107.1 209.315 107.022 209.315 106.944 209.237H106.866C106.477 209.081 106.477 209.004 106.555 208.77C106.555 208.692 106.633 208.692 106.555 208.614C106.477 208.537 106.477 208.692 106.477 208.692C106.399 208.77 106.244 208.77 106.166 208.77C105.933 208.848 105.855 209.081 105.621 209.159C105.543 209.237 105.388 209.315 105.232 209.159C105.076 209.004 104.921 208.926 105.076 208.692C105.154 208.537 105.154 208.303 105.466 208.303C105.466 208.303 105.466 208.225 105.543 208.225C105.543 207.992 105.777 207.914 105.855 207.681C105.855 207.603 105.933 207.525 105.777 207.369C105.543 207.136 105.621 206.903 105.855 206.747C106.555 206.202 107.256 205.735 108.112 205.502C108.423 205.424 108.734 205.346 109.123 205.346C109.279 205.346 109.513 205.191 109.668 205.113C110.758 204.879 111.77 205.113 112.859 205.346C113.793 205.58 114.727 206.047 115.506 206.747C115.972 207.136 116.439 207.525 116.751 208.07C117.373 209.004 117.84 210.093 117.84 211.182C117.84 211.494 117.996 211.805 117.996 212.116C117.918 212.661 117.84 213.128 117.84 213.595C117.763 214.295 117.607 214.917 117.296 215.54C117.14 215.851 116.984 216.085 116.829 216.396C116.673 216.707 116.517 216.941 116.284 217.174C116.128 217.33 115.973 217.563 115.817 217.719C115.661 217.874 115.506 218.108 115.35 218.263C115.116 218.497 114.883 218.653 114.572 218.73C114.338 218.808 114.182 219.042 113.949 219.119C113.715 219.275 113.482 219.586 113.093 219.353C112.937 219.509 112.704 219.509 112.626 219.586C112.392 219.742 112.081 219.586 111.77 219.742C111.614 219.82 111.614 219.586 111.536 219.509C111.458 219.431 111.381 219.275 111.303 219.586C111.225 219.82 110.914 219.898 110.758 219.586C110.68 219.509 110.602 219.509 110.524 219.586C110.369 219.742 110.291 219.742 110.135 219.586C110.057 219.509 110.057 219.509 109.98 219.509C109.668 219.82 109.435 219.431 109.123 219.509C109.046 219.509 109.046 219.431 109.046 219.353C109.046 219.119 108.968 219.119 108.89 219.197C108.657 219.353 108.423 219.275 108.267 219.119C107.723 218.808 107.022 218.575 106.555 218.108C106.244 217.797 105.855 217.485 105.543 217.174C105.388 217.018 105.154 216.785 104.999 216.552C104.843 216.318 104.687 216.007 104.532 215.773C104.298 215.151 103.909 214.606 103.598 213.906L103.52 213.75C103.52 213.672 103.598 213.672 103.675 213.595C103.753 213.517 103.831 213.439 103.909 213.361C104.065 213.206 104.298 213.05 104.532 212.894C105.076 212.661 105.466 212.194 105.855 211.883C105.932 211.805 106.01 211.727 106.166 211.805C106.322 211.805 106.477 211.883 106.555 212.038C106.633 212.194 106.711 212.35 106.555 212.505C106.399 212.661 106.244 212.972 106.166 213.206C106.088 213.439 105.777 213.595 105.621 213.75L105.31 213.984L105.232 214.061V214.139L105.31 214.295C105.31 214.295 105.31 214.373 105.388 214.373C105.466 214.451 105.543 214.451 105.621 214.451C105.699 214.451 105.699 214.373 105.621 214.373C105.621 214.295 105.543 214.217 105.543 214.217V214.139L105.621 214.061C105.699 213.984 105.855 213.906 106.01 213.828C106.244 213.672 106.477 213.517 106.711 213.439L107.489 213.05C107.567 213.05 107.567 212.972 107.645 212.972C107.333 212.894 107.567 212.972 107.723 213.206ZM105.466 207.992C105.466 208.07 105.466 208.07 105.466 207.992C105.543 208.07 105.543 207.992 105.466 207.992Z" fill="#BAE7FF" />
  <path d="M-110.509 147.375C-110.431 147.064 -110.042 145.741 -109.263 144.029C-108.796 143.173 -108.329 142.317 -107.785 141.383C-107.162 140.527 -106.539 139.593 -105.917 138.815C-102.57 134.613 -97.9782 131.189 -93.3863 129.089C-92.3746 128.622 -90.0397 127.688 -91.0515 127.999C-92.2189 128.388 -91.4406 127.843 -90.1953 127.377C-88.9501 126.832 -87.2378 126.209 -86.6931 125.976C-85.6813 125.509 -84.5139 125.12 -83.2686 124.887C-82.646 124.731 -81.9455 124.575 -81.3229 124.497C-80.6225 124.42 -79.922 124.264 -79.2993 124.186C-78.2097 123.953 -76.9645 123.875 -75.6414 123.719C-74.3961 123.642 -73.0731 123.486 -71.9056 123.408C-71.0495 123.33 -70.1156 123.33 -69.2595 123.252C-68.4034 123.252 -67.6251 123.252 -67.0025 123.33C-61.2431 123.719 -56.7291 123.953 -52.1372 124.731C-51.2811 124.887 -50.5028 125.042 -49.8024 125.198C-49.0241 125.353 -48.3236 125.509 -47.5453 125.743C-46.7671 125.976 -46.0666 126.132 -45.2883 126.365C-44.51 126.598 -43.7318 126.91 -42.7978 127.143C-36.1824 129.4 -29.7226 132.59 -23.9633 136.792C-18.1262 140.916 -13.0673 146.052 -8.86458 151.732C-5.9071 155.701 -3.26096 159.903 -1.00392 164.338C1.2531 168.696 3.19881 173.287 4.83321 177.956C6.00064 181.38 6.38979 183.636 7.32373 186.827C7.55722 187.76 7.71286 188.694 7.94635 189.628C8.6468 192.196 9.1138 194.842 9.58076 197.409C9.89209 200.055 10.2812 202.701 10.2812 205.502C10.6703 208.303 10.5925 211.105 10.5925 213.906C10.5147 215.307 10.5147 216.707 10.4369 218.108C10.4369 218.808 10.3591 219.509 10.3591 220.209C10.3591 220.909 10.2812 221.61 10.2812 222.31C10.2812 223.166 10.2034 224.567 10.0477 225.578L9.58076 229.313C9.42511 230.558 9.11377 231.803 8.9581 233.048L8.64682 234.916L8.25768 236.783C7.94637 238.028 7.71284 239.273 7.40154 240.518C6.15628 245.421 4.44408 250.245 2.42055 254.992C1.56444 256.704 0.786118 258.571 0.00782776 259.661C-1.08177 261.606 -2.09352 263.551 -3.33878 265.419L-4.19487 266.82L-4.66188 267.52C-4.81754 267.753 -4.97318 267.987 -5.12883 268.22L-7.15234 270.866C-7.46367 271.333 -7.85283 271.722 -8.24196 272.111L-9.33159 273.356L-10.4212 274.601C-10.8103 274.99 -11.1994 275.379 -11.5886 275.768C-12.3669 276.546 -13.223 277.325 -14.0013 278.025L-16.6474 280.048C-21.3171 283.55 -26.5316 286.584 -31.824 288.997C-36.7272 291.253 -41.786 292.965 -46.8449 294.444C-50.1137 295.378 -53.149 296.233 -56.4178 297.012C-59.7644 297.868 -63.2667 298.724 -66.769 299.424C-68.4812 299.813 -70.2712 300.046 -71.9056 300.202C-73.54 300.435 -75.1745 300.513 -76.6532 300.591C-77.4315 300.591 -78.1319 300.669 -78.8324 300.669C-79.5329 300.669 -80.2333 300.669 -80.9338 300.669C-81.6342 300.669 -82.2568 300.669 -82.9573 300.669C-83.5799 300.669 -84.2804 300.591 -84.903 300.591C-87.4713 300.513 -90.0397 300.28 -92.8415 299.969C-93.2307 299.891 -95.5655 299.502 -96.4995 299.268C-97.5112 298.879 -99.4569 298.412 -100.858 298.023C-109.185 295.844 -117.435 291.02 -123.584 286.04C-127.709 282.772 -131.211 279.192 -134.324 275.301C-137.437 271.411 -140.161 267.364 -142.652 263.007C-144.364 260.05 -145.921 256.937 -147.321 253.747C-148.722 250.557 -149.89 247.21 -150.902 243.787C-151.68 241.219 -152.302 238.573 -152.847 236.005C-153.314 233.36 -153.703 230.636 -153.781 227.99C-154.015 222.621 -153.548 217.174 -152.225 211.883C-150.279 203.557 -146.076 195.231 -140.161 188.539C-139.383 187.683 -138.605 186.827 -137.749 186.049C-136.892 185.27 -136.192 184.57 -135.414 183.948L-135.336 183.87C-135.258 183.792 -135.102 183.714 -134.947 183.558C-134.246 182.936 -133.546 182.313 -132.845 181.691C-132.145 181.068 -131.367 180.524 -130.666 180.057C-124.206 175.544 -116.891 172.353 -109.341 170.33C-101.792 168.307 -93.9311 167.295 -86.0704 167.918C-81.8677 168.307 -78.5989 168.696 -74.6296 169.785C-66.5355 172.042 -58.9083 176.633 -53.3825 183.169C-47.7788 189.628 -44.3544 197.643 -42.7978 205.891C-41.9417 210.249 -41.786 215.462 -42.5643 219.742C-42.72 220.442 -42.7978 220.987 -42.8756 221.765C-43.187 224.489 -43.9652 227.523 -45.2883 230.558C-46.5336 233.515 -48.3236 236.472 -50.2693 238.962C-53.9273 243.709 -58.9083 247.522 -64.7454 249.389C-70.5047 251.257 -76.6532 251.257 -82.4903 250.323C-85.37 249.856 -88.2496 249.234 -91.0515 248.3C-93.8533 247.366 -96.5773 246.121 -99.1456 244.643C-104.282 241.686 -108.952 237.484 -111.754 231.959C-113.233 229.002 -114.167 225.656 -114.4 222.31C-114.633 218.964 -114.011 215.462 -112.766 212.35C-110.197 206.047 -105.138 201.067 -99.1456 198.032C-97.4334 197.176 -95.6434 196.553 -93.7755 196.009C-91.9076 195.542 -90.0397 195.231 -88.094 195.153C-84.6695 194.997 -82.8795 195.386 -82.4125 195.464C-81.9455 195.62 -82.7238 195.542 -84.2804 195.542C-84.3582 195.542 -84.3582 195.542 -84.4361 195.542C-81.4786 195.697 -78.5989 196.476 -75.9527 197.876C-73.3066 199.277 -71.1273 201.222 -69.4151 203.479C-65.9907 207.914 -64.1228 213.439 -64.4341 218.73C-64.512 219.586 -64.5898 220.209 -64.6676 220.754C-64.8233 221.221 -64.9011 221.454 -64.9789 221.532C-65.0568 221.843 -65.1346 222.154 -65.2124 222.466C-65.2902 222.777 -65.4459 223.01 -65.5237 223.244C-65.7572 223.711 -65.9128 224.1 -66.0685 224.411C-66.2242 224.722 -66.3799 224.956 -66.5355 225.111C-66.769 225.423 -66.8468 225.5 -66.769 225.267C-66.769 225.111 -66.6133 224.956 -66.5355 224.722C-66.4577 224.567 -66.3798 224.411 -66.302 224.255C-66.2242 224.1 -66.1463 223.866 -66.0685 223.633C-65.9128 223.166 -65.6794 222.621 -65.6016 221.999C-65.5237 221.687 -65.4459 221.298 -65.3681 220.987C-65.2903 220.598 -65.2902 220.209 -65.2902 219.82C-65.2124 219.197 -65.2124 218.264 -65.2124 217.563C-65.2124 216.863 -65.3681 216.396 -65.3681 216.552C-65.3681 216.785 -65.2903 217.33 -65.3681 218.03C-65.3681 218.341 -65.3681 218.73 -65.3681 219.042C-65.3681 219.431 -65.4459 219.742 -65.4459 220.053C-65.7572 223.088 -66.769 225.189 -68.4034 227.057C-70.0378 228.924 -72.2948 230.325 -74.7853 230.87C-77.2758 231.414 -79.922 231.103 -81.9455 229.936C-82.179 229.78 -82.4125 229.624 -82.646 229.469C-82.8794 229.313 -83.113 229.158 -83.3464 228.924C-83.5799 228.769 -83.7356 228.535 -83.9691 228.379C-84.0469 228.302 -84.1247 228.224 -84.2804 228.146C-84.3582 228.068 -84.436 227.99 -84.5139 227.835C-85.0587 227.134 -85.4478 226.668 -85.2143 226.745C-84.9809 226.823 -84.6695 227.057 -84.0469 227.679C-83.7356 227.99 -83.2686 228.224 -82.8016 228.691C-82.179 229.002 -81.5564 229.469 -80.6224 229.78C-78.988 230.403 -77.198 230.48 -75.4858 230.169C-73.7736 229.858 -72.217 229.158 -70.8161 228.224C-70.6604 228.068 -70.3491 227.835 -70.0378 227.601C-69.7265 227.368 -69.493 226.979 -69.1816 226.668C-68.092 225.345 -67.2359 223.555 -66.8468 221.61C-66.4576 219.664 -66.4577 217.641 -66.769 215.774C-67.1581 214.062 -67.5473 212.817 -67.7029 212.739C-67.8586 212.661 -68.2477 211.961 -68.7925 210.793C-69.3373 209.626 -70.2713 207.837 -71.8278 205.813C-72.9953 204.335 -74.3184 203.012 -75.8749 201.923C-76.6532 201.378 -77.4315 200.911 -78.2876 200.522C-79.1437 200.133 -79.9998 199.822 -80.9338 199.588C-84.5139 198.577 -88.4831 198.81 -92.2189 199.666C-94.0868 200.133 -95.8768 200.755 -97.589 201.611C-98.4451 202 -99.2234 202.545 -100.08 203.012L-101.247 203.868C-101.636 204.101 -102.025 204.413 -102.414 204.724C-103.893 205.891 -105.216 207.37 -106.384 208.848C-106.928 209.626 -107.551 210.404 -107.94 211.183C-108.485 211.961 -108.796 212.894 -109.185 213.673C-111.52 219.042 -111.131 225.423 -108.485 230.714C-106.928 233.749 -104.516 236.55 -101.558 238.884C-97.7447 241.919 -93.2306 244.176 -88.4831 245.576C-86.1482 246.277 -83.6578 246.821 -81.1673 247.211C-78.6767 247.6 -76.1862 247.755 -73.7735 247.677C-68.8704 247.522 -64.045 246.355 -59.9201 243.787C-55.7952 241.219 -52.3707 237.484 -49.958 233.282C-48.8684 231.336 -47.9345 229.235 -47.1562 227.134C-46.4557 225.033 -45.911 222.777 -45.5218 220.598C-45.2105 218.341 -45.0548 216.085 -45.0548 213.828C-45.1327 211.572 -45.2883 209.315 -45.6774 207.058C-47.234 198.11 -51.2811 189.472 -57.7409 183.092C-58.7526 182.236 -59.6088 181.224 -60.6984 180.446C-61.2432 180.057 -61.7101 179.59 -62.2549 179.201L-63.8893 178.111C-64.2006 177.956 -64.4341 177.722 -64.7454 177.567L-65.6016 177.1L-67.3138 176.166L-69.1038 175.31L-70.0378 174.921L-70.9717 174.532L-72.8396 173.832L-74.7853 173.209L-75.7193 172.898L-76.731 172.664L-78.6767 172.198C-81.3229 171.731 -83.9691 171.264 -86.6152 171.186C-91.6741 170.875 -96.7329 171.264 -101.714 172.12C-104.204 172.587 -106.695 173.131 -109.108 173.832C-111.52 174.532 -113.933 175.31 -116.268 176.244C-120.938 178.111 -125.452 180.602 -129.499 183.558C-131.522 185.037 -133.39 186.749 -135.18 188.461C-136.97 190.25 -138.605 192.118 -140.083 194.141C-141.796 196.398 -143.352 198.966 -144.597 201.611C-145.921 204.257 -147.01 207.058 -147.866 209.86C-150.746 218.808 -151.057 228.535 -148.878 237.639C-147.399 243.864 -145.22 249.934 -142.496 255.692C-141.095 258.571 -139.616 261.373 -137.982 264.096C-136.27 266.82 -134.558 269.465 -132.612 271.955C-129.032 276.624 -124.907 280.748 -120.393 284.406C-118.136 286.195 -115.723 287.83 -113.233 289.308C-111.987 290.008 -110.742 290.709 -109.419 291.409L-107.473 292.343L-106.461 292.81L-105.45 293.199C-101.636 294.833 -97.589 295.922 -93.4641 296.7C-91.4406 297.089 -89.3392 297.323 -87.2379 297.556C-86.2261 297.634 -85.1365 297.634 -84.1247 297.712C-83.5799 297.712 -83.113 297.79 -82.5682 297.79H-81.0116C-75.6414 297.712 -70.5826 297.245 -65.3681 296.156C-61.3988 295.455 -56.7291 294.21 -52.3707 293.043C-47.234 291.642 -41.8639 289.697 -37.3498 288.374C-35.9489 287.752 -34.3923 287.129 -32.9136 286.429C-31.4349 285.729 -29.8783 285.106 -28.633 284.328C-24.119 281.838 -19.8384 279.348 -16.1026 276.08C-15.5578 275.69 -15.2465 275.301 -14.9352 275.068C-14.7017 274.835 -14.4682 274.679 -14.3126 274.601C-14.0013 274.368 -13.7678 274.29 -13.3008 273.823C-12.8338 273.434 -12.289 273.045 -11.8221 272.578C-11.3551 272.033 -10.8103 271.489 -10.3433 270.788C-10.1099 270.477 -9.7207 270.01 -9.25372 269.388C-8.78676 268.765 -8.24196 267.987 -7.69716 267.209C-7.38585 266.82 -7.07452 266.431 -6.7632 266.042C-6.45189 265.652 -6.14059 265.186 -5.9071 264.797C-5.28448 263.941 -4.73967 263.085 -4.19487 262.384C-3.33876 261.139 -2.71614 259.894 -2.24916 258.883C-1.7822 257.949 -1.39304 257.015 -0.926071 256.004C-0.692581 255.537 -0.459106 254.992 -0.147781 254.447C0.163528 253.903 0.396988 253.358 0.708313 252.735C1.09744 251.957 1.64227 250.634 1.79793 250.012C3.04318 245.732 5.14452 240.052 6.00064 235.071C6.23412 233.904 6.38979 232.893 6.54544 232.815C6.77893 232.659 7.01244 231.025 7.24591 229.313C7.32375 227.601 7.55722 225.656 7.71288 223.711C7.7907 222.699 7.86852 221.687 7.94635 220.676C7.94635 220.209 8.0242 219.664 8.0242 219.197C8.0242 218.731 8.02419 218.186 8.10201 217.719C8.72464 205.269 6.70113 192.585 2.96535 180.757C0.397018 172.742 -3.26094 164.961 -7.85283 157.958C-12.5225 150.876 -18.2818 144.651 -25.1308 139.749C-32.7579 134.224 -42.0195 130.489 -51.4368 128.544C-54.939 127.843 -58.4413 127.377 -61.8658 127.143C-65.2903 126.91 -68.7925 126.832 -72.1391 126.91C-79.455 127.143 -87.7048 129.166 -94.3202 133.135C-95.4877 133.913 -96.6551 134.613 -97.589 135.391C-98.056 135.781 -98.6008 136.092 -99.0678 136.481C-99.5348 136.87 -99.9239 137.259 -100.313 137.57C-100.702 137.882 -101.091 138.193 -101.403 138.504C-101.714 138.815 -101.947 139.049 -102.103 139.204C-102.492 139.516 -102.648 139.593 -102.414 139.204C-102.337 138.971 -102.103 138.737 -101.947 138.426C-101.87 138.271 -101.714 138.115 -101.558 137.959C-101.403 137.804 -101.247 137.648 -101.091 137.415C-100.702 137.026 -100.313 136.559 -99.8461 136.092C-99.3791 135.625 -98.7565 135.158 -98.056 134.613C-95.5655 132.746 -93.075 131.267 -90.5067 130.1C-89.2614 129.478 -87.9383 129.011 -86.6152 128.466C-85.9148 128.233 -85.2921 127.999 -84.5917 127.766L-83.5799 127.454C-83.2686 127.377 -82.8795 127.299 -82.5682 127.143C-81.9455 126.988 -81.2451 126.832 -80.6224 126.676C-79.922 126.521 -79.2215 126.443 -78.5211 126.287C-77.8206 126.132 -77.0423 126.054 -76.3419 125.976C-75.5636 125.898 -74.8631 125.743 -74.0848 125.743C-70.9717 125.431 -67.7807 125.509 -64.7454 125.587C-59.5309 125.82 -54.3164 126.521 -49.1797 127.688C-48.4014 127.843 -47.5453 128.077 -46.8449 128.31C-46.1444 128.466 -45.5218 128.622 -45.0548 128.699C-44.5879 128.855 -44.2766 128.855 -44.3544 128.855C-44.4322 128.699 -46.0666 128.31 -47.0005 128.077C-48.5571 127.61 -50.1915 127.299 -51.8259 126.988C-53.4603 126.676 -55.0169 126.365 -56.6513 126.209C-58.2857 125.976 -59.9201 125.82 -61.4767 125.665C-63.1111 125.587 -64.7454 125.431 -66.3798 125.431C-69.6486 125.353 -72.8396 125.431 -76.1084 125.82C-79.2994 126.209 -82.5682 126.754 -85.6813 127.766C-89.2614 128.855 -92.7637 130.334 -95.9547 132.279C-99.1456 134.224 -102.103 136.636 -104.438 139.593C-104.905 140.138 -105.294 140.683 -105.683 141.228C-106.072 141.772 -106.539 142.317 -106.851 142.862C-107.395 143.718 -107.862 144.496 -108.252 145.196C-108.641 145.896 -108.952 146.519 -109.185 147.064C-110.275 147.53 -110.586 147.92 -110.509 147.375ZM-68.9482 225.423C-69.1038 225.578 -69.3373 225.967 -69.5708 226.278C-69.4151 226.123 -69.2595 225.967 -69.1038 225.734C-68.7925 225.267 -68.6369 225.033 -68.9482 225.423ZM-65.4459 221.376C-65.4459 221.298 -65.4459 221.221 -65.4459 221.221C-65.4459 221.298 -65.4459 221.376 -65.4459 221.376ZM-85.1365 195.386C-84.9808 195.386 -85.0587 195.386 -85.1365 195.386V195.386Z" fill="#BAE7FF" />
  <path d="M199.871 246.899C199.56 246.977 197.225 246.432 195.279 245.966C194.657 245.81 194.034 245.654 193.334 245.499L191.388 245.11C190.065 244.798 188.82 244.643 187.574 244.331C187.029 244.254 185.784 243.942 186.329 244.176C186.874 244.409 186.407 244.409 185.784 244.409C185.084 244.409 184.228 244.331 183.916 244.331C182.827 244.487 181.504 244.098 180.181 243.942C179.091 243.787 177.768 243.631 176.523 243.631C175.667 243.631 174.733 243.553 174.11 243.475C172.709 243.242 171.386 243.242 170.141 243.242C169.518 243.242 168.973 243.242 168.351 243.242C167.806 243.242 167.183 243.32 166.638 243.32C165.004 243.398 163.603 243.398 161.813 243.398C154.809 243.398 147.726 243.709 140.722 244.487L136.986 244.876L135.118 245.11L133.25 245.421L125.856 246.51C124.066 246.744 122.899 246.899 121.264 247.211L119.786 247.444C117.217 248.066 114.571 248.689 111.847 249.156C109.123 250.012 106.321 250.245 103.597 251.101C103.13 251.257 102.508 251.413 102.041 251.568L98.3828 252.58L97.4489 252.813L96.515 253.124L94.7249 253.747L92.9349 254.369L92.0788 254.681L91.2226 255.07L87.7204 256.626C86.8642 257.015 85.9303 257.482 85.3077 257.638L82.3502 259.116C81.3384 259.583 80.4045 260.206 79.4706 260.75L76.5909 262.384C75.6569 263.007 74.723 263.552 73.7112 264.096C73.0886 264.485 72.466 264.797 71.8434 265.186C71.2207 265.575 70.5981 266.042 69.9755 266.431C68.7302 267.287 67.4849 268.065 66.3175 268.999C65.2279 269.777 64.1383 270.633 63.0487 271.411C61.9591 272.189 60.9474 273.045 59.8578 273.823C59.1573 274.368 58.5347 274.835 57.8342 275.379C57.2116 275.924 56.5112 276.469 55.8885 277.013C53.2424 279.27 50.2849 281.916 47.95 283.783C45.5373 285.651 43.8251 287.129 41.8015 289.153C41.6459 289.308 40.7898 290.086 40.3228 290.398C39.8559 290.709 39.0775 291.331 38.5327 291.876C35.4196 294.911 31.7616 297.868 28.8042 300.669C24.9906 304.326 21.0213 307.283 17.1299 310.551C15.729 311.641 14.4059 312.73 13.005 313.897C11.6041 314.987 10.1254 316.076 8.64661 317.088C4.13255 320.2 -0.303696 323.313 -5.05122 326.192C-5.98517 326.737 -6.9191 327.359 -7.85304 327.904C-8.86481 328.449 -9.79874 328.916 -10.8105 329.46C-11.8223 329.927 -12.8341 330.55 -13.8458 331.017C-14.8576 331.484 -15.8694 331.95 -16.959 332.417C-18.0486 332.884 -19.1382 333.429 -20.0721 333.662C-20.1499 333.662 -20.2278 333.74 -20.3056 333.74C-21.1617 334.129 -22.0956 334.596 -22.8739 334.907C-30.3455 337.709 -38.0505 340.121 -45.989 341.21C-48.0904 341.444 -49.7248 341.911 -51.8261 342.144C-53.9275 342.3 -56.1067 342.533 -58.2081 342.689C-60.3094 342.844 -62.4887 342.844 -64.59 342.922L-66.2244 343C-66.7692 343 -67.314 343 -67.8588 343L-71.0498 342.922H-74.2407L-77.4317 342.767C-78.5213 342.689 -79.7666 342.689 -80.934 342.533C-82.1014 342.378 -83.2688 342.222 -84.3584 342.066C-84.7476 341.988 -84.981 341.911 -85.3702 341.911C-88.0942 341.988 -91.5965 341.21 -94.7096 340.743C-100.547 339.654 -106.384 338.253 -112.065 336.386C-117.747 334.518 -123.273 332.184 -128.565 329.46C-134.324 326.426 -139.85 322.768 -144.909 318.566C-145.609 318.022 -146.31 317.321 -147.01 316.699C-147.711 316.076 -148.411 315.376 -149.034 314.676C-151.369 312.186 -151.369 312.186 -150.046 313.042L-149.968 313.119C-154.093 309.073 -157.517 304.56 -160.086 300.047C-160.475 299.346 -160.708 298.879 -160.63 298.801C-160.786 298.49 -160.942 298.179 -161.019 298.023C-161.331 297.09 -161.486 296.7 -161.253 296.856C-161.097 297.012 -160.553 297.79 -159.619 299.268C-159.229 299.813 -158.607 300.825 -158.607 300.591C-158.607 300.358 -159.229 299.657 -159.619 299.113C-160.475 297.79 -160.942 296.778 -161.486 295.611C-162.654 293.354 -163.821 290.942 -164.677 288.608C-165.067 287.518 -165.456 286.118 -165.222 286.273C-164.989 286.429 -164.6 286.896 -163.821 288.919C-163.043 290.631 -162.187 292.343 -161.409 294.055C-161.331 294.288 -161.019 294.755 -160.786 295.066C-159.774 296.701 -158.607 298.724 -157.362 300.28C-156.817 301.058 -156.35 301.525 -156.194 301.525C-155.805 301.447 -154.949 302.537 -153.237 304.715C-150.668 307.906 -147.866 310.941 -144.831 313.742C-143.352 315.143 -141.718 316.465 -140.161 317.788C-138.527 319.033 -136.893 320.278 -135.18 321.445L-133.157 322.768L-131.133 324.013C-129.81 324.869 -128.409 325.647 -127.008 326.503C-125.452 327.437 -123.584 328.138 -121.794 328.993C-112.299 333.273 -102.259 336.308 -91.83 337.942C-82.3349 339.421 -72.6842 340.043 -63.1113 339.81C-61.7104 339.732 -60.3094 339.732 -58.9085 339.654C-57.5076 339.498 -56.1067 339.421 -54.7058 339.265C-51.904 339.109 -49.1021 338.565 -46.3781 338.176C-35.9491 336.541 -25.9093 333.118 -16.3364 328.682C-14.9355 328.06 -13.6123 327.359 -12.2114 326.581C-10.8105 325.803 -9.40962 325.103 -8.16437 324.325C-6.063 323.08 -3.88379 321.912 -1.78242 320.512C-0.77066 319.811 0.318939 319.189 1.33072 318.489L4.36604 316.388C9.73621 312.497 15.0285 308.295 20.0874 304.093C24.7571 300.124 29.2711 296.078 33.863 291.954C37.1318 288.997 40.4785 286.04 43.7473 283.083C45.8486 281.138 47.95 279.426 50.1292 277.714C51.7636 276.391 53.6315 274.757 55.4215 273.201C56.5111 272.345 57.6007 271.411 58.6903 270.477C59.2351 270.01 59.7799 269.621 60.3247 269.232C60.8695 268.843 61.4143 268.532 61.9591 268.22C63.2044 267.209 64.761 266.042 66.0062 265.108C67.0958 264.252 68.2632 263.552 69.3528 262.773C70.4424 262.073 71.6099 261.373 72.6995 260.595C73.9447 259.816 73.7891 260.05 74.4117 259.739C74.9565 259.427 75.7348 259.272 76.3574 258.571C76.6687 258.26 77.447 257.715 78.3031 257.249C78.7701 257.015 79.237 256.704 79.7818 256.47C80.3266 256.237 80.7936 256.004 81.2606 255.848C82.0389 255.537 82.6615 255.225 83.2063 254.914C83.6733 254.603 84.1403 254.292 84.6851 253.98C85.2299 253.669 85.8525 253.514 86.4751 253.28C86.9421 253.124 87.6425 252.891 87.9538 252.658C89.9774 251.257 93.1683 250.557 95.6589 249.545C96.2037 249.312 96.8263 249.234 96.8263 249.312C96.9819 249.467 97.8381 249.234 98.6942 248.845C99.5503 248.456 100.484 248.144 101.496 247.833C102.508 247.522 103.597 247.366 104.531 247.133C107.722 246.432 110.913 245.654 114.182 244.954C117.451 244.331 120.642 243.709 123.911 243.086C126.09 242.775 128.347 242.464 130.526 242.153L133.795 241.686L137.141 241.297C139.321 241.063 141.578 240.83 143.757 240.596C146.014 240.441 148.193 240.285 150.45 240.129C155.431 239.896 160.646 239.663 165.704 239.74C167.572 239.74 169.44 239.818 171.308 239.896C172.242 239.974 173.098 240.052 174.032 240.052C174.966 240.129 175.822 240.285 176.756 240.363C177.69 240.518 178.702 240.596 179.714 240.674C180.725 240.752 181.737 240.908 182.827 241.063C183.839 241.219 184.928 241.297 185.94 241.452C186.952 241.608 188.041 241.764 189.053 241.919C190.532 242.153 191.933 242.464 193.022 242.775C194.112 243.086 194.735 243.475 194.268 243.475C193.801 243.553 192.711 243.475 190.921 243.164C187.73 242.619 185.006 242.308 181.971 242.075C180.648 241.997 179.091 241.841 177.457 241.686C175.9 241.53 174.266 241.374 172.709 241.297C169.985 241.141 167.339 240.985 164.615 240.985C164.226 240.985 163.759 240.985 163.37 240.985C162.669 240.985 161.969 241.063 162.047 241.141C162.124 241.219 162.98 241.219 163.447 241.219C170.219 241.141 176.834 241.764 183.449 242.619C187.263 243.164 190.999 243.865 194.657 244.72C195.357 244.876 196.058 245.032 196.68 245.265C199.171 246.199 200.416 246.744 199.871 246.899ZM-160.086 295.689C-160.163 295.533 -160.241 295.378 -160.397 295.144C-160.319 295.222 -160.319 295.378 -160.241 295.533C-160.086 295.767 -160.008 295.845 -160.086 295.689ZM-160.241 298.724C-160.241 298.801 -160.241 298.801 -160.241 298.724C-160.241 298.801 -160.241 298.724 -160.241 298.724ZM-149.501 313.275C-149.579 313.197 -149.579 313.275 -149.501 313.275V313.275Z" fill="#BAE7FF" />
  <path d="M185.94 305.493C185.707 305.493 184.928 304.715 184.384 304.015C183.683 303.081 182.905 302.147 182.204 301.214C182.049 300.98 181.737 300.513 181.737 300.825C181.893 301.447 180.959 300.436 180.648 300.358C180.103 300.202 179.869 299.58 179.402 299.113C179.091 298.724 178.702 298.257 178.235 297.945C177.924 297.712 177.612 297.401 177.457 297.167C176.678 296.078 175.745 295.533 174.888 294.989C174.266 294.522 173.799 294.133 173.176 293.588C170.841 291.409 168.273 289.464 165.705 287.518C164.771 286.818 163.837 286.196 162.903 285.573C161.969 284.95 160.957 284.25 160.101 283.783C159.478 283.394 159.089 283.083 158.467 282.849C158.311 282.772 158.077 282.694 157.922 282.694L157.144 282.616C156.91 282.616 156.599 282.616 156.365 282.616C156.21 282.616 156.132 282.616 155.976 282.616C155.82 282.616 155.743 282.616 155.587 282.616C155.353 282.616 155.042 282.616 154.809 282.538C154.575 282.616 154.342 282.694 154.03 282.772C153.797 282.772 153.486 282.927 153.252 283.005L152.863 283.161C152.707 283.239 152.629 283.316 152.474 283.394C152.24 283.55 152.007 283.705 151.773 283.861C151.618 284.017 151.462 284.172 151.306 284.328C149.594 285.573 148.271 287.441 147.182 289.386C146.948 289.775 146.715 290.164 146.481 290.32C145.547 292.032 144.847 293.977 143.913 295.767C143.29 296.934 142.823 298.257 142.356 299.502C141.889 300.669 141.5 301.836 141.033 303.003C140.722 303.704 140.488 304.404 140.255 305.182C139.71 306.739 139.165 308.45 138.543 309.695C137.92 310.94 137.375 311.874 136.986 313.197C136.986 313.275 136.752 313.82 136.519 313.975C136.286 314.131 136.13 314.598 135.974 314.909C135.196 316.777 133.717 318.8 131.849 319.967C130.604 320.823 129.125 321.056 127.802 320.901C126.479 320.745 125.234 320.356 124.066 319.889C122.432 319.267 120.953 318.488 119.552 317.477C117.451 315.998 115.427 314.598 113.326 313.197C111.692 312.108 110.057 310.863 108.345 309.773C107.878 309.462 107.489 309.229 107.178 308.917L107.1 308.84C106.711 308.684 106.322 308.528 105.932 308.295C104.454 307.361 102.819 306.661 101.185 306.116C99.6283 305.649 98.0717 305.493 96.5151 305.805C95.659 305.96 95.1142 306.349 94.336 306.739C91.2228 308.373 88.6545 311.33 86.3196 314.287C85.697 315.065 84.9187 315.998 84.1404 316.621C83.9848 316.699 83.9069 316.777 83.8291 316.932C83.2843 318.099 82.1169 319.267 81.1051 320.356C79.3151 322.379 77.3693 324.402 75.1123 326.192C74.0227 327.126 72.8553 327.904 71.61 328.682C70.3648 329.46 68.8861 330.083 67.4073 330.472C65.7729 330.861 64.0607 331.017 62.4263 330.861C60.7919 330.705 59.1575 330.316 57.6009 329.772C56.7448 329.46 55.8887 328.993 55.1104 328.527C53.7095 327.671 53.7095 327.671 54.5656 327.671C52.1529 326.426 50.0516 324.714 48.495 322.846C48.2615 322.535 48.1059 322.379 48.1837 322.224C48.1059 322.068 48.028 321.99 47.9502 321.912C47.5611 321.056 47.6389 321.056 48.8842 322.068C49.1176 322.224 49.5068 322.613 49.5068 322.535C49.5068 322.379 49.1176 322.146 48.8842 321.99C48.3394 321.523 48.028 321.056 47.7167 320.589C46.9384 319.734 46.0823 318.8 45.4597 317.866C45.1484 317.399 44.7592 316.854 44.9927 316.854C45.2262 316.777 45.5375 316.932 46.1602 317.633C46.705 318.255 47.4054 318.878 47.8723 319.578C47.9502 319.656 48.1058 319.811 48.2615 319.967C48.9619 320.512 49.6624 321.29 50.4407 321.757C50.8299 321.99 51.0634 322.146 51.219 322.068C51.4525 321.835 51.9973 322.146 53.0091 322.924C54.4878 324.013 56.0444 324.947 57.6788 325.725C59.3132 326.426 61.0254 326.97 62.6598 327.126C63.9828 327.282 65.3059 327.204 66.5512 326.97C67.3295 326.815 68.03 326.426 68.7304 326.114C69.1974 325.881 69.6644 325.57 70.1313 325.336C70.5983 325.025 71.0653 324.714 71.5322 324.402C72.4662 323.78 73.4001 323.002 74.2562 322.224C75.9684 320.667 77.6807 318.955 79.2373 317.166C82.1169 313.897 84.8409 310.24 88.2653 307.05C89.2771 306.116 90.3667 305.182 91.612 304.404C92.8572 303.626 94.2581 302.926 95.7369 302.614C97.1378 302.303 98.6944 302.303 100.095 302.537C100.796 302.614 101.496 302.848 102.197 303.081C102.819 303.315 103.442 303.548 104.065 303.782C106.477 304.793 108.656 306.194 110.758 307.594C111.925 308.373 113.248 309.151 114.416 310.085C116.284 311.485 118.074 312.886 119.942 314.053C121.187 314.831 122.51 315.609 123.755 316.31C125 316.932 126.323 317.477 127.491 317.633C128.036 317.71 128.503 317.71 129.047 317.633C129.514 317.477 129.981 317.399 130.371 317.088C131.227 316.543 131.927 315.687 132.55 314.598C133.484 313.041 134.262 311.174 134.962 309.384C135.429 308.217 135.896 307.05 136.441 305.883C136.83 305.027 137.142 303.937 137.453 302.926C137.842 301.758 138.153 300.358 138.854 299.424C139.01 298.724 139.399 297.868 139.632 297.167C140.021 295.922 140.644 294.911 141.033 293.744C141.267 293.121 141.422 293.277 141.578 293.043C141.734 292.81 142.045 292.576 141.967 292.032C141.889 291.565 142.434 290.398 143.134 289.619C143.368 289.308 143.524 288.997 143.601 288.763C143.679 288.219 143.913 287.752 144.38 287.207C144.535 287.051 144.769 286.74 144.769 286.585C144.924 286.04 145.236 285.417 145.703 284.873C145.936 284.561 146.17 284.328 146.403 284.017C146.637 283.783 146.87 283.472 147.104 283.239C147.259 283.005 147.493 282.849 147.571 282.849C147.726 282.927 148.038 282.616 148.349 282.227C148.582 281.838 148.972 281.449 149.439 281.06C149.828 280.671 150.372 280.437 150.839 280.126C152.396 279.27 154.342 278.803 156.132 278.881C158 278.959 159.634 279.581 161.113 280.359L162.592 281.215L163.837 282.071C164.693 282.616 165.549 283.161 166.405 283.783C168.117 284.95 169.752 286.196 171.386 287.441C173.176 288.919 175.044 290.398 176.834 291.954C178.157 293.121 179.403 294.288 180.414 295.611C181.582 297.012 182.983 298.412 184.228 299.891C184.695 300.436 185.084 300.902 185.317 301.369C185.551 301.836 185.629 302.225 185.395 302.147C185.084 302.07 184.695 301.836 184.15 301.214C183.216 300.124 182.204 299.191 181.193 298.335C180.726 297.945 180.259 297.401 179.714 296.934C179.169 296.389 178.702 295.845 178.157 295.378C177.301 294.522 176.367 293.666 175.433 292.81C175.278 292.654 175.122 292.498 174.966 292.421C174.733 292.265 174.421 292.109 174.421 292.187C174.344 292.265 174.733 292.498 174.888 292.654C177.223 294.677 179.325 296.934 181.348 299.191C182.516 300.513 183.605 301.836 184.617 303.237C184.773 303.47 185.006 303.782 185.162 304.015C186.096 304.949 186.329 305.493 185.94 305.493ZM48.8842 320.2C48.8842 320.123 48.8063 320.045 48.7285 320.045C48.7285 320.123 48.8063 320.123 48.8063 320.2C48.8841 320.278 48.962 320.278 48.8842 320.2ZM48.5728 322.224C48.5728 322.301 48.5728 322.224 48.5728 322.224V322.224ZM55.0326 327.748C54.9548 327.748 55.0326 327.748 55.0326 327.748V327.748Z" fill="#BAE7FF" />
  <path d="M90.7559 233.982C90.6781 234.138 90.1333 234.371 89.5885 234.371C88.9659 234.293 88.3432 234.371 87.7206 234.216C87.5649 234.216 87.3315 234.138 87.4093 234.293C87.7206 234.605 87.0202 234.605 86.8645 234.76C86.631 234.994 86.3197 234.838 85.9305 234.76C85.6971 234.683 85.3858 234.605 85.0744 234.683C84.841 234.76 84.6075 234.683 84.5296 234.605C83.8292 234.293 83.2844 234.527 82.7396 234.527C82.3504 234.527 82.0391 234.527 81.5722 234.449C79.9378 233.982 78.2255 233.593 76.6689 232.971C75.5793 232.504 74.4119 232.115 73.3223 231.492C72.9332 231.259 72.7775 231.025 72.3883 230.792L72.0771 230.636C71.4544 230.403 70.8318 230.169 70.4426 229.547C69.82 229.236 69.5087 228.535 68.8861 228.146C68.8082 228.068 68.6526 227.99 68.5748 227.913C68.1078 227.446 67.7965 226.901 67.3295 226.434C66.9403 225.967 66.5512 225.423 66.1621 224.956C66.0064 224.722 65.9286 224.489 65.9286 224.333C65.7729 224.1 65.6173 223.866 65.4616 223.633L65.0725 222.933C64.839 222.466 64.5277 221.999 64.4499 221.454C64.372 221.065 64.2942 220.754 64.1385 220.443C64.0607 220.131 63.905 219.742 63.8272 219.431C63.5937 218.808 63.5159 218.186 63.4381 217.563C63.3602 217.174 63.2824 216.785 63.2046 216.396C63.0489 215.54 62.8154 214.606 62.9711 213.906C63.1268 213.206 63.1268 212.661 62.9711 211.961C62.9711 211.883 62.8933 211.65 63.0489 211.572C63.1267 211.416 63.2046 211.26 63.1268 211.027C62.8933 210.093 63.1268 209.004 62.8933 208.07C62.6598 206.903 62.8154 205.813 62.582 204.724C62.4263 203.946 62.2706 203.246 62.1928 202.467C62.0372 201.3 61.648 200.211 61.0254 199.355C60.5584 198.732 60.0914 198.032 59.4688 197.721C59.3132 197.643 59.1575 197.565 59.0019 197.41C58.8462 197.41 58.6905 197.41 58.5349 197.41C57.8344 197.254 57.0561 197.332 56.2 197.41C55.3439 197.565 54.5656 197.721 53.6317 197.799C53.1647 197.876 52.8534 198.032 52.3864 198.188C50.5185 198.577 48.5728 198.888 46.5493 199.277C46.0045 199.355 45.4597 199.355 44.837 199.199C44.7592 199.199 44.6814 199.121 44.6036 199.121C44.4479 199.199 44.2144 199.277 44.0588 199.277C43.8253 199.277 43.6696 199.277 43.4361 199.199C42.9692 199.121 42.58 198.966 42.113 198.888C40.4786 198.421 39.0777 197.254 38.1437 195.931C37.2098 194.608 36.665 193.13 36.3537 191.651C35.9646 190.095 35.8089 188.461 35.7311 186.905C35.7311 186.438 35.8089 186.049 35.8867 185.582C36.0424 184.804 36.0424 184.804 36.3537 185.193C36.3537 183.87 36.5094 182.547 37.0542 181.458C37.132 181.302 37.2098 181.146 37.2877 181.146C37.3655 181.069 37.3655 180.991 37.4433 180.991C37.9103 180.602 37.9103 180.679 37.9103 181.458C37.9103 181.613 37.8324 181.847 37.9103 181.847C37.9881 181.847 37.9103 181.613 37.9881 181.458C38.066 181.069 38.2216 180.913 38.2994 180.602C38.5329 180.057 38.6107 179.434 38.8442 178.89C38.9221 178.656 39.0777 178.345 39.2334 178.423C39.389 178.501 39.5447 178.656 39.4668 179.201C39.389 179.59 39.389 180.057 39.1556 180.446C39.1556 180.524 39.1556 180.602 39.1556 180.757C39.2334 181.224 38.9999 181.691 39.0777 182.158C39.1555 182.391 39.1555 182.547 39.3112 182.547C39.6225 182.625 39.7003 182.936 39.6225 183.559C39.4669 185.348 39.389 187.216 39.5447 188.928C39.6225 189.628 39.6225 190.251 39.7003 190.951C39.7003 191.34 39.9338 191.651 40.0895 192.04C40.7899 193.986 41.8017 195.464 43.5918 195.853C44.37 196.009 45.304 196.009 46.3936 195.931C47.4054 195.853 48.495 195.698 49.5068 195.542C50.752 195.309 51.9973 194.997 53.2425 194.686C54.4878 194.453 55.733 194.219 57.134 194.141C57.8344 194.141 58.6127 194.141 59.391 194.297C60.1693 194.453 61.0254 194.764 61.7259 195.309C62.5041 195.853 63.2824 196.554 63.7494 197.332C64.4498 198.577 64.839 199.822 65.1503 200.989C65.6173 202.623 65.8507 204.179 65.9286 205.736C66.0064 207.214 66.1621 208.615 66.1621 210.015C66.1621 210.56 66.1621 211.027 66.1621 211.572L66.2399 212.35L66.3177 213.05C66.3955 213.673 66.3177 214.217 66.3177 214.84C66.3177 215.307 66.4734 215.774 66.5512 216.241C66.7069 216.785 67.0182 217.33 66.7847 217.952C67.0182 218.264 67.0182 218.653 67.1739 218.964C67.4074 219.509 67.4851 219.976 67.7186 220.52C67.8743 220.754 67.6408 220.832 67.6408 220.987C67.6408 221.143 67.563 221.376 67.8743 221.376C68.1856 221.376 68.4191 221.921 68.4191 222.388C68.4191 222.543 68.4969 222.699 68.6526 222.777C68.8861 222.855 69.0418 223.01 69.1196 223.399C69.1196 223.477 69.1974 223.633 69.2752 223.633C69.8978 223.789 69.9757 224.489 70.4426 224.8C70.5205 224.878 70.5983 225.034 70.5205 225.034C70.3648 225.189 70.5205 225.345 70.6762 225.345C71.0653 225.423 71.3766 225.812 71.6879 226.123C72.6219 227.057 73.7893 227.757 74.9567 228.457C76.5133 229.469 78.3033 230.014 80.1712 230.558C81.183 230.87 82.2726 231.025 83.3622 231.103C84.1405 231.181 84.9188 231.337 85.6971 231.57C86.5532 231.803 87.4871 231.803 88.3432 231.803C88.6545 231.803 88.9659 231.803 89.1994 231.959C89.4328 232.037 89.5885 232.192 89.5106 232.426C89.4328 232.582 89.1994 232.815 88.8102 232.815C88.1098 232.815 87.4871 232.893 86.7866 233.048C86.164 233.126 85.3858 232.971 84.6853 232.893C84.0627 232.815 83.44 232.737 82.8952 232.582C82.8174 232.582 82.7396 232.504 82.5839 232.504C82.4283 232.504 82.2726 232.504 82.2726 232.659C82.2726 232.737 82.4283 232.737 82.5839 232.737C84.1405 232.971 85.6192 233.282 87.098 233.437C87.9541 233.515 88.8102 233.593 89.7442 233.671C89.8998 233.671 90.0555 233.671 90.2111 233.749C90.4446 233.593 90.8338 233.671 90.7559 233.982ZM38.922 180.602C38.922 180.602 38.922 180.524 38.922 180.446C38.922 180.524 38.8442 180.524 38.922 180.602C38.8442 180.679 38.8442 180.679 38.922 180.602ZM36.1202 185.037C36.1202 184.959 36.1202 185.037 36.1202 185.037V185.037Z" fill="#BAE7FF" />
  <path d="M73.7893 139.282C73.9449 139.282 74.1784 139.515 74.1006 139.671C74.1006 139.904 74.1784 140.216 74.1784 140.449C74.1784 140.527 74.1784 140.683 74.2562 140.605C74.4897 140.449 74.5675 140.683 74.7232 140.76C74.9567 140.838 74.801 140.994 74.8788 141.15C74.8788 141.305 74.8789 141.383 74.9567 141.539C75.0345 141.616 75.0345 141.694 75.0345 141.772C74.8788 142.161 75.1902 142.317 75.3458 142.472C75.4237 142.628 75.5014 142.784 75.5014 142.939C75.5793 143.64 75.7349 144.34 75.8906 145.118C75.9684 145.585 76.1241 146.13 76.2797 146.597C76.2797 146.752 76.2019 146.908 76.2797 147.063V147.219C76.4354 147.452 76.6689 147.686 76.5132 147.997C76.7467 148.231 76.5132 148.62 76.7467 148.853C76.8245 148.853 76.8245 148.931 76.8245 149.009C76.9023 149.553 77.058 150.02 77.2137 150.565C77.2137 150.643 77.2915 150.798 77.2137 150.876C77.2915 151.343 77.6028 151.732 77.6028 152.199C77.6028 152.51 77.6806 152.822 77.8363 153.133C77.9141 153.366 77.992 153.678 78.0698 153.911C78.0698 154.067 78.1476 154.222 78.2254 154.378C78.3811 154.689 78.5367 155.078 78.5367 155.39C78.5367 155.701 78.4589 156.012 78.7702 156.245C78.7702 156.245 78.848 156.401 78.7702 156.479C78.6924 156.557 78.6924 156.635 78.7702 156.712C79.0815 157.101 79.0037 157.646 79.2372 157.957C79.5485 158.424 79.4707 158.969 79.7041 159.436C79.8598 159.747 79.9376 160.136 80.0155 160.447C80.0933 160.992 80.2489 161.537 80.5602 162.082C80.7937 162.471 80.7937 162.938 80.9494 163.404C80.9494 163.482 81.0272 163.638 80.9494 163.793C81.0272 163.871 81.105 163.949 81.105 164.027C81.2607 164.805 81.7277 165.583 81.8055 166.361C81.8055 166.595 81.9611 166.673 82.039 166.906C82.2724 167.762 82.5059 168.618 82.895 169.396C82.9729 169.63 83.0507 169.863 82.9729 170.096C82.9729 170.174 82.8951 170.174 82.9729 170.174C83.362 170.33 83.2842 170.719 83.362 171.03C83.7512 172.197 84.0625 173.365 84.5294 174.454C84.7629 175.077 84.9964 175.699 85.2299 176.322C85.3077 176.477 85.3077 176.711 85.3077 176.866C85.3077 177.255 85.3077 177.255 84.9964 177.178C85.2299 177.722 85.3855 178.267 85.2299 178.889C85.2299 178.967 85.1521 179.045 85.0742 179.045C85.0742 179.045 85.0742 179.123 84.9964 179.123C84.7629 179.356 84.6851 179.356 84.5294 179.045C84.5294 178.967 84.4516 178.889 84.3738 178.889C84.296 178.967 84.3738 178.967 84.4516 179.045C84.5294 179.201 84.4516 179.356 84.4516 179.434C84.4516 179.668 84.5294 179.979 84.4516 180.212C84.4516 180.368 84.4516 180.524 84.296 180.524C84.1403 180.524 83.9847 180.524 83.9068 180.29C83.829 180.134 83.7512 179.979 83.829 179.745C83.829 179.745 83.829 179.668 83.7512 179.668C83.5955 179.512 83.5955 179.279 83.4398 179.045C83.362 178.967 83.362 178.889 83.2064 178.967C82.9729 179.045 82.8173 178.889 82.7394 178.656L82.039 176.166C81.9611 175.855 81.8833 175.543 81.8833 175.154C81.8833 174.921 81.7276 174.765 81.6498 174.61C81.2607 173.598 81.1051 172.509 80.7937 171.419L79.9376 168.54C79.782 167.995 79.5485 167.451 79.3928 166.906C79.0815 165.817 78.6924 164.805 78.5367 163.716C78.4589 163.404 78.3032 163.093 78.2254 162.782C78.1476 162.315 77.9919 161.77 77.8363 161.303C77.6028 160.681 77.3693 159.981 77.2137 159.358C77.058 158.736 76.8245 158.191 76.6689 157.568C76.591 157.101 76.3576 156.712 76.2019 156.245C76.1241 155.934 76.0462 155.701 76.0462 155.39C76.0462 155.156 75.8906 154.923 75.8128 154.689C75.7349 154.456 75.4236 154.145 75.6571 153.833C75.5015 153.678 75.5015 153.522 75.4236 153.366C75.268 153.133 75.3458 152.822 75.1902 152.588C75.1123 152.433 75.268 152.433 75.3458 152.355C75.3458 152.277 75.5015 152.121 75.268 152.121C75.0345 152.121 74.9567 151.81 75.1123 151.577C75.1901 151.499 75.1902 151.421 75.0345 151.343C74.8788 151.265 74.801 151.188 74.8788 151.032C74.8788 150.954 74.8788 150.876 74.8788 150.876C74.4897 150.721 74.7232 150.332 74.5676 150.098C74.5676 150.02 74.5675 149.943 74.6454 149.943C74.801 149.865 74.801 149.787 74.6454 149.709C74.4119 149.553 74.4119 149.32 74.334 149.164C74.2562 148.464 73.9449 147.842 73.8671 147.219C73.7114 146.285 73.4001 145.429 73.2445 144.573C73.1667 144.106 72.9331 143.562 72.7775 143.095C72.6218 142.706 72.544 142.395 72.6219 141.928C72.6997 141.461 72.544 141.072 72.3883 140.683C72.3883 140.527 72.3105 140.371 72.3883 140.216C72.4662 140.06 72.544 139.982 72.6997 139.982C72.8553 139.982 73.011 140.06 73.0888 140.216C73.1666 140.527 73.3223 140.76 73.5558 141.072C73.7114 141.305 73.7115 141.694 73.7893 142.005L73.9449 142.784C73.9449 142.861 73.9449 142.861 73.9449 142.939C74.0227 143.017 74.0227 143.095 74.1006 143.017C74.1784 143.017 74.1006 142.939 74.1006 142.861C73.8671 142.161 73.8671 141.539 73.7893 140.838C73.7115 140.449 73.7114 140.06 73.6336 139.671C73.6336 139.593 73.6336 139.515 73.6336 139.438C73.478 139.438 73.5558 139.282 73.7893 139.282ZM83.5177 179.745C83.4399 179.745 83.5177 179.745 83.5177 179.745V179.745ZM84.7629 177.178C84.8407 177.178 84.8407 177.178 84.7629 177.178V177.178Z" fill="#BAE7FF" />
  <path d="M113.871 113.759C114.026 113.837 114.182 114.148 114.182 114.382C114.104 114.771 114.104 115.082 114.026 115.471C114.026 115.549 113.949 115.704 114.104 115.627C114.415 115.471 114.415 115.86 114.571 115.938C114.882 116.094 114.649 116.249 114.571 116.483C114.571 116.638 114.493 116.794 114.571 117.027C114.649 117.105 114.649 117.261 114.571 117.339C114.338 117.728 114.571 118.039 114.727 118.35C114.805 118.584 114.882 118.739 114.805 119.05C114.649 119.984 114.727 120.996 114.727 122.007C114.727 122.708 114.805 123.408 114.727 124.031C114.727 124.264 114.571 124.42 114.571 124.653V124.887C114.727 125.276 114.882 125.587 114.649 125.976C114.882 126.365 114.493 126.754 114.727 127.143C114.727 127.221 114.805 127.299 114.805 127.377C114.727 128.077 114.805 128.777 114.882 129.478C114.882 129.633 114.882 129.789 114.805 129.867C114.805 130.489 115.116 131.112 114.96 131.734C114.882 132.123 114.96 132.59 114.96 132.979C115.038 133.368 115.038 133.757 115.038 134.069C115.038 134.302 115.038 134.535 115.116 134.769C115.194 135.236 115.349 135.781 115.272 136.17C115.194 136.636 115.116 136.948 115.349 137.259C115.349 137.259 115.427 137.415 115.349 137.492C115.272 137.57 115.272 137.726 115.272 137.804C115.505 138.348 115.349 139.049 115.505 139.593C115.739 140.294 115.583 140.994 115.739 141.694C115.816 142.161 115.894 142.628 115.894 143.173C115.894 143.951 115.972 144.651 116.206 145.429C116.361 145.974 116.361 146.675 116.361 147.219C116.361 147.375 116.361 147.53 116.283 147.686C116.361 147.842 116.439 147.92 116.439 148.075C116.439 149.165 116.906 150.176 116.828 151.343C116.828 151.655 116.984 151.81 117.062 152.122C117.217 153.289 117.295 154.456 117.684 155.545C117.762 155.857 117.84 156.168 117.684 156.479C117.684 156.557 117.606 156.557 117.684 156.635C118.073 156.946 117.996 157.413 118.073 157.88C118.385 159.436 118.618 161.07 119.085 162.549C119.319 163.405 119.552 164.261 119.786 165.039C119.863 165.272 119.863 165.506 119.863 165.739C119.863 166.206 119.863 166.206 119.474 166.05C119.708 166.751 119.863 167.451 119.708 168.229C119.708 168.385 119.63 168.463 119.552 168.463C119.552 168.54 119.552 168.54 119.474 168.618C119.163 168.929 119.163 169.007 118.852 168.54C118.774 168.463 118.774 168.307 118.696 168.385C118.618 168.463 118.774 168.54 118.774 168.618C118.852 168.852 118.774 169.007 118.774 169.163C118.774 169.552 118.93 169.863 119.007 170.252C119.007 170.408 119.085 170.641 118.93 170.719C118.774 170.797 118.54 170.797 118.307 170.486C118.151 170.174 117.918 169.941 117.996 169.63C117.996 169.63 117.918 169.552 117.918 169.474C117.684 169.241 117.684 168.852 117.451 168.618C117.373 168.54 117.295 168.385 117.139 168.463C116.828 168.54 116.673 168.385 116.517 167.996C116.206 166.828 115.894 165.661 115.661 164.494C115.583 164.027 115.505 163.56 115.505 163.093C115.505 162.86 115.349 162.549 115.272 162.315C114.96 160.837 114.805 159.358 114.571 157.958C114.338 156.635 114.182 155.312 113.949 153.989C113.871 153.211 113.637 152.433 113.559 151.655C113.404 150.176 113.092 148.698 113.092 147.219C113.092 146.83 112.937 146.363 112.859 145.896C112.859 145.196 112.781 144.496 112.703 143.795C112.548 142.862 112.47 141.928 112.392 140.994C112.314 140.138 112.158 139.282 112.158 138.426C112.158 137.804 112.003 137.181 111.925 136.636C111.847 136.247 111.847 135.858 111.925 135.469C111.925 135.158 111.847 134.847 111.769 134.535C111.691 134.146 111.458 133.757 111.769 133.368C111.614 133.135 111.691 132.901 111.614 132.668C111.458 132.279 111.614 131.968 111.536 131.579C111.458 131.345 111.691 131.423 111.769 131.267C111.847 131.189 112.003 131.034 111.691 130.956C111.38 130.878 111.38 130.489 111.614 130.178C111.691 130.022 111.691 129.944 111.614 129.867C111.458 129.711 111.38 129.555 111.536 129.4C111.614 129.322 111.614 129.244 111.536 129.166C111.147 128.855 111.458 128.388 111.302 128.077C111.302 127.999 111.302 127.921 111.38 127.921C111.614 127.921 111.536 127.766 111.458 127.688C111.225 127.454 111.225 127.143 111.225 126.832C111.302 125.898 111.147 125.042 111.225 124.108C111.302 122.863 111.147 121.618 111.225 120.451C111.225 119.751 111.147 119.05 111.069 118.35C111.069 117.805 111.069 117.339 111.225 116.794C111.38 116.249 111.302 115.627 111.302 115.082C111.302 114.848 111.302 114.693 111.458 114.537C111.614 114.382 111.769 114.304 111.925 114.382C112.081 114.459 112.236 114.615 112.236 114.848C112.236 115.315 112.392 115.704 112.47 116.094C112.625 116.483 112.47 116.949 112.47 117.339V118.428C112.47 118.506 112.47 118.584 112.47 118.584C112.47 118.661 112.548 118.739 112.625 118.739C112.703 118.739 112.703 118.584 112.703 118.506C112.625 117.572 112.781 116.638 112.859 115.704C112.937 115.16 113.015 114.615 113.015 114.148C113.015 114.07 113.015 113.915 113.092 113.837C113.404 113.837 113.559 113.681 113.871 113.759ZM117.84 169.474V169.552C117.84 169.474 117.84 169.474 117.84 169.474C117.84 169.396 117.84 169.396 117.84 169.474ZM119.241 166.128C119.319 166.128 119.241 166.128 119.241 166.128V166.128Z" fill="#BAE7FF" />
  <path d="M166.872 117.105C167.028 117.261 167.105 117.494 166.95 117.572C166.794 117.805 166.716 118.039 166.483 118.272C166.405 118.35 166.327 118.428 166.483 118.428C166.794 118.35 166.716 118.661 166.872 118.817C167.105 118.972 166.872 119.05 166.794 119.206C166.716 119.362 166.638 119.439 166.716 119.595C166.794 119.673 166.716 119.828 166.638 119.906C166.327 120.217 166.561 120.529 166.638 120.762C166.716 120.996 166.716 121.151 166.638 121.307C166.327 122.085 166.249 122.941 166.094 123.797C166.016 124.419 165.938 125.042 165.86 125.587C165.782 125.82 165.627 125.898 165.627 126.131V126.287C165.704 126.598 165.86 126.987 165.549 127.299C165.704 127.688 165.315 127.999 165.471 128.31C165.471 128.388 165.471 128.466 165.471 128.544C165.315 129.166 165.315 129.789 165.315 130.411C165.315 130.567 165.315 130.645 165.16 130.722C165.082 131.267 165.315 131.812 165.082 132.357C164.926 132.746 165.004 133.057 165.004 133.446C165.004 133.757 165.004 134.146 164.926 134.457C164.926 134.691 164.926 134.847 164.926 135.08C164.926 135.547 165.082 136.014 164.926 136.403C164.771 136.792 164.693 137.025 164.848 137.414C164.848 137.414 164.848 137.57 164.771 137.648C164.693 137.726 164.615 137.803 164.693 137.959C164.848 138.504 164.615 139.049 164.771 139.593C164.926 140.216 164.693 140.838 164.771 141.461C164.848 141.928 164.848 142.317 164.771 142.784C164.693 143.484 164.693 144.106 164.848 144.807C164.926 145.351 164.848 145.896 164.848 146.441C164.848 146.597 164.848 146.752 164.771 146.83C164.771 146.908 164.848 147.063 164.848 147.141C164.771 148.153 165.082 149.087 164.848 150.098C164.771 150.332 164.926 150.565 164.926 150.798C164.926 151.81 164.926 152.899 165.082 153.911C165.16 154.222 165.082 154.534 165.004 154.767C165.004 154.845 164.926 154.845 165.004 154.923C165.315 155.234 165.16 155.701 165.238 156.09C165.315 157.568 165.393 158.969 165.549 160.447C165.627 161.226 165.782 162.004 165.86 162.782C165.86 163.015 165.86 163.249 165.782 163.482C165.704 163.871 165.704 163.871 165.315 163.716C165.471 164.416 165.471 165.116 165.16 165.739C165.082 165.817 165.082 165.894 164.926 165.894L164.848 165.972C164.459 166.206 164.459 166.206 164.304 165.817C164.304 165.739 164.304 165.583 164.226 165.583C164.148 165.583 164.226 165.739 164.226 165.817C164.226 165.972 164.148 166.128 164.07 166.284C163.992 166.595 164.07 166.906 163.914 167.217C163.837 167.373 163.837 167.529 163.681 167.529C163.447 167.529 163.292 167.451 163.214 167.217C163.214 166.984 163.058 166.75 163.214 166.517C163.214 166.517 163.214 166.439 163.214 166.361C163.058 166.128 163.214 165.817 162.98 165.583C162.903 165.505 162.903 165.35 162.747 165.35C162.436 165.35 162.28 165.194 162.28 164.805C162.202 163.716 162.124 162.704 162.124 161.692C162.124 161.303 162.124 160.914 162.202 160.447C162.28 160.214 162.124 159.981 162.047 159.747C161.969 158.424 162.047 157.101 161.969 155.779C161.969 154.611 161.891 153.366 161.891 152.121C161.891 151.421 161.813 150.721 161.813 150.02C161.813 148.697 161.735 147.375 161.813 146.052C161.813 145.663 161.735 145.274 161.735 144.885C161.813 144.262 161.813 143.64 161.813 143.017C161.735 142.161 161.735 141.305 161.813 140.527C161.813 139.749 161.813 138.971 161.813 138.27C161.813 137.726 161.813 137.181 161.735 136.636C161.735 136.247 161.735 135.936 161.891 135.625C161.969 135.391 161.891 135.08 161.891 134.769C161.891 134.457 161.657 134.068 162.047 133.757C161.969 133.524 162.047 133.29 161.969 133.135C161.891 132.823 162.047 132.512 161.969 132.123C161.969 131.967 162.124 131.967 162.202 131.89C162.28 131.812 162.436 131.734 162.202 131.578C161.969 131.501 161.969 131.111 162.202 130.878C162.28 130.8 162.28 130.722 162.202 130.645C162.047 130.489 162.047 130.333 162.202 130.178C162.28 130.1 162.28 130.022 162.202 130.022C161.813 129.711 162.202 129.322 162.124 129.01C162.124 128.933 162.202 128.855 162.202 128.855C162.436 128.855 162.436 128.777 162.28 128.621C162.047 128.388 162.124 128.077 162.202 127.843C162.358 127.065 162.358 126.209 162.514 125.431C162.747 124.342 162.825 123.252 162.98 122.085C163.136 121.462 163.136 120.84 163.214 120.14C163.292 119.673 163.37 119.206 163.681 118.739C163.992 118.272 164.07 117.727 164.226 117.183C164.304 116.949 164.381 116.794 164.537 116.716C164.693 116.638 164.926 116.56 165.004 116.716C165.16 116.871 165.237 117.027 165.16 117.261C165.004 117.65 165.082 118.039 165.082 118.428C165.082 118.817 164.926 119.206 164.848 119.595L164.615 120.607C164.615 120.684 164.615 120.684 164.615 120.762C164.615 120.84 164.693 120.918 164.771 120.918C164.848 120.918 164.848 120.84 164.848 120.762C164.926 119.906 165.237 119.128 165.549 118.428C165.627 118.194 165.704 117.961 165.86 117.805L166.171 117.183C166.249 117.105 166.249 117.027 166.327 117.027C166.483 116.949 166.716 116.949 166.872 117.105ZM163.058 166.439C163.058 166.517 163.058 166.517 163.058 166.439C163.136 166.517 163.136 166.517 163.058 166.439C163.136 166.439 163.136 166.439 163.058 166.439Z" fill="#BAE7FF" />
  <path d="M89.744 119.44C89.5105 119.44 89.277 118.973 89.1992 118.662C89.1213 118.195 88.81 117.728 88.5766 117.261C88.5766 117.183 88.4209 116.95 88.343 117.105C88.2652 117.494 87.8761 117.027 87.7204 117.027C87.4091 117.105 87.3313 116.716 87.1756 116.561C87.02 116.405 86.8643 116.171 86.6308 116.094C86.4752 116.016 86.3195 115.938 86.2417 115.782C85.9304 115.238 85.3077 115.238 84.8408 115.16C84.5294 115.082 84.2182 115.004 83.9068 114.849C83.2842 114.537 82.5837 114.304 81.8833 114.148C81.1828 113.993 80.4045 113.915 79.7041 113.837C78.6145 113.759 77.5249 113.837 76.4353 113.915C76.0461 113.915 75.7348 113.837 75.3457 113.837H75.0344C74.4117 114.07 73.8669 114.304 73.1665 114.07C72.5438 114.304 71.8434 113.993 71.1429 114.304C71.0651 114.382 70.9095 114.382 70.7538 114.382C69.5085 114.382 68.2633 114.615 67.018 114.615C66.7845 114.615 66.5511 114.615 66.3954 114.537C65.8506 114.537 65.3058 114.537 64.761 114.537C64.2162 114.537 63.6714 114.537 63.1266 114.382C62.4262 114.148 61.7257 114.148 60.9474 113.993C60.3248 113.915 59.6243 113.759 59.0017 113.526C58.6126 113.37 58.2234 113.292 57.8343 113.215C56.9782 113.059 56.0442 112.825 55.4216 112.436C54.7989 112.047 54.332 111.736 53.5537 111.658C53.4759 111.658 53.2424 111.58 53.1646 111.425C53.0867 111.269 52.8532 111.114 52.6976 111.114C51.6858 110.88 50.7519 110.102 49.8958 109.713C48.7283 109.168 47.8722 108.312 46.8604 107.612C46.16 107.145 45.4595 106.6 44.8369 105.978C43.903 105.044 42.969 104.11 42.035 103.176C41.6459 102.787 41.3346 102.398 41.0233 101.931C40.712 101.465 40.4006 101.075 40.0893 100.609C39.9337 100.375 39.778 100.142 39.7002 99.9082V99.8304C39.5445 99.6748 39.3111 99.5192 39.2332 99.2857C38.2993 97.5738 37.2097 96.0175 36.587 94.2278C36.4314 93.7609 36.1201 93.4497 35.9644 92.9828C35.1861 91.1152 34.4857 89.2477 33.5518 87.6136C33.3183 87.1467 33.0848 86.602 33.0069 86.1351C33.0069 86.0573 33.007 85.9795 32.9291 85.9017C32.3843 85.5126 32.1508 84.7344 31.8395 84.1119C31.2169 82.9447 30.5164 81.8553 29.816 80.8437C29.0377 79.8321 28.1816 78.8984 27.2476 78.0424C26.2358 77.1865 25.0684 76.4083 23.901 75.7858C23.5897 75.6302 23.2784 75.3967 22.967 75.1633C22.4222 74.7742 22.4223 74.7742 22.8114 74.6186C21.644 74.2295 20.6322 73.9183 19.6204 73.4514C19.4648 73.3736 19.3869 73.2957 19.3869 73.2179C19.3091 73.2179 19.2313 73.1401 19.2313 73.1401C18.8421 72.751 18.8421 72.6732 19.6204 72.5954C19.7761 72.5954 20.0096 72.6732 20.0096 72.5176C20.0096 72.362 19.7761 72.4398 19.6204 72.5176C19.2313 72.5176 18.9978 72.362 18.6865 72.2842C18.0638 72.2063 17.4412 72.2063 16.8964 72.2063C16.5851 72.2063 16.2738 72.2063 16.2738 72.0507C16.2738 71.8173 16.4295 71.6616 16.9743 71.506C17.4413 71.4282 17.9082 71.2726 18.3752 71.4282C18.453 71.4282 18.6086 71.4282 18.6865 71.4282C19.1534 71.3504 19.7761 71.4282 20.243 71.4282C20.4765 71.4282 20.6322 71.4282 20.71 71.2726C20.7879 70.9613 21.177 70.8835 21.9553 71.1169C24.1345 71.6616 26.0802 72.751 27.7924 74.0739C28.4929 74.5408 29.0377 75.1633 29.5825 75.7858C29.8938 76.1749 30.3608 76.4083 30.6721 76.7974C32.54 78.7427 33.8631 81.155 34.9527 83.4116C36.0423 85.5126 36.8984 87.6914 37.7545 89.7146C38.2214 90.9596 38.8441 92.1268 39.3889 93.294C40.3228 95.5506 41.5681 97.5738 42.8133 99.5192C43.2025 100.064 43.7473 100.531 44.1364 101.075L45.1482 102.32C45.5373 102.71 45.9265 103.099 46.3156 103.488C46.8604 103.955 47.483 104.421 48.0278 104.888C48.6505 105.355 49.1953 105.744 49.8179 106.211C50.3627 106.6 50.9075 106.989 51.5301 107.301C52.1528 107.612 52.6976 108.001 53.3202 108.234C53.7872 108.468 54.1763 108.623 54.6433 108.857L56.0442 109.324C56.589 109.557 57.2116 109.713 57.7564 110.024C58.1456 110.258 58.7682 110.258 59.2352 110.413C59.8578 110.569 60.4804 110.491 60.9474 110.88C61.3366 110.802 61.7257 110.958 62.037 110.958C62.6596 110.958 63.2044 111.114 63.7492 111.114C64.0605 111.114 63.9827 111.269 64.1384 111.347C64.294 111.425 64.4497 111.658 64.6053 111.347C64.8388 111.114 65.3836 111.114 65.8506 111.425C66.0063 111.503 66.1619 111.503 66.3176 111.425C66.551 111.269 66.7845 111.191 67.0958 111.347C67.1737 111.425 67.3293 111.425 67.4072 111.347C67.8741 110.958 68.5746 111.269 69.1972 111.114C69.3529 111.114 69.4307 111.114 69.5086 111.191C69.5864 111.425 69.742 111.347 69.9755 111.191C70.3647 110.958 70.8316 110.88 71.2986 110.88C72.7773 110.802 74.3339 110.491 75.8905 110.413C78.0697 110.335 80.2489 110.18 82.5059 110.647C83.7511 110.958 85.0742 111.269 86.3195 111.736C87.2535 112.125 88.0317 112.67 88.7322 113.37C89.4326 114.148 90.2888 114.926 90.9114 115.86C91.1449 116.171 91.3005 116.561 91.3784 116.872C91.3784 117.183 91.3005 117.416 91.1449 117.416C90.9114 117.339 90.6779 117.183 90.4444 116.794C90.0553 116.094 89.5105 115.627 88.8878 115.238C88.343 114.849 87.7982 114.304 87.1756 113.837C86.6308 113.526 86.086 113.137 85.5412 112.903C85.4634 112.825 85.3856 112.825 85.2299 112.748C85.0742 112.67 84.9186 112.67 84.8408 112.825C84.8408 112.903 84.9964 112.981 85.1521 112.981C86.6308 113.526 87.8761 114.537 88.81 115.705C89.3548 116.405 89.744 117.183 90.0553 117.961C90.1331 118.117 90.1331 118.272 90.1331 118.428C90.1331 119.206 90.0553 119.517 89.744 119.44ZM18.8421 71.5838C18.8421 71.5838 18.7643 71.5838 18.6865 71.5838C18.6865 71.5838 18.7643 71.5838 18.8421 71.5838C18.8421 71.5838 18.92 71.5838 18.8421 71.5838Z" fill="#BAE7FF" />
</svg>