<svg width="201" height="343" viewBox="0 0 201 343" fill="none" xmlns="http://www.w3.org/2000/svg">
  <path d="M1.09877 92.2185L1.07139 92.2169C0.997706 92.2097 1.05244 92.213 1.09877 92.2185Z" fill="#BAE7FF" />
  <path d="M96.2276 0.123995C96.0666 0.319444 95.5193 1.31545 95.0365 2.73041C94.5371 4.13553 94.1741 5.94416 94.0719 7.58535C93.7386 11.8303 94.5469 16.3551 96.2768 20.0528C96.6182 20.8874 97.6435 22.6435 97.1395 21.9543C96.6041 21.1523 96.8381 21.8511 97.3471 22.8031C97.8343 23.7691 98.5874 24.9737 98.7946 25.4238C99.5179 26.9646 100.879 28.6071 102.029 30.3653C102.974 31.8048 104.023 33.535 104.551 35.2014C104.914 36.3395 105.192 37.6649 105.235 38.4656C105.289 38.7077 105.251 38.9364 105.254 39.18C105.241 39.4138 105.27 39.6507 105.216 39.8695C105.125 40.3169 105.084 40.7627 104.933 41.1661C104.657 41.978 104.229 42.7133 103.699 43.3705C102.657 44.6946 101.271 45.7072 99.8759 46.7053C97.8388 48.1055 96.1453 49.1008 93.6853 50.0973C88.9219 51.9999 83.5279 52.1079 78.2005 51.3955C72.8514 50.697 67.4923 49.3297 61.9871 48.404C58.1324 47.7384 54.1683 47.3168 50.1585 47.4772C46.1574 47.683 42.1167 48.5283 38.4433 50.2323C37.7856 50.5624 37.1834 50.8673 36.6174 51.1489C36.0746 51.4668 35.5795 51.7949 35.0822 52.104L34.3387 52.5713C34.1017 52.7439 33.8719 52.9119 33.623 53.0819C33.1372 53.4246 32.6296 53.7812 32.0712 54.1704C31.4193 54.5891 30.8392 55.1355 30.2244 55.6121C28.4951 56.8862 26.9213 58.4186 25.4948 60.1326C24.1439 61.9003 23.0168 63.9848 22.5878 66.2962C21.9338 68.6396 22.113 71.1334 22.7217 73.3719C22.8673 73.9332 23.0657 74.481 23.233 75.0283C23.4412 75.5597 23.6276 76.105 23.8503 76.627C24.2858 77.6876 24.6866 78.6784 25.1929 79.7856C25.3304 80.127 25.5598 80.5322 25.7986 80.9518C26.0301 81.376 26.2927 81.8008 26.5542 82.1444C27.7782 83.8752 29.2945 85.4082 31.007 86.6411C32.7241 87.8814 34.6158 88.8356 36.564 89.5592C40.482 90.9925 44.584 91.5812 48.6474 91.7753C50.1552 91.8609 51.8031 91.8462 52.8268 91.7516C59.816 91.6424 66.7145 90.9777 73.5739 89.9493C78.063 89.2766 82.7253 88.6666 87.2463 88.219C91.442 87.8063 95.5601 87.4639 99.6489 87.57C102.251 87.6386 104.718 87.8959 107.187 88.5712C109.669 89.249 112.142 90.5356 113.742 92.4855C114.562 93.4428 115.127 94.563 115.535 95.6924C115.769 96.248 115.879 96.8326 116.039 97.3846C116.139 97.9547 116.268 98.5062 116.326 99.0421C116.597 101.282 116.513 103.27 115.99 105.068C115.468 106.867 114.48 108.484 112.855 109.762C112.651 109.985 111.295 110.948 110.665 111.353C110.347 111.608 109.835 111.845 109.3 112.127C108.741 112.373 108.14 112.616 107.6 112.778C104.52 113.733 101.097 114.202 97.714 114.431C94.3263 114.652 90.9668 114.63 87.8944 114.434C79.7939 113.896 72.2905 113.22 64.5083 112.222C59.1711 111.526 53.7056 110.79 48.176 110.176C39.7788 109.256 31.4624 108.366 22.9221 107.987C16.2621 107.701 9.07262 107.928 2.18987 109.207C0.407223 109.554 -1.45823 109.994 -2.84732 110.508C-2.82818 110.506 -2.81626 110.508 -2.81626 110.508C-2.84264 110.515 -2.86184 110.517 -2.87633 110.527C-2.98445 110.565 -3.11173 110.606 -3.21986 110.645C-4.64976 111.031 -6.12465 111.538 -7.41911 112.103C-8.82537 112.781 -10.2264 113.435 -11.6094 114.149C-12.9645 114.907 -14.3615 115.6 -15.6633 116.456C-18.3415 118.053 -20.8527 119.942 -23.1722 122.065C-25.475 124.199 -27.5681 126.627 -29.1301 129.421C-30.7061 132.192 -31.7174 135.318 -31.9896 138.511C-32.237 141.933 -32.0279 144.633 -31.0587 147.847C-28.9113 154.346 -24.3861 159.911 -18.575 163.464C-17.8593 163.925 -17.0801 164.295 -16.3251 164.69C-15.538 165.023 -14.7613 165.404 -13.9297 165.648C-13.111 165.951 -12.3093 166.132 -11.4917 166.354C-10.6885 166.585 -9.86971 166.744 -9.05357 166.916C-5.77917 167.586 -2.45138 167.925 0.867314 167.963C4.39342 168.021 8.43655 167.594 11.7375 166.855C12.2818 166.731 12.6781 166.599 13.2931 166.522C17.522 165.985 22.7807 164.297 27.3608 162.634C36.0083 159.547 44.2849 155.675 52.6228 152.122C60.9262 148.499 69.435 145.562 78.1184 143.168C87.5886 140.565 97.2618 138.518 107.021 137.05C108.397 136.851 109.8 136.646 111.203 136.441C112.604 136.217 114.014 136.007 115.409 135.838C120.43 135.181 120.473 135.184 118.129 135.134L118.029 135.138C126.722 134.272 135.164 133.813 143.058 133.583C144.301 133.542 145.094 133.504 145.127 133.411C145.581 133.385 146.133 133.369 146.439 133.336C147.907 133.232 148.56 133.181 148.191 133.101C148.005 133.066 147.567 133.021 146.837 132.968C146.112 132.922 145.1 132.907 143.768 132.872C142.782 132.85 140.912 132.854 141.221 132.778C141.564 132.691 143.031 132.792 143.974 132.811C146.36 132.814 148.07 132.8 150.061 132.841C151.032 132.873 152.025 132.89 153.028 132.921C154.027 132.996 155.033 133.065 156.04 133.135C157.046 133.205 158.046 133.28 159.033 133.351C160.021 133.423 160.99 133.548 161.937 133.635C163.78 133.813 165.942 134.041 165.666 133.85C165.368 133.642 164.437 133.37 161.01 132.941C159.524 132.73 158.021 132.62 156.531 132.482C155.04 132.375 153.563 132.209 152.129 132.239C151.781 132.238 150.879 132.173 150.233 132.138L150.194 132.142C147.221 131.861 143.58 131.959 140.431 131.802C138.934 131.75 137.881 131.782 137.742 131.646C137.608 131.517 136.996 131.44 135.862 131.411C134.724 131.374 133.066 131.375 130.836 131.518C117.767 132.165 104.776 133.969 91.9821 136.701C89.5005 137.281 87.0108 137.785 84.5659 138.455L80.8907 139.423C79.6672 139.749 78.4619 140.134 77.2451 140.486C74.4349 141.287 71.4639 142.141 68.4437 143.078C52.611 148.088 38.2343 156.338 22.8118 161.381C15.764 163.646 8.48587 165.281 1.15428 165.303C-2.49963 165.317 -6.14455 164.946 -9.70337 164.152C-10.5883 163.952 -11.4675 163.699 -12.3545 163.48L-13.5915 163.067C-14.0048 162.934 -14.4024 162.729 -14.8032 162.567C-16.4027 161.844 -17.9343 160.925 -19.3609 159.866C-22.6752 157.35 -25.4382 154.019 -27.2772 150.278C-29.1136 146.526 -29.8941 142.332 -29.4161 138.28C-29.1518 136.381 -28.6326 134.513 -27.8785 132.74C-27.6823 132.297 -27.4528 131.873 -27.2328 131.435L-26.904 130.784L-26.5183 130.158L-25.7496 128.918L-24.8696 127.739C-22.4829 124.62 -19.4406 121.981 -16.1068 119.749C-12.7802 117.52 -9.12069 115.651 -5.45873 114.057C-1.79372 112.563 2.16843 111.707 6.18262 111.155C10.7327 110.545 15.6963 110.468 20.4618 110.529C28.097 110.629 35.7706 111.267 43.3925 112.143C53.6573 113.327 64.0244 114.814 74.2676 115.869C79.0282 116.352 83.7825 116.777 88.5815 116.97C93.3712 117.148 98.2123 117.119 103.085 116.343C106.555 115.772 110.147 114.816 113.314 112.659C114.883 111.581 116.288 110.136 117.258 108.429C118.24 106.724 118.779 104.823 118.988 102.949C119.228 100.534 119.071 98.251 118.468 95.9577C117.894 93.6768 116.649 91.468 114.844 89.7726C113.477 88.4715 111.737 87.4505 109.901 86.7265C108.065 86.0024 106.131 85.556 104.275 85.2949C99.8326 84.6693 95.0945 84.6834 91.3115 85.2607C88.8338 85.3376 85.8061 85.7369 83.4571 85.9664C79.2304 86.3785 75.2808 87.0629 71.2397 87.5093C69.0434 87.7533 69.4115 87.8647 68.3505 88.0447C67.407 88.2004 66.301 88.5014 64.9081 88.4034C63.6367 88.3195 59.3883 88.7455 56.4071 89.074C55.1677 89.2151 54.1069 89.2518 53.2053 89.1861C51.5528 89.0503 49.9053 89.0339 47.7778 89.0189C47.1023 89.0025 45.9783 88.9569 45.474 88.8408C43.7605 88.4985 41.7507 88.1726 39.7466 87.6486C37.7471 87.1319 35.7565 86.3741 34.1593 85.3843C33.4053 84.9272 32.7725 84.5151 32.6887 84.5279C32.4492 84.5692 31.475 83.8648 30.623 82.8567C30.194 82.3956 29.8022 81.8492 29.3674 81.2996C28.9834 80.7175 28.5446 80.1297 28.2025 79.4695C27.8097 78.8419 27.5184 78.1491 27.1814 77.4651C26.8503 76.7263 26.5476 75.9999 26.2609 75.3144C25.3941 73.0882 24.7787 70.8233 24.9888 68.6013C25.1534 66.3881 26.0426 64.2517 27.4076 62.3624C27.7146 61.8685 28.1089 61.4312 28.4986 60.9866C28.8884 60.5419 29.2569 60.0802 29.7102 59.6868L31.0092 58.4434L32.4234 57.3L33.1329 56.7319L33.8821 56.2099L35.3879 55.1612C35.879 54.7947 36.4113 54.5244 36.9231 54.2061C37.4395 53.8949 37.944 53.5812 38.4903 53.3327C41.3743 51.8491 44.5166 50.8954 47.7548 50.4734C50.9957 50.0396 54.3339 50.1877 57.6514 50.5743C64.3102 51.3526 70.928 53.2621 77.8546 54.1548C81.7126 54.6342 85.8045 54.8407 89.8695 54.1129C93.936 53.4354 97.8793 51.7217 101.197 49.3358C102.39 48.4058 103.601 47.5359 104.672 46.3985C105.746 45.2994 106.712 43.9834 107.314 42.4511C107.63 41.6852 107.756 40.8779 107.908 40.0948L107.977 38.8948C108.003 38.4893 107.93 38.106 107.911 37.7092C107.735 36.1444 107.263 34.6773 106.644 33.346C105.292 30.4596 103.407 27.8433 101.631 25.1884C100.749 23.8622 99.8807 22.5267 99.1257 21.1597C98.3945 19.7979 97.7958 18.3715 97.3336 16.9189C96.6607 14.8035 96.3488 12.8041 96.1432 11.1457C95.9537 9.52811 95.9057 8.43356 95.7367 9.09452C95.5864 9.78446 95.3455 11.4329 95.8479 14.1591C96.2889 16.5666 97.0156 18.7498 97.9958 20.7702C98.9759 22.7906 100.173 24.6714 101.417 26.6247C102.538 28.4016 103.884 30.3709 105.026 32.5636C105.576 33.674 106.079 34.8241 106.399 36.0403C106.701 37.2586 106.863 38.5151 106.716 39.7352C106.531 41.8693 105.416 43.8131 103.969 45.3357C103.242 46.0993 102.463 46.8143 101.628 47.4423L100.389 48.412L99.077 49.285C98.5404 49.6603 97.9206 50.0173 97.3908 50.2756C96.4336 50.8084 95.432 51.1447 95.4837 51.0501C95.5132 51.0004 95.8263 50.8506 96.233 50.6713C96.621 50.463 97.0861 50.2155 97.438 50.0305L98.3056 49.5654L99.1268 49.0279C99.6727 48.6671 100.237 48.3354 100.734 47.9141L102.273 46.7107C102.77 46.2894 103.241 45.8438 103.691 45.3811C104.586 44.4484 105.37 43.392 105.878 42.2067C106.144 41.6167 106.309 40.9987 106.416 40.3677L106.512 39.8965L106.542 39.417C106.55 39.0947 106.601 38.7756 106.563 38.4622C106.452 35.8836 105.335 33.4907 104.064 31.2886C102.758 29.0787 101.249 26.9991 99.8169 24.8492C98.1516 22.3991 96.6881 19.7376 95.8398 16.855C94.9624 13.991 94.6035 10.9783 94.7721 7.97467C94.8508 6.87038 94.9703 5.75009 95.1813 4.72449C95.4713 3.13666 95.8806 1.83025 96.1526 1.01106C96.4318 0.187212 96.4957 -0.191386 96.2276 0.123995ZM149.269 132.102C149.481 132.098 149.844 132.121 150.183 132.139C149.994 132.148 149.817 132.159 149.58 132.157C149.086 132.137 148.889 132.1 149.269 132.102ZM145.206 133.391C145.191 133.4 145.172 133.402 145.153 133.404C145.137 133.394 145.12 133.385 145.096 133.379C145.132 133.387 145.206 133.391 145.206 133.391ZM117.83 135.194C117.98 135.189 117.911 135.193 117.83 135.194V135.194Z" fill="#BAE7FF" />
  <path d="M162.666 274.687L162.658 274.67C162.65 274.638 162.658 274.662 162.666 274.687Z" fill="#BAE7FF" />
  <path d="M103.496 305.841C102.837 305.734 102.359 305.528 102.21 305.545C101.979 305.561 102.095 305.71 102.441 305.94C102.795 306.204 103.488 306.451 104.345 306.501C104.625 306.493 104.914 306.517 105.21 306.451C105.507 306.418 105.804 306.361 106.092 306.254C109.232 305.256 111.771 302.001 111.441 298.547C111.342 297.056 110.881 295.597 110.147 294.286C109.43 292.959 108.466 291.773 107.353 290.742C106.241 289.712 104.996 288.797 103.628 288.113C102.927 287.792 102.268 287.396 101.534 287.149C100.801 286.91 100.076 286.621 99.3255 286.44C98.8722 286.341 98.1058 286.201 98.0646 286.119C98.0316 286.036 98.6415 286.119 99.2844 286.234C99.6388 286.275 100.026 286.44 100.397 286.564C100.982 286.778 101.584 286.951 102.153 287.198L103.826 288.014C104.938 288.575 105.96 289.3 106.916 290.091C109.15 291.904 110.963 294.657 111.573 297.105C111.919 298.432 112.026 299.825 111.688 301.185C111.35 302.537 110.625 303.822 109.537 304.885C108.301 306.081 107.403 306.6 107.04 306.921C106.867 307.078 106.949 307.111 107.213 307.053C107.485 307.004 107.93 306.855 108.425 306.592C109.447 306.056 110.526 305.108 111.367 303.814C111.936 302.916 112.389 301.91 112.603 300.822C112.801 299.71 112.776 298.646 112.62 297.6C112.282 295.506 111.359 293.619 110.254 292.061C109.249 290.602 107.963 289.358 106.529 288.303C105.804 287.8 105.054 287.281 104.238 286.91C103.834 286.712 103.43 286.523 103.018 286.325L102.4 286.036L101.749 285.822L99.9932 285.237L98.18 284.858C97.5783 284.709 96.9601 284.668 96.3502 284.61C95.7321 284.577 95.1222 284.462 94.5123 284.487C92.0562 284.413 89.6496 284.783 87.3336 285.294C83.2292 286.358 79.3554 288.385 76.1576 291.245C73.0174 294.146 70.6191 297.971 69.5229 302.116C68.6988 305.174 68.5257 308.396 68.8965 311.537C69.2509 314.677 70.1905 317.726 71.468 320.586C72.2263 322.375 73.3883 324.27 74.501 325.556C75.1026 326.215 75.5807 326.842 75.5312 327.031C75.5147 327.097 75.8115 327.518 76.2153 327.954C77.9214 329.825 80.0808 332.034 82.0753 333.056C82.372 333.205 82.9324 333.641 83.2703 333.905C83.8061 334.309 84.3089 334.639 84.7869 334.919C85.2732 335.191 85.7512 335.389 86.2375 335.578C86.7567 335.793 87.3501 336.064 88.0177 336.468C89.6166 337.441 92.1304 338.356 92.9299 338.356C93.8035 338.372 94.4134 338.751 94.9739 338.924C95.6085 339.13 95.353 339.246 96.6799 339.526C99.1195 340.021 101.526 340.507 104.098 340.598C104.815 340.631 105.631 340.663 106.455 340.696C107.279 340.705 108.111 340.713 108.853 340.647C111.153 340.878 113.955 340.482 116.51 340.054C117.581 339.889 118.677 339.633 119.757 339.419C120.82 339.163 121.867 338.908 122.84 338.669C125.386 338.026 127.777 337.26 130.233 336.205C134.049 334.564 137.7 332.512 141.087 330.122C143.436 328.449 145.653 326.603 147.722 324.592C149.758 322.523 151.653 320.405 153.434 318.147C155.395 315.765 157.134 313.127 158.733 310.408C160.274 307.638 161.56 304.712 162.5 301.671C163.892 297.155 164.428 292.35 164.115 287.627C163.95 286.16 163.859 284.643 163.513 283.193C163.365 282.459 163.225 281.726 163.077 281.009C162.887 280.3 162.697 279.599 162.516 278.915L162.03 277.094L161.412 275.314L160.794 273.533C160.587 272.948 160.316 272.379 160.076 271.803L159.343 270.08L158.972 269.223L158.535 268.374L157.653 266.684C157.381 266.116 156.994 265.605 156.664 265.061C153.936 260.775 150.417 257.008 146.354 254.017C142.06 250.819 137.164 249.348 132.12 247.675L140.255 252.995C141.837 253.951 143.156 254.61 144.656 255.78C150.211 260.074 155.057 265.497 157.587 272.19C157.884 272.932 158.321 273.706 158.634 274.489C158.651 274.547 158.667 274.621 158.684 274.687C158.689 274.693 158.691 274.698 158.694 274.706C158.693 274.705 158.693 274.704 158.692 274.704C158.892 275.504 159.232 276.492 159.561 277.447L159.59 277.531C160.769 281.347 161.486 285.385 161.692 289.193C161.956 294.08 161.156 298.918 159.359 303.443C158.131 306.402 156.689 309.262 155.008 311.899C152.552 315.748 149.552 319.053 146.37 322.556C143.906 325.193 140.461 327.732 137.238 329.908C136.661 330.279 135.887 330.707 135.417 330.897C135.005 331.078 134.082 331.581 133.917 331.68C133.356 332.018 132.829 332.331 132.301 332.619C131.766 332.883 131.23 333.13 130.694 333.369C129.631 333.88 128.477 334.227 127.183 334.705C124.645 335.521 121.224 336.617 118.134 337.235C116.609 337.565 115.15 337.746 113.617 337.927C111.21 338.15 108.795 338.249 106.339 338.191C103.694 338.125 100.966 337.853 98.4107 337.251C94.5288 336.328 90.688 335.224 87.1852 333.328C86.9545 333.155 86.6331 332.949 86.2787 332.743C85.9325 332.52 85.5534 332.281 85.1908 332.067C81.3006 329.669 77.8637 326.504 75.5807 322.581C75.3252 322.202 75.0449 321.658 74.8224 321.336C73.4295 319.177 72.8114 316.762 72.0779 314.38C71.7235 311.973 71.3279 309.674 71.3279 307.317L71.4185 306.039C71.5092 305.306 71.6411 304.696 71.7647 304.078C71.9378 303.476 72.1191 302.858 72.3333 302.1L72.8526 300.575L73.5285 299.124C73.6439 298.885 73.7346 298.63 73.8747 298.407L74.2949 297.723C74.5834 297.27 74.8224 296.792 75.1604 296.372C76.4131 294.633 77.9791 293.133 79.6851 291.814C84.622 288.171 91.1496 286.448 97.0755 287.503C97.8338 287.685 98.4849 287.825 99.136 287.948C99.7624 288.138 100.381 288.319 101.065 288.525C101.551 288.649 101.979 288.888 102.449 289.061C102.911 289.259 103.405 289.415 103.85 289.679C104.765 290.174 105.68 290.817 106.521 291.731C106.875 292.102 107.46 292.704 107.947 293.215C108.664 293.965 109.216 294.946 109.562 295.795C110.007 296.841 110.081 297.896 110.345 298.704C110.436 298.935 110.477 299.66 110.436 300.146C110.411 300.649 110.328 301.004 110.584 300.583C110.782 300.196 110.551 301.177 110.32 301.572C109.504 303.41 107.724 305.141 105.746 305.66C104.988 305.858 104.164 305.924 103.496 305.841Z" fill="#BAE7FF" />
  <path d="M59.6611 238.541C59.535 238.551 59.3143 238.35 59.0019 238.15C58.6959 237.943 58.3176 237.713 57.9375 237.547C56.9652 237.034 55.6582 237.084 54.519 237.29C54.2704 237.353 53.7042 237.498 53.9825 237.538C54.5821 237.63 53.3503 238.083 53.271 238.407C53.0533 238.848 52.5553 239.051 52.208 239.46C51.9251 239.793 51.6771 240.208 51.6225 240.748C51.6091 241.102 51.5495 241.494 51.5001 241.752C51.3457 242.364 51.4293 242.956 51.6192 243.469C51.7887 243.991 52.0926 244.431 52.362 244.882C52.781 245.524 53.1378 246.01 53.6496 246.666C55.6285 249.232 59.2469 250.297 62.6509 249.772C65.0471 249.421 67.3114 248.32 69.0871 246.673C69.7503 246.076 70.2228 245.735 70.7455 245.058L71.1835 244.465C71.8395 243.262 72.2657 242.008 72.9905 240.786C73.3061 239.386 73.9874 238.061 73.963 236.555C73.9511 236.323 73.9721 235.976 74.0064 235.705C74.3 233.087 73.9316 230.389 72.9589 227.974C72.7811 227.523 72.5794 227.039 72.5304 226.698C71.525 224.658 69.9441 223.081 68.2441 221.599C67.1156 220.641 65.7347 219.873 64.2991 219.384C62.9778 218.914 61.6547 218.507 60.2711 218.31C59.8342 218.226 59.4072 218.176 58.9761 218.162C58.5438 218.134 58.1104 218.092 57.6687 218.121C55.8583 218.135 53.8472 218.539 52.3723 218.864C50.8502 219.214 49.6967 219.59 48.505 220.533C48.4039 220.591 47.9098 220.927 47.6483 221.005C47.3588 221.085 46.8998 221.334 46.6123 221.611C44.9209 223.081 43.0168 224.71 41.8797 226.495C40.4069 228.828 38.9687 230.983 38.0841 233.529C37.4856 235.263 36.9932 237.087 36.6226 238.935C36.0334 241.733 35.9879 244.626 36.7227 247.322C37.0121 248.363 37.3803 249.419 37.8775 250.414C38.366 251.389 39.0475 252.398 39.7158 253.33C40.0931 253.807 40.4662 254.319 40.7269 254.749C40.7193 254.742 40.7193 254.742 40.7193 254.742C40.7269 254.749 40.7345 254.755 40.7345 254.755C40.7583 254.789 40.7758 254.83 40.7996 254.863C41.1462 255.222 41.5401 255.557 41.8575 255.904C44.6592 259.052 48.1733 261.514 51.6913 263.679C52.6542 264.249 53.4852 264.498 54.4676 264.876C54.9644 265.089 55.491 265.237 56.0176 265.384L57.5909 265.834C58.1111 265.988 58.6554 266.007 59.1914 266.098C59.7316 266.152 60.2582 266.299 60.7991 266.276C61.8767 266.266 62.9611 266.339 64.0292 266.125C65.0999 266.031 66.1524 265.712 67.1791 265.424C67.7301 265.266 68.3022 265.022 68.9017 264.853C69.4947 264.692 70.0843 264.489 70.6353 264.331C70.8215 264.28 70.9692 264.275 71.1421 264.149C72.3278 263.304 74.0606 262.599 75.5601 261.8C78.37 260.302 81.2181 258.666 84.3676 257.443C85.9392 256.835 87.5911 256.348 89.3075 256.046C91.0186 255.765 92.7801 255.67 94.5243 255.796C98.2763 256.166 101.833 257.257 105.179 258.689C106.115 259.106 107.071 259.592 107.961 260.126C109.574 261.065 109.556 261.102 108.659 260.992L108.63 260.98C111.474 262.404 114.056 264.153 116.118 266.191C116.441 266.517 116.622 266.749 116.565 266.831C116.675 266.963 116.807 267.114 116.871 267.208C117.449 268.155 117.333 268.122 115.803 266.992C115.519 266.79 114.998 266.374 115.03 266.505C115.064 266.665 115.547 266.879 115.811 267.09C116.475 267.628 116.873 268.096 117.358 268.599C118.313 269.592 119.404 270.61 120.192 271.709C120.567 272.249 121.025 272.846 120.816 272.877C120.593 272.909 120.237 272.776 119.473 271.88C118.757 271.142 117.975 270.452 117.341 269.679C117.263 269.587 117.015 269.402 116.841 269.255L116.84 269.241C115.989 268.662 115.096 267.748 114.118 267.243C113.661 266.998 113.361 266.783 113.235 266.885C112.996 267.059 112.302 266.756 111.047 265.9C107.292 263.507 103.244 261.491 99.0434 260.206C97.4083 259.691 95.7718 259.331 94.141 259.041C93.6784 258.988 93.1848 258.986 92.6912 258.984C92.1988 258.996 91.7068 259.099 91.2015 259.126C88.5763 259.348 85.9863 260.173 83.4354 261.305C80.8835 262.422 78.3771 263.839 75.7529 265.196C73.3513 266.428 70.8232 267.579 68.1112 268.379C65.3918 269.172 62.4649 269.411 59.6164 269.143C58.7882 269.013 57.9494 268.927 57.1264 268.776L54.6975 268.121C53.0734 267.655 51.5343 266.935 50.1103 266.156C47.4208 264.641 44.9617 262.84 42.6761 260.835C40.4035 258.814 38.3044 256.589 36.556 253.997C36.073 253.261 35.5521 252.493 35.0932 251.621C34.6354 250.764 34.2787 249.848 34.0135 248.932C33.2021 245.989 33.2029 242.979 33.4976 240.114C33.9286 236.244 35.1156 232.482 36.8668 229.068C38.5277 225.93 40.6107 222.954 43.3788 220.599C45.3483 218.909 47.5678 217.431 50.0385 216.439C51.6323 215.759 53.2378 215.48 54.8956 215.323C56.1582 215.249 57.6305 215.065 59.0061 215.164C60.6466 215.227 62.476 215.36 63.7706 216.107C64.2366 216.203 64.7469 216.323 65.2349 216.516C65.7229 216.709 66.1981 216.917 66.6331 217.064C68.1577 217.694 69.4456 218.618 70.7164 219.593C71.428 220.105 71.1676 220.197 71.4472 220.513C71.6771 220.825 71.8859 221.224 72.4334 221.454C72.6882 221.553 73.0995 221.928 73.5135 222.423C73.8737 222.951 74.2572 223.589 74.4721 224.149C74.6446 224.622 74.8296 224.987 75.0712 225.271C75.508 225.785 75.818 226.387 75.9718 227.234C76.0291 227.504 76.1281 227.94 76.241 228.114C77.0121 229.355 77.0386 231.32 77.228 232.862C77.2718 233.225 77.2281 233.553 77.1592 233.573C76.9613 233.652 76.9938 234.136 77.088 234.685C77.2794 235.734 77.1307 237.106 76.8948 238.275C76.139 242.051 74.5406 245.868 71.6592 248.648C67.7954 252.432 61.8871 254.141 56.6221 252.421C55.1877 251.946 53.7315 251.205 52.4928 250.193C51.268 249.179 50.2158 247.947 49.445 246.537C48.3177 244.472 47.8744 241.893 48.7527 239.615C49.2005 238.366 50.0741 237.153 51.1554 236.324C52.242 235.474 53.5217 234.919 54.8441 234.712C55.8035 234.549 56.7177 234.608 57.4203 234.84C58.1048 235.108 58.4865 235.38 58.169 235.462C57.8311 235.553 57.1993 235.499 56.1497 235.507C55.2261 235.505 54.3606 235.696 53.6004 236.054C52.839 236.398 52.1289 236.851 51.5596 237.476C51.0482 238.032 50.4823 238.698 50.1706 239.541C49.8425 240.358 49.6852 241.28 49.7002 242.153C49.7461 243.664 50.2262 245.141 50.9942 246.431C51.103 246.641 51.2473 246.855 51.3807 247.02C51.6182 247.339 51.9124 247.576 51.9487 247.502C51.9914 247.421 51.6816 247.08 51.5286 246.846C50.461 245.34 49.8391 243.509 49.9459 241.71C49.9999 240.817 50.2155 239.918 50.6537 239.157C51.0919 238.395 51.7388 237.771 52.4683 237.296C54.1637 236.22 56.3771 235.961 58.1448 236.719C58.4795 236.847 58.7639 237.049 59.0267 237.246C59.399 237.575 59.6516 237.907 59.7434 238.167C59.8696 238.418 59.8379 238.547 59.6611 238.541ZM116.611 269.034C116.658 269.086 116.756 269.17 116.841 269.255C116.801 269.194 116.774 269.133 116.72 269.074C116.598 268.957 116.518 268.928 116.611 269.034ZM116.561 266.867L116.559 266.839L116.524 266.849C116.539 266.861 116.561 266.867 116.561 266.867ZM108.575 260.921C108.626 260.938 108.597 260.927 108.575 260.921V260.921Z" fill="#BAE7FF" />
  <path d="M98.0305 165.784L98.0414 165.79C98.0765 165.818 98.0523 165.797 98.0305 165.784Z" fill="#BAE7FF" />
  <path d="M158.994 173.241C159.114 173.191 159.671 173.183 160.381 173.277C160.736 173.342 161.133 173.43 161.532 173.527C161.924 173.662 162.328 173.811 162.697 173.96C164.591 174.827 166.352 176.191 167.57 177.717C167.823 178.066 168.396 178.844 168.231 178.462C168.043 178.025 168.315 178.245 168.661 178.64C168.999 179.037 169.424 179.597 169.596 179.773C170.24 180.354 170.605 181.382 171.01 182.364C171.352 183.177 171.66 184.159 172.026 185.027C172.267 185.627 172.474 186.37 172.532 186.816C172.842 189.002 173.319 190.648 173.535 192.417C173.662 193.686 173.735 194.722 173.609 196.112C173.393 198.786 172.833 201.472 171.854 204.022C170.894 206.576 169.482 208.967 167.807 211.074C165.454 214.036 162.635 216.583 159.516 218.642C158.377 219.4 157.559 219.698 156.465 220.355L155.488 220.856C153.764 221.886 151.966 222.838 149.927 223.287C147.958 224.133 145.87 224.365 143.788 224.922C143.465 225.009 142.963 225.126 142.574 225.168C138.772 225.672 134.897 225.771 131.051 225.214C130.34 225.085 129.566 224.947 129.113 224.749C127.493 224.376 125.849 223.912 124.283 223.241C122.743 222.537 121.233 221.709 119.943 220.609C118.231 219.197 116.596 217.605 115.19 215.906C113.888 214.331 112.786 212.676 111.755 210.983C111.109 209.897 110.505 208.871 109.881 207.77C108.613 205.592 107.181 202.934 106.602 200.775C105.99 198.554 105.698 196.903 105.27 194.774C105.245 194.612 105.153 193.741 105.201 193.356C105.276 192.937 105.282 192.199 105.263 191.628C105.168 188.355 106.217 184.873 107.379 182.114C108.885 178.412 111.304 175.565 113.938 172.891C115.765 171.054 117.836 169.364 120.135 167.994C121.008 167.467 121.901 166.989 122.812 166.541C123.746 166.113 124.702 165.697 125.688 165.398C127.651 164.765 129.702 164.393 131.787 164.313C135.045 164.167 138.556 164.929 141.596 166.455C142.379 166.857 143.171 167.328 143.72 167.784C143.71 167.778 143.701 167.78 143.701 167.78C143.712 167.786 143.722 167.792 143.731 167.79C143.775 167.822 143.821 167.863 143.868 167.904C144.482 168.271 145.113 168.67 145.62 169.101C147.91 171.05 149.818 173.394 151.319 175.945C152.81 178.489 153.967 181.282 154.454 184.229C154.709 185.81 154.958 187.038 154.949 188.627C154.908 191.857 153.954 195.163 152.08 197.855C150.225 200.587 147.611 202.67 144.72 204.119C143.175 204.888 141.242 205.468 139.556 205.547C139.275 205.56 139.069 205.553 138.772 205.606C136.692 206.102 133.849 205.64 131.573 204.644C129.423 203.749 127.435 202.233 126.117 200.201C124.801 198.177 124.199 195.865 123.955 193.625C123.7 191.414 123.776 189.044 124.377 186.808C124.969 184.575 126.07 182.347 127.91 180.656C128.909 179.741 130.103 179.023 131.407 178.584C132.718 178.136 134.144 177.984 135.519 178.139C138.291 178.469 140.755 179.901 142.551 181.894C143.074 182.454 143.507 183.11 143.893 183.787C144.25 184.454 144.561 185.151 144.785 185.889C145.186 187.218 145.214 187.955 145.188 188.157C145.154 188.361 145.068 188.038 144.802 187.445L144.789 187.395C145.034 188.544 145.058 189.761 144.786 190.934C144.51 192.125 143.965 193.175 143.269 194.062C141.886 195.834 139.956 197.087 137.838 197.442C137.171 197.541 136.738 197.515 136.711 197.416C136.469 197.409 136.171 197.392 136.006 197.339C135.618 197.283 135.353 197.159 135.215 197.072C135.07 196.995 135.048 196.948 135.144 196.94C135.331 196.908 136.067 197.101 137.345 196.829C137.823 196.754 138.688 196.469 138.511 196.437C138.335 196.413 137.691 196.727 137.234 196.779C136.094 196.969 135.218 196.752 134.39 196.317C133.582 195.887 132.859 195.211 132.429 194.369C132.009 193.533 131.881 192.556 132.127 191.719C132.349 190.888 133.02 190.141 133.05 190.354C133.079 190.462 133.069 190.624 132.963 190.892C132.887 191.169 132.699 191.565 132.646 192.227C132.548 193.388 133.197 194.482 134.003 195.268C134.1 195.366 134.415 195.548 134.654 195.644L134.667 195.658C135.22 195.864 135.851 195.997 136.531 195.948C137.213 195.907 137.91 195.72 138.492 195.404C139.038 195.09 139.399 194.842 139.38 194.705C139.308 194.405 140.076 193.952 141.163 192.57C141.542 192.06 141.855 191.506 142.059 190.937C142.266 190.385 142.365 189.791 142.367 189.17C142.376 187.944 141.977 186.685 141.331 185.502C140.093 183.236 137.711 181.48 135.208 181.157C133.275 180.877 131.28 181.527 129.756 182.804C128.873 183.555 128.227 184.659 127.707 185.836C127.041 187.398 126.68 189.135 126.623 190.879C126.585 192.627 126.767 194.467 127.241 196.105C127.728 197.757 128.541 199.232 129.755 200.344C130.964 201.474 132.505 202.284 134.17 202.725C137.227 203.555 140.558 203.115 143.501 201.759C146.443 200.403 149.04 198.218 150.592 195.452C152.452 192.214 152.75 188.215 151.945 184.484C150.378 177.474 145.721 170.706 139.047 168.087C137.173 167.33 134.983 166.986 132.9 166.906C129.549 166.739 126.171 167.467 123.231 169.097C119.194 171.314 115.522 174.426 112.749 178.042C110.172 181.393 108.433 185.317 107.898 189.424C107.678 190.892 107.674 192.401 107.804 193.882C107.92 195.376 108.225 196.846 108.638 198.288C109.172 200.148 109.808 201.858 110.615 203.61C111.224 204.954 112.161 206.494 112.984 207.905C113.971 209.6 115.255 211.243 116.015 212.786C116.751 213.608 117.527 214.713 118.28 215.433C119.601 216.746 120.808 218.036 122.309 218.991C123.123 219.509 122.917 219.537 123.29 219.836C123.614 220.113 123.98 220.485 124.634 220.54C125.202 220.636 126.915 221.321 128.125 221.893C128.639 222.119 129.113 222.231 129.52 222.255C130.276 222.292 131.013 222.387 131.956 222.657C132.261 222.735 132.765 222.822 133.01 222.809C134.623 222.661 136.801 223.026 138.638 222.818C139.064 222.783 139.437 222.781 139.471 222.843C139.568 223.003 140.145 222.937 140.78 222.785C141.381 222.606 142.077 222.482 142.786 222.345C143.498 222.181 144.238 222.089 144.922 221.923C149.386 221.002 153.649 219.07 157.479 216.679C162.654 213.403 167.11 208.707 169.269 203.065C170.507 199.923 170.929 196.325 170.685 192.861C170.504 190.294 170.035 187.813 169.401 185.447C168.711 182.874 167.225 180.213 165.231 178.309C164.499 177.636 163.797 177.07 163.204 176.617C162.641 176.139 162.226 175.851 162.571 175.847C162.921 175.859 163.674 176.048 164.684 176.832C165.572 177.526 166.346 178.258 167.021 179.053C167.71 179.834 168.317 180.674 168.89 181.584C169.937 183.237 170.728 185.623 171.199 187.811C171.619 189.711 171.861 191.642 171.917 193.577C171.937 193.882 171.917 194.207 171.928 194.479C171.957 194.985 171.99 195.473 172.06 195.437C172.147 195.396 172.132 194.779 172.122 194.409C172.105 191.957 171.803 189.538 171.261 187.183C170.73 184.833 169.899 182.529 168.63 180.448C167.19 178.059 165.169 175.922 162.553 174.717C162.073 174.517 161.578 174.295 161.109 174.137C160.738 174.015 160.408 173.908 160.115 173.81C159.812 173.74 159.561 173.665 159.355 173.596C158.962 173.453 158.787 173.332 158.994 173.241ZM135.009 195.806C134.935 195.763 134.787 195.741 134.677 195.664C134.737 195.719 134.794 195.766 134.882 195.795C135.062 195.871 135.143 195.876 135.009 195.806ZM136.692 197.412C136.703 197.418 136.713 197.424 136.724 197.43L136.752 197.405C136.736 197.409 136.692 197.412 136.692 197.412ZM144.795 187.287C144.818 187.37 144.806 187.328 144.795 187.287V187.287Z" fill="#BAE7FF" />
  <path d="M99.4161 226.195C99.4035 226.181 99.4057 226.189 99.4161 226.195V226.195Z" fill="#BAE7FF" />
  <path d="M158.453 272.762C158.302 272.66 158.116 271.832 158.13 271.155C158.154 270.714 158.078 270.264 158.037 269.814C157.98 269.368 157.958 268.922 157.924 268.497C157.9 268.308 157.858 271.859 157.786 272.055C157.62 272.499 157.421 271.524 157.244 271.358C156.952 271.064 157.019 270.585 156.891 270.141C156.801 269.774 156.717 269.327 156.522 268.963C156.401 268.711 156.248 268.406 156.22 268.201C156.133 267.71 156.957 269.299 156.762 268.935C156.569 268.579 156.285 268.282 156.082 267.955C155.754 267.494 155.566 267.092 155.258 266.571C154.208 264.476 151.661 262.596 150.036 260.841L149.161 259.932C148.853 259.642 148.529 259.365 148.223 259.084L147.276 258.238L146.281 257.441C145.796 257.056 145.59 256.686 145.089 256.377L144.682 256.086C143.863 255.65 143.03 255.261 142.328 254.598C141.869 254.411 141.482 254.124 141.086 253.84C140.677 253.577 140.263 253.325 139.778 253.171C139.631 253.122 139.411 253.03 139.262 252.937C137.723 252.072 136.091 251.419 134.372 250.745C134.054 250.617 133.72 250.467 133.549 250.291C132.108 249.658 130.597 249.194 129.206 248.414C128.305 247.901 127.313 247.484 126.357 247.067C125.476 246.664 124.626 246.245 123.782 245.815C123.244 245.533 122.724 245.282 122.168 245.032C121.044 244.518 119.746 243.952 118.868 243.363C117.964 242.745 117.295 242.304 116.317 241.971C116.248 241.946 115.871 241.763 115.749 241.609C115.615 241.441 115.325 241.253 115.076 241.151C113.66 240.546 112.305 239.535 111.035 238.909C109.34 238.086 108.001 236.973 106.47 236.036C105.425 235.385 104.352 234.697 103.35 233.91C101.817 232.734 100.283 231.584 98.7168 230.417C98.0934 229.981 97.5136 229.409 96.9155 228.869C96.3092 228.331 95.7664 227.731 95.2176 227.142C94.9316 226.838 94.6411 226.516 94.4656 226.226L94.4761 226.233C94.4656 226.226 94.4656 226.226 94.4656 226.226L94.4208 226.159C94.1652 225.935 93.9074 225.702 93.6994 225.456C91.8795 223.275 90.0801 221.071 88.6847 218.616C88.3365 217.947 87.9254 217.507 87.5424 216.874C86.0341 214.263 84.7033 211.552 83.4387 208.822C83.2621 208.462 83.0955 208.072 82.9432 207.669C82.8074 207.262 82.6988 206.857 82.6322 206.476C82.6073 206.35 82.6244 206.247 82.5391 206.128C82.2431 205.72 82.0183 205.213 81.8283 204.67C81.6715 204.118 81.4997 203.543 81.3473 203.007C80.0826 198.984 79.2401 194.811 78.9892 190.525C78.9348 189.36 78.9567 188.148 78.9881 187.005C79.0488 185.871 79.1177 184.736 79.2116 183.593C79.2615 182.95 79.3777 182.29 79.5067 181.643C79.7377 180.482 79.7354 180.474 79.9697 181.049L79.9763 181.074C80.1559 179.057 80.5444 177.091 81.2826 175.368C81.4052 175.096 81.5046 174.936 81.5881 174.95C81.6428 174.855 81.6991 174.734 81.7544 174.674C82.2428 174.109 82.2567 174.194 82.018 175.393C81.9695 175.61 81.8492 176.023 81.9443 175.98C82.0537 175.924 82.0336 175.584 82.0926 175.373C82.2255 174.841 82.426 174.495 82.6171 174.08C82.9577 173.261 83.2845 172.358 83.7346 171.617C83.96 171.264 84.2008 170.836 84.3175 170.973C84.4365 171.118 84.4781 171.373 84.1728 172.058C83.9161 172.659 83.7622 173.312 83.4214 173.864C83.385 173.927 83.3508 174.131 83.3155 174.265L83.3094 174.276C83.1993 174.926 82.8951 175.681 82.8629 176.39C82.8454 176.723 82.8013 176.957 82.9313 177.01C83.1769 177.131 83.17 177.603 83.0025 178.57C82.4967 181.392 82.2502 184.287 82.0209 187.212C81.9638 187.795 81.9702 188.316 81.9313 188.868C81.9089 189.414 81.8219 189.952 81.8372 190.507C81.8309 191.147 81.9729 191.809 82.0214 192.488C82.3731 196.056 83.0703 199.62 84.1926 203.078C85.2269 206.242 86.4994 209.332 87.993 212.319C88.4607 213.169 88.9329 214.036 89.4111 214.892C89.9286 215.729 90.4439 216.557 90.9343 217.392C92.8774 220.498 95.1583 223.372 97.6475 225.995C98.3385 226.749 99.2357 227.378 99.9931 228.115L101.959 229.778C102.633 230.307 103.317 230.833 104.012 231.339C105.92 232.654 107.84 233.984 109.78 235.22C111.569 236.39 113.428 237.425 115.264 238.503C116.596 239.263 117.969 239.977 119.35 240.653C120.234 241.099 121.047 241.546 121.884 242.049C122.521 242.437 123.332 242.743 124.062 243.08C124.937 243.492 125.96 243.759 126.599 244.386C127.142 244.524 127.721 244.892 128.227 245.058C129.136 245.364 129.896 245.879 130.761 246.188C131.234 246.363 131.088 246.482 131.295 246.621C131.472 246.751 131.638 247.008 132.022 246.914C132.372 246.829 133.259 247.221 133.817 247.675C134.044 247.862 134.267 247.962 134.484 247.975C134.89 247.999 135.25 248.115 135.659 248.414C135.791 248.511 136.02 248.636 136.145 248.638C137.001 248.648 137.942 249.371 138.853 249.686C139.068 249.761 139.224 249.879 139.215 249.944C139.188 250.11 139.459 250.224 139.803 250.282C140.451 250.41 141.182 250.817 141.821 251.178C142.855 251.753 143.856 252.406 144.888 253.008C145.864 253.695 146.89 254.307 147.783 255.087C150.271 257.107 152.668 259.32 154.595 261.934C155.645 263.399 156.773 264.924 157.627 266.584C157.957 267.187 158.269 267.786 158.494 268.426C158.717 269.058 158.985 269.66 159.091 270.323C159.412 271.718 159.867 273.219 160.118 274.721C160.194 275.268 160.256 275.766 160.215 276.176C160.182 276.584 160.043 276.86 159.905 276.711C159.757 276.556 159.545 276.196 159.464 275.561C159.345 274.423 158.98 273.492 158.641 272.492C158.476 272.04 158.278 271.534 158.126 270.999C158.044 270.728 157.963 270.457 157.881 270.186C157.775 269.922 157.669 269.658 157.575 269.408C157.395 268.969 157.221 268.519 157.035 268.09L156.4 266.815C156.338 266.681 156.271 266.53 156.196 266.417C156.068 266.203 155.896 266.028 155.841 266.087C155.792 266.135 155.964 266.382 156.044 266.547C157.246 268.61 157.936 270.855 158.435 273.115C158.723 274.421 158.855 269.781 158.924 271.101C158.928 271.349 158.922 271.59 158.913 271.823C158.796 272.448 158.702 272.926 158.453 272.762ZM83.2078 174.427C83.2321 174.385 83.2558 174.308 83.2735 174.241C83.247 174.275 83.2099 174.302 83.1878 174.352C83.152 174.451 83.1653 174.5 83.2078 174.427ZM81.5958 174.912L81.5792 174.916L81.6025 174.937C81.6003 174.929 81.5958 174.912 81.5958 174.912ZM79.9183 181.09C79.9138 181.073 79.9094 181.057 79.9183 181.09V181.09Z" fill="#BAE7FF" />
  <path d="M183.082 231.921C183.046 232.066 182.919 232.191 182.83 232.128C182.721 232.05 182.591 232.055 182.492 231.932C182.471 231.91 182.418 231.849 182.429 231.969C182.447 232.235 182.317 232.187 182.269 232.317C182.193 232.538 182.154 232.353 182.094 232.311C182.045 232.276 181.991 232.215 181.924 232.279C181.878 232.321 181.835 232.32 181.808 232.263C181.706 232.02 181.571 232.251 181.454 232.331C181.367 232.389 181.31 232.407 181.224 232.36C180.917 232.194 180.591 232.17 180.274 232.093C180.047 232.035 179.821 232.038 179.601 231.971C179.519 231.95 179.478 231.809 179.401 231.813L179.337 231.798C179.204 231.889 179.072 232.033 178.96 231.782C178.818 231.919 178.718 231.579 178.571 231.743C178.548 231.764 178.516 231.778 178.496 231.764C178.267 231.646 178.028 231.668 177.795 231.681C177.752 231.688 177.704 231.661 177.68 231.57C177.476 231.543 177.268 231.708 177.068 231.55C176.938 231.45 176.794 231.474 176.657 231.488C176.529 231.501 176.41 231.468 176.285 231.446C176.204 231.433 176.134 231.428 176.049 231.442C175.888 231.469 175.703 231.56 175.569 231.435C175.435 231.31 175.334 231.222 175.197 231.393C175.19 231.403 175.132 231.421 175.111 231.346C175.088 231.263 175.04 231.236 175.011 231.267C174.81 231.422 174.594 231.224 174.414 231.341C174.171 231.503 173.952 231.287 173.716 231.335C173.557 231.37 173.397 231.406 173.225 231.365C172.98 231.301 172.731 231.325 172.479 231.428C172.282 231.504 172.072 231.444 171.87 231.434C171.818 231.434 171.765 231.426 171.717 231.347L171.715 231.338L171.704 231.323C171.666 231.355 171.615 231.416 171.58 231.413C171.217 231.326 170.863 231.602 170.499 231.454C170.396 231.41 170.331 231.543 170.236 231.55C169.849 231.579 169.463 231.557 169.092 231.732C168.996 231.782 168.871 231.768 168.764 231.647C168.743 231.625 168.728 231.584 168.716 231.62C168.607 231.908 168.447 231.778 168.303 231.802C167.769 231.891 167.24 231.953 166.725 232.152C166.445 232.25 166.157 232.35 165.874 232.423C165.79 232.446 165.707 232.416 165.614 232.38C165.454 232.311 165.456 232.319 165.491 232.01L165.49 232.001C165.239 232.112 164.986 232.111 164.718 231.86C164.677 231.824 164.643 231.777 164.636 231.683C164.624 231.659 164.602 231.637 164.588 231.604C164.462 231.313 164.462 231.261 164.608 231.149C164.639 231.127 164.695 231.144 164.673 231.069C164.649 230.977 164.623 231.077 164.589 231.083C164.522 231.103 164.455 231.01 164.388 230.978C164.263 230.903 164.14 230.949 164.013 230.866C163.954 230.824 163.88 230.802 163.872 230.647C163.861 230.475 163.869 230.317 163.97 230.292C164.061 230.268 164.14 230.168 164.241 230.299C164.252 230.314 164.273 230.285 164.297 230.272C164.373 230.155 164.492 230.24 164.572 230.096C164.613 230.028 164.637 230.016 164.632 229.878C164.607 229.621 164.656 229.5 164.791 229.478C165.18 229.405 165.579 229.347 165.971 229.299C166.125 229.282 166.283 229.29 166.44 229.342C166.532 229.371 166.616 229.252 166.709 229.237C167.205 229.128 167.71 229.183 168.215 229.134C168.677 229.083 169.133 229.05 169.589 229.018C169.855 229 170.128 228.911 170.397 228.909C170.901 228.904 171.406 228.802 171.923 228.873C172.065 228.892 172.223 228.796 172.366 228.816C172.606 228.846 172.84 228.894 173.077 228.854C173.399 228.801 173.719 228.791 174.028 228.817C174.319 228.838 174.615 228.789 174.899 228.82C175.112 228.845 175.321 228.793 175.534 228.766C175.67 228.744 175.798 228.783 175.924 228.858C176.02 228.911 176.145 228.83 176.257 228.82C176.385 228.807 176.536 228.617 176.638 228.913C176.717 228.813 176.808 228.893 176.878 228.838C177.01 228.746 177.13 228.891 177.252 228.837C177.325 228.807 177.3 228.967 177.335 229.022C177.36 229.07 177.388 229.239 177.443 228.996C177.494 228.779 177.627 228.791 177.705 228.996C177.736 229.077 177.772 229.089 177.803 229.014C177.867 228.873 177.915 228.848 177.98 228.976C177.995 229.017 178.035 229.045 178.053 228.998C178.185 228.69 178.311 228.981 178.447 228.907C178.479 228.893 178.496 228.942 178.496 228.994C178.489 229.16 178.531 229.153 178.578 229.067C178.671 228.895 178.781 228.929 178.874 228.966C179.172 229.081 179.494 229.028 179.799 229.133C180.206 229.282 180.63 229.264 181.042 229.387C181.27 229.453 181.517 229.42 181.762 229.423C181.937 229.429 182.107 229.461 182.258 229.636C182.419 229.817 182.632 229.79 182.82 229.82C182.892 229.834 182.955 229.849 182.99 229.957C183.026 230.064 183.048 230.199 183.001 230.337C182.965 230.482 182.891 230.616 182.811 230.603C182.66 230.585 182.524 230.659 182.373 230.745C182.239 230.828 182.091 230.723 181.947 230.695L181.587 230.676C181.569 230.671 181.549 230.657 181.534 230.668C181.501 230.682 181.466 230.731 181.46 230.802C181.454 230.872 181.495 230.857 181.522 230.861C181.837 230.869 182.128 231.047 182.418 231.172C182.586 231.239 182.757 231.324 182.919 231.41C182.947 231.422 182.977 231.444 183.008 231.473C183.084 231.565 183.132 231.696 183.082 231.921ZM164.349 230.324C164.339 230.317 164.331 230.319 164.322 230.32C164.334 230.335 164.338 230.361 164.346 230.359C164.358 230.375 164.362 230.348 164.349 230.324ZM164.641 231.708L164.643 231.725L164.641 231.708ZM165.511 232.076C165.504 232.086 165.503 232.077 165.511 232.076V232.076Z" fill="#BAE7FF" />
  <path d="M180.693 256.162C180.568 256.244 180.394 256.247 180.36 256.148C180.329 256.014 180.229 255.936 180.229 255.779C180.232 255.744 180.228 255.667 180.157 255.765C179.993 255.983 179.929 255.855 179.81 255.927C179.603 256.04 179.697 255.876 179.677 255.81C179.659 255.753 179.662 255.665 179.576 255.671C179.515 255.672 179.484 255.643 179.501 255.588C179.582 255.34 179.326 255.426 179.192 255.405C179.093 255.387 179.029 255.363 178.998 255.281C178.874 254.954 178.642 254.715 178.451 254.452C178.315 254.266 178.142 254.112 178.013 253.917C177.967 253.846 178.023 253.715 177.963 253.665L177.919 253.611C177.76 253.594 177.563 253.618 177.641 253.353C177.442 253.36 177.589 253.041 177.368 253.069C177.334 253.075 177.305 253.062 177.293 253.038C177.193 252.803 176.995 252.662 176.798 252.521C176.758 252.493 176.734 252.454 176.781 252.368C176.643 252.217 176.37 252.202 176.32 251.95C176.284 251.791 176.159 251.716 176.042 251.64C175.935 251.571 175.856 251.463 175.779 251.371C175.726 251.31 175.674 251.258 175.597 251.219C175.454 251.139 175.253 251.085 175.224 250.908C175.201 250.721 175.17 250.587 174.953 250.64C174.936 250.643 174.881 250.626 174.912 250.552C174.943 250.477 174.926 250.428 174.882 250.426C174.628 250.416 174.589 250.128 174.359 250.105C174.067 250.076 174.025 249.77 173.806 249.659C173.655 249.589 173.503 249.51 173.401 249.37C173.245 249.162 173.032 249.033 172.766 248.955C172.565 248.893 172.439 248.714 172.277 248.576C172.236 248.54 172.195 248.503 172.207 248.414L172.212 248.396C172.16 248.396 172.085 248.417 172.054 248.388C171.813 248.089 171.361 248.095 171.164 247.746C171.113 247.65 170.976 247.716 170.889 247.661C170.566 247.446 170.263 247.193 169.848 247.105C169.739 247.08 169.647 247 169.639 246.845C169.635 246.819 169.653 246.773 169.614 246.797C169.354 246.962 169.295 246.763 169.171 246.697C168.685 246.448 168.214 246.179 167.675 246.026C167.382 245.935 167.097 245.844 166.819 245.743C166.744 245.712 166.687 245.634 166.64 245.555C166.554 245.405 166.546 245.415 166.76 245.179L166.768 245.178C166.497 245.119 166.291 244.98 166.221 244.609C166.211 244.55 166.211 244.498 166.259 244.42C166.263 244.394 166.258 244.36 166.261 244.325C166.33 244.009 166.358 243.97 166.55 243.973C166.585 243.975 166.619 244.022 166.659 243.946C166.697 243.861 166.611 243.919 166.584 243.915C166.511 243.892 166.518 243.778 166.488 243.705C166.422 243.569 166.295 243.538 166.244 243.39C166.215 243.317 166.171 243.263 166.253 243.128C166.342 242.983 166.444 242.862 166.537 242.898C166.621 242.936 166.746 242.898 166.755 243.062C166.758 243.078 166.792 243.073 166.817 243.069C166.949 243.021 166.998 243.16 167.15 243.083C167.222 243.045 167.259 243.056 167.327 242.94C167.455 242.719 167.575 242.656 167.698 242.714C168.066 242.887 168.429 243.078 168.785 243.279C168.927 243.351 169.05 243.461 169.143 243.602C169.199 243.679 169.34 243.638 169.433 243.675C169.912 243.882 170.294 244.244 170.73 244.51C171.143 244.745 171.527 245.011 171.926 245.266C172.16 245.418 172.428 245.512 172.648 245.684C173.066 245.997 173.532 246.232 173.908 246.612C174.013 246.716 174.199 246.737 174.305 246.85C174.474 247.03 174.635 247.212 174.855 247.331C175.142 247.492 175.41 247.69 175.639 247.913C175.856 248.12 176.124 248.266 176.333 248.474C176.488 248.622 176.68 248.729 176.873 248.845C176.99 248.921 177.069 249.029 177.127 249.167C177.171 249.273 177.313 249.292 177.411 249.354C177.519 249.432 177.763 249.382 177.656 249.678C177.783 249.657 177.803 249.775 177.892 249.787C178.051 249.803 178.057 249.994 178.193 250.031C178.267 250.054 178.147 250.169 178.14 250.231C178.131 250.285 178.042 250.43 178.236 250.285C178.414 250.151 178.508 250.248 178.439 250.46C178.41 250.551 178.432 250.574 178.504 250.536C178.641 250.469 178.696 250.486 178.666 250.621C178.656 250.666 178.663 250.709 178.703 250.685C178.999 250.531 178.921 250.848 179.065 250.876C179.1 250.879 179.083 250.934 179.048 250.983C178.938 251.106 178.968 251.127 179.066 251.093C179.247 251.028 179.315 251.121 179.365 251.217C179.526 251.503 179.807 251.673 179.976 251.958C180.196 252.338 180.537 252.611 180.773 252.98C180.903 253.184 181.117 253.322 181.302 253.491C181.436 253.616 181.546 253.754 181.541 253.989C181.54 254.241 181.725 254.358 181.846 254.512C181.89 254.565 181.933 254.619 181.882 254.731C181.839 254.834 181.762 254.951 181.644 255.023C181.518 255.105 181.378 255.154 181.325 255.093C181.228 254.979 181.064 254.937 180.893 254.905C180.731 254.871 180.693 254.695 180.596 254.581L180.37 254.271C180.359 254.256 180.354 254.23 180.328 254.226C180.291 254.215 180.232 254.225 180.179 254.277C180.127 254.329 180.174 254.347 180.185 254.363C180.422 254.584 180.519 254.906 180.664 255.203C180.745 255.372 180.818 255.551 180.89 255.721C180.904 255.754 180.909 255.788 180.917 255.83C180.945 255.895 180.888 256.026 180.693 256.162ZM166.851 243.063C166.85 243.054 166.84 243.047 166.83 243.04C166.824 243.059 166.82 243.085 166.829 243.084C166.833 243.109 166.855 243.088 166.851 243.063ZM166.293 244.363L166.287 244.381L166.293 244.363ZM166.784 245.167C166.777 245.177 166.777 245.177 166.784 245.167V245.167Z" fill="#BAE7FF" />
  <path d="M174.218 334.941C174.095 334.789 174.202 334.344 174.481 334.156C174.786 333.91 175.117 333.607 175.422 333.362C175.523 333.352 175.675 333.229 175.5 333.191C175.075 333.068 175.406 332.766 175.384 332.605C175.238 332.292 175.614 332.312 175.766 332.189C175.919 332.066 176.146 331.99 176.149 331.773C176.201 331.659 176.279 331.489 176.38 331.48C176.909 331.376 176.866 330.837 177.022 330.496C177.126 330.269 177.23 330.042 177.408 329.863C178.223 329.135 178.989 328.303 179.654 327.48C180.115 326.894 180.601 326.251 181.062 325.665C181.267 325.429 181.468 325.41 181.646 325.23L181.825 325.051C181.932 324.606 182.039 324.162 182.493 324.011C182.6 323.566 183.155 323.406 183.187 322.914C183.213 322.857 183.265 322.744 183.291 322.687C183.853 322.091 184.19 321.354 184.602 320.663C184.654 320.55 184.807 320.427 184.933 320.361C185.294 319.784 185.43 319.065 185.965 318.526C186.296 318.224 186.429 317.722 186.611 317.325C186.793 316.928 187.049 316.578 187.205 316.238C187.309 316.011 187.413 315.784 187.542 315.5C187.702 314.942 187.887 314.327 188.218 314.024C188.574 313.665 188.779 313.429 188.763 312.833C188.789 312.776 188.766 312.615 188.893 312.549C188.993 312.54 189.071 312.37 189.123 312.256C189.185 311.49 189.72 310.951 189.756 310.241C189.795 309.314 190.256 308.728 190.444 307.895C190.603 307.337 190.662 306.789 190.821 306.231C191.002 305.833 191.11 305.389 191.191 305.001C191.298 304.556 191.304 304.121 191.337 303.629C191.373 302.92 191.61 302.191 191.746 301.472C191.749 301.255 191.827 301.084 191.954 301.018L191.98 300.962C191.957 300.801 191.86 300.592 191.938 300.422C192.123 299.807 192.058 299.107 192.094 298.398C192.104 297.745 192.139 297.035 192.224 296.43C192.279 296.099 192.133 295.786 192.114 295.408C192.15 294.698 192.111 293.941 192.072 293.184C192.033 292.427 191.968 291.727 191.754 290.932C191.66 290.506 191.667 290.071 191.722 289.74C191.748 289.683 191.774 289.626 191.7 289.579C191.281 289.02 191.366 288.415 191.324 287.876C190.928 285.794 190.458 283.664 189.612 281.516C189.394 280.938 189.177 280.361 188.96 279.784C188.743 279.206 188.525 278.629 188.208 278.061C188.062 277.749 188.016 277.427 187.896 277.058C187.78 276.471 187.705 276.424 188.153 276.708C187.64 275.723 187.228 274.73 186.992 273.774C186.969 273.613 186.995 273.556 187.021 273.499C187.047 273.443 186.998 273.338 186.998 273.338C187.18 272.941 187.18 272.941 187.647 273.604C187.696 273.708 187.793 273.916 187.894 273.907C187.994 273.898 187.796 273.699 187.748 273.595C187.576 273.339 187.579 273.121 187.508 272.856C187.339 272.383 186.995 271.872 186.827 271.399C186.729 271.19 186.584 270.878 186.785 270.859C186.986 270.841 187.236 270.926 187.531 271.333C187.751 271.693 188.072 272.043 188.166 272.469C188.14 272.526 188.29 272.621 188.338 272.725C188.659 273.075 188.753 273.501 189.149 273.899C189.347 274.098 189.396 274.202 189.571 274.24C189.873 274.212 190.119 274.515 190.437 275.083C191.241 276.692 191.919 278.367 192.522 279.995C192.713 280.629 192.905 281.263 192.995 281.907C193.041 282.229 193.31 282.692 193.43 283.062C194.101 285.172 194.347 287.159 194.694 289.137C194.856 290.045 194.992 291.011 195.005 291.824L195.16 293.168L195.215 294.521C195.3 295.6 195.309 296.631 195.319 297.663C195.28 298.59 195.215 299.574 195.175 300.501C195.136 301.428 194.997 302.365 194.782 303.254C194.724 303.803 194.665 304.351 194.532 304.853C194.344 305.685 194.156 306.517 193.993 307.293C193.776 308.4 193.532 309.564 193.166 310.576C193.032 311.077 192.825 311.531 192.692 312.032C192.559 312.534 192.351 312.988 192.143 313.442C191.857 314.066 191.695 314.841 191.484 315.513C191.302 315.91 191.121 316.307 190.838 316.714C190.608 317.007 190.601 317.442 190.446 317.783C190.264 318.18 190.28 318.776 189.751 318.88C189.722 319.154 189.518 319.39 189.488 319.665C189.381 320.109 189.05 320.412 188.943 320.856C188.839 321.083 188.716 320.932 188.589 320.998C188.463 321.064 188.288 321.026 188.434 321.339C188.606 321.594 188.424 321.991 187.996 322.086C187.869 322.152 187.742 322.218 187.791 322.322C187.862 322.587 187.785 322.757 187.557 322.833C187.457 322.842 187.405 322.955 187.379 323.012C187.522 323.542 187.015 323.807 186.834 324.204C186.782 324.317 186.681 324.327 186.607 324.279C186.383 324.137 186.331 324.251 186.328 324.468C186.347 324.847 186.117 325.14 185.912 325.376C185.247 326.199 184.806 327.163 184.092 327.882C183.148 328.893 182.401 330.104 181.457 331.115C180.922 331.654 180.483 332.401 180.023 332.987C179.688 333.507 179.306 333.923 178.725 334.141C178.118 334.414 177.758 334.991 177.349 335.464C177.171 335.643 177.018 335.766 176.791 335.842C176.59 335.861 176.314 335.832 176.291 335.671C176.194 335.463 176.123 335.198 176.301 335.018C176.658 334.659 176.84 334.262 177.048 333.808C177.229 333.411 177.661 333.099 178.018 332.74L178.836 331.794C178.861 331.737 178.962 331.728 178.988 331.671C179.04 331.558 179.092 331.444 178.943 331.35C178.868 331.302 178.816 331.416 178.79 331.472C178.2 332.342 177.336 332.966 176.548 333.637C176.091 334.006 175.607 334.431 175.15 334.8C175.023 334.866 174.997 334.922 174.871 334.989C174.692 335.168 174.465 335.244 174.218 334.941ZM188.413 272.772L188.364 272.668C188.364 272.668 188.338 272.725 188.413 272.772C188.387 272.829 188.387 272.829 188.413 272.772Z" fill="#BAE7FF" />
  <path d="M42.9309 197.948C42.7599 198.078 41.4972 198.16 40.4789 198.078C39.1511 197.915 37.7499 198.054 36.4628 198.005C36.1776 197.997 35.534 197.98 35.811 198.078C36.4301 198.299 34.9313 198.331 34.6298 198.536C34.1166 198.822 33.4241 198.748 32.7154 198.813C32.1452 198.871 31.4527 198.879 30.8662 199.107C30.4589 199.246 29.962 199.353 29.6605 199.369C28.9192 199.426 28.2675 199.549 27.681 199.745C27.1026 199.973 26.5568 200.194 26.011 200.414C25.2208 200.733 24.5609 200.896 23.6974 201.215C22.8583 201.509 22.0193 201.803 21.1721 202.097C20.3411 202.432 19.5265 202.816 18.7037 203.175C17.8728 203.518 17.0744 203.951 16.2761 204.376C15.4859 204.809 14.6631 205.185 13.9055 205.683C11.7223 206.974 9.62868 208.411 7.62468 209.972C6.89965 210.552 6.33755 210.78 5.69399 211.368L5.1319 211.858C4.65126 212.357 4.1869 212.855 3.68182 213.329C3.20934 213.827 2.71243 214.309 2.13405 214.726C1.90594 215.003 1.65338 215.265 1.3927 215.518L0.64325 216.294C0.138176 216.809 -0.383194 217.315 -0.782364 217.936C-0.904556 218.132 -1.10821 218.41 -1.27927 218.614C-3.01445 220.566 -4.35043 222.821 -5.69459 225.124C-5.93897 225.557 -6.21595 226.014 -6.46034 226.26C-7.60898 228.253 -8.52953 230.352 -9.67816 232.353C-10.4358 233.66 -11.0712 235.098 -11.6985 236.495C-12.2769 237.785 -12.8471 239.051 -13.4174 240.326C-13.7839 241.134 -14.1098 241.91 -14.4357 242.752C-15.1037 244.434 -15.7961 246.387 -16.4641 247.784C-17.1565 249.221 -17.6453 250.283 -18.0282 251.745C-18.0526 251.851 -18.2563 252.423 -18.4111 252.644C-18.5821 252.881 -18.7858 253.354 -18.8998 253.738C-19.5515 255.895 -20.5861 258.133 -21.2053 260.126C-22.0199 262.756 -23.1034 265.06 -24.0076 267.543C-24.6267 269.25 -25.2784 270.99 -26.0116 272.714C-27.1358 275.328 -28.203 277.925 -29.2946 280.58C-30.1581 282.647 -31.2171 284.795 -32.2924 286.853C-32.5613 287.393 -32.8545 287.956 -33.1559 288.348C-33.1559 288.34 -33.1559 288.34 -33.1559 288.34C-33.1559 288.348 -33.1641 288.356 -33.1641 288.356C-33.1885 288.389 -33.213 288.422 -33.2374 288.454C-33.4411 288.904 -33.6285 289.386 -33.8484 289.786C-35.8769 293.396 -37.8564 297.08 -40.4062 300.356C-40.7484 300.797 -41.0253 301.205 -41.286 301.622C-41.5711 302.022 -41.8481 302.423 -42.1903 302.847L-44.2757 305.453L-46.5078 307.936C-47.2328 308.786 -48.023 309.562 -48.7969 310.354C-49.5871 311.13 -50.3203 311.972 -51.1268 312.715C-51.974 313.524 -53.0004 314.406 -53.921 315.059C-54.0758 315.174 -54.2061 315.223 -54.3446 315.378C-55.2977 316.456 -56.7967 317.542 -58.1082 318.523C-63.0368 322.256 -68.3482 325.45 -73.7574 328.358C-75.24 329.134 -76.7226 329.934 -78.2379 330.645C-79.7449 331.38 -81.2683 332.099 -82.808 332.768C-83.6796 333.144 -84.5838 333.52 -85.4881 333.822C-87.1174 334.386 -87.1255 334.402 -86.4982 333.839L-86.4657 333.822C-89.1784 335.015 -91.8748 335.987 -94.4735 336.649C-94.8809 336.747 -95.1497 336.796 -95.1904 336.714C-95.3452 336.738 -95.5244 336.779 -95.6385 336.787C-96.6649 336.845 -96.5834 336.763 -94.9379 336.085C-94.6283 335.954 -94.0336 335.766 -94.1558 335.725C-94.2943 335.685 -94.7261 335.93 -95.0275 336.044C-95.7769 336.322 -96.3472 336.428 -96.9907 336.616C-98.2453 336.983 -99.5731 337.449 -100.811 337.776C-101.414 337.931 -102.115 338.143 -102.066 337.964C-102.017 337.776 -101.765 337.531 -100.673 337.147C-99.7361 336.812 -98.7992 336.412 -97.8542 336.216C-97.7402 336.191 -97.4632 336.06 -97.2677 335.987H-97.2514C-96.3472 335.562 -95.1741 335.235 -94.2292 334.762C-93.7811 334.533 -93.4552 334.402 -93.4552 334.263C-93.4552 334.002 -92.8198 333.651 -91.4431 333.12C-87.4025 331.551 -83.3945 329.91 -79.4924 328.055C-77.969 327.345 -76.4538 326.642 -74.9305 325.94C-74.0425 325.556 -73.2034 324.968 -72.291 324.461C-67.5335 321.823 -62.8901 319.005 -58.5889 315.705C-54.6297 312.699 -51.0046 309.292 -47.6727 305.625C-47.1921 305.085 -46.7115 304.546 -46.2227 303.999C-45.7583 303.444 -45.3185 302.855 -44.8704 302.284C-43.9743 301.132 -43.0701 299.996 -42.2391 298.812C-39.0376 294.385 -36.3982 289.574 -33.8891 284.672C-33.1886 283.284 -32.545 281.74 -31.8607 280.286C-30.7609 277.966 -29.71 275.614 -28.7732 273.22C-27.5187 269.985 -26.256 266.726 -25.0096 263.524C-23.8854 260.526 -22.7775 257.553 -21.6615 254.563C-20.8387 252.423 -20.0648 250.242 -19.2583 248.078C-18.7369 246.689 -18.1993 245.406 -17.5883 244.075C-17.1321 243.062 -16.7003 241.845 -16.2523 240.718C-15.6983 239.378 -15.2666 237.867 -14.4764 236.821C-14.232 236.021 -13.7432 235.122 -13.4499 234.379C-12.9367 233.039 -12.2117 231.879 -11.6496 230.613C-11.34 229.927 -11.2504 230.107 -11.0386 229.805C-10.8513 229.535 -10.5336 229.266 -10.5173 228.743C-10.5173 228.261 -9.80038 226.97 -9.14053 226.162C-8.8717 225.818 -8.68434 225.508 -8.59473 225.206C-8.42366 224.642 -8.16294 224.136 -7.69045 223.548C-7.54382 223.36 -7.31574 223.041 -7.25872 222.861C-7.06321 222.265 -6.69662 221.644 -6.2893 221.015C-5.86569 220.395 -5.36875 219.774 -5.00217 219.169C-4.83109 218.883 -4.62746 218.671 -4.57043 218.687C-4.41566 218.72 -4.14683 218.369 -3.91058 217.928C-3.45438 217.086 -2.7049 216.106 -1.94728 215.338C0.382568 212.749 2.8998 210.282 5.64512 208.183C9.35171 205.332 13.3271 202.759 17.5958 200.806C18.7933 200.284 19.9908 199.679 21.2617 199.23L23.1516 198.487C23.7789 198.233 24.4387 198.07 25.0741 197.858C25.5548 197.711 26.0273 197.572 26.4916 197.433C26.9559 197.286 27.4285 197.163 27.9091 197.082C28.8541 196.894 29.799 196.73 30.744 196.6C32.7969 196.445 35.0453 196.028 37.2448 195.995C38.035 195.971 38.76 195.905 39.3547 196.028C39.9331 196.15 40.3159 196.289 40.0797 196.412C39.8272 196.559 39.2733 196.608 38.3364 196.681C36.6664 196.779 35.2164 196.853 33.693 197.221C33.0005 197.359 32.2103 197.474 31.3876 197.572C30.5729 197.735 29.742 197.899 28.9437 198.054C27.5588 198.299 26.2228 198.732 24.8705 199.116C24.6587 199.173 24.4306 199.238 24.2432 199.303C23.893 199.418 23.5915 199.598 23.6323 199.655C23.6812 199.704 24.0884 199.532 24.3491 199.467C26.0354 198.96 27.6891 198.438 29.3999 198.168L30.6707 197.923C31.0943 197.833 31.5179 197.768 31.9497 197.735L34.5158 197.457C35.0046 197.384 35.5015 197.368 35.9984 197.368L37.4811 197.335L38.9556 197.302C39.4443 197.31 39.9413 197.368 40.43 197.392C40.7885 197.417 41.1551 197.449 41.4972 197.482C42.4992 197.588 43.1998 197.735 42.9309 197.948ZM-96.9663 335.873C-97.0396 335.889 -97.1537 335.93 -97.2514 335.971C-97.1862 335.962 -97.1211 335.962 -97.0478 335.938C-96.893 335.897 -96.836 335.848 -96.9663 335.873ZM-95.2393 336.681L-95.2148 336.689L-95.2067 336.665C-95.223 336.665 -95.2393 336.681 -95.2393 336.681ZM-86.4086 333.798C-86.4575 333.83 -86.4331 333.814 -86.4086 333.798V333.798Z" fill="#BAE7FF" />
  <path d="M12.4399 252.656C12.5708 252.851 12.4644 254.285 12.3335 255.442C12.1125 256.941 12.0797 258.53 11.9815 259.98C11.9488 260.298 11.9488 261.023 12.0388 260.721C12.268 260.037 12.3007 261.732 12.4563 262.066C12.7509 262.644 12.6036 263.426 12.7182 264.2C12.7591 264.518 12.8 264.868 12.8409 265.218C12.9064 265.561 12.9965 265.911 13.1029 266.237C13.242 266.685 13.4057 267.206 13.463 267.54C13.5694 268.355 13.8886 268.999 14.1669 269.61C14.3388 269.895 14.5107 270.172 14.6826 270.441C14.8463 270.718 15.0264 270.97 15.2228 271.207C15.7467 271.94 16.205 272.478 16.8271 273.203C17.441 273.887 18.1449 274.506 18.9225 275.019L19.52 275.394L19.8229 275.582L20.183 275.785C20.6741 276.054 21.1325 276.347 21.5908 276.641C23.4243 277.822 25.1432 279.126 26.7802 280.494C29.0802 282.425 31.2902 284.454 33.3119 286.678C34.0486 287.501 34.4087 288.096 35.0717 288.878L35.6283 289.562C36.7169 290.768 37.8137 292.014 38.5013 293.587C39.5326 295.029 40.0237 296.707 40.654 298.45C40.7604 298.719 40.875 299.159 40.9077 299.501C41.0387 300.332 41.0305 301.22 40.8995 302.1C40.744 302.988 40.4248 303.86 39.9255 304.634C39.4262 305.367 38.8369 306.044 38.092 306.573C37.3554 307.095 36.5287 307.486 35.6774 307.722C35.3664 307.795 35.0308 307.869 34.7198 307.901C34.4087 307.926 34.1304 307.934 33.9094 307.909C31.0037 308.048 28.2699 307.429 25.7734 306.378C24.1446 305.677 22.4666 304.96 20.8705 304.194C19.389 303.485 17.9894 302.72 16.5979 301.937C15.7139 301.44 14.8708 300.968 13.9623 300.495C12.137 299.558 10.0089 298.426 8.56834 297.481C7.06228 296.503 5.9327 295.819 4.3448 295.298C4.2302 295.249 3.60818 295.029 3.37082 294.849C3.10889 294.646 2.58502 294.458 2.16758 294.344C0.980736 294.051 -0.247032 293.766 -1.46661 293.668C-2.6862 293.57 -3.8812 293.725 -4.9207 294.027C-5.5837 294.247 -6.17302 294.524 -6.60683 294.882C-7.03246 295.241 -7.35169 295.689 -7.53995 296.243C-7.92465 297.359 -7.81824 298.76 -7.44173 300.088C-7.28621 300.552 -7.1225 301.017 -6.96698 301.489L-6.72963 302.198L-6.42678 302.882C-6.22216 303.339 -6.02572 303.803 -5.82109 304.267L-5.10899 305.612C-3.63568 308.349 -1.63849 310.761 0.587856 313.042C2.34766 314.834 4.21384 316.749 6.03912 318.606C6.51385 319.095 7.02137 319.6 7.35696 320.048C7.34877 320.04 7.34876 320.04 7.34876 320.04C7.35695 320.048 7.3651 320.048 7.3651 320.057C7.38966 320.089 7.42242 320.13 7.44698 320.162C7.85624 320.537 8.3064 320.912 8.65836 321.303C10.2545 323.022 11.8833 324.749 13.3484 326.631C14.1096 327.544 14.7645 328.554 15.4357 329.54C16.0823 330.558 16.6634 331.658 17.0481 332.872C17.4328 334.167 17.752 335.275 17.5556 336.717C17.3346 338.168 16.5898 339.585 15.4848 340.555C14.3961 341.54 13.0865 342.143 11.7687 342.51C9.11672 343.227 6.36654 343.137 3.75549 342.371C2.41313 341.948 0.972561 341.296 -0.124245 340.53C-0.304314 340.408 -0.427113 340.294 -0.656296 340.212C-2.22784 339.618 -3.92213 338.282 -5.39545 337.125C-8.19476 334.958 -10.7321 332.579 -13.3759 330.412C-16.0115 328.244 -18.7454 326.322 -21.7739 324.986C-25.0479 323.503 -28.6002 322.615 -32.1117 322.655C-33.0939 322.664 -34.1252 322.696 -35.1074 322.818C-35.9914 322.908 -36.4252 323.038 -36.5562 323.022C-36.6871 323.006 -36.5152 322.892 -36.1387 322.647L-36.106 322.631C-39.1509 323.405 -41.8683 324.855 -44.1192 326.615C-44.4712 326.9 -44.6922 327.079 -44.7658 327.022C-44.8968 327.12 -45.0605 327.25 -45.1587 327.316C-45.6089 327.625 -45.8381 327.764 -45.789 327.625C-45.7481 327.479 -45.4534 327.047 -44.774 326.314C-44.5284 326.037 -43.9719 325.605 -44.111 325.613C-44.2583 325.637 -44.6348 326.053 -44.8722 326.322C-45.5025 326.965 -45.9854 327.397 -46.4847 327.967C-47.4505 329.092 -48.1872 330.534 -48.7192 331.886C-48.9811 332.546 -49.194 333.353 -49.3168 333.214C-49.3822 333.133 -49.4232 333.002 -49.4068 332.717C-49.3822 332.432 -49.3495 331.992 -49.0958 331.348C-48.7192 330.224 -48.2036 329.108 -47.4669 328.236C-47.3769 328.13 -47.1886 327.829 -47.0495 327.617L-47.0331 327.609C-46.3947 326.607 -45.347 325.613 -44.4793 324.725C-44.0619 324.301 -43.7263 324.049 -43.759 323.91C-43.7918 323.78 -43.6608 323.552 -43.3007 323.258C-42.9569 322.949 -42.4085 322.558 -41.6064 322.126C-39.2736 320.863 -36.6626 320.065 -34.0188 319.837C-31.3832 319.6 -28.723 319.861 -26.1938 320.48C-24.213 320.961 -22.3305 321.702 -20.5543 322.607C-19.523 323.128 -18.4098 323.617 -17.3375 324.26C-11.7307 327.65 -7.53177 332.456 -2.63708 336.041C-0.410728 337.703 1.97116 339.08 4.49217 339.976C6.88222 340.775 9.68968 340.799 11.9815 339.935C13.2993 339.406 14.3961 338.526 14.8381 337.377C15.362 336.229 15.231 334.884 14.7317 333.532C14.2733 332.253 13.4712 330.99 12.5954 329.743C12.1943 329.108 11.7032 328.521 11.2449 327.91C10.7947 327.299 10.279 326.729 9.78791 326.142C7.78256 323.821 5.5726 321.621 3.36262 319.372C2.11848 318.101 0.686085 316.798 -0.582607 315.429C-2.60433 313.237 -4.54422 310.899 -6.23035 308.349C-6.82787 307.51 -7.31079 306.581 -7.81826 305.677C-8.08837 305.229 -8.26026 304.732 -8.48125 304.259C-8.6777 303.779 -8.92324 303.314 -9.08694 302.809C-9.38979 301.791 -9.77452 300.854 -9.97915 299.746C-10.1756 298.662 -10.2656 297.505 -10.0364 296.283C-9.82358 295.159 -9.23427 293.953 -8.26024 293.13C-7.2944 292.316 -6.2058 291.925 -5.2154 291.68C-3.22643 291.191 -1.12281 291.224 0.808872 291.639C3.60818 292.218 6.12915 293.383 8.49465 294.605C10.0171 295.395 11.3676 296.226 12.7591 297.082C13.7986 297.725 15.1328 298.345 16.3442 299.004C17.7766 299.778 19.389 300.438 20.5186 301.335C21.378 301.669 22.3602 302.231 23.1787 302.557C24.6357 303.135 25.9535 303.828 27.3777 304.267C28.1553 304.487 27.9834 304.602 28.3435 304.764C28.6628 304.903 29.0229 305.188 29.5632 305.074C30.0543 305.001 31.5275 305.318 32.5343 305.538C32.9599 305.644 33.3201 305.636 33.6229 305.547C34.1632 305.376 34.6706 305.294 35.3255 305.196C35.5465 305.18 35.8657 305.05 35.9884 304.952C36.3895 304.577 36.856 304.251 37.2898 303.795C37.7318 303.306 38.0593 302.809 38.1984 302.271C38.2312 302.011 38.3212 301.791 38.3867 301.783C38.5749 301.766 38.5831 301.359 38.5095 300.927C38.3458 300.096 38.1247 298.972 37.7564 297.962C36.545 294.67 34.1141 291.648 31.6831 288.861C28.3272 285.081 24.3656 281.676 20.1748 278.881C19.8801 278.694 19.5773 278.515 19.2826 278.327C18.9716 278.148 18.7015 278.009 18.3414 277.789C17.6456 277.374 16.9417 276.967 16.3115 276.437C15.6403 275.964 15.0837 275.353 14.4943 274.783C13.9705 274.156 13.4303 273.537 13.0128 272.844C11.7032 270.832 10.9338 268.648 10.5982 266.465C10.2217 264.102 9.95982 261.503 10.0171 259.01C10.0089 258.106 10.099 257.291 10.2217 256.623C10.3609 255.972 10.5409 255.556 10.6473 255.833C10.7537 256.118 10.8438 256.762 10.7865 257.829C10.7129 259.727 10.8192 261.373 11.1139 263.117C11.3676 264.689 11.6214 266.718 12.2352 268.469C12.7591 269.976 13.4139 271.451 14.3388 272.771C14.4616 272.991 14.6499 273.194 14.7972 273.366C15.0755 273.675 15.3701 273.96 15.3947 273.887C15.4274 273.814 15.0919 273.439 14.9036 273.203C13.6595 271.638 12.8246 269.813 12.2844 267.948C11.7441 266.074 11.4659 264.143 11.3676 262.196C11.253 259.955 11.384 257.723 11.6459 255.515C11.6951 255.108 11.7441 254.692 11.8178 254.318C12.0224 253.128 12.2516 252.346 12.4399 252.656ZM-46.8121 327.332C-46.8694 327.389 -46.9676 327.503 -47.0331 327.617C-46.9758 327.568 -46.9185 327.519 -46.8612 327.454C-46.7303 327.307 -46.7057 327.234 -46.8121 327.332ZM-44.7904 327.055L-44.7658 327.047V327.014C-44.774 327.039 -44.7904 327.055 -44.7904 327.055ZM-36.0078 322.68C-36.0569 322.696 -36.0323 322.688 -36.0078 322.68V322.68Z" fill="#BAE7FF" />
  <path d="M34.67 13.6573C34.67 13.7919 34.3345 14.0611 33.999 14.1284C33.5965 14.1956 33.1939 14.3302 32.7913 14.3975C32.7243 14.3975 32.5229 14.4648 32.59 14.5321C32.8584 14.734 32.4558 14.8685 32.3888 15.0031C32.3217 15.2723 32.0533 15.205 31.852 15.2723C31.7178 15.3396 31.4494 15.4069 31.3823 15.5414C31.3152 15.676 31.181 15.7433 31.0469 15.7433C30.5101 15.7433 30.3759 16.2143 30.1746 16.4835C29.9734 16.6854 29.8392 16.8199 29.6379 16.9545C29.1682 17.291 28.6985 17.5601 28.3631 17.9639C27.9605 18.3676 27.5579 18.7041 27.2225 19.1751C26.9541 19.4442 26.6857 19.7807 26.4844 20.0498C26.2831 20.3863 26.0148 20.7227 25.8135 20.9919C25.6122 21.1938 25.4109 21.3283 25.3438 21.5302L25.2096 21.7321C25.0754 22.1358 25.0084 22.6068 24.6058 22.876C24.5387 23.347 24.0019 23.6162 24.069 24.0872C24.069 24.1545 24.069 24.2891 24.0019 24.3564C23.5993 25.0966 23.4652 25.904 23.2639 26.7115C23.2639 26.8461 23.1968 27.048 23.0626 27.1152C22.9955 27.4517 22.9955 27.7881 22.9284 28.1919C22.9284 28.5283 22.9284 28.8648 22.7942 29.2685C22.66 29.7396 22.7271 30.2106 22.7271 30.6816C22.7271 31.0853 22.7942 31.4891 22.7942 31.8255L22.7271 32.7003C22.7271 33.104 22.66 33.4405 22.66 33.8442C22.5929 34.1134 22.3245 34.5171 21.9891 34.719C21.7878 34.7863 21.5865 34.8536 21.4523 34.8536C21.251 34.8536 21.1839 34.8536 20.9827 34.719C20.4459 34.3825 20.1104 34.1134 19.7079 34.0461C19.6408 33.9788 19.5066 33.9788 19.3724 33.9115C19.3053 33.9115 19.104 33.7096 18.9698 33.5751C18.9027 33.3732 18.7014 33.2386 18.5673 33.1713C18.0305 32.9022 17.8292 32.7676 17.4937 32.4984C17.2253 32.2965 16.8899 32.0947 16.5544 31.9601C16.1518 31.8255 15.8164 31.6236 15.4138 31.4218C15.0783 31.2199 14.7429 31.018 14.3403 30.8835C13.8035 30.6816 13.2668 30.4797 12.73 30.2779C12.3274 30.076 11.9249 29.9414 11.5223 29.8068C11.1197 29.6723 10.6501 29.605 10.2475 29.5377C9.91202 29.5377 9.57657 29.4704 9.174 29.3358C8.83853 29.2685 8.50303 29.2012 8.10046 29.1339C7.89917 29.1339 7.6979 29.0667 7.56371 28.9994H7.49663C7.36244 28.9994 7.16115 29.0666 7.02696 29.0666C5.75216 28.9321 4.54447 29.2012 3.26967 29.2685C2.9342 29.2685 2.73288 29.4704 2.39741 29.5377C1.12261 29.8741 -0.152183 30.2779 -1.1586 31.1526C-1.42698 31.3545 -1.76243 31.5564 -2.0979 31.6237C-2.165 31.6237 -2.2321 31.6237 -2.2321 31.691C-2.43339 32.162 -2.90305 32.4311 -3.23852 32.7003C-4.58042 33.9788 -5.65396 35.4592 -6.3249 37.1414C-6.45909 37.6124 -6.66034 38.0835 -6.79453 38.4872L-6.92873 39.1601C-6.99583 39.362 -7.06293 39.6311 -7.06293 39.833C-7.13002 40.1021 -7.19711 40.3713 -7.2642 40.6405C-7.39839 41.1115 -7.39842 41.1115 -7.6668 40.8423C-7.6668 41.7171 -7.66679 42.5246 -7.86807 43.3321C-7.86807 43.4666 -7.93518 43.5339 -8.00227 43.5339C-8.00227 43.6012 -8.06935 43.6685 -8.06935 43.6685C-8.33773 44.0049 -8.40481 44.005 -8.6061 43.4666C-8.67319 43.3321 -8.6732 43.1975 -8.7403 43.1975C-8.80739 43.2648 -8.67322 43.3994 -8.67322 43.4666C-8.60612 43.7358 -8.67322 43.9377 -8.67322 44.1395C-8.67322 44.3414 -8.67319 44.6106 -8.6061 44.8124C-8.539 45.0143 -8.539 45.2162 -8.4719 45.4853C-8.4719 45.6872 -8.40481 45.9563 -8.6061 45.9563C-8.80738 45.9563 -8.94158 45.9563 -9.07577 45.5526C-9.20996 45.2162 -9.41126 44.8797 -9.34417 44.5433C-9.34417 44.476 -9.41124 44.4087 -9.41124 44.3414C-9.61253 44.0049 -9.54543 43.6012 -9.74672 43.2648C-9.81381 43.1302 -9.8138 42.9956 -9.94799 42.9956C-10.2164 42.9956 -10.3506 42.7264 -10.3506 42.1881C-10.3506 40.5732 -10.1493 38.9582 -9.61252 37.4778C-9.41124 36.8722 -9.14285 36.3339 -8.80737 35.7956C-8.60609 35.5264 -8.53903 35.1227 -8.33774 34.7863C-7.39842 33.0367 -6.0565 31.5564 -4.58042 30.2779C-3.23852 29.0667 -1.69537 28.1246 0.0490932 27.4517C0.585852 27.3171 1.05555 27.048 1.59231 26.9134C2.12906 26.7788 2.59872 26.6442 3.13548 26.5769C5.08122 26.2405 7.09407 26.1732 8.97272 26.5096C9.50948 26.5769 10.1133 26.6442 10.6501 26.7788C11.5223 26.9807 12.3945 27.3171 13.2668 27.519C14.4074 27.8554 15.548 28.3265 16.6215 28.8648C17.6279 29.3358 18.5672 29.8741 19.5066 30.4797L19.7079 30.6143L19.775 30.6816C19.842 30.6816 19.9092 30.7489 19.9092 30.7489C19.9092 30.7489 19.9092 30.8162 20.0434 30.8835C20.1104 30.9508 20.0433 30.7489 19.9762 30.7489L19.9092 30.6816C19.9092 30.6816 19.9092 30.6816 20.0434 30.7489C19.9763 30.7489 19.9762 30.7489 19.9762 30.7489V30.6816V30.547C19.9762 30.4797 19.9762 30.4125 19.9762 30.3452C19.9091 30.076 19.9092 29.8741 19.9092 29.605C19.9092 29.3358 19.9762 29.1339 19.9762 28.8648C19.9762 28.5956 20.1104 28.6629 20.1775 28.5283C20.2446 28.3938 20.4459 28.3265 20.1775 28.1246C19.9091 27.9227 20.0433 27.4517 20.3117 27.1152C20.4459 26.9807 20.4459 26.8461 20.3788 26.7115C20.2446 26.5096 20.2446 26.3078 20.4459 26.0386C20.513 25.9713 20.5801 25.8367 20.513 25.7695C20.3117 25.2984 20.7143 24.7601 20.7814 24.2891C20.7814 24.1545 20.8485 24.0872 20.9156 24.0872C21.1169 24.0872 21.1168 23.9526 21.1168 23.8181C21.0498 23.4816 21.184 23.0779 21.3852 22.7414C21.6536 22.2031 21.922 21.6648 22.1903 21.1265C22.4587 20.5882 22.7942 20.0498 23.1297 19.5788C24.069 18.3003 25.0754 16.9545 26.2831 15.8779C26.6186 15.5414 26.9541 15.2723 27.2896 14.9358L27.8263 14.4648L28.3631 14.0611C28.6314 13.8592 28.8998 13.6573 29.1682 13.5227C29.4366 13.3882 29.7721 13.2536 30.1076 13.1863C30.7785 12.9844 31.5165 12.648 32.1875 12.3115C32.4559 12.1769 32.6571 12.1097 32.9255 12.1769C33.1268 12.2442 33.3281 12.3115 33.261 12.4461C33.261 12.648 33.1268 12.7826 32.7913 12.9171C32.2546 13.119 31.852 13.3882 31.4495 13.7246C31.0469 13.9938 30.5101 14.2629 30.0404 14.4648C29.6379 14.6667 29.2353 14.9358 28.8998 15.205C28.8327 15.2723 28.7656 15.2723 28.6985 15.3396C28.6314 15.4068 28.5644 15.5414 28.6315 15.6087C28.6986 15.676 28.7656 15.5414 28.8327 15.5414C29.7721 14.8685 30.7785 14.3975 31.852 13.9938C32.4559 13.7919 33.0597 13.59 33.6636 13.4555C33.7978 13.4555 33.8648 13.3882 33.999 13.3882C34.4016 13.3209 34.67 13.3882 34.67 13.6573ZM-9.34417 44.3414C-9.34417 44.3414 -9.34417 44.4087 -9.34417 44.476C-9.27707 44.4087 -9.27707 44.4087 -9.34417 44.3414C-9.27707 44.2741 -9.34417 44.2741 -9.34417 44.3414Z" fill="#BAE7FF" />
  <path d="M150.962 19.0543C150.93 18.9991 150.415 18.6452 150.254 18.665C150.192 18.6642 150.231 18.6666 150.249 18.6558C150.258 18.6505 150.317 18.6038 150.34 18.5785L150.362 18.5532L150.366 18.5387L150.375 18.5333L151.01 17.7197L151.054 17.7312C151.22 17.7827 151.161 17.7674 151.185 17.7659L151.205 17.7789C151.323 17.8334 151.423 17.8986 151.504 17.9746C151.702 18.1672 151.89 18.3413 152.025 18.5952C152.17 18.8436 152.194 19.138 152.13 19.4093C152.113 19.5296 152.017 19.8078 152.17 19.6692C152.409 19.444 152.453 19.6894 152.506 19.9294C152.518 20.0337 152.538 20.1325 152.58 20.1824C152.702 20.3082 152.689 20.476 152.638 20.6416C152.615 20.7289 152.577 20.8125 152.539 20.896C152.513 20.9358 152.483 20.9902 152.457 21.0301C152.4 21.1864 152.292 21.3604 152.361 21.5421C152.407 21.6632 152.383 21.8127 152.311 21.8793C151.966 22.2401 152.214 22.6013 152.269 22.9509C152.314 23.1962 152.307 23.3971 152.222 23.6316C151.886 24.5788 151.725 25.572 151.492 26.5461C151.32 27.2252 151.216 27.9142 151.03 28.5894C150.965 28.8369 150.768 28.9641 150.73 29.1955L150.676 29.3994C150.735 29.7965 150.837 30.2051 150.475 30.5145C150.574 30.9377 150.087 31.2455 150.22 31.6856C150.234 31.7515 150.231 31.8519 150.206 31.9155C149.949 32.5953 149.847 33.3081 149.729 34.0171C149.709 34.152 149.656 34.2938 149.531 34.3542C149.379 34.9605 149.464 35.6136 149.157 36.1867C148.956 36.5622 148.907 36.9853 148.847 37.39C148.785 37.7709 148.674 38.1311 148.573 38.4859C148.511 38.7189 148.454 38.9373 148.436 39.1818C148.377 39.6723 148.369 40.2312 148.13 40.6043C147.888 40.992 147.72 41.2747 147.853 41.7148C147.86 41.7478 147.856 41.9102 147.749 41.96C147.633 42.0151 147.575 42.1477 147.586 42.2519C147.655 42.8775 147.273 43.4698 147.305 44.0547C147.354 44.8152 146.944 45.4234 146.86 46.1255C146.809 46.6107 146.741 47.1066 146.585 47.5794C146.34 48.3013 146.229 49.0433 146.188 49.819C146.155 50.4176 145.941 51.023 145.797 51.6239C145.764 51.7787 145.722 51.9389 145.6 52.0469L145.595 52.0377L145.6 52.0469L145.569 52.0775C145.587 52.2148 145.634 52.3597 145.594 52.4815C145.261 53.5383 145.357 54.6775 144.96 55.7097C144.849 55.984 144.961 56.2394 144.917 56.5238C144.699 57.6734 144.443 58.8207 144.436 59.9951C144.432 60.3055 144.349 60.6496 144.147 60.9155C144.111 60.9607 144.051 60.9836 144.088 61.048C144.364 61.479 144.115 61.9196 144.071 62.3519C143.878 63.9677 143.656 65.5757 143.635 67.19L143.551 69.8392C143.547 70.0875 143.467 70.3312 143.378 70.5803C143.225 71.0148 143.239 71.0187 142.881 70.7838L142.875 70.7746C142.887 71.5565 142.791 72.3022 142.395 72.9765C142.335 73.0853 142.263 73.1519 142.148 73.1449C142.108 73.1809 142.078 73.2353 142.041 73.2568C141.645 73.4872 141.582 73.4626 141.508 72.9758C141.492 72.8861 141.535 72.7259 141.43 72.7374C141.317 72.7541 141.426 72.8998 141.427 72.9857C141.426 73.1957 141.293 73.3474 141.223 73.5237C141.087 73.8616 141.102 74.2472 140.951 74.5813C140.876 74.7483 140.826 74.9377 140.633 74.9022C140.425 74.863 140.233 74.7654 140.246 74.4496C140.248 74.1775 140.168 73.8915 140.357 73.6456C140.379 73.6204 140.35 73.5268 140.341 73.47L140.351 73.4647C140.237 73.1855 140.384 72.8661 140.236 72.5701C140.165 72.4266 140.159 72.3315 139.995 72.3038C139.682 72.2522 139.549 72.0459 139.571 71.6389C139.658 70.4547 139.768 69.2689 139.879 68.0832C139.93 67.6217 140.026 67.1718 140.174 66.7281C140.258 66.4699 140.163 66.18 140.178 65.888C140.283 64.3971 140.659 62.9463 140.855 61.464C141.056 60.115 141.294 58.7684 141.524 57.4271C141.669 56.64 141.728 55.8298 141.893 55.0557C142.195 53.5857 142.392 52.1033 142.782 50.6564C142.89 50.2487 142.874 49.7772 142.991 49.3642C143.177 48.689 143.377 48.0176 143.472 47.3339C143.599 46.4096 143.798 45.4807 144.018 44.5886C144.222 43.7548 144.345 42.907 144.555 42.0824C144.703 41.4907 144.774 40.8706 144.864 40.2636C144.92 39.8735 145.036 39.5225 145.203 39.1539C145.329 38.8834 145.301 38.5178 145.353 38.2043C145.414 37.8234 145.256 37.361 145.694 37.1184C145.617 36.8799 145.768 36.6317 145.74 36.414C145.705 36.0153 145.943 35.7043 145.948 35.3318C145.954 35.1309 146.145 35.2047 146.221 35.1235C146.293 35.0568 146.518 34.9996 146.249 34.8115C146.004 34.6458 146.095 34.2724 146.386 34.0534C146.51 33.9692 146.537 33.8673 146.459 33.7768C146.314 33.5904 146.314 33.4425 146.504 33.2825C146.563 33.2357 146.619 33.1415 146.573 33.0824C146.256 32.6874 146.687 32.3259 146.663 31.9457C146.662 31.8599 146.725 31.7986 146.801 31.8033C147.004 31.8333 147.02 31.713 146.934 31.5657C146.768 31.2804 146.863 30.9785 146.956 30.7148C147.254 29.8512 147.34 28.9391 147.599 28.0731C147.964 26.8998 148.129 25.6819 148.426 24.4986C148.594 23.8341 148.649 23.1243 148.738 22.4315C148.796 21.9171 148.899 21.4381 149.161 20.9776C149.251 20.8144 149.321 20.6381 149.367 20.4634C149.408 20.3653 149.411 20.327 149.425 20.245L149.445 20.048C149.45 19.9713 149.409 19.9215 149.483 19.8165C149.548 19.7169 149.631 19.5829 149.811 19.4903C149.991 19.3977 150.286 19.312 150.416 19.4708C150.559 19.6955 150.477 19.9155 150.549 20.1447C150.57 20.2436 150.587 20.3571 150.613 20.4652C150.679 20.8332 150.499 21.3075 150.421 21.7229L150.191 22.8304C150.175 22.8887 150.151 22.9523 150.154 22.9998C150.165 23.104 150.209 23.2015 150.301 23.21C150.392 23.2185 150.384 23.0996 150.404 23.0268C150.524 22.0695 150.83 21.2626 151.096 20.2578L151.142 20.0831C151.191 19.8079 151.302 19.5336 151.27 19.2446C151.222 18.9517 150.987 18.7806 150.777 18.6317L150.642 18.5258L150.58 18.4629L150.55 18.4315C150.535 18.4277 150.559 18.4261 150.515 18.4145L150.495 18.4015L150.481 18.3977L150.366 18.5387L150.357 18.544L150.343 18.564C150.173 18.7371 150.211 18.6535 150.265 18.6835C150.419 18.6928 150.49 18.7741 150.683 18.8716C150.777 18.9276 150.788 18.946 150.802 18.9498L150.858 19.0035L150.962 19.0543C150.978 19.0819 151.007 19.0896 150.962 19.0543ZM140.379 73.3865C140.366 73.4065 140.373 73.4394 140.365 73.4685C140.393 73.4524 140.42 73.4364 140.424 73.4218C140.436 73.3781 140.396 73.3521 140.379 73.3865ZM142.139 73.1503L142.163 73.1488L142.134 73.1411L142.139 73.1503ZM142.932 70.7662C142.937 70.7754 142.937 70.7754 142.932 70.7662V70.7662Z" fill="#BAE7FF" />
  <path d="M198.6 50.4943C198.617 50.4326 198.506 49.8185 198.378 49.7182C198.335 49.6735 198.361 49.7024 198.381 49.7079C198.391 49.7106 198.466 49.7196 198.5 49.7176L198.533 49.7156L198.547 49.7081L198.557 49.7109L199.582 49.5886L199.604 49.6277C199.685 49.7815 199.654 49.7293 199.672 49.7451L199.677 49.7684C199.721 49.8906 199.745 50.0073 199.749 50.1184C199.752 50.3949 199.76 50.6508 199.676 50.9257C199.601 51.2035 199.409 51.4275 199.171 51.5733C199.074 51.6466 198.809 51.7739 199.015 51.7851C199.343 51.7958 199.2 52.0001 199.068 52.2071C199.002 52.2886 198.946 52.3729 198.94 52.4374C198.937 52.613 198.808 52.7219 198.655 52.802C198.576 52.8471 198.491 52.8793 198.405 52.9115C198.358 52.921 198.298 52.9381 198.252 52.9476C198.101 53.0174 197.901 53.0631 197.821 53.24C197.767 53.3579 197.644 53.4463 197.546 53.4421C197.047 53.4518 196.965 53.8817 196.756 54.1675C196.613 54.3718 196.466 54.5088 196.24 54.6135C195.331 55.0425 194.513 55.628 193.657 56.1484C193.054 56.505 192.492 56.9167 191.881 57.2603C191.66 57.3883 191.431 57.338 191.24 57.4743L191.057 57.5796C190.817 57.9011 190.599 58.2616 190.124 58.2227C189.893 58.5908 189.332 58.4625 189.114 58.867C189.077 58.9232 189.003 58.9917 188.941 59.019C188.277 59.3153 187.699 59.7447 187.113 60.1611C187.003 60.2419 186.865 60.3042 186.734 60.258C186.197 60.5771 185.793 61.0973 185.17 61.2831C184.762 61.4054 184.427 61.6684 184.098 61.9109C183.784 62.1355 183.45 62.3106 183.127 62.4886C182.918 62.6091 182.723 62.7221 182.537 62.8817C182.147 63.1851 181.745 63.5736 181.312 63.667C180.866 63.768 180.547 63.8479 180.328 64.2524C180.309 64.2805 180.191 64.3921 180.081 64.3515C179.96 64.3082 179.825 64.3602 179.759 64.4417C179.363 64.931 178.674 65.077 178.282 65.5121C177.776 66.0823 177.056 66.2199 176.498 66.6549C176.118 66.9611 175.718 67.2617 175.273 67.4841C174.588 67.8187 173.983 68.2632 173.404 68.7804C172.955 69.1785 172.375 69.4529 171.848 69.7747C171.714 69.8603 171.571 69.9431 171.408 69.9326L171.411 69.9223L171.408 69.9326L171.364 69.9319C171.28 70.0415 171.21 70.1772 171.096 70.2347C170.111 70.7425 169.37 71.6135 168.358 72.0589C168.085 72.1731 167.982 72.4323 167.75 72.6015C166.78 73.2568 165.785 73.8832 164.947 74.7061C164.724 74.9219 164.422 75.1055 164.09 75.149C164.033 75.1558 163.974 75.1289 163.955 75.2009C163.843 75.7002 163.355 75.8341 163.018 76.1074C161.735 77.1087 160.437 78.084 159.277 79.2062L157.337 81.0128C157.159 81.1855 156.929 81.3004 156.69 81.4127C156.273 81.6097 156.281 81.6228 156.195 81.2028L156.198 81.1925C155.651 81.7516 155.054 82.2092 154.297 82.4031C154.177 82.4372 154.079 82.433 154.003 82.3465C153.949 82.343 153.889 82.3601 153.848 82.349C153.406 82.2305 153.378 82.1681 153.672 81.7726C153.725 81.6986 153.868 81.6158 153.787 81.5498C153.695 81.4811 153.669 81.6615 153.608 81.7224C153.458 81.8697 153.257 81.8819 153.082 81.9564C152.747 82.098 152.484 82.3803 152.141 82.5089C151.969 82.5732 151.799 82.6711 151.688 82.5091C151.57 82.334 151.504 82.1288 151.737 81.9157C151.932 81.7252 152.078 81.4668 152.386 81.4281C152.42 81.4261 152.465 81.339 152.499 81.2931L152.51 81.2958C152.628 81.0188 152.958 80.8978 153.064 80.5845C153.116 80.4329 153.179 80.3617 153.083 80.2257C152.899 79.9669 152.952 79.7275 153.256 79.4563C154.158 78.6836 155.077 77.9266 155.997 77.1697C156.361 76.8814 156.747 76.6321 157.166 76.4248C157.409 76.3023 157.548 76.0308 157.765 75.8356C158.898 74.8601 160.192 74.1043 161.382 73.1995C162.481 72.3914 163.605 71.6121 164.718 70.8301C165.379 70.3788 165.995 69.8493 166.661 69.4213C167.918 68.6004 169.108 67.6956 170.41 66.9529C170.775 66.742 171.098 66.3987 171.474 66.1906C172.084 65.847 172.702 65.5164 173.254 65.1021C174 64.5411 174.799 64.0276 175.587 63.5553C176.323 63.113 177.011 62.6027 177.744 62.1708C178.268 61.8593 178.758 61.4723 179.252 61.1086C179.569 60.8737 179.899 60.7088 180.279 60.5679C180.56 60.4667 180.799 60.1892 181.058 60.005C181.372 59.7803 181.589 59.3423 182.069 59.4821C182.184 59.2593 182.467 59.1917 182.602 59.0184C182.86 58.7127 183.248 58.6624 183.516 58.4034C183.663 58.2664 183.745 58.4538 183.856 58.4505C183.954 58.4547 184.154 58.5743 184.097 58.2505C184.043 57.9602 184.371 57.7617 184.732 57.8142C184.879 57.8425 184.97 57.7898 184.98 57.6711C185.01 57.4366 185.115 57.3325 185.362 57.3547C185.437 57.3637 185.544 57.3371 185.553 57.2624C185.61 56.7596 186.17 56.8103 186.423 56.5253C186.483 56.4643 186.571 56.4658 186.621 56.5234C186.743 56.6882 186.84 56.615 186.884 56.4504C186.969 56.1315 187.251 55.9863 187.503 55.8666C188.326 55.4697 189.033 54.8875 189.831 54.4618C190.92 53.8937 191.901 53.1533 192.95 52.5304C193.54 52.1812 194.082 51.7202 194.637 51.2956C195.043 50.9743 195.456 50.71 195.967 50.5714C196.146 50.5201 196.32 50.4456 196.477 50.3552C196.576 50.3156 196.605 50.2902 196.673 50.2423L196.827 50.1183C196.885 50.0676 196.891 50.0032 197.018 49.982C197.135 49.9582 197.287 49.922 197.48 49.9847C197.673 50.0473 197.942 50.1964 197.92 50.4002C197.861 50.6601 197.648 50.7573 197.536 50.9698C197.48 51.0541 197.412 51.1459 197.353 51.2405C197.139 51.5469 196.676 51.7535 196.325 51.9904L195.377 52.6073C195.325 52.6374 195.263 52.6648 195.231 52.7004C195.165 52.782 195.127 52.8822 195.185 52.9529C195.244 53.0236 195.323 52.9345 195.388 52.8969C196.152 52.3078 196.941 51.9569 197.841 51.4373L197.997 51.3469C198.227 51.1881 198.5 51.0738 198.682 50.847C198.857 50.6071 198.813 50.3196 198.77 50.0657L198.75 49.8949L198.751 49.8071L198.752 49.7632C198.745 49.7502 198.763 49.766 198.74 49.7268L198.735 49.7036L198.728 49.6905L198.547 49.7081L198.536 49.7053L198.513 49.7101C198.27 49.7112 198.356 49.6791 198.373 49.7388C198.474 49.8541 198.467 49.9625 198.534 50.1677C198.56 50.274 198.555 50.2946 198.562 50.3077L198.564 50.3852L198.6 50.4943C198.592 50.5252 198.607 50.5513 198.6 50.4943ZM152.585 81.2609C152.562 81.2657 152.543 81.2938 152.517 81.3089C152.548 81.3172 152.579 81.3254 152.592 81.3179C152.631 81.2953 152.622 81.2486 152.585 81.2609ZM153.993 82.3437L154.011 82.3596L153.996 82.3334L153.993 82.3437ZM156.244 81.2269C156.241 81.2372 156.241 81.2372 156.244 81.2269V81.2269Z" fill="#BAE7FF" />
  <path d="M166.641 49.1391C166.645 49.1527 166.641 49.1391 166.641 49.1391V49.1391Z" fill="#BAE7FF" />
  <path d="M176.742 31.3039C176.869 31.4227 176.88 31.6816 176.754 31.7808C176.577 31.9082 176.476 32.1025 176.262 32.1964C176.216 32.216 176.106 32.2672 176.241 32.3109C176.543 32.4047 176.391 32.5692 176.493 32.7089C176.667 32.9241 176.437 32.9058 176.348 32.9806C176.277 33.0431 176.154 33.098 176.182 33.2288C176.199 33.3188 176.15 33.3827 176.074 33.3959C175.719 33.4547 175.865 33.7573 175.857 33.9704C175.848 34.1257 175.819 34.2352 175.71 34.3444C175.284 34.764 174.991 35.2716 174.646 35.7495C174.408 36.0824 174.225 36.4587 173.974 36.7952C173.882 36.9143 173.694 36.9209 173.634 37.0463L173.565 37.1446C173.559 37.3935 173.6 37.6808 173.245 37.7396C173.272 38.0306 172.831 38.0397 172.883 38.3456C172.889 38.3949 172.882 38.4479 172.84 38.481C172.531 38.7963 172.352 39.1861 172.182 39.581C172.151 39.6548 172.089 39.7223 171.978 39.7156C171.785 40.029 171.782 40.4517 171.447 40.6942C171.228 40.8547 171.147 41.0946 171.04 41.3197C170.943 41.5275 170.817 41.7069 170.685 41.8948C170.607 42.0103 170.537 42.1308 170.489 42.2748C170.388 42.5491 170.318 42.8877 170.077 43.0468C169.828 43.201 169.656 43.3198 169.717 43.6306C169.725 43.6577 169.697 43.7451 169.595 43.7434C169.493 43.7418 169.427 43.7957 169.432 43.8672C169.425 44.2763 169.028 44.5062 169.002 44.8696C168.956 45.3476 168.545 45.5811 168.401 45.9908C168.3 46.2652 168.194 46.5482 168.001 46.7815C167.713 47.1425 167.532 47.5545 167.407 48.0099C167.314 48.3694 167.057 48.6566 166.868 48.9835C166.818 49.0696 166.76 49.1507 166.643 49.1748L166.634 49.1698L166.607 49.1771C166.602 49.2658 166.622 49.3694 166.579 49.4247C166.168 49.9565 166.112 50.6697 165.625 51.1568C165.492 51.2869 165.565 51.4782 165.476 51.6331C165.14 52.2539 164.753 52.845 164.577 53.5466C164.526 53.7349 164.405 53.9057 164.19 53.9996C164.158 54.0155 164.096 54.0029 164.119 54.0622C164.294 54.4154 164.007 54.594 163.895 54.8277C163.472 55.7193 162.989 56.5761 162.639 57.5209C162.439 58.0253 162.218 58.5284 161.987 59.0264C161.921 59.1605 161.807 59.2782 161.668 59.3811C161.434 59.5674 161.443 59.5724 161.211 59.278L161.207 59.2645C161.033 59.7259 160.756 60.1054 160.242 60.3015C160.155 60.332 160.084 60.3366 160.003 60.2783C159.967 60.2806 159.926 60.2915 159.882 60.2888C159.494 60.2255 159.452 60.1785 159.532 59.8806C159.545 59.819 159.629 59.7529 159.533 59.7204C159.433 59.6744 159.475 59.8015 159.459 59.8495C159.394 59.9613 159.246 59.9791 159.145 60.0354C158.942 60.1479 158.845 60.3557 158.625 60.4582C158.529 60.5059 158.426 60.5843 158.291 60.4604C158.139 60.3267 158.028 60.182 158.117 60.0271C158.196 59.8895 158.199 59.707 158.414 59.671C158.441 59.6638 158.44 59.6058 158.455 59.58C158.44 59.3877 158.641 59.2974 158.602 59.068C158.581 58.9644 158.603 58.9078 158.47 58.8197C158.227 58.6449 158.183 58.482 158.297 58.2841L159.312 56.5067C159.446 56.2744 159.615 56.0619 159.818 55.8693C159.935 55.7651 159.908 55.5543 159.975 55.3981C160.343 54.6011 160.892 53.9085 161.295 53.1315L162.451 51.0108C162.676 50.6015 162.828 50.1388 163.066 49.7257C163.508 48.96 163.852 48.126 164.355 47.3949C164.496 47.1898 164.536 46.9028 164.673 46.6841C164.908 46.3376 165.159 46.001 165.312 45.6185C165.529 45.1018 165.787 44.5965 166.077 44.1332C166.344 43.6907 166.537 43.2171 166.799 42.7833C166.992 42.4699 167.115 42.1168 167.256 41.7736C167.349 41.5522 167.485 41.3778 167.664 41.206C167.805 41.081 167.81 40.8542 167.892 40.6722C167.98 40.4594 167.898 40.1251 168.304 40.1183C168.265 39.9468 168.418 39.8402 168.426 39.7072C168.446 39.4546 168.684 39.3399 168.733 39.1158C168.758 38.9927 168.912 39.1043 168.993 39.0825C169.061 39.0643 169.268 39.1034 169.053 38.8991C168.859 38.7183 168.987 38.5168 169.27 38.4848C169.39 38.4742 169.42 38.4226 169.368 38.3349C169.266 38.173 169.285 38.0806 169.465 38.0469C169.519 38.0324 169.583 38.0006 169.547 37.945C169.323 37.5977 169.741 37.5293 169.764 37.2904C169.772 37.2374 169.84 37.2192 169.9 37.254C170.068 37.3398 170.094 37.2746 170.048 37.1561C169.942 36.9227 170.062 36.7741 170.172 36.6427C170.532 36.2192 170.724 35.6877 171.083 35.2641C171.568 34.6833 171.875 34.0119 172.339 33.4076C172.599 33.076 172.757 32.6627 172.954 32.2827C173.104 32.0024 173.292 31.7556 173.596 31.5869C173.927 31.4109 174.059 31.0627 174.286 30.7692C174.359 30.6623 174.436 30.569 174.593 30.5561C174.749 30.5433 174.907 30.5883 175.011 30.7059C175.128 30.842 175.207 31.0025 175.124 31.1266C174.973 31.349 174.917 31.6038 174.896 31.8786C174.877 32.1311 174.638 32.326 174.492 32.5397L174.085 33.0851C174.065 33.1195 174.033 33.1354 174.03 33.1798C174.018 33.2413 174.04 33.3228 174.122 33.3589C174.199 33.4036 174.208 33.3284 174.233 33.2854C174.508 32.79 174.944 32.4111 175.321 31.9975C175.54 31.757 175.784 31.5535 176.015 31.3314C176.062 31.2898 176.104 31.2567 176.155 31.2286C176.363 31.1075 176.545 31.1095 176.742 31.3039ZM158.504 59.5162C158.49 59.5198 158.48 59.537 158.47 59.5542C158.492 59.5556 158.523 59.5619 158.528 59.5533C158.552 59.5324 158.531 59.5089 158.504 59.5162ZM159.978 60.2412L159.995 60.2511L159.978 60.2412ZM161.248 59.2536C161.252 59.2672 161.257 59.2585 161.248 59.2536V59.2536Z" fill="#BAE7FF" />
</svg>