<svg width="583" height="52" viewBox="0 0 583 52" fill="none" xmlns="http://www.w3.org/2000/svg">
  <path d="M140.752 18.16C139.952 18.16 139.237 17.9627 138.608 17.568C137.989 17.1733 137.504 16.6507 137.152 16C136.8 15.3387 136.624 14.624 136.624 13.856C136.624 13.0773 136.8 12.3627 137.152 11.712C137.515 11.0507 138.005 10.5227 138.624 10.128C139.253 9.72267 139.963 9.52 140.752 9.52C141.552 9.52 142.261 9.72267 142.88 10.128C143.509 10.5227 144 11.0507 144.352 11.712C144.715 12.3627 144.896 13.0773 144.896 13.856C144.896 14.624 144.72 15.3387 144.368 16C144.016 16.6507 143.525 17.1733 142.896 17.568C142.277 17.9627 141.563 18.16 140.752 18.16ZM137.728 13.872C137.728 14.4907 137.861 15.056 138.128 15.568C138.405 16.0693 138.773 16.4693 139.232 16.768C139.691 17.056 140.197 17.2 140.752 17.2C141.307 17.2 141.813 17.0507 142.272 16.752C142.731 16.4533 143.099 16.048 143.376 15.536C143.653 15.024 143.792 14.4587 143.792 13.84C143.792 13.2213 143.653 12.656 143.376 12.144C143.099 11.632 142.731 11.2267 142.272 10.928C141.813 10.6293 141.307 10.48 140.752 10.48C140.208 10.48 139.707 10.6347 139.248 10.944C138.789 11.2427 138.421 11.648 138.144 12.16C137.867 12.672 137.728 13.2427 137.728 13.872ZM146.975 18V10.528H145.823V9.664H146.975V9.44C146.975 8.416 147.194 7.616 147.631 7.04C148.079 6.45333 148.676 6.16 149.423 6.16C149.743 6.16 150.058 6.208 150.367 6.304C150.687 6.4 150.959 6.528 151.183 6.688L150.847 7.472C150.527 7.22667 150.122 7.104 149.631 7.104C149.13 7.104 148.74 7.30133 148.463 7.696C148.196 8.09067 148.063 8.66133 148.063 9.408V9.664H150.367V10.528H148.063V18H146.975ZM159.831 18.16C159.138 18.16 158.514 17.9787 157.959 17.616C157.415 17.2533 156.983 16.8053 156.663 16.272V21.408H155.575V9.664H156.551V11.28C156.882 10.7573 157.319 10.336 157.863 10.016C158.418 9.68533 159.015 9.52 159.655 9.52C160.231 9.52 160.759 9.64267 161.239 9.888C161.719 10.1227 162.135 10.4427 162.487 10.848C162.85 11.2533 163.127 11.7173 163.319 12.24C163.511 12.752 163.607 13.2853 163.607 13.84C163.607 14.6187 163.447 15.3387 163.127 16C162.818 16.6507 162.375 17.1733 161.799 17.568C161.234 17.9627 160.578 18.16 159.831 18.16ZM159.527 17.2C160.135 17.2 160.658 17.04 161.095 16.72C161.543 16.3893 161.89 15.968 162.135 15.456C162.38 14.944 162.503 14.4053 162.503 13.84C162.503 13.2427 162.364 12.688 162.087 12.176C161.81 11.664 161.436 11.2533 160.967 10.944C160.508 10.6347 159.986 10.48 159.399 10.48C159.036 10.48 158.652 10.576 158.247 10.768C157.852 10.9493 157.5 11.2 157.191 11.52C156.892 11.8293 156.716 12.1707 156.663 12.544V15.104C156.908 15.6907 157.292 16.1867 157.815 16.592C158.338 16.9973 158.908 17.2 159.527 17.2ZM169.05 18.16C168.25 18.16 167.535 17.9627 166.906 17.568C166.277 17.1733 165.781 16.6453 165.418 15.984C165.055 15.3227 164.874 14.5973 164.874 13.808C164.874 13.0293 165.05 12.3147 165.402 11.664C165.765 11.0133 166.261 10.496 166.89 10.112C167.519 9.71733 168.234 9.52 169.034 9.52C169.855 9.52 170.575 9.71733 171.194 10.112C171.813 10.5067 172.293 11.0293 172.634 11.68C172.986 12.32 173.162 13.024 173.162 13.792C173.162 13.9627 173.157 14.1067 173.146 14.224H166.01C166.063 14.8213 166.234 15.3547 166.522 15.824C166.81 16.2827 167.178 16.6507 167.626 16.928C168.074 17.1947 168.565 17.328 169.098 17.328C169.642 17.328 170.154 17.1893 170.634 16.912C171.114 16.6347 171.455 16.272 171.658 15.824L172.602 16.08C172.431 16.4853 172.165 16.848 171.802 17.168C171.45 17.4773 171.039 17.7227 170.57 17.904C170.101 18.0747 169.594 18.16 169.05 18.16ZM165.978 13.44H172.138C172.095 12.8427 171.93 12.3147 171.642 11.856C171.354 11.3867 170.986 11.024 170.538 10.768C170.09 10.5013 169.594 10.368 169.05 10.368C168.506 10.368 168.01 10.5013 167.562 10.768C167.114 11.024 166.746 11.3867 166.458 11.856C166.181 12.3147 166.021 12.8427 165.978 13.44ZM178.393 18.16C177.593 18.16 176.878 17.9627 176.249 17.568C175.63 17.1733 175.145 16.6507 174.793 16C174.441 15.3387 174.265 14.624 174.265 13.856C174.265 13.0773 174.441 12.3627 174.793 11.712C175.155 11.0507 175.646 10.5227 176.265 10.128C176.894 9.72267 177.603 9.52 178.393 9.52C179.193 9.52 179.902 9.72267 180.521 10.128C181.15 10.5227 181.641 11.0507 181.993 11.712C182.355 12.3627 182.537 13.0773 182.537 13.856C182.537 14.624 182.361 15.3387 182.009 16C181.657 16.6507 181.166 17.1733 180.537 17.568C179.918 17.9627 179.203 18.16 178.393 18.16ZM175.369 13.872C175.369 14.4907 175.502 15.056 175.769 15.568C176.046 16.0693 176.414 16.4693 176.873 16.768C177.331 17.056 177.838 17.2 178.393 17.2C178.947 17.2 179.454 17.0507 179.913 16.752C180.371 16.4533 180.739 16.048 181.017 15.536C181.294 15.024 181.433 14.4587 181.433 13.84C181.433 13.2213 181.294 12.656 181.017 12.144C180.739 11.632 180.371 11.2267 179.913 10.928C179.454 10.6293 178.947 10.48 178.393 10.48C177.849 10.48 177.347 10.6347 176.889 10.944C176.43 11.2427 176.062 11.648 175.785 12.16C175.507 12.672 175.369 13.2427 175.369 13.872ZM188.612 18.16C187.919 18.16 187.295 17.9787 186.74 17.616C186.196 17.2533 185.764 16.8053 185.444 16.272V21.408H184.356V9.664H185.332V11.28C185.663 10.7573 186.1 10.336 186.644 10.016C187.199 9.68533 187.796 9.52 188.436 9.52C189.012 9.52 189.54 9.64267 190.02 9.888C190.5 10.1227 190.916 10.4427 191.268 10.848C191.631 11.2533 191.908 11.7173 192.1 12.24C192.292 12.752 192.388 13.2853 192.388 13.84C192.388 14.6187 192.228 15.3387 191.908 16C191.599 16.6507 191.156 17.1733 190.58 17.568C190.015 17.9627 189.359 18.16 188.612 18.16ZM188.308 17.2C188.916 17.2 189.439 17.04 189.876 16.72C190.324 16.3893 190.671 15.968 190.916 15.456C191.162 14.944 191.284 14.4053 191.284 13.84C191.284 13.2427 191.146 12.688 190.868 12.176C190.591 11.664 190.218 11.2533 189.748 10.944C189.29 10.6347 188.767 10.48 188.18 10.48C187.818 10.48 187.434 10.576 187.028 10.768C186.634 10.9493 186.282 11.2 185.972 11.52C185.674 11.8293 185.498 12.1707 185.444 12.544V15.104C185.69 15.6907 186.074 16.1867 186.596 16.592C187.119 16.9973 187.69 17.2 188.308 17.2ZM194.279 6.32H195.367V16.112C195.367 16.528 195.437 16.8 195.575 16.928C195.725 17.056 195.911 17.12 196.135 17.12C196.327 17.12 196.519 17.0987 196.711 17.056C196.914 17.0133 197.079 16.9707 197.207 16.928L197.399 17.808C197.197 17.8933 196.946 17.9627 196.647 18.016C196.359 18.0693 196.109 18.096 195.895 18.096C195.405 18.096 195.01 17.952 194.711 17.664C194.423 17.376 194.279 16.9813 194.279 16.48V6.32ZM202.191 18.16C201.391 18.16 200.676 17.9627 200.047 17.568C199.417 17.1733 198.921 16.6453 198.559 15.984C198.196 15.3227 198.015 14.5973 198.015 13.808C198.015 13.0293 198.191 12.3147 198.543 11.664C198.905 11.0133 199.401 10.496 200.031 10.112C200.66 9.71733 201.375 9.52 202.175 9.52C202.996 9.52 203.716 9.71733 204.335 10.112C204.953 10.5067 205.433 11.0293 205.775 11.68C206.127 12.32 206.303 13.024 206.303 13.792C206.303 13.9627 206.297 14.1067 206.287 14.224H199.151C199.204 14.8213 199.375 15.3547 199.663 15.824C199.951 16.2827 200.319 16.6507 200.767 16.928C201.215 17.1947 201.705 17.328 202.239 17.328C202.783 17.328 203.295 17.1893 203.775 16.912C204.255 16.6347 204.596 16.272 204.799 15.824L205.743 16.08C205.572 16.4853 205.305 16.848 204.943 17.168C204.591 17.4773 204.18 17.7227 203.711 17.904C203.241 18.0747 202.735 18.16 202.191 18.16ZM199.119 13.44H205.279C205.236 12.8427 205.071 12.3147 204.783 11.856C204.495 11.3867 204.127 11.024 203.679 10.768C203.231 10.5013 202.735 10.368 202.191 10.368C201.647 10.368 201.151 10.5013 200.703 10.768C200.255 11.024 199.887 11.3867 199.599 11.856C199.321 12.3147 199.161 12.8427 199.119 13.44ZM211.387 15.6C211.387 15.088 211.537 14.6453 211.835 14.272C212.134 13.888 212.545 13.5893 213.067 13.376C213.601 13.1627 214.214 13.056 214.907 13.056C215.313 13.056 215.734 13.0933 216.171 13.168C216.609 13.232 216.998 13.3227 217.339 13.44V12.736C217.339 12.032 217.131 11.472 216.715 11.056C216.299 10.64 215.723 10.432 214.987 10.432C214.55 10.432 214.113 10.5173 213.675 10.688C213.238 10.848 212.785 11.088 212.315 11.408L211.899 10.64C212.443 10.2667 212.977 9.98933 213.499 9.808C214.022 9.616 214.555 9.52 215.099 9.52C216.123 9.52 216.934 9.81333 217.531 10.4C218.129 10.9867 218.427 11.7973 218.427 12.832V16.688C218.427 16.976 218.561 17.1253 218.827 17.136V18C218.593 18.032 218.427 18.0427 218.331 18.032C218.065 18.0213 217.862 17.936 217.723 17.776C217.585 17.616 217.51 17.4453 217.499 17.264L217.483 16.656C217.11 17.136 216.625 17.5093 216.027 17.776C215.43 18.032 214.822 18.16 214.203 18.16C213.659 18.16 213.174 18.048 212.747 17.824C212.321 17.5893 211.985 17.28 211.739 16.896C211.505 16.5013 211.387 16.0693 211.387 15.6ZM216.971 16.24C217.217 15.952 217.339 15.6853 217.339 15.44V14.224C216.603 13.936 215.835 13.792 215.035 13.792C214.257 13.792 213.627 13.9467 213.147 14.256C212.667 14.5653 212.427 14.9867 212.427 15.52C212.427 15.9787 212.603 16.3947 212.955 16.768C213.318 17.1413 213.819 17.328 214.459 17.328C214.982 17.328 215.467 17.2267 215.915 17.024C216.374 16.8213 216.726 16.56 216.971 16.24ZM221.116 18V10.528H219.964V9.664H221.116V9.568C221.116 9.09867 221.212 8.65067 221.404 8.224C221.606 7.79733 221.9 7.45067 222.284 7.184C222.678 6.91733 223.158 6.784 223.724 6.784C224.044 6.784 224.342 6.82133 224.62 6.896C224.897 6.96 225.148 7.05067 225.372 7.168C225.809 6.496 226.438 6.16 227.26 6.16C227.58 6.16 227.894 6.208 228.204 6.304C228.513 6.4 228.78 6.528 229.004 6.688L228.684 7.472C228.353 7.22667 227.948 7.104 227.468 7.104C226.956 7.104 226.561 7.30133 226.284 7.696C226.017 8.09067 225.884 8.66133 225.884 9.408V9.664H228.188V10.528H225.884V18H224.796V10.528H222.204V18H221.116ZM222.204 9.536V9.664H224.796V9.44C224.796 8.896 224.865 8.40533 225.004 7.968C224.833 7.872 224.657 7.808 224.476 7.776C224.294 7.744 224.108 7.728 223.916 7.728C223.51 7.728 223.18 7.824 222.924 8.016C222.678 8.208 222.497 8.44267 222.38 8.72C222.262 8.99733 222.204 9.26933 222.204 9.536ZM233.378 18.16C232.578 18.16 231.863 17.9627 231.234 17.568C230.605 17.1733 230.109 16.6453 229.746 15.984C229.383 15.3227 229.202 14.5973 229.202 13.808C229.202 13.0293 229.378 12.3147 229.73 11.664C230.093 11.0133 230.589 10.496 231.218 10.112C231.847 9.71733 232.562 9.52 233.362 9.52C234.183 9.52 234.903 9.71733 235.522 10.112C236.141 10.5067 236.621 11.0293 236.962 11.68C237.314 12.32 237.49 13.024 237.49 13.792C237.49 13.9627 237.485 14.1067 237.474 14.224H230.338C230.391 14.8213 230.562 15.3547 230.85 15.824C231.138 16.2827 231.506 16.6507 231.954 16.928C232.402 17.1947 232.893 17.328 233.426 17.328C233.97 17.328 234.482 17.1893 234.962 16.912C235.442 16.6347 235.783 16.272 235.986 15.824L236.93 16.08C236.759 16.4853 236.493 16.848 236.13 17.168C235.778 17.4773 235.367 17.7227 234.898 17.904C234.429 18.0747 233.922 18.16 233.378 18.16ZM230.306 13.44H236.466C236.423 12.8427 236.258 12.3147 235.97 11.856C235.682 11.3867 235.314 11.024 234.866 10.768C234.418 10.5013 233.922 10.368 233.378 10.368C232.834 10.368 232.338 10.5013 231.89 10.768C231.442 11.024 231.074 11.3867 230.786 11.856C230.509 12.3147 230.349 12.8427 230.306 13.44ZM242.785 18.16C241.974 18.16 241.254 17.9627 240.625 17.568C239.995 17.1627 239.499 16.6347 239.137 15.984C238.774 15.3227 238.593 14.5973 238.593 13.808C238.593 13.0187 238.769 12.304 239.121 11.664C239.473 11.0133 239.963 10.496 240.593 10.112C241.222 9.71733 241.947 9.52 242.769 9.52C243.547 9.52 244.23 9.70133 244.817 10.064C245.414 10.416 245.862 10.896 246.161 11.504L245.105 11.84C244.87 11.4133 244.539 11.0827 244.113 10.848C243.697 10.6027 243.233 10.48 242.721 10.48C242.155 10.48 241.643 10.624 241.185 10.912C240.737 11.2 240.374 11.6 240.097 12.112C239.83 12.6133 239.697 13.1787 239.697 13.808C239.697 14.4373 239.835 15.008 240.113 15.52C240.39 16.032 240.758 16.4427 241.217 16.752C241.675 17.0507 242.182 17.2 242.737 17.2C243.099 17.2 243.451 17.136 243.793 17.008C244.134 16.88 244.427 16.7093 244.673 16.496C244.918 16.272 245.083 16.032 245.169 15.776L246.241 16.096C246.091 16.4907 245.846 16.848 245.505 17.168C245.163 17.4773 244.758 17.7227 244.289 17.904C243.819 18.0747 243.318 18.16 242.785 18.16ZM251.95 17.6C251.822 17.6533 251.587 17.7493 251.246 17.888C250.905 18.0267 250.51 18.096 250.062 18.096C249.593 18.096 249.182 17.9627 248.83 17.696C248.478 17.4293 248.302 17.0293 248.302 16.496V10.528H247.15V9.664H248.302V6.848H249.39V9.664H251.31V10.528H249.39V16.192C249.411 16.5013 249.518 16.7307 249.71 16.88C249.913 17.0187 250.142 17.088 250.398 17.088C250.697 17.088 250.963 17.04 251.198 16.944C251.443 16.8373 251.598 16.7627 251.662 16.72L251.95 17.6ZM256.769 18.16C255.969 18.16 255.254 17.9627 254.625 17.568C253.995 17.1733 253.499 16.6453 253.137 15.984C252.774 15.3227 252.593 14.5973 252.593 13.808C252.593 13.0293 252.769 12.3147 253.121 11.664C253.483 11.0133 253.979 10.496 254.609 10.112C255.238 9.71733 255.953 9.52 256.753 9.52C257.574 9.52 258.294 9.71733 258.913 10.112C259.531 10.5067 260.011 11.0293 260.353 11.68C260.705 12.32 260.881 13.024 260.881 13.792C260.881 13.9627 260.875 14.1067 260.865 14.224H253.729C253.782 14.8213 253.953 15.3547 254.241 15.824C254.529 16.2827 254.897 16.6507 255.345 16.928C255.793 17.1947 256.283 17.328 256.817 17.328C257.361 17.328 257.873 17.1893 258.353 16.912C258.833 16.6347 259.174 16.272 259.377 15.824L260.321 16.08C260.15 16.4853 259.883 16.848 259.521 17.168C259.169 17.4773 258.758 17.7227 258.289 17.904C257.819 18.0747 257.313 18.16 256.769 18.16ZM253.697 13.44H259.857C259.814 12.8427 259.649 12.3147 259.361 11.856C259.073 11.3867 258.705 11.024 258.257 10.768C257.809 10.5013 257.313 10.368 256.769 10.368C256.225 10.368 255.729 10.5013 255.281 10.768C254.833 11.024 254.465 11.3867 254.177 11.856C253.899 12.3147 253.739 12.8427 253.697 13.44ZM261.999 13.856C261.999 13.0667 262.159 12.3467 262.479 11.696C262.81 11.0347 263.263 10.5067 263.839 10.112C264.415 9.71733 265.071 9.52 265.807 9.52C266.501 9.52 267.119 9.70667 267.663 10.08C268.218 10.4427 268.65 10.8853 268.959 11.408V6.32H270.047V16.688C270.047 16.976 270.175 17.1253 270.431 17.136V18C270.218 18.032 270.053 18.0427 269.935 18.032C269.701 18.0213 269.498 17.936 269.327 17.776C269.167 17.6053 269.087 17.4133 269.087 17.2V16.384C268.757 16.928 268.309 17.36 267.743 17.68C267.178 18 266.591 18.16 265.983 18.16C265.407 18.16 264.874 18.0427 264.383 17.808C263.893 17.5733 263.466 17.2533 263.103 16.848C262.751 16.4427 262.479 15.984 262.287 15.472C262.095 14.9493 261.999 14.4107 261.999 13.856ZM268.959 15.136V12.56C268.821 12.176 268.597 11.8293 268.287 11.52C267.978 11.2 267.626 10.9493 267.231 10.768C266.847 10.576 266.463 10.48 266.079 10.48C265.482 10.48 264.959 10.6453 264.511 10.976C264.074 11.296 263.733 11.7173 263.487 12.24C263.242 12.752 263.119 13.2907 263.119 13.856C263.119 14.4533 263.253 15.008 263.519 15.52C263.797 16.032 264.17 16.4427 264.639 16.752C265.109 17.0507 265.637 17.2 266.223 17.2C266.586 17.2 266.965 17.1093 267.359 16.928C267.765 16.736 268.117 16.4853 268.415 16.176C268.725 15.8667 268.906 15.52 268.959 15.136ZM280.671 18.16C280.02 18.16 279.417 17.9947 278.863 17.664C278.308 17.3227 277.876 16.896 277.567 16.384V18H276.591V6.32H277.679V11.408C278.052 10.8427 278.5 10.3893 279.023 10.048C279.545 9.696 280.153 9.52 280.847 9.52C281.433 9.52 281.956 9.64267 282.415 9.888C282.884 10.1333 283.284 10.464 283.615 10.88C283.945 11.2853 284.196 11.7493 284.367 12.272C284.537 12.784 284.623 13.312 284.623 13.856C284.623 14.6347 284.447 15.3493 284.095 16C283.753 16.6507 283.284 17.1733 282.687 17.568C282.089 17.9627 281.417 18.16 280.671 18.16ZM280.415 17.2C281.023 17.2 281.556 17.04 282.015 16.72C282.484 16.4 282.852 15.9893 283.119 15.488C283.385 14.976 283.519 14.432 283.519 13.856C283.519 13.2693 283.391 12.72 283.135 12.208C282.889 11.696 282.543 11.28 282.095 10.96C281.647 10.64 281.129 10.48 280.543 10.48C279.892 10.48 279.316 10.688 278.815 11.104C278.324 11.52 277.945 12.0053 277.679 12.56V15.152C277.732 15.536 277.908 15.8827 278.207 16.192C278.505 16.5013 278.857 16.7467 279.263 16.928C279.668 17.1093 280.052 17.2 280.415 17.2ZM286.664 20.56C286.814 20.5707 286.958 20.576 287.096 20.576C287.235 20.5867 287.336 20.5813 287.4 20.56C287.528 20.5493 287.646 20.4747 287.752 20.336C287.87 20.208 288.008 19.9627 288.168 19.6C288.339 19.248 288.568 18.7147 288.856 18L285.224 9.664H286.376L289.432 16.88L292.248 9.664H293.336L289.016 20.416C288.899 20.7253 288.702 20.992 288.424 21.216C288.147 21.44 287.779 21.5573 287.32 21.568C287.224 21.5787 287.123 21.5787 287.016 21.568C286.91 21.568 286.792 21.5573 286.664 21.536V20.56ZM302.497 17.6C302.369 17.6533 302.134 17.7493 301.793 17.888C301.452 18.0267 301.057 18.096 300.609 18.096C300.14 18.096 299.729 17.9627 299.377 17.696C299.025 17.4293 298.849 17.0293 298.849 16.496V10.528H297.697V9.664H298.849V6.848H299.937V9.664H301.857V10.528H299.937V16.192C299.958 16.5013 300.065 16.7307 300.257 16.88C300.46 17.0187 300.689 17.088 300.945 17.088C301.244 17.088 301.51 17.04 301.745 16.944C301.99 16.8373 302.145 16.7627 302.209 16.72L302.497 17.6ZM310.864 18H309.776V13.344C309.776 11.456 309.136 10.512 307.856 10.512C307.44 10.512 307.035 10.6187 306.64 10.832C306.246 11.0347 305.894 11.3173 305.584 11.68C305.286 12.032 305.072 12.4373 304.944 12.896V18H303.856V6.32H304.944V11.552C305.275 10.9333 305.734 10.4427 306.32 10.08C306.918 9.70667 307.552 9.52 308.224 9.52C308.864 9.52 309.376 9.67467 309.76 9.984C310.144 10.2827 310.422 10.704 310.592 11.248C310.774 11.7813 310.864 12.4053 310.864 13.12V18ZM313.184 7.92V6.32H314.272V7.92H313.184ZM313.184 18V9.664H314.272V18H313.184ZM319.405 18.16C318.722 18.16 318.087 18.048 317.501 17.824C316.925 17.5893 316.418 17.248 315.981 16.8L316.429 16.032C316.898 16.4693 317.367 16.7893 317.837 16.992C318.317 17.184 318.823 17.28 319.357 17.28C319.997 17.28 320.519 17.152 320.925 16.896C321.341 16.6293 321.549 16.2507 321.549 15.76C321.549 15.4293 321.447 15.1787 321.245 15.008C321.053 14.8267 320.77 14.6827 320.397 14.576C320.034 14.4693 319.597 14.3467 319.085 14.208C318.509 14.048 318.023 13.8827 317.629 13.712C317.245 13.5307 316.951 13.3067 316.749 13.04C316.557 12.7627 316.461 12.4053 316.461 11.968C316.461 11.4347 316.594 10.9867 316.861 10.624C317.138 10.2613 317.511 9.98933 317.981 9.808C318.461 9.616 318.994 9.52 319.581 9.52C320.221 9.52 320.786 9.62133 321.277 9.824C321.767 10.0267 322.167 10.3093 322.477 10.672L321.949 11.408C321.661 11.0667 321.303 10.816 320.877 10.656C320.461 10.4853 320.007 10.4 319.517 10.4C319.175 10.4 318.85 10.448 318.541 10.544C318.231 10.6293 317.975 10.7787 317.773 10.992C317.581 11.1947 317.485 11.4773 317.485 11.84C317.485 12.288 317.65 12.5973 317.981 12.768C318.311 12.9387 318.813 13.12 319.485 13.312C320.114 13.4827 320.663 13.6533 321.133 13.824C321.602 13.9947 321.965 14.224 322.221 14.512C322.477 14.7893 322.605 15.1787 322.605 15.68C322.605 16.4587 322.311 17.0667 321.725 17.504C321.138 17.9413 320.365 18.16 319.405 18.16ZM332.081 18.16C331.281 18.16 330.567 17.9627 329.937 17.568C329.308 17.1733 328.812 16.6453 328.449 15.984C328.087 15.3227 327.905 14.5973 327.905 13.808C327.905 13.0293 328.081 12.3147 328.433 11.664C328.796 11.0133 329.292 10.496 329.921 10.112C330.551 9.71733 331.265 9.52 332.065 9.52C332.887 9.52 333.607 9.71733 334.225 10.112C334.844 10.5067 335.324 11.0293 335.665 11.68C336.017 12.32 336.193 13.024 336.193 13.792C336.193 13.9627 336.188 14.1067 336.177 14.224H329.041C329.095 14.8213 329.265 15.3547 329.553 15.824C329.841 16.2827 330.209 16.6507 330.657 16.928C331.105 17.1947 331.596 17.328 332.129 17.328C332.673 17.328 333.185 17.1893 333.665 16.912C334.145 16.6347 334.487 16.272 334.689 15.824L335.633 16.08C335.463 16.4853 335.196 16.848 334.833 17.168C334.481 17.4773 334.071 17.7227 333.601 17.904C333.132 18.0747 332.625 18.16 332.081 18.16ZM329.009 13.44H335.169C335.127 12.8427 334.961 12.3147 334.673 11.856C334.385 11.3867 334.017 11.024 333.569 10.768C333.121 10.5013 332.625 10.368 332.081 10.368C331.537 10.368 331.041 10.5013 330.593 10.768C330.145 11.024 329.777 11.3867 329.489 11.856C329.212 12.3147 329.052 12.8427 329.009 13.44ZM337.815 9.664L340.263 12.928L340.391 13.168L340.519 12.928L342.951 9.664H344.183L341.015 13.856L344.183 18H342.951L340.519 14.752L340.391 14.528L340.263 14.752L337.831 18H336.599L339.751 13.856L336.599 9.664H337.815ZM349.878 18.16C349.185 18.16 348.561 17.9787 348.006 17.616C347.462 17.2533 347.03 16.8053 346.71 16.272V21.408H345.622V9.664H346.598V11.28C346.929 10.7573 347.366 10.336 347.91 10.016C348.465 9.68533 349.062 9.52 349.702 9.52C350.278 9.52 350.806 9.64267 351.286 9.888C351.766 10.1227 352.182 10.4427 352.534 10.848C352.897 11.2533 353.174 11.7173 353.366 12.24C353.558 12.752 353.654 13.2853 353.654 13.84C353.654 14.6187 353.494 15.3387 353.174 16C352.865 16.6507 352.422 17.1733 351.846 17.568C351.281 17.9627 350.625 18.16 349.878 18.16ZM349.574 17.2C350.182 17.2 350.705 17.04 351.142 16.72C351.59 16.3893 351.937 15.968 352.182 15.456C352.427 14.944 352.55 14.4053 352.55 13.84C352.55 13.2427 352.411 12.688 352.134 12.176C351.857 11.664 351.483 11.2533 351.014 10.944C350.555 10.6347 350.033 10.48 349.446 10.48C349.083 10.48 348.699 10.576 348.294 10.768C347.899 10.9493 347.547 11.2 347.238 11.52C346.939 11.8293 346.763 12.1707 346.71 12.544V15.104C346.955 15.6907 347.339 16.1867 347.862 16.592C348.385 16.9973 348.955 17.2 349.574 17.2ZM359.097 18.16C358.297 18.16 357.582 17.9627 356.953 17.568C356.324 17.1733 355.828 16.6453 355.465 15.984C355.102 15.3227 354.921 14.5973 354.921 13.808C354.921 13.0293 355.097 12.3147 355.449 11.664C355.812 11.0133 356.308 10.496 356.937 10.112C357.566 9.71733 358.281 9.52 359.081 9.52C359.902 9.52 360.622 9.71733 361.241 10.112C361.86 10.5067 362.34 11.0293 362.681 11.68C363.033 12.32 363.209 13.024 363.209 13.792C363.209 13.9627 363.204 14.1067 363.193 14.224H356.057C356.11 14.8213 356.281 15.3547 356.569 15.824C356.857 16.2827 357.225 16.6507 357.673 16.928C358.121 17.1947 358.612 17.328 359.145 17.328C359.689 17.328 360.201 17.1893 360.681 16.912C361.161 16.6347 361.502 16.272 361.705 15.824L362.649 16.08C362.478 16.4853 362.212 16.848 361.849 17.168C361.497 17.4773 361.086 17.7227 360.617 17.904C360.148 18.0747 359.641 18.16 359.097 18.16ZM356.025 13.44H362.185C362.142 12.8427 361.977 12.3147 361.689 11.856C361.401 11.3867 361.033 11.024 360.585 10.768C360.137 10.5013 359.641 10.368 359.097 10.368C358.553 10.368 358.057 10.5013 357.609 10.768C357.161 11.024 356.793 11.3867 356.505 11.856C356.228 12.3147 356.068 12.8427 356.025 13.44ZM369.048 10.624C368.322 10.6453 367.682 10.848 367.128 11.232C366.584 11.616 366.2 12.144 365.976 12.816V18H364.888V9.664H365.912V11.664C366.2 11.0773 366.578 10.6027 367.048 10.24C367.528 9.87733 368.034 9.67467 368.568 9.632C368.674 9.62133 368.765 9.616 368.84 9.616C368.914 9.616 368.984 9.62133 369.048 9.632V10.624ZM370.497 7.92V6.32H371.585V7.92H370.497ZM370.497 18V9.664H371.585V18H370.497ZM377.581 18.16C376.781 18.16 376.067 17.9627 375.437 17.568C374.808 17.1733 374.312 16.6453 373.949 15.984C373.587 15.3227 373.405 14.5973 373.405 13.808C373.405 13.0293 373.581 12.3147 373.933 11.664C374.296 11.0133 374.792 10.496 375.421 10.112C376.051 9.71733 376.765 9.52 377.565 9.52C378.387 9.52 379.107 9.71733 379.725 10.112C380.344 10.5067 380.824 11.0293 381.165 11.68C381.517 12.32 381.693 13.024 381.693 13.792C381.693 13.9627 381.688 14.1067 381.677 14.224H374.541C374.595 14.8213 374.765 15.3547 375.053 15.824C375.341 16.2827 375.709 16.6507 376.157 16.928C376.605 17.1947 377.096 17.328 377.629 17.328C378.173 17.328 378.685 17.1893 379.165 16.912C379.645 16.6347 379.987 16.272 380.189 15.824L381.133 16.08C380.963 16.4853 380.696 16.848 380.333 17.168C379.981 17.4773 379.571 17.7227 379.101 17.904C378.632 18.0747 378.125 18.16 377.581 18.16ZM374.509 13.44H380.669C380.627 12.8427 380.461 12.3147 380.173 11.856C379.885 11.3867 379.517 11.024 379.069 10.768C378.621 10.5013 378.125 10.368 377.581 10.368C377.037 10.368 376.541 10.5013 376.093 10.768C375.645 11.024 375.277 11.3867 374.989 11.856C374.712 12.3147 374.552 12.8427 374.509 13.44ZM390.38 18H389.292V13.344C389.292 12.3627 389.143 11.648 388.844 11.2C388.556 10.7413 388.108 10.512 387.5 10.512C387.073 10.512 386.652 10.6187 386.236 10.832C385.82 11.0347 385.452 11.3173 385.132 11.68C384.823 12.032 384.599 12.4373 384.46 12.896V18H383.372V9.664H384.364V11.552C384.695 10.944 385.18 10.4533 385.82 10.08C386.46 9.70667 387.153 9.52 387.9 9.52C388.519 9.52 389.009 9.66933 389.372 9.968C389.735 10.256 389.991 10.672 390.14 11.216C390.3 11.7493 390.38 12.384 390.38 13.12V18ZM396.316 18.16C395.505 18.16 394.785 17.9627 394.156 17.568C393.527 17.1627 393.031 16.6347 392.668 15.984C392.305 15.3227 392.124 14.5973 392.124 13.808C392.124 13.0187 392.3 12.304 392.652 11.664C393.004 11.0133 393.495 10.496 394.124 10.112C394.753 9.71733 395.479 9.52 396.3 9.52C397.079 9.52 397.761 9.70133 398.348 10.064C398.945 10.416 399.393 10.896 399.692 11.504L398.636 11.84C398.401 11.4133 398.071 11.0827 397.644 10.848C397.228 10.6027 396.764 10.48 396.252 10.48C395.687 10.48 395.175 10.624 394.716 10.912C394.268 11.2 393.905 11.6 393.628 12.112C393.361 12.6133 393.228 13.1787 393.228 13.808C393.228 14.4373 393.367 15.008 393.644 15.52C393.921 16.032 394.289 16.4427 394.748 16.752C395.207 17.0507 395.713 17.2 396.268 17.2C396.631 17.2 396.983 17.136 397.324 17.008C397.665 16.88 397.959 16.7093 398.204 16.496C398.449 16.272 398.615 16.032 398.7 15.776L399.772 16.096C399.623 16.4907 399.377 16.848 399.036 17.168C398.695 17.4773 398.289 17.7227 397.82 17.904C397.351 18.0747 396.849 18.16 396.316 18.16ZM405.003 18.16C404.203 18.16 403.488 17.9627 402.859 17.568C402.23 17.1733 401.734 16.6453 401.371 15.984C401.008 15.3227 400.827 14.5973 400.827 13.808C400.827 13.0293 401.003 12.3147 401.355 11.664C401.718 11.0133 402.214 10.496 402.843 10.112C403.472 9.71733 404.187 9.52 404.987 9.52C405.808 9.52 406.528 9.71733 407.147 10.112C407.766 10.5067 408.246 11.0293 408.587 11.68C408.939 12.32 409.115 13.024 409.115 13.792C409.115 13.9627 409.11 14.1067 409.099 14.224H401.963C402.016 14.8213 402.187 15.3547 402.475 15.824C402.763 16.2827 403.131 16.6507 403.579 16.928C404.027 17.1947 404.518 17.328 405.051 17.328C405.595 17.328 406.107 17.1893 406.587 16.912C407.067 16.6347 407.408 16.272 407.611 15.824L408.555 16.08C408.384 16.4853 408.118 16.848 407.755 17.168C407.403 17.4773 406.992 17.7227 406.523 17.904C406.054 18.0747 405.547 18.16 405.003 18.16ZM401.931 13.44H408.091C408.048 12.8427 407.883 12.3147 407.595 11.856C407.307 11.3867 406.939 11.024 406.491 10.768C406.043 10.5013 405.547 10.368 405.003 10.368C404.459 10.368 403.963 10.5013 403.515 10.768C403.067 11.024 402.699 11.3867 402.411 11.856C402.134 12.3147 401.974 12.8427 401.931 13.44ZM415.272 18V10.528H414.12V9.664H415.272V9.44C415.272 8.416 415.491 7.616 415.928 7.04C416.376 6.45333 416.973 6.16 417.72 6.16C418.04 6.16 418.355 6.208 418.664 6.304C418.984 6.4 419.256 6.528 419.48 6.688L419.144 7.472C418.824 7.22667 418.419 7.104 417.928 7.104C417.427 7.104 417.037 7.30133 416.76 7.696C416.493 8.09067 416.36 8.66133 416.36 9.408V9.664H418.664V10.528H416.36V18H415.272ZM423.503 18.16C422.703 18.16 421.988 17.9627 421.359 17.568C420.73 17.1733 420.234 16.6453 419.871 15.984C419.508 15.3227 419.327 14.5973 419.327 13.808C419.327 13.0293 419.503 12.3147 419.855 11.664C420.218 11.0133 420.714 10.496 421.343 10.112C421.972 9.71733 422.687 9.52 423.487 9.52C424.308 9.52 425.028 9.71733 425.647 10.112C426.266 10.5067 426.746 11.0293 427.087 11.68C427.439 12.32 427.615 13.024 427.615 13.792C427.615 13.9627 427.61 14.1067 427.599 14.224H420.463C420.516 14.8213 420.687 15.3547 420.975 15.824C421.263 16.2827 421.631 16.6507 422.079 16.928C422.527 17.1947 423.018 17.328 423.551 17.328C424.095 17.328 424.607 17.1893 425.087 16.912C425.567 16.6347 425.908 16.272 426.111 15.824L427.055 16.08C426.884 16.4853 426.618 16.848 426.255 17.168C425.903 17.4773 425.492 17.7227 425.023 17.904C424.554 18.0747 424.047 18.16 423.503 18.16ZM420.431 13.44H426.591C426.548 12.8427 426.383 12.3147 426.095 11.856C425.807 11.3867 425.439 11.024 424.991 10.768C424.543 10.5013 424.047 10.368 423.503 10.368C422.959 10.368 422.463 10.5013 422.015 10.768C421.567 11.024 421.199 11.3867 420.911 11.856C420.634 12.3147 420.474 12.8427 420.431 13.44ZM432.894 18.16C432.094 18.16 431.379 17.9627 430.75 17.568C430.12 17.1733 429.624 16.6453 429.262 15.984C428.899 15.3227 428.718 14.5973 428.718 13.808C428.718 13.0293 428.894 12.3147 429.246 11.664C429.608 11.0133 430.104 10.496 430.734 10.112C431.363 9.71733 432.078 9.52 432.878 9.52C433.699 9.52 434.419 9.71733 435.038 10.112C435.656 10.5067 436.136 11.0293 436.478 11.68C436.83 12.32 437.006 13.024 437.006 13.792C437.006 13.9627 437 14.1067 436.99 14.224H429.854C429.907 14.8213 430.078 15.3547 430.366 15.824C430.654 16.2827 431.022 16.6507 431.47 16.928C431.918 17.1947 432.408 17.328 432.942 17.328C433.486 17.328 433.998 17.1893 434.478 16.912C434.958 16.6347 435.299 16.272 435.502 15.824L436.446 16.08C436.275 16.4853 436.008 16.848 435.646 17.168C435.294 17.4773 434.883 17.7227 434.414 17.904C433.944 18.0747 433.438 18.16 432.894 18.16ZM429.822 13.44H435.982C435.939 12.8427 435.774 12.3147 435.486 11.856C435.198 11.3867 434.83 11.024 434.382 10.768C433.934 10.5013 433.438 10.368 432.894 10.368C432.35 10.368 431.854 10.5013 431.406 10.768C430.958 11.024 430.59 11.3867 430.302 11.856C430.024 12.3147 429.864 12.8427 429.822 13.44ZM438.732 6.32H439.82V16.112C439.82 16.528 439.89 16.8 440.028 16.928C440.178 17.056 440.364 17.12 440.588 17.12C440.78 17.12 440.972 17.0987 441.164 17.056C441.367 17.0133 441.532 16.9707 441.66 16.928L441.852 17.808C441.65 17.8933 441.399 17.9627 441.1 18.016C440.812 18.0693 440.562 18.096 440.348 18.096C439.858 18.096 439.463 17.952 439.164 17.664C438.876 17.376 438.732 16.9813 438.732 16.48V6.32ZM446.686 6.32H447.774V16.112C447.774 16.528 447.843 16.8 447.982 16.928C448.131 17.056 448.318 17.12 448.542 17.12C448.734 17.12 448.926 17.0987 449.118 17.056C449.32 17.0133 449.486 16.9707 449.614 16.928L449.806 17.808C449.603 17.8933 449.352 17.9627 449.054 18.016C448.766 18.0693 448.515 18.096 448.302 18.096C447.811 18.096 447.416 17.952 447.118 17.664C446.83 17.376 446.686 16.9813 446.686 16.48V6.32ZM450.997 7.92V6.32H452.085V7.92H450.997ZM450.997 18V9.664H452.085V18H450.997ZM460.433 18L457.345 13.728L455.569 15.392V18H454.481V6.32H455.569V14.224L460.289 9.68H461.489L458.081 13.088L461.617 18H460.433ZM466.128 18.16C465.328 18.16 464.613 17.9627 463.984 17.568C463.355 17.1733 462.859 16.6453 462.496 15.984C462.133 15.3227 461.952 14.5973 461.952 13.808C461.952 13.0293 462.128 12.3147 462.48 11.664C462.843 11.0133 463.339 10.496 463.968 10.112C464.597 9.71733 465.312 9.52 466.112 9.52C466.933 9.52 467.653 9.71733 468.272 10.112C468.891 10.5067 469.371 11.0293 469.712 11.68C470.064 12.32 470.24 13.024 470.24 13.792C470.24 13.9627 470.235 14.1067 470.224 14.224H463.088C463.141 14.8213 463.312 15.3547 463.6 15.824C463.888 16.2827 464.256 16.6507 464.704 16.928C465.152 17.1947 465.643 17.328 466.176 17.328C466.72 17.328 467.232 17.1893 467.712 16.912C468.192 16.6347 468.533 16.272 468.736 15.824L469.68 16.08C469.509 16.4853 469.243 16.848 468.88 17.168C468.528 17.4773 468.117 17.7227 467.648 17.904C467.179 18.0747 466.672 18.16 466.128 18.16ZM463.056 13.44H469.216C469.173 12.8427 469.008 12.3147 468.72 11.856C468.432 11.3867 468.064 11.024 467.616 10.768C467.168 10.5013 466.672 10.368 466.128 10.368C465.584 10.368 465.088 10.5013 464.64 10.768C464.192 11.024 463.824 11.3867 463.536 11.856C463.259 12.3147 463.099 12.8427 463.056 13.44ZM475.997 7.92V6.32H477.085V7.92H475.997ZM475.997 18V9.664H477.085V18H475.997ZM483.097 18.16C482.287 18.16 481.567 17.9627 480.937 17.568C480.308 17.1627 479.812 16.6347 479.449 15.984C479.087 15.3227 478.905 14.5973 478.905 13.808C478.905 13.0187 479.081 12.304 479.433 11.664C479.785 11.0133 480.276 10.496 480.905 10.112C481.535 9.71733 482.26 9.52 483.081 9.52C483.86 9.52 484.543 9.70133 485.129 10.064C485.727 10.416 486.175 10.896 486.473 11.504L485.417 11.84C485.183 11.4133 484.852 11.0827 484.425 10.848C484.009 10.6027 483.545 10.48 483.033 10.48C482.468 10.48 481.956 10.624 481.497 10.912C481.049 11.2 480.687 11.6 480.409 12.112C480.143 12.6133 480.009 13.1787 480.009 13.808C480.009 14.4373 480.148 15.008 480.425 15.52C480.703 16.032 481.071 16.4427 481.529 16.752C481.988 17.0507 482.495 17.2 483.049 17.2C483.412 17.2 483.764 17.136 484.105 17.008C484.447 16.88 484.74 16.7093 484.985 16.496C485.231 16.272 485.396 16.032 485.481 15.776L486.553 16.096C486.404 16.4907 486.159 16.848 485.817 17.168C485.476 17.4773 485.071 17.7227 484.601 17.904C484.132 18.0747 483.631 18.16 483.097 18.16ZM492.263 17.6C492.135 17.6533 491.9 17.7493 491.559 17.888C491.217 18.0267 490.823 18.096 490.375 18.096C489.905 18.096 489.495 17.9627 489.143 17.696C488.791 17.4293 488.615 17.0293 488.615 16.496V10.528H487.463V9.664H488.615V6.848H489.703V9.664H491.623V10.528H489.703V16.192C489.724 16.5013 489.831 16.7307 490.023 16.88C490.225 17.0187 490.455 17.088 490.711 17.088C491.009 17.088 491.276 17.04 491.511 16.944C491.756 16.8373 491.911 16.7627 491.975 16.72L492.263 17.6ZM493.542 14.56V9.664H494.63V14.368C494.63 16.256 495.275 17.2 496.566 17.2C497.206 17.2 497.803 16.992 498.358 16.576C498.923 16.16 499.329 15.6053 499.574 14.912V9.664H500.662V16.688C500.662 16.976 500.79 17.1253 501.046 17.136V18C500.918 18.0213 500.817 18.032 500.742 18.032C500.678 18.032 500.609 18.032 500.534 18.032C500.31 18.0107 500.118 17.9253 499.958 17.776C499.809 17.6267 499.734 17.4453 499.734 17.232L499.702 16.112C499.339 16.7627 498.843 17.2693 498.214 17.632C497.595 17.984 496.923 18.16 496.198 18.16C494.427 18.16 493.542 16.96 493.542 14.56ZM515.522 18H514.434V13.344C514.434 12.384 514.279 11.6747 513.97 11.216C513.661 10.7467 513.202 10.512 512.594 10.512C511.954 10.512 511.389 10.736 510.898 11.184C510.407 11.632 510.061 12.208 509.858 12.912V18H508.77V13.344C508.77 12.3627 508.615 11.648 508.306 11.2C508.007 10.7413 507.554 10.512 506.946 10.512C506.317 10.512 505.751 10.7307 505.25 11.168C504.759 11.6053 504.413 12.1813 504.21 12.896V18H503.122V9.664H504.114V11.552C504.455 10.912 504.903 10.416 505.458 10.064C506.013 9.70133 506.626 9.52 507.298 9.52C507.991 9.52 508.551 9.72267 508.978 10.128C509.405 10.5227 509.666 11.0347 509.762 11.664C510.53 10.2347 511.602 9.52 512.978 9.52C513.917 9.52 514.573 9.85067 514.946 10.512C515.33 11.1627 515.522 12.032 515.522 13.12V18ZM528.911 18H527.823V13.344C527.823 12.3627 527.674 11.648 527.375 11.2C527.087 10.7413 526.639 10.512 526.031 10.512C525.604 10.512 525.183 10.6187 524.767 10.832C524.351 11.0347 523.983 11.3173 523.663 11.68C523.354 12.032 523.13 12.4373 522.991 12.896V18H521.903V9.664H522.895V11.552C523.226 10.944 523.711 10.4533 524.351 10.08C524.991 9.70667 525.684 9.52 526.431 9.52C527.05 9.52 527.54 9.66933 527.903 9.968C528.266 10.256 528.522 10.672 528.671 11.216C528.831 11.7493 528.911 12.384 528.911 13.12V18ZM531.151 14.56V9.664H532.239V14.368C532.239 16.256 532.885 17.2 534.175 17.2C534.815 17.2 535.413 16.992 535.967 16.576C536.533 16.16 536.938 15.6053 537.183 14.912V9.664H538.271V16.688C538.271 16.976 538.399 17.1253 538.655 17.136V18C538.527 18.0213 538.426 18.032 538.351 18.032C538.287 18.032 538.218 18.032 538.143 18.032C537.919 18.0107 537.727 17.9253 537.567 17.776C537.418 17.6267 537.343 17.4453 537.343 17.232L537.311 16.112C536.949 16.7627 536.453 17.2693 535.823 17.632C535.205 17.984 534.533 18.16 533.807 18.16C532.037 18.16 531.151 16.96 531.151 14.56ZM540.779 6.32H541.867V16.112C541.867 16.528 541.937 16.8 542.075 16.928C542.225 17.056 542.411 17.12 542.635 17.12C542.827 17.12 543.019 17.0987 543.211 17.056C543.414 17.0133 543.579 16.9707 543.707 16.928L543.899 17.808C543.697 17.8933 543.446 17.9627 543.147 18.016C542.859 18.0693 542.609 18.096 542.395 18.096C541.905 18.096 541.51 17.952 541.211 17.664C540.923 17.376 540.779 16.9813 540.779 16.48V6.32ZM545.139 6.32H546.227V16.112C546.227 16.528 546.296 16.8 546.435 16.928C546.584 17.056 546.771 17.12 546.995 17.12C547.187 17.12 547.379 17.0987 547.571 17.056C547.773 17.0133 547.939 16.9707 548.067 16.928L548.259 17.808C548.056 17.8933 547.805 17.9627 547.507 18.016C547.219 18.0693 546.968 18.096 546.755 18.096C546.264 18.096 545.869 17.952 545.571 17.664C545.283 17.376 545.139 16.9813 545.139 16.48V6.32ZM548.778 15.6C548.778 15.088 548.927 14.6453 549.226 14.272C549.525 13.888 549.935 13.5893 550.458 13.376C550.991 13.1627 551.605 13.056 552.298 13.056C552.703 13.056 553.125 13.0933 553.562 13.168C553.999 13.232 554.389 13.3227 554.73 13.44V12.736C554.73 12.032 554.522 11.472 554.106 11.056C553.69 10.64 553.114 10.432 552.378 10.432C551.941 10.432 551.503 10.5173 551.066 10.688C550.629 10.848 550.175 11.088 549.706 11.408L549.29 10.64C549.834 10.2667 550.367 9.98933 550.89 9.808C551.413 9.616 551.946 9.52 552.49 9.52C553.514 9.52 554.325 9.81333 554.922 10.4C555.519 10.9867 555.818 11.7973 555.818 12.832V16.688C555.818 16.976 555.951 17.1253 556.218 17.136V18C555.983 18.032 555.818 18.0427 555.722 18.032C555.455 18.0213 555.253 17.936 555.114 17.776C554.975 17.616 554.901 17.4453 554.89 17.264L554.874 16.656C554.501 17.136 554.015 17.5093 553.418 17.776C552.821 18.032 552.213 18.16 551.594 18.16C551.05 18.16 550.565 18.048 550.138 17.824C549.711 17.5893 549.375 17.28 549.13 16.896C548.895 16.5013 548.778 16.0693 548.778 15.6ZM554.362 16.24C554.607 15.952 554.73 15.6853 554.73 15.44V14.224C553.994 13.936 553.226 13.792 552.426 13.792C551.647 13.792 551.018 13.9467 550.538 14.256C550.058 14.5653 549.818 14.9867 549.818 15.52C549.818 15.9787 549.994 16.3947 550.346 16.768C550.709 17.1413 551.21 17.328 551.85 17.328C552.373 17.328 552.858 17.2267 553.306 17.024C553.765 16.8213 554.117 16.56 554.362 16.24ZM570.569 18H569.481V13.344C569.481 12.384 569.326 11.6747 569.017 11.216C568.707 10.7467 568.249 10.512 567.641 10.512C567.001 10.512 566.435 10.736 565.945 11.184C565.454 11.632 565.107 12.208 564.905 12.912V18H563.817V13.344C563.817 12.3627 563.662 11.648 563.353 11.2C563.054 10.7413 562.601 10.512 561.993 10.512C561.363 10.512 560.798 10.7307 560.297 11.168C559.806 11.6053 559.459 12.1813 559.257 12.896V18H558.169V9.664H559.161V11.552C559.502 10.912 559.95 10.416 560.505 10.064C561.059 9.70133 561.673 9.52 562.345 9.52C563.038 9.52 563.598 9.72267 564.025 10.128C564.451 10.5227 564.713 11.0347 564.809 11.664C565.577 10.2347 566.649 9.52 568.025 9.52C568.963 9.52 569.619 9.85067 569.993 10.512C570.377 11.1627 570.569 12.032 570.569 13.12V18ZM137.248 30.32H138.336V40.112C138.336 40.528 138.405 40.8 138.544 40.928C138.693 41.056 138.88 41.12 139.104 41.12C139.296 41.12 139.488 41.0987 139.68 41.056C139.883 41.0133 140.048 40.9707 140.176 40.928L140.368 41.808C140.165 41.8933 139.915 41.9627 139.616 42.016C139.328 42.0693 139.077 42.096 138.864 42.096C138.373 42.096 137.979 41.952 137.68 41.664C137.392 41.376 137.248 40.9813 137.248 40.48V30.32ZM141.559 31.92V30.32H142.647V31.92H141.559ZM141.559 42V33.664H142.647V42H141.559ZM148.388 42.112C147.812 42.112 147.284 41.9947 146.804 41.76C146.334 41.5253 145.924 41.2107 145.572 40.816C145.23 40.4107 144.964 39.952 144.772 39.44C144.58 38.928 144.484 38.4 144.484 37.856C144.484 37.0773 144.649 36.3627 144.98 35.712C145.31 35.0507 145.764 34.5227 146.34 34.128C146.926 33.7227 147.598 33.52 148.356 33.52C149.07 33.52 149.689 33.7013 150.212 34.064C150.745 34.4267 151.193 34.8747 151.556 35.408V33.664H152.532V42.032C152.532 42.8107 152.345 43.4613 151.972 43.984C151.598 44.5067 151.102 44.9013 150.484 45.168C149.865 45.4347 149.188 45.568 148.452 45.568C147.492 45.568 146.718 45.3973 146.132 45.056C145.556 44.7147 145.081 44.256 144.708 43.68L145.38 43.152C145.71 43.6747 146.148 44.064 146.692 44.32C147.246 44.576 147.833 44.704 148.452 44.704C148.996 44.704 149.492 44.6027 149.94 44.4C150.398 44.208 150.761 43.9147 151.028 43.52C151.305 43.1253 151.444 42.6293 151.444 42.032V40.384C151.124 40.9067 150.686 41.328 150.132 41.648C149.577 41.9573 148.996 42.112 148.388 42.112ZM148.692 41.2C149.129 41.2 149.545 41.0987 149.94 40.896C150.334 40.6933 150.665 40.4373 150.932 40.128C151.209 39.808 151.38 39.4773 151.444 39.136V36.56C151.284 36.1547 151.054 35.7973 150.756 35.488C150.457 35.168 150.116 34.9227 149.732 34.752C149.348 34.5707 148.958 34.48 148.564 34.48C147.945 34.48 147.412 34.6507 146.964 34.992C146.526 35.3227 146.185 35.7493 145.94 36.272C145.705 36.784 145.588 37.3173 145.588 37.872C145.588 38.4693 145.726 39.024 146.004 39.536C146.281 40.0373 146.654 40.4427 147.124 40.752C147.593 41.0507 148.116 41.2 148.692 41.2ZM154.854 38.56V33.664H155.942V38.368C155.942 40.256 156.588 41.2 157.878 41.2C158.518 41.2 159.116 40.992 159.67 40.576C160.236 40.16 160.641 39.6053 160.886 38.912V33.664H161.974V40.688C161.974 40.976 162.102 41.1253 162.358 41.136V42C162.23 42.0213 162.129 42.032 162.054 42.032C161.99 42.032 161.921 42.032 161.846 42.032C161.622 42.0107 161.43 41.9253 161.27 41.776C161.121 41.6267 161.046 41.4453 161.046 41.232L161.014 40.112C160.652 40.7627 160.156 41.2693 159.526 41.632C158.908 41.984 158.236 42.16 157.51 42.16C155.74 42.16 154.854 40.96 154.854 38.56ZM164.482 30.32H165.57V40.112C165.57 40.528 165.64 40.8 165.778 40.928C165.928 41.056 166.114 41.12 166.338 41.12C166.53 41.12 166.722 41.0987 166.914 41.056C167.117 41.0133 167.282 40.9707 167.41 40.928L167.602 41.808C167.4 41.8933 167.149 41.9627 166.85 42.016C166.562 42.0693 166.312 42.096 166.098 42.096C165.608 42.096 165.213 41.952 164.914 41.664C164.626 41.376 164.482 40.9813 164.482 40.48V30.32ZM168.122 39.6C168.122 39.088 168.271 38.6453 168.57 38.272C168.868 37.888 169.279 37.5893 169.802 37.376C170.335 37.1627 170.948 37.056 171.642 37.056C172.047 37.056 172.468 37.0933 172.906 37.168C173.343 37.232 173.732 37.3227 174.074 37.44V36.736C174.074 36.032 173.866 35.472 173.45 35.056C173.034 34.64 172.458 34.432 171.722 34.432C171.284 34.432 170.847 34.5173 170.41 34.688C169.972 34.848 169.519 35.088 169.05 35.408L168.634 34.64C169.178 34.2667 169.711 33.9893 170.234 33.808C170.756 33.616 171.29 33.52 171.834 33.52C172.858 33.52 173.668 33.8133 174.266 34.4C174.863 34.9867 175.162 35.7973 175.162 36.832V40.688C175.162 40.976 175.295 41.1253 175.562 41.136V42C175.327 42.032 175.162 42.0427 175.066 42.032C174.799 42.0213 174.596 41.936 174.458 41.776C174.319 41.616 174.244 41.4453 174.234 41.264L174.218 40.656C173.844 41.136 173.359 41.5093 172.762 41.776C172.164 42.032 171.556 42.16 170.938 42.16C170.394 42.16 169.908 42.048 169.482 41.824C169.055 41.5893 168.719 41.28 168.474 40.896C168.239 40.5013 168.122 40.0693 168.122 39.6ZM173.706 40.24C173.951 39.952 174.074 39.6853 174.074 39.44V38.224C173.338 37.936 172.57 37.792 171.77 37.792C170.991 37.792 170.362 37.9467 169.882 38.256C169.402 38.5653 169.162 38.9867 169.162 39.52C169.162 39.9787 169.338 40.3947 169.69 40.768C170.052 41.1413 170.554 41.328 171.194 41.328C171.716 41.328 172.202 41.2267 172.65 41.024C173.108 40.8213 173.46 40.56 173.706 40.24ZM181.639 30.32H182.727V40.112C182.727 40.528 182.796 40.8 182.935 40.928C183.084 41.056 183.271 41.12 183.495 41.12C183.687 41.12 183.879 41.0987 184.071 41.056C184.273 41.0133 184.439 40.9707 184.567 40.928L184.759 41.808C184.556 41.8933 184.305 41.9627 184.007 42.016C183.719 42.0693 183.468 42.096 183.255 42.096C182.764 42.096 182.369 41.952 182.071 41.664C181.783 41.376 181.639 40.9813 181.639 40.48V30.32ZM189.502 42.16C188.702 42.16 187.987 41.9627 187.358 41.568C186.739 41.1733 186.254 40.6507 185.902 40C185.55 39.3387 185.374 38.624 185.374 37.856C185.374 37.0773 185.55 36.3627 185.902 35.712C186.265 35.0507 186.755 34.5227 187.374 34.128C188.003 33.7227 188.713 33.52 189.502 33.52C190.302 33.52 191.011 33.7227 191.63 34.128C192.259 34.5227 192.75 35.0507 193.102 35.712C193.465 36.3627 193.646 37.0773 193.646 37.856C193.646 38.624 193.47 39.3387 193.118 40C192.766 40.6507 192.275 41.1733 191.646 41.568C191.027 41.9627 190.313 42.16 189.502 42.16ZM186.478 37.872C186.478 38.4907 186.611 39.056 186.878 39.568C187.155 40.0693 187.523 40.4693 187.982 40.768C188.441 41.056 188.947 41.2 189.502 41.2C190.057 41.2 190.563 41.0507 191.022 40.752C191.481 40.4533 191.849 40.048 192.126 39.536C192.403 39.024 192.542 38.4587 192.542 37.84C192.542 37.2213 192.403 36.656 192.126 36.144C191.849 35.632 191.481 35.2267 191.022 34.928C190.563 34.6293 190.057 34.48 189.502 34.48C188.958 34.48 188.457 34.6347 187.998 34.944C187.539 35.2427 187.171 35.648 186.894 36.16C186.617 36.672 186.478 37.2427 186.478 37.872ZM199.626 34.624C198.9 34.6453 198.26 34.848 197.706 35.232C197.162 35.616 196.778 36.144 196.554 36.816V42H195.466V33.664H196.49V35.664C196.778 35.0773 197.156 34.6027 197.626 34.24C198.106 33.8773 198.612 33.6747 199.146 33.632C199.252 33.6213 199.343 33.616 199.418 33.616C199.492 33.616 199.562 33.6213 199.626 33.632V34.624ZM204.425 42.16C203.625 42.16 202.91 41.9627 202.281 41.568C201.652 41.1733 201.156 40.6453 200.793 39.984C200.43 39.3227 200.249 38.5973 200.249 37.808C200.249 37.0293 200.425 36.3147 200.777 35.664C201.14 35.0133 201.636 34.496 202.265 34.112C202.894 33.7173 203.609 33.52 204.409 33.52C205.23 33.52 205.95 33.7173 206.569 34.112C207.188 34.5067 207.668 35.0293 208.009 35.68C208.361 36.32 208.537 37.024 208.537 37.792C208.537 37.9627 208.532 38.1067 208.521 38.224H201.385C201.438 38.8213 201.609 39.3547 201.897 39.824C202.185 40.2827 202.553 40.6507 203.001 40.928C203.449 41.1947 203.94 41.328 204.473 41.328C205.017 41.328 205.529 41.1893 206.009 40.912C206.489 40.6347 206.83 40.272 207.033 39.824L207.977 40.08C207.806 40.4853 207.54 40.848 207.177 41.168C206.825 41.4773 206.414 41.7227 205.945 41.904C205.476 42.0747 204.969 42.16 204.425 42.16ZM201.353 37.44H207.513C207.47 36.8427 207.305 36.3147 207.017 35.856C206.729 35.3867 206.361 35.024 205.913 34.768C205.465 34.5013 204.969 34.368 204.425 34.368C203.881 34.368 203.385 34.5013 202.937 34.768C202.489 35.024 202.121 35.3867 201.833 35.856C201.556 36.3147 201.396 36.8427 201.353 37.44ZM222.616 42H221.528V37.344C221.528 36.384 221.373 35.6747 221.064 35.216C220.754 34.7467 220.296 34.512 219.688 34.512C219.048 34.512 218.482 34.736 217.992 35.184C217.501 35.632 217.154 36.208 216.952 36.912V42H215.864V37.344C215.864 36.3627 215.709 35.648 215.4 35.2C215.101 34.7413 214.648 34.512 214.04 34.512C213.41 34.512 212.845 34.7307 212.344 35.168C211.853 35.6053 211.506 36.1813 211.304 36.896V42H210.216V33.664H211.208V35.552C211.549 34.912 211.997 34.416 212.552 34.064C213.106 33.7013 213.72 33.52 214.392 33.52C215.085 33.52 215.645 33.7227 216.072 34.128C216.498 34.5227 216.76 35.0347 216.856 35.664C217.624 34.2347 218.696 33.52 220.072 33.52C221.01 33.52 221.666 33.8507 222.04 34.512C222.424 35.1627 222.616 36.032 222.616 37.12V42ZM228.917 38.56V33.664H230.005V38.368C230.005 40.256 230.65 41.2 231.941 41.2C232.581 41.2 233.178 40.992 233.733 40.576C234.298 40.16 234.704 39.6053 234.949 38.912V33.664H236.037V40.688C236.037 40.976 236.165 41.1253 236.421 41.136V42C236.293 42.0213 236.192 42.032 236.117 42.032C236.053 42.032 235.984 42.032 235.909 42.032C235.685 42.0107 235.493 41.9253 235.333 41.776C235.184 41.6267 235.109 41.4453 235.109 41.232L235.077 40.112C234.714 40.7627 234.218 41.2693 233.589 41.632C232.97 41.984 232.298 42.16 231.573 42.16C229.802 42.16 228.917 40.96 228.917 38.56ZM242.497 41.6C242.369 41.6533 242.134 41.7493 241.793 41.888C241.452 42.0267 241.057 42.096 240.609 42.096C240.14 42.096 239.729 41.9627 239.377 41.696C239.025 41.4293 238.849 41.0293 238.849 40.496V34.528H237.697V33.664H238.849V30.848H239.937V33.664H241.857V34.528H239.937V40.192C239.958 40.5013 240.065 40.7307 240.257 40.88C240.46 41.0187 240.689 41.088 240.945 41.088C241.244 41.088 241.51 41.04 241.745 40.944C241.99 40.8373 242.145 40.7627 242.209 40.72L242.497 41.6ZM249.977 42L246.601 33.664H247.737L250.585 40.912L253.449 33.664H254.521L251.145 42H249.977ZM256.028 31.92V30.32H257.116V31.92H256.028ZM256.028 42V33.664H257.116V42H256.028ZM263.513 41.6C263.385 41.6533 263.15 41.7493 262.809 41.888C262.467 42.0267 262.073 42.096 261.625 42.096C261.155 42.096 260.745 41.9627 260.393 41.696C260.041 41.4293 259.865 41.0293 259.865 40.496V34.528H258.713V33.664H259.865V30.848H260.953V33.664H262.873V34.528H260.953V40.192C260.974 40.5013 261.081 40.7307 261.273 40.88C261.475 41.0187 261.705 41.088 261.961 41.088C262.259 41.088 262.526 41.04 262.761 40.944C263.006 40.8373 263.161 40.7627 263.225 40.72L263.513 41.6ZM264.2 39.6C264.2 39.088 264.349 38.6453 264.648 38.272C264.947 37.888 265.357 37.5893 265.88 37.376C266.413 37.1627 267.027 37.056 267.72 37.056C268.125 37.056 268.547 37.0933 268.984 37.168C269.421 37.232 269.811 37.3227 270.152 37.44V36.736C270.152 36.032 269.944 35.472 269.528 35.056C269.112 34.64 268.536 34.432 267.8 34.432C267.363 34.432 266.925 34.5173 266.488 34.688C266.051 34.848 265.597 35.088 265.128 35.408L264.712 34.64C265.256 34.2667 265.789 33.9893 266.312 33.808C266.835 33.616 267.368 33.52 267.912 33.52C268.936 33.52 269.747 33.8133 270.344 34.4C270.941 34.9867 271.24 35.7973 271.24 36.832V40.688C271.24 40.976 271.373 41.1253 271.64 41.136V42C271.405 42.032 271.24 42.0427 271.144 42.032C270.877 42.0213 270.675 41.936 270.536 41.776C270.397 41.616 270.323 41.4453 270.312 41.264L270.296 40.656C269.923 41.136 269.437 41.5093 268.84 41.776C268.243 42.032 267.635 42.16 267.016 42.16C266.472 42.16 265.987 42.048 265.56 41.824C265.133 41.5893 264.797 41.28 264.552 40.896C264.317 40.5013 264.2 40.0693 264.2 39.6ZM269.784 40.24C270.029 39.952 270.152 39.6853 270.152 39.44V38.224C269.416 37.936 268.648 37.792 267.848 37.792C267.069 37.792 266.44 37.9467 265.96 38.256C265.48 38.5653 265.24 38.9867 265.24 39.52C265.24 39.9787 265.416 40.3947 265.768 40.768C266.131 41.1413 266.632 41.328 267.272 41.328C267.795 41.328 268.28 41.2267 268.728 41.024C269.187 40.8213 269.539 40.56 269.784 40.24ZM277.191 42.16C276.391 42.16 275.676 41.9627 275.047 41.568C274.417 41.1733 273.921 40.6453 273.559 39.984C273.196 39.3227 273.015 38.5973 273.015 37.808C273.015 37.0293 273.191 36.3147 273.543 35.664C273.905 35.0133 274.401 34.496 275.031 34.112C275.66 33.7173 276.375 33.52 277.175 33.52C277.996 33.52 278.716 33.7173 279.335 34.112C279.953 34.5067 280.433 35.0293 280.775 35.68C281.127 36.32 281.303 37.024 281.303 37.792C281.303 37.9627 281.297 38.1067 281.287 38.224H274.151C274.204 38.8213 274.375 39.3547 274.663 39.824C274.951 40.2827 275.319 40.6507 275.767 40.928C276.215 41.1947 276.705 41.328 277.239 41.328C277.783 41.328 278.295 41.1893 278.775 40.912C279.255 40.6347 279.596 40.272 279.799 39.824L280.743 40.08C280.572 40.4853 280.305 40.848 279.943 41.168C279.591 41.4773 279.18 41.7227 278.711 41.904C278.241 42.0747 277.735 42.16 277.191 42.16ZM274.119 37.44H280.279C280.236 36.8427 280.071 36.3147 279.783 35.856C279.495 35.3867 279.127 35.024 278.679 34.768C278.231 34.5013 277.735 34.368 277.191 34.368C276.647 34.368 276.151 34.5013 275.703 34.768C275.255 35.024 274.887 35.3867 274.599 35.856C274.321 36.3147 274.161 36.8427 274.119 37.44ZM282.821 42V40.432H283.765V42H282.821ZM290.315 42V30.64H295.019C295.509 30.64 295.957 30.7413 296.363 30.944C296.779 31.1467 297.136 31.424 297.435 31.776C297.744 32.1173 297.979 32.5013 298.139 32.928C298.309 33.344 298.395 33.7707 298.395 34.208C298.395 34.8267 298.256 35.4133 297.979 35.968C297.701 36.512 297.317 36.9547 296.827 37.296C296.336 37.6373 295.765 37.808 295.115 37.808H291.435V42H290.315ZM291.435 36.816H295.067C295.515 36.816 295.904 36.6933 296.235 36.448C296.565 36.2027 296.821 35.8827 297.003 35.488C297.184 35.0933 297.275 34.6667 297.275 34.208C297.275 33.7387 297.168 33.312 296.955 32.928C296.741 32.5333 296.459 32.2187 296.107 31.984C295.765 31.7493 295.387 31.632 294.971 31.632H291.435V36.816ZM299.964 38.56V33.664H301.052V38.368C301.052 40.256 301.697 41.2 302.988 41.2C303.628 41.2 304.225 40.992 304.78 40.576C305.345 40.16 305.75 39.6053 305.996 38.912V33.664H307.084V40.688C307.084 40.976 307.212 41.1253 307.468 41.136V42C307.34 42.0213 307.238 42.032 307.164 42.032C307.1 42.032 307.03 42.032 306.956 42.032C306.732 42.0107 306.54 41.9253 306.38 41.776C306.23 41.6267 306.156 41.4453 306.156 41.232L306.124 40.112C305.761 40.7627 305.265 41.2693 304.636 41.632C304.017 41.984 303.345 42.16 302.62 42.16C300.849 42.16 299.964 40.96 299.964 38.56ZM313.704 34.624C312.978 34.6453 312.338 34.848 311.784 35.232C311.24 35.616 310.856 36.144 310.632 36.816V42H309.544V33.664H310.568V35.664C310.856 35.0773 311.234 34.6027 311.704 34.24C312.184 33.8773 312.69 33.6747 313.224 33.632C313.33 33.6213 313.421 33.616 313.496 33.616C313.57 33.616 313.64 33.6213 313.704 33.632V34.624ZM315.073 38.56V33.664H316.161V38.368C316.161 40.256 316.806 41.2 318.097 41.2C318.737 41.2 319.334 40.992 319.889 40.576C320.454 40.16 320.86 39.6053 321.105 38.912V33.664H322.193V40.688C322.193 40.976 322.321 41.1253 322.577 41.136V42C322.449 42.0213 322.348 42.032 322.273 42.032C322.209 42.032 322.14 42.032 322.065 42.032C321.841 42.0107 321.649 41.9253 321.489 41.776C321.34 41.6267 321.265 41.4453 321.265 41.232L321.233 40.112C320.87 40.7627 320.374 41.2693 319.745 41.632C319.126 41.984 318.454 42.16 317.729 42.16C315.958 42.16 315.073 40.96 315.073 38.56ZM327.389 42.16C326.706 42.16 326.072 42.048 325.485 41.824C324.909 41.5893 324.402 41.248 323.965 40.8L324.413 40.032C324.882 40.4693 325.352 40.7893 325.821 40.992C326.301 41.184 326.808 41.28 327.341 41.28C327.981 41.28 328.504 41.152 328.909 40.896C329.325 40.6293 329.533 40.2507 329.533 39.76C329.533 39.4293 329.432 39.1787 329.229 39.008C329.037 38.8267 328.754 38.6827 328.381 38.576C328.018 38.4693 327.581 38.3467 327.069 38.208C326.493 38.048 326.008 37.8827 325.613 37.712C325.229 37.5307 324.936 37.3067 324.733 37.04C324.541 36.7627 324.445 36.4053 324.445 35.968C324.445 35.4347 324.578 34.9867 324.845 34.624C325.122 34.2613 325.496 33.9893 325.965 33.808C326.445 33.616 326.978 33.52 327.565 33.52C328.205 33.52 328.77 33.6213 329.261 33.824C329.752 34.0267 330.152 34.3093 330.461 34.672L329.933 35.408C329.645 35.0667 329.288 34.816 328.861 34.656C328.445 34.4853 327.992 34.4 327.501 34.4C327.16 34.4 326.834 34.448 326.525 34.544C326.216 34.6293 325.96 34.7787 325.757 34.992C325.565 35.1947 325.469 35.4773 325.469 35.84C325.469 36.288 325.634 36.5973 325.965 36.768C326.296 36.9387 326.797 37.12 327.469 37.312C328.098 37.4827 328.648 37.6533 329.117 37.824C329.586 37.9947 329.949 38.224 330.205 38.512C330.461 38.7893 330.589 39.1787 330.589 39.68C330.589 40.4587 330.296 41.0667 329.709 41.504C329.122 41.9413 328.349 42.16 327.389 42.16ZM340.546 42.16C339.895 42.16 339.292 41.9947 338.738 41.664C338.183 41.3227 337.751 40.896 337.442 40.384V42H336.466V30.32H337.554V35.408C337.927 34.8427 338.375 34.3893 338.898 34.048C339.42 33.696 340.028 33.52 340.722 33.52C341.308 33.52 341.831 33.6427 342.29 33.888C342.759 34.1333 343.159 34.464 343.49 34.88C343.82 35.2853 344.071 35.7493 344.242 36.272C344.412 36.784 344.498 37.312 344.498 37.856C344.498 38.6347 344.322 39.3493 343.97 40C343.628 40.6507 343.159 41.1733 342.562 41.568C341.964 41.9627 341.292 42.16 340.546 42.16ZM340.29 41.2C340.898 41.2 341.431 41.04 341.89 40.72C342.359 40.4 342.727 39.9893 342.994 39.488C343.26 38.976 343.394 38.432 343.394 37.856C343.394 37.2693 343.266 36.72 343.01 36.208C342.764 35.696 342.418 35.28 341.97 34.96C341.522 34.64 341.004 34.48 340.418 34.48C339.767 34.48 339.191 34.688 338.69 35.104C338.199 35.52 337.82 36.0053 337.554 36.56V39.152C337.607 39.536 337.783 39.8827 338.082 40.192C338.38 40.5013 338.732 40.7467 339.138 40.928C339.543 41.1093 339.927 41.2 340.29 41.2ZM346.389 30.32H347.477V40.112C347.477 40.528 347.546 40.8 347.685 40.928C347.834 41.056 348.021 41.12 348.245 41.12C348.437 41.12 348.629 41.0987 348.821 41.056C349.023 41.0133 349.189 40.9707 349.317 40.928L349.509 41.808C349.306 41.8933 349.055 41.9627 348.757 42.016C348.469 42.0693 348.218 42.096 348.005 42.096C347.514 42.096 347.119 41.952 346.821 41.664C346.533 41.376 346.389 40.9813 346.389 40.48V30.32ZM350.028 39.6C350.028 39.088 350.177 38.6453 350.476 38.272C350.775 37.888 351.185 37.5893 351.708 37.376C352.241 37.1627 352.855 37.056 353.548 37.056C353.953 37.056 354.375 37.0933 354.812 37.168C355.249 37.232 355.639 37.3227 355.98 37.44V36.736C355.98 36.032 355.772 35.472 355.356 35.056C354.94 34.64 354.364 34.432 353.628 34.432C353.191 34.432 352.753 34.5173 352.316 34.688C351.879 34.848 351.425 35.088 350.956 35.408L350.54 34.64C351.084 34.2667 351.617 33.9893 352.14 33.808C352.663 33.616 353.196 33.52 353.74 33.52C354.764 33.52 355.575 33.8133 356.172 34.4C356.769 34.9867 357.068 35.7973 357.068 36.832V40.688C357.068 40.976 357.201 41.1253 357.468 41.136V42C357.233 42.032 357.068 42.0427 356.972 42.032C356.705 42.0213 356.503 41.936 356.364 41.776C356.225 41.616 356.151 41.4453 356.14 41.264L356.124 40.656C355.751 41.136 355.265 41.5093 354.668 41.776C354.071 42.032 353.463 42.16 352.844 42.16C352.3 42.16 351.815 42.048 351.388 41.824C350.961 41.5893 350.625 41.28 350.38 40.896C350.145 40.5013 350.028 40.0693 350.028 39.6ZM355.612 40.24C355.857 39.952 355.98 39.6853 355.98 39.44V38.224C355.244 37.936 354.476 37.792 353.676 37.792C352.897 37.792 352.268 37.9467 351.788 38.256C351.308 38.5653 351.068 38.9867 351.068 39.52C351.068 39.9787 351.244 40.3947 351.596 40.768C351.959 41.1413 352.46 41.328 353.1 41.328C353.623 41.328 354.108 41.2267 354.556 41.024C355.015 40.8213 355.367 40.56 355.612 40.24ZM366.427 42H365.339V37.344C365.339 36.3627 365.189 35.648 364.891 35.2C364.603 34.7413 364.155 34.512 363.547 34.512C363.12 34.512 362.699 34.6187 362.283 34.832C361.867 35.0347 361.499 35.3173 361.179 35.68C360.869 36.032 360.645 36.4373 360.507 36.896V42H359.419V33.664H360.411V35.552C360.741 34.944 361.227 34.4533 361.867 34.08C362.507 33.7067 363.2 33.52 363.947 33.52C364.565 33.52 365.056 33.6693 365.419 33.968C365.781 34.256 366.037 34.672 366.187 35.216C366.347 35.7493 366.427 36.384 366.427 37.12V42ZM368.187 37.856C368.187 37.0667 368.347 36.3467 368.667 35.696C368.998 35.0347 369.451 34.5067 370.027 34.112C370.603 33.7173 371.259 33.52 371.995 33.52C372.688 33.52 373.307 33.7067 373.851 34.08C374.406 34.4427 374.838 34.8853 375.147 35.408V30.32H376.235V40.688C376.235 40.976 376.363 41.1253 376.619 41.136V42C376.406 42.032 376.24 42.0427 376.123 42.032C375.888 42.0213 375.686 41.936 375.515 41.776C375.355 41.6053 375.275 41.4133 375.275 41.2V40.384C374.944 40.928 374.496 41.36 373.931 41.68C373.366 42 372.779 42.16 372.171 42.16C371.595 42.16 371.062 42.0427 370.571 41.808C370.08 41.5733 369.654 41.2533 369.291 40.848C368.939 40.4427 368.667 39.984 368.475 39.472C368.283 38.9493 368.187 38.4107 368.187 37.856ZM375.147 39.136V36.56C375.008 36.176 374.784 35.8293 374.475 35.52C374.166 35.2 373.814 34.9493 373.419 34.768C373.035 34.576 372.651 34.48 372.267 34.48C371.67 34.48 371.147 34.6453 370.699 34.976C370.262 35.296 369.92 35.7173 369.675 36.24C369.43 36.752 369.307 37.2907 369.307 37.856C369.307 38.4533 369.44 39.008 369.707 39.52C369.984 40.032 370.358 40.4427 370.827 40.752C371.296 41.0507 371.824 41.2 372.411 41.2C372.774 41.2 373.152 41.1093 373.547 40.928C373.952 40.736 374.304 40.4853 374.603 40.176C374.912 39.8667 375.094 39.52 375.147 39.136ZM378.7 31.92V30.32H379.788V31.92H378.7ZM378.7 42V33.664H379.788V42H378.7ZM386.184 41.6C386.056 41.6533 385.822 41.7493 385.48 41.888C385.139 42.0267 384.744 42.096 384.296 42.096C383.827 42.096 383.416 41.9627 383.064 41.696C382.712 41.4293 382.536 41.0293 382.536 40.496V34.528H381.384V33.664H382.536V30.848H383.624V33.664H385.544V34.528H383.624V40.192C383.646 40.5013 383.752 40.7307 383.944 40.88C384.147 41.0187 384.376 41.088 384.632 41.088C384.931 41.088 385.198 41.04 385.432 40.944C385.678 40.8373 385.832 40.7627 385.896 40.72L386.184 41.6ZM391.622 31.92V30.32H392.71V31.92H391.622ZM391.622 42V33.664H392.71V42H391.622ZM407.506 42H406.418V37.344C406.418 36.384 406.264 35.6747 405.954 35.216C405.645 34.7467 405.186 34.512 404.578 34.512C403.938 34.512 403.373 34.736 402.882 35.184C402.392 35.632 402.045 36.208 401.842 36.912V42H400.754V37.344C400.754 36.3627 400.6 35.648 400.29 35.2C399.992 34.7413 399.538 34.512 398.93 34.512C398.301 34.512 397.736 34.7307 397.234 35.168C396.744 35.6053 396.397 36.1813 396.194 36.896V42H395.106V33.664H396.098V35.552C396.44 34.912 396.888 34.416 397.442 34.064C397.997 33.7013 398.61 33.52 399.282 33.52C399.976 33.52 400.536 33.7227 400.962 34.128C401.389 34.5227 401.65 35.0347 401.746 35.664C402.514 34.2347 403.586 33.52 404.962 33.52C405.901 33.52 406.557 33.8507 406.93 34.512C407.314 35.1627 407.506 36.032 407.506 37.12V42ZM414.065 42.16C413.372 42.16 412.748 41.9787 412.193 41.616C411.649 41.2533 411.217 40.8053 410.897 40.272V45.408H409.809V33.664H410.785V35.28C411.116 34.7573 411.553 34.336 412.097 34.016C412.652 33.6853 413.249 33.52 413.889 33.52C414.465 33.52 414.993 33.6427 415.473 33.888C415.953 34.1227 416.369 34.4427 416.721 34.848C417.084 35.2533 417.361 35.7173 417.553 36.24C417.745 36.752 417.841 37.2853 417.841 37.84C417.841 38.6187 417.681 39.3387 417.361 40C417.052 40.6507 416.609 41.1733 416.033 41.568C415.468 41.9627 414.812 42.16 414.065 42.16ZM413.761 41.2C414.369 41.2 414.892 41.04 415.329 40.72C415.777 40.3893 416.124 39.968 416.369 39.456C416.615 38.944 416.737 38.4053 416.737 37.84C416.737 37.2427 416.599 36.688 416.321 36.176C416.044 35.664 415.671 35.2533 415.201 34.944C414.743 34.6347 414.22 34.48 413.633 34.48C413.271 34.48 412.887 34.576 412.481 34.768C412.087 34.9493 411.735 35.2 411.425 35.52C411.127 35.8293 410.951 36.1707 410.897 36.544V39.104C411.143 39.6907 411.527 40.1867 412.049 40.592C412.572 40.9973 413.143 41.2 413.761 41.2ZM423.284 42.16C422.484 42.16 421.77 41.9627 421.14 41.568C420.511 41.1733 420.015 40.6453 419.652 39.984C419.29 39.3227 419.108 38.5973 419.108 37.808C419.108 37.0293 419.284 36.3147 419.636 35.664C419.999 35.0133 420.495 34.496 421.124 34.112C421.754 33.7173 422.468 33.52 423.268 33.52C424.09 33.52 424.81 33.7173 425.428 34.112C426.047 34.5067 426.527 35.0293 426.868 35.68C427.22 36.32 427.396 37.024 427.396 37.792C427.396 37.9627 427.391 38.1067 427.38 38.224H420.244C420.298 38.8213 420.468 39.3547 420.756 39.824C421.044 40.2827 421.412 40.6507 421.86 40.928C422.308 41.1947 422.799 41.328 423.332 41.328C423.876 41.328 424.388 41.1893 424.868 40.912C425.348 40.6347 425.69 40.272 425.892 39.824L426.836 40.08C426.666 40.4853 426.399 40.848 426.036 41.168C425.684 41.4773 425.274 41.7227 424.804 41.904C424.335 42.0747 423.828 42.16 423.284 42.16ZM420.212 37.44H426.372C426.33 36.8427 426.164 36.3147 425.876 35.856C425.588 35.3867 425.22 35.024 424.772 34.768C424.324 34.5013 423.828 34.368 423.284 34.368C422.74 34.368 422.244 34.5013 421.796 34.768C421.348 35.024 420.98 35.3867 420.692 35.856C420.415 36.3147 420.255 36.8427 420.212 37.44ZM433.235 34.624C432.51 34.6453 431.87 34.848 431.315 35.232C430.771 35.616 430.387 36.144 430.163 36.816V42H429.075V33.664H430.099V35.664C430.387 35.0773 430.766 34.6027 431.235 34.24C431.715 33.8773 432.222 33.6747 432.755 33.632C432.862 33.6213 432.952 33.616 433.027 33.616C433.102 33.616 433.171 33.6213 433.235 33.632V34.624ZM433.906 37.856C433.906 37.0667 434.066 36.3467 434.386 35.696C434.716 35.0347 435.17 34.5067 435.746 34.112C436.322 33.7173 436.978 33.52 437.714 33.52C438.407 33.52 439.026 33.7067 439.57 34.08C440.124 34.4427 440.556 34.8853 440.866 35.408V30.32H441.954V40.688C441.954 40.976 442.082 41.1253 442.338 41.136V42C442.124 42.032 441.959 42.0427 441.842 42.032C441.607 42.0213 441.404 41.936 441.234 41.776C441.074 41.6053 440.994 41.4133 440.994 41.2V40.384C440.663 40.928 440.215 41.36 439.65 41.68C439.084 42 438.498 42.16 437.89 42.16C437.314 42.16 436.78 42.0427 436.29 41.808C435.799 41.5733 435.372 41.2533 435.01 40.848C434.658 40.4427 434.386 39.984 434.194 39.472C434.002 38.9493 433.906 38.4107 433.906 37.856ZM440.866 39.136V36.56C440.727 36.176 440.503 35.8293 440.194 35.52C439.884 35.2 439.532 34.9493 439.138 34.768C438.754 34.576 438.37 34.48 437.986 34.48C437.388 34.48 436.866 34.6453 436.418 34.976C435.98 35.296 435.639 35.7173 435.394 36.24C435.148 36.752 435.026 37.2907 435.026 37.856C435.026 38.4533 435.159 39.008 435.426 39.52C435.703 40.032 436.076 40.4427 436.546 40.752C437.015 41.0507 437.543 41.2 438.13 41.2C438.492 41.2 438.871 41.1093 439.266 40.928C439.671 40.736 440.023 40.4853 440.322 40.176C440.631 39.8667 440.812 39.52 440.866 39.136ZM444.419 31.92V30.32H445.507V31.92H444.419ZM444.419 42V33.664H445.507V42H444.419ZM451.503 42.16C450.703 42.16 449.988 41.9627 449.359 41.568C448.73 41.1733 448.234 40.6453 447.871 39.984C447.508 39.3227 447.327 38.5973 447.327 37.808C447.327 37.0293 447.503 36.3147 447.855 35.664C448.218 35.0133 448.714 34.496 449.343 34.112C449.972 33.7173 450.687 33.52 451.487 33.52C452.308 33.52 453.028 33.7173 453.647 34.112C454.266 34.5067 454.746 35.0293 455.087 35.68C455.439 36.32 455.615 37.024 455.615 37.792C455.615 37.9627 455.61 38.1067 455.599 38.224H448.463C448.516 38.8213 448.687 39.3547 448.975 39.824C449.263 40.2827 449.631 40.6507 450.079 40.928C450.527 41.1947 451.018 41.328 451.551 41.328C452.095 41.328 452.607 41.1893 453.087 40.912C453.567 40.6347 453.908 40.272 454.111 39.824L455.055 40.08C454.884 40.4853 454.618 40.848 454.255 41.168C453.903 41.4773 453.492 41.7227 453.023 41.904C452.554 42.0747 452.047 42.16 451.503 42.16ZM448.431 37.44H454.591C454.548 36.8427 454.383 36.3147 454.095 35.856C453.807 35.3867 453.439 35.024 452.991 34.768C452.543 34.5013 452.047 34.368 451.503 34.368C450.959 34.368 450.463 34.5013 450.015 34.768C449.567 35.024 449.199 35.3867 448.911 35.856C448.634 36.3147 448.474 36.8427 448.431 37.44ZM461.216 41.6C461.088 41.6533 460.853 41.7493 460.512 41.888C460.17 42.0267 459.776 42.096 459.328 42.096C458.858 42.096 458.448 41.9627 458.096 41.696C457.744 41.4293 457.568 41.0293 457.568 40.496V34.528H456.416V33.664H457.568V30.848H458.656V33.664H460.576V34.528H458.656V40.192C458.677 40.5013 458.784 40.7307 458.976 40.88C459.178 41.0187 459.408 41.088 459.664 41.088C459.962 41.088 460.229 41.04 460.464 40.944C460.709 40.8373 460.864 40.7627 460.928 40.72L461.216 41.6ZM473.661 42H472.573V37.344C472.573 36.3627 472.424 35.648 472.125 35.2C471.837 34.7413 471.389 34.512 470.781 34.512C470.354 34.512 469.933 34.6187 469.517 34.832C469.101 35.0347 468.733 35.3173 468.413 35.68C468.104 36.032 467.88 36.4373 467.741 36.896V42H466.653V33.664H467.645V35.552C467.976 34.944 468.461 34.4533 469.101 34.08C469.741 33.7067 470.434 33.52 471.181 33.52C471.8 33.52 472.29 33.6693 472.653 33.968C473.016 34.256 473.272 34.672 473.421 35.216C473.581 35.7493 473.661 36.384 473.661 37.12V42ZM475.981 31.92V30.32H477.069V31.92H475.981ZM475.981 42V33.664H477.069V42H475.981ZM483.546 42.16C482.895 42.16 482.292 41.9947 481.738 41.664C481.183 41.3227 480.751 40.896 480.442 40.384V42H479.466V30.32H480.554V35.408C480.927 34.8427 481.375 34.3893 481.898 34.048C482.42 33.696 483.028 33.52 483.722 33.52C484.308 33.52 484.831 33.6427 485.29 33.888C485.759 34.1333 486.159 34.464 486.49 34.88C486.82 35.2853 487.071 35.7493 487.242 36.272C487.412 36.784 487.498 37.312 487.498 37.856C487.498 38.6347 487.322 39.3493 486.97 40C486.628 40.6507 486.159 41.1733 485.562 41.568C484.964 41.9627 484.292 42.16 483.546 42.16ZM483.29 41.2C483.898 41.2 484.431 41.04 484.89 40.72C485.359 40.4 485.727 39.9893 485.994 39.488C486.26 38.976 486.394 38.432 486.394 37.856C486.394 37.2693 486.266 36.72 486.01 36.208C485.764 35.696 485.418 35.28 484.97 34.96C484.522 34.64 484.004 34.48 483.418 34.48C482.767 34.48 482.191 34.688 481.69 35.104C481.199 35.52 480.82 36.0053 480.554 36.56V39.152C480.607 39.536 480.783 39.8827 481.082 40.192C481.38 40.5013 481.732 40.7467 482.138 40.928C482.543 41.1093 482.927 41.2 483.29 41.2ZM496.349 42H495.261V37.344C495.261 35.456 494.621 34.512 493.341 34.512C492.925 34.512 492.519 34.6187 492.125 34.832C491.73 35.0347 491.378 35.3173 491.069 35.68C490.77 36.032 490.557 36.4373 490.429 36.896V42H489.341V30.32H490.429V35.552C490.759 34.9333 491.218 34.4427 491.805 34.08C492.402 33.7067 493.037 33.52 493.709 33.52C494.349 33.52 494.861 33.6747 495.245 33.984C495.629 34.2827 495.906 34.704 496.077 35.248C496.258 35.7813 496.349 36.4053 496.349 37.12V42ZM502.075 39.6C502.075 39.088 502.224 38.6453 502.523 38.272C502.822 37.888 503.232 37.5893 503.755 37.376C504.288 37.1627 504.902 37.056 505.595 37.056C506 37.056 506.422 37.0933 506.859 37.168C507.296 37.232 507.686 37.3227 508.027 37.44V36.736C508.027 36.032 507.819 35.472 507.403 35.056C506.987 34.64 506.411 34.432 505.675 34.432C505.238 34.432 504.8 34.5173 504.363 34.688C503.926 34.848 503.472 35.088 503.003 35.408L502.587 34.64C503.131 34.2667 503.664 33.9893 504.187 33.808C504.71 33.616 505.243 33.52 505.787 33.52C506.811 33.52 507.622 33.8133 508.219 34.4C508.816 34.9867 509.115 35.7973 509.115 36.832V40.688C509.115 40.976 509.248 41.1253 509.515 41.136V42C509.28 42.032 509.115 42.0427 509.019 42.032C508.752 42.0213 508.55 41.936 508.411 41.776C508.272 41.616 508.198 41.4453 508.187 41.264L508.171 40.656C507.798 41.136 507.312 41.5093 506.715 41.776C506.118 42.032 505.51 42.16 504.891 42.16C504.347 42.16 503.862 42.048 503.435 41.824C503.008 41.5893 502.672 41.28 502.427 40.896C502.192 40.5013 502.075 40.0693 502.075 39.6ZM507.659 40.24C507.904 39.952 508.027 39.6853 508.027 39.44V38.224C507.291 37.936 506.523 37.792 505.723 37.792C504.944 37.792 504.315 37.9467 503.835 38.256C503.355 38.5653 503.115 38.9867 503.115 39.52C503.115 39.9787 503.291 40.3947 503.643 40.768C504.006 41.1413 504.507 41.328 505.147 41.328C505.67 41.328 506.155 41.2267 506.603 41.024C507.062 40.8213 507.414 40.56 507.659 40.24ZM523.866 42H522.778V37.344C522.778 36.384 522.623 35.6747 522.314 35.216C522.004 34.7467 521.546 34.512 520.938 34.512C520.298 34.512 519.732 34.736 519.242 35.184C518.751 35.632 518.404 36.208 518.202 36.912V42H517.114V37.344C517.114 36.3627 516.959 35.648 516.65 35.2C516.351 34.7413 515.898 34.512 515.29 34.512C514.66 34.512 514.095 34.7307 513.594 35.168C513.103 35.6053 512.756 36.1813 512.554 36.896V42H511.466V33.664H512.458V35.552C512.799 34.912 513.247 34.416 513.802 34.064C514.356 33.7013 514.97 33.52 515.642 33.52C516.335 33.52 516.895 33.7227 517.322 34.128C517.748 34.5227 518.01 35.0347 518.106 35.664C518.874 34.2347 519.946 33.52 521.322 33.52C522.26 33.52 522.916 33.8507 523.29 34.512C523.674 35.1627 523.866 36.032 523.866 37.12V42ZM529.769 42.16C528.969 42.16 528.254 41.9627 527.625 41.568C526.995 41.1733 526.499 40.6453 526.137 39.984C525.774 39.3227 525.593 38.5973 525.593 37.808C525.593 37.0293 525.769 36.3147 526.121 35.664C526.483 35.0133 526.979 34.496 527.609 34.112C528.238 33.7173 528.953 33.52 529.753 33.52C530.574 33.52 531.294 33.7173 531.913 34.112C532.531 34.5067 533.011 35.0293 533.353 35.68C533.705 36.32 533.881 37.024 533.881 37.792C533.881 37.9627 533.875 38.1067 533.865 38.224H526.729C526.782 38.8213 526.953 39.3547 527.241 39.824C527.529 40.2827 527.897 40.6507 528.345 40.928C528.793 41.1947 529.283 41.328 529.817 41.328C530.361 41.328 530.873 41.1893 531.353 40.912C531.833 40.6347 532.174 40.272 532.377 39.824L533.321 40.08C533.15 40.4853 532.883 40.848 532.521 41.168C532.169 41.4773 531.758 41.7227 531.289 41.904C530.819 42.0747 530.313 42.16 529.769 42.16ZM526.697 37.44H532.857C532.814 36.8427 532.649 36.3147 532.361 35.856C532.073 35.3867 531.705 35.024 531.257 34.768C530.809 34.5013 530.313 34.368 529.769 34.368C529.225 34.368 528.729 34.5013 528.281 34.768C527.833 35.024 527.465 35.3867 527.177 35.856C526.899 36.3147 526.739 36.8427 526.697 37.44ZM539.481 41.6C539.353 41.6533 539.119 41.7493 538.777 41.888C538.436 42.0267 538.041 42.096 537.593 42.096C537.124 42.096 536.713 41.9627 536.361 41.696C536.009 41.4293 535.833 41.0293 535.833 40.496V34.528H534.681V33.664H535.833V30.848H536.921V33.664H538.841V34.528H536.921V40.192C536.943 40.5013 537.049 40.7307 537.241 40.88C537.444 41.0187 537.673 41.088 537.929 41.088C538.228 41.088 538.495 41.04 538.729 40.944C538.975 40.8373 539.129 40.7627 539.193 40.72L539.481 41.6ZM540.681 42V40.432H541.625V42H540.681Z" fill="white" />
  <path d="M19.68 17.72H1.74V8.96H34.8L13.8 51.56H2.94L19.68 17.72ZM68.7103 29.66C68.7103 32.46 68.0103 35 66.6103 37.28C65.2503 39.52 63.3703 41.3 60.9703 42.62C58.6103 43.94 55.9503 44.6 52.9903 44.6C48.0303 44.6 44.1503 42.82 41.3503 39.26C38.5503 35.7 37.1503 30.74 37.1503 24.38C37.1503 19.42 37.8303 15.2 39.1903 11.72C40.5503 8.24 42.4703 5.6 44.9503 3.8C47.4703 1.96 50.4703 1.04 53.9503 1.04C56.5503 1.04 58.9903 1.58 61.2703 2.66C63.5503 3.74 65.5503 5.3 67.2703 7.34L61.8703 13.46C60.8703 12.18 59.6703 11.18 58.2703 10.46C56.8703 9.74 55.3703 9.38 53.7703 9.38C51.4503 9.38 49.5903 10.24 48.1903 11.96C46.7903 13.64 46.0503 16 45.9703 19.04C47.6903 16.76 50.3103 15.62 53.8303 15.62C56.6303 15.62 59.1503 16.24 61.3903 17.48C63.6703 18.72 65.4503 20.4 66.7303 22.52C68.0503 24.64 68.7103 27.02 68.7103 29.66ZM52.9903 36.5C54.1503 36.5 55.2303 36.2 56.2303 35.6C57.2303 34.96 58.0303 34.12 58.6303 33.08C59.2703 32.04 59.5903 30.9 59.5903 29.66C59.5903 27.86 58.9303 26.34 57.6103 25.1C56.3303 23.82 54.7903 23.18 52.9903 23.18C51.1503 23.18 49.5903 23.82 48.3103 25.1C47.0303 26.34 46.3903 27.86 46.3903 29.66C46.3903 30.9 46.6903 32.04 47.2903 33.08C47.9303 34.12 48.7303 34.96 49.6903 35.6C50.6903 36.2 51.7903 36.5 52.9903 36.5ZM83.3742 19.34C81.4542 19.34 79.7142 18.94 78.1542 18.14C76.6342 17.3 75.4142 16.18 74.4942 14.78C73.5742 13.34 73.1142 11.76 73.1142 10.04C73.1142 8.32 73.5742 6.76 74.4942 5.36C75.4142 3.96 76.6342 2.86 78.1542 2.06C79.7142 1.22 81.4542 0.799998 83.3742 0.799998C85.2942 0.799998 87.0342 1.22 88.5942 2.06C90.1542 2.86 91.3742 3.96 92.2542 5.36C93.1742 6.76 93.6342 8.32 93.6342 10.04C93.6342 11.76 93.1742 13.34 92.2542 14.78C91.3742 16.18 90.1542 17.3 88.5942 18.14C87.0342 18.94 85.2942 19.34 83.3742 19.34ZM77.2542 40.64L94.2342 21.2L109.594 0.859998L113.854 4.7L97.4742 23.66L81.5142 44.54L77.2542 40.64ZM83.3742 14.66C84.3742 14.66 85.2142 14.22 85.8942 13.34C86.6142 12.42 86.9742 11.32 86.9742 10.04C86.9742 8.8 86.6142 7.74 85.8942 6.86C85.1742 5.94 84.3342 5.48 83.3742 5.48C82.3742 5.48 81.5142 5.94 80.7942 6.86C80.1142 7.74 79.7742 8.8 79.7742 10.04C79.7742 11.32 80.1342 12.42 80.8542 13.34C81.5742 14.22 82.4142 14.66 83.3742 14.66ZM107.734 44.6C105.814 44.6 104.074 44.2 102.514 43.4C100.994 42.56 99.7742 41.44 98.8542 40.04C97.9342 38.64 97.4742 37.08 97.4742 35.36C97.4742 33.64 97.9342 32.08 98.8542 30.68C99.7742 29.24 100.994 28.12 102.514 27.32C104.074 26.48 105.814 26.06 107.734 26.06C109.654 26.06 111.394 26.48 112.954 27.32C114.514 28.12 115.734 29.24 116.614 30.68C117.534 32.08 117.994 33.64 117.994 35.36C117.994 37.08 117.534 38.64 116.614 40.04C115.734 41.44 114.514 42.56 112.954 43.4C111.394 44.2 109.654 44.6 107.734 44.6ZM107.734 39.92C108.734 39.92 109.594 39.48 110.314 38.6C111.034 37.68 111.394 36.6 111.394 35.36C111.394 34.08 111.034 33 110.314 32.12C109.594 31.2 108.734 30.74 107.734 30.74C106.734 30.74 105.874 31.2 105.154 32.12C104.474 33 104.134 34.08 104.134 35.36C104.134 36.6 104.494 37.68 105.214 38.6C105.934 39.48 106.774 39.92 107.734 39.92Z" fill="white" />
</svg>