<svg width="104" height="53" viewBox="0 0 104 53" fill="none" xmlns="http://www.w3.org/2000/svg">
<path d="M63.29 18.0009V10.9009H64.67V16.7909H68.29V18.0009H63.29Z" fill="#003A8C"/>
<path d="M71.3908 18.1009C70.8241 18.1009 70.3341 17.9776 69.9208 17.7309C69.5141 17.4842 69.1975 17.1576 68.9708 16.7509C68.7441 16.3376 68.6308 15.8909 68.6308 15.4109C68.6308 14.9176 68.7408 14.4642 68.9608 14.0509C69.1875 13.6309 69.5075 13.2976 69.9208 13.0509C70.3341 12.7976 70.8275 12.6709 71.4008 12.6709C71.9741 12.6709 72.4641 12.7976 72.8708 13.0509C73.2775 13.2976 73.5875 13.6276 73.8008 14.0409C74.0208 14.4476 74.1308 14.8876 74.1308 15.3609C74.1308 15.5342 74.1208 15.6842 74.1008 15.8109H70.0508C70.0841 16.2176 70.2341 16.5376 70.5008 16.7709C70.7741 17.0042 71.0875 17.1209 71.4408 17.1209C71.7075 17.1209 71.9575 17.0576 72.1908 16.9309C72.4308 16.7976 72.5941 16.6242 72.6808 16.4109L73.8308 16.7309C73.6375 17.1309 73.3275 17.4609 72.9008 17.7209C72.4741 17.9742 71.9708 18.1009 71.3908 18.1009ZM70.0208 14.9609H72.7608C72.7208 14.5676 72.5708 14.2509 72.3108 14.0109C72.0575 13.7642 71.7475 13.6409 71.3808 13.6409C71.0208 13.6409 70.7108 13.7642 70.4508 14.0109C70.1975 14.2509 70.0541 14.5676 70.0208 14.9609Z" fill="#003A8C"/>
<path d="M77.9271 18.1009C77.5271 18.1009 77.1705 18.0109 76.8571 17.8309C76.5438 17.6509 76.2971 17.4042 76.1171 17.0909V18.0009H74.9471V10.7009H76.2871V13.6809C76.4738 13.3676 76.7171 13.1209 77.0171 12.9409C77.3238 12.7609 77.6805 12.6709 78.0871 12.6709C78.5405 12.6709 78.9371 12.7976 79.2771 13.0509C79.6238 13.2976 79.8938 13.6276 80.0871 14.0409C80.2805 14.4542 80.3771 14.9076 80.3771 15.4009C80.3771 15.9076 80.2705 16.3642 80.0571 16.7709C79.8438 17.1776 79.5505 17.5009 79.1771 17.7409C78.8105 17.9809 78.3938 18.1009 77.9271 18.1009ZM77.5571 16.9609C77.8438 16.9609 78.0938 16.8909 78.3071 16.7509C78.5271 16.6109 78.6971 16.4242 78.8171 16.1909C78.9438 15.9509 79.0071 15.6909 79.0071 15.4109C79.0071 15.1242 78.9471 14.8609 78.8271 14.6209C78.7138 14.3742 78.5538 14.1776 78.3471 14.0309C78.1405 13.8842 77.9038 13.8109 77.6371 13.8109C77.3438 13.8109 77.0738 13.9109 76.8271 14.1109C76.5871 14.3042 76.4071 14.5442 76.2871 14.8309V16.0809C76.3738 16.3409 76.5438 16.5542 76.7971 16.7209C77.0505 16.8809 77.3038 16.9609 77.5571 16.9609Z" fill="#003A8C"/>
<path d="M80.925 16.4509C80.925 16.1109 81.0183 15.8142 81.205 15.5609C81.3983 15.3009 81.665 15.1009 82.005 14.9609C82.345 14.8209 82.735 14.7509 83.175 14.7509C83.395 14.7509 83.6183 14.7709 83.845 14.8109C84.0717 14.8442 84.2683 14.8942 84.435 14.9609V14.6809C84.435 14.3476 84.335 14.0909 84.135 13.9109C83.9417 13.7309 83.6517 13.6409 83.265 13.6409C82.9783 13.6409 82.705 13.6909 82.445 13.7909C82.185 13.8909 81.9117 14.0376 81.625 14.2309L81.195 13.3509C81.5417 13.1242 81.895 12.9542 82.255 12.8409C82.6217 12.7276 83.005 12.6709 83.405 12.6709C84.1517 12.6709 84.7317 12.8576 85.145 13.2309C85.565 13.6042 85.775 14.1376 85.775 14.8309V16.5009C85.775 16.6476 85.7983 16.7509 85.845 16.8109C85.8917 16.8642 85.975 16.8976 86.095 16.9109V18.0009C85.975 18.0276 85.865 18.0442 85.765 18.0509C85.6717 18.0642 85.5917 18.0709 85.525 18.0709C85.2583 18.0709 85.055 18.0109 84.915 17.8909C84.775 17.7709 84.6917 17.6242 84.665 17.4509L84.635 17.1809C84.4017 17.4809 84.115 17.7109 83.775 17.8709C83.4417 18.0242 83.0983 18.1009 82.745 18.1009C82.3917 18.1009 82.0783 18.0309 81.805 17.8909C81.5317 17.7442 81.315 17.5476 81.155 17.3009C81.0017 17.0476 80.925 16.7642 80.925 16.4509ZM84.185 16.7209C84.3517 16.5609 84.435 16.4076 84.435 16.2609V15.7309C84.0883 15.5909 83.7383 15.5209 83.385 15.5209C83.0317 15.5209 82.745 15.5976 82.525 15.7509C82.305 15.8976 82.195 16.0942 82.195 16.3409C82.195 16.5409 82.275 16.7209 82.435 16.8809C82.595 17.0409 82.825 17.1209 83.125 17.1209C83.325 17.1209 83.5183 17.0842 83.705 17.0109C83.8983 16.9376 84.0583 16.8409 84.185 16.7209Z" fill="#003A8C"/>
<path d="M91.8972 18.0009H90.5572V15.0609C90.5572 14.6409 90.4839 14.3342 90.3372 14.1409C90.1905 13.9476 89.9872 13.8509 89.7272 13.8509C89.5472 13.8509 89.3639 13.8976 89.1772 13.9909C88.9972 14.0842 88.8339 14.2142 88.6872 14.3809C88.5405 14.5409 88.4339 14.7276 88.3672 14.9409V18.0009H87.0272V12.7609H88.2372V13.7309C88.4305 13.4042 88.7105 13.1476 89.0772 12.9609C89.4439 12.7676 89.8572 12.6709 90.3172 12.6709C90.6439 12.6709 90.9105 12.7309 91.1172 12.8509C91.3239 12.9642 91.4839 13.1209 91.5972 13.3209C91.7105 13.5142 91.7872 13.7342 91.8272 13.9809C91.8739 14.2276 91.8972 14.4776 91.8972 14.7309V18.0009Z" fill="#003A8C"/>
<path d="M95.4823 18.1009C94.909 18.1009 94.4157 17.9776 94.0024 17.7309C93.5957 17.4776 93.2824 17.1442 93.0624 16.7309C92.8424 16.3176 92.7324 15.8709 92.7324 15.3909C92.7324 14.9042 92.8424 14.4542 93.0624 14.0409C93.289 13.6276 93.6057 13.2976 94.0124 13.0509C94.4257 12.7976 94.9157 12.6709 95.4823 12.6709C96.049 12.6709 96.5357 12.7976 96.9424 13.0509C97.3557 13.2976 97.6723 13.6276 97.8923 14.0409C98.1124 14.4542 98.2224 14.9042 98.2224 15.3909C98.2224 15.8709 98.1124 16.3176 97.8923 16.7309C97.6723 17.1442 97.3557 17.4776 96.9424 17.7309C96.5357 17.9776 96.049 18.1009 95.4823 18.1009ZM94.1124 15.3909C94.1124 15.6976 94.1724 15.9709 94.2924 16.2109C94.4124 16.4442 94.5757 16.6276 94.7824 16.7609C94.989 16.8942 95.2223 16.9609 95.4823 16.9609C95.7357 16.9609 95.9657 16.8942 96.1724 16.7609C96.379 16.6209 96.5424 16.4342 96.6623 16.2009C96.789 15.9609 96.8524 15.6876 96.8524 15.3809C96.8524 15.0809 96.789 14.8142 96.6623 14.5809C96.5424 14.3409 96.379 14.1542 96.1724 14.0209C95.9657 13.8809 95.7357 13.8109 95.4823 13.8109C95.2223 13.8109 94.989 13.8809 94.7824 14.0209C94.5757 14.1542 94.4124 14.3409 94.2924 14.5809C94.1724 14.8142 94.1124 15.0842 94.1124 15.3909Z" fill="#003A8C"/>
<path d="M103.997 18.0009H102.657V15.0609C102.657 14.6409 102.583 14.3342 102.437 14.1409C102.29 13.9476 102.087 13.8509 101.827 13.8509C101.647 13.8509 101.463 13.8976 101.277 13.9909C101.097 14.0842 100.933 14.2142 100.787 14.3809C100.64 14.5409 100.533 14.7276 100.467 14.9409V18.0009H99.1268V12.7609H100.337V13.7309C100.53 13.4042 100.81 13.1476 101.177 12.9609C101.543 12.7676 101.957 12.6709 102.417 12.6709C102.743 12.6709 103.01 12.7309 103.217 12.8509C103.423 12.9642 103.583 13.1209 103.697 13.3209C103.81 13.5142 103.887 13.7342 103.927 13.9809C103.973 14.2276 103.997 14.4776 103.997 14.7309V18.0009Z" fill="#003A8C"/>
<path d="M63.29 30.0009V22.9009H66.43C66.7567 22.9009 67.0567 22.9676 67.33 23.1009C67.61 23.2342 67.85 23.4142 68.05 23.6409C68.2567 23.8676 68.4133 24.1209 68.52 24.4009C68.6333 24.6809 68.69 24.9676 68.69 25.2609C68.69 25.7142 68.5733 26.1309 68.34 26.5109C68.1133 26.8909 67.8033 27.1642 67.41 27.3309L69.03 30.0009H67.51L66.05 27.6209H64.67V30.0009H63.29ZM64.67 26.4109H66.4C66.66 26.4109 66.8733 26.3009 67.04 26.0809C67.2133 25.8542 67.3 25.5809 67.3 25.2609C67.3 25.0409 67.2533 24.8442 67.16 24.6709C67.0667 24.4976 66.9467 24.3609 66.8 24.2609C66.66 24.1609 66.5067 24.1109 66.34 24.1109H64.67V26.4109Z" fill="#003A8C"/>
<path d="M72.0646 30.1009C71.498 30.1009 71.008 29.9776 70.5946 29.7309C70.188 29.4842 69.8713 29.1576 69.6446 28.7509C69.418 28.3376 69.3046 27.8909 69.3046 27.4109C69.3046 26.9176 69.4146 26.4642 69.6346 26.0509C69.8613 25.6309 70.1813 25.2976 70.5946 25.0509C71.008 24.7976 71.5013 24.6709 72.0746 24.6709C72.648 24.6709 73.138 24.7976 73.5446 25.0509C73.9513 25.2976 74.2613 25.6276 74.4746 26.0409C74.6946 26.4476 74.8046 26.8876 74.8046 27.3609C74.8046 27.5342 74.7946 27.6842 74.7746 27.8109H70.7246C70.758 28.2176 70.908 28.5376 71.1746 28.7709C71.448 29.0042 71.7613 29.1209 72.1146 29.1209C72.3813 29.1209 72.6313 29.0576 72.8646 28.9309C73.1046 28.7976 73.268 28.6242 73.3546 28.4109L74.5046 28.7309C74.3113 29.1309 74.0013 29.4609 73.5746 29.7209C73.148 29.9742 72.6446 30.1009 72.0646 30.1009ZM70.6946 26.9609H73.4346C73.3946 26.5676 73.2446 26.2509 72.9846 26.0109C72.7313 25.7642 72.4213 25.6409 72.0546 25.6409C71.6946 25.6409 71.3846 25.7642 71.1246 26.0109C70.8713 26.2509 70.728 26.5676 70.6946 26.9609Z" fill="#003A8C"/>
<path d="M75.6109 22.7009H76.9509V28.3209C76.9509 28.5676 76.9909 28.7309 77.0709 28.8109C77.1509 28.8909 77.2609 28.9309 77.4009 28.9309C77.5076 28.9309 77.6176 28.9176 77.7309 28.8909C77.8443 28.8642 77.9443 28.8309 78.0309 28.7909L78.2109 29.8109C78.0309 29.8976 77.8209 29.9642 77.5809 30.0109C77.3409 30.0576 77.1243 30.0809 76.9309 30.0809C76.5109 30.0809 76.1843 29.9709 75.9509 29.7509C75.7243 29.5242 75.6109 29.2042 75.6109 28.7909V22.7009Z" fill="#003A8C"/>
<path d="M78.7948 24.0309V22.7009H80.1348V24.0309H78.7948ZM78.7948 30.0009V24.7609H80.1348V30.0009H78.7948Z" fill="#003A8C"/>
<path d="M83.7736 30.1009C83.2069 30.1009 82.7169 29.9776 82.3036 29.7309C81.8969 29.4842 81.5803 29.1576 81.3536 28.7509C81.1269 28.3376 81.0136 27.8909 81.0136 27.4109C81.0136 26.9176 81.1236 26.4642 81.3436 26.0509C81.5703 25.6309 81.8903 25.2976 82.3036 25.0509C82.7169 24.7976 83.2103 24.6709 83.7836 24.6709C84.3569 24.6709 84.8469 24.7976 85.2536 25.0509C85.6603 25.2976 85.9703 25.6276 86.1836 26.0409C86.4036 26.4476 86.5136 26.8876 86.5136 27.3609C86.5136 27.5342 86.5036 27.6842 86.4836 27.8109H82.4336C82.4669 28.2176 82.6169 28.5376 82.8836 28.7709C83.1569 29.0042 83.4703 29.1209 83.8236 29.1209C84.0903 29.1209 84.3403 29.0576 84.5736 28.9309C84.8136 28.7976 84.9769 28.6242 85.0636 28.4109L86.2136 28.7309C86.0203 29.1309 85.7103 29.4609 85.2836 29.7209C84.8569 29.9742 84.3536 30.1009 83.7736 30.1009ZM82.4036 26.9609H85.1436C85.1036 26.5676 84.9536 26.2509 84.6936 26.0109C84.4403 25.7642 84.1303 25.6409 83.7636 25.6409C83.4036 25.6409 83.0936 25.7642 82.8336 26.0109C82.5803 26.2509 82.4369 26.5676 82.4036 26.9609Z" fill="#003A8C"/>
<path d="M87.6206 30.0009V26.0609H86.9306V25.0409H87.6206V24.7209C87.6206 24.0742 87.7773 23.5609 88.0906 23.1809C88.4106 22.7942 88.8373 22.6009 89.3706 22.6009C89.7973 22.6009 90.2273 22.7042 90.6606 22.9109L90.3906 23.9209C90.2906 23.8676 90.1706 23.8242 90.0306 23.7909C89.8973 23.7509 89.774 23.7309 89.6606 23.7309C89.194 23.7309 88.9606 24.0442 88.9606 24.6709V25.0409H90.2406V26.0609H88.9606V30.0009H87.6206Z" fill="#003A8C"/>
<path d="M64.67 37.4409V42.0009H63.29V34.9009H64.39L68.06 39.5809V34.9109H69.44V42.0009H68.29L64.67 37.4409Z" fill="#003A8C"/>
<path d="M73.1291 42.1009C72.5624 42.1009 72.0724 41.9776 71.6591 41.7309C71.2524 41.4842 70.9357 41.1576 70.7091 40.7509C70.4824 40.3376 70.3691 39.8909 70.3691 39.4109C70.3691 38.9176 70.4791 38.4642 70.6991 38.0509C70.9257 37.6309 71.2457 37.2976 71.6591 37.0509C72.0724 36.7976 72.5657 36.6709 73.1391 36.6709C73.7124 36.6709 74.2024 36.7976 74.6091 37.0509C75.0157 37.2976 75.3257 37.6276 75.5391 38.0409C75.7591 38.4476 75.8691 38.8876 75.8691 39.3609C75.8691 39.5342 75.8591 39.6842 75.8391 39.8109H71.7891C71.8224 40.2176 71.9724 40.5376 72.2391 40.7709C72.5124 41.0042 72.8257 41.1209 73.1791 41.1209C73.4457 41.1209 73.6957 41.0576 73.9291 40.9309C74.1691 40.7976 74.3324 40.6242 74.4191 40.4109L75.5691 40.7309C75.3757 41.1309 75.0657 41.4609 74.6391 41.7209C74.2124 41.9742 73.7091 42.1009 73.1291 42.1009ZM71.7591 38.9609H74.4991C74.4591 38.5676 74.3091 38.2509 74.0491 38.0109C73.7957 37.7642 73.4857 37.6409 73.1191 37.6409C72.7591 37.6409 72.4491 37.7642 72.1891 38.0109C71.9357 38.2509 71.7924 38.5676 71.7591 38.9609Z" fill="#003A8C"/>
<path d="M79.7766 41.7309C79.5966 41.8109 79.3732 41.8909 79.1066 41.9709C78.8466 42.0509 78.5766 42.0909 78.2966 42.0909C78.0499 42.0909 77.8232 42.0476 77.6166 41.9609C77.4099 41.8742 77.2432 41.7376 77.1166 41.5509C76.9966 41.3576 76.9366 41.1076 76.9366 40.8009V37.7909H76.2466V36.7609H76.9366V35.0609H78.2766V36.7609H79.3766V37.7909H78.2766V40.3509C78.2766 40.5309 78.3232 40.6609 78.4166 40.7409C78.5166 40.8209 78.6366 40.8609 78.7766 40.8609C78.9166 40.8609 79.0532 40.8376 79.1866 40.7909C79.3199 40.7442 79.4266 40.7042 79.5066 40.6709L79.7766 41.7309Z" fill="#003A8C"/>
<path d="M86.9549 36.7609H88.2249L86.0349 42.0009H84.9149L84.0349 39.7509L83.1749 42.0009H82.0449L79.8649 36.7609H81.1249L82.6849 40.7209L83.2949 39.0109L82.3849 36.7709H83.4949L84.0349 38.3709L84.5849 36.7709H85.6949L84.7849 39.0109L85.4049 40.7209L86.9549 36.7609Z" fill="#003A8C"/>
<path d="M91.0878 42.1009C90.5145 42.1009 90.0212 41.9776 89.6078 41.7309C89.2012 41.4776 88.8878 41.1442 88.6678 40.7309C88.4478 40.3176 88.3378 39.8709 88.3378 39.3909C88.3378 38.9042 88.4478 38.4542 88.6678 38.0409C88.8945 37.6276 89.2112 37.2976 89.6178 37.0509C90.0312 36.7976 90.5212 36.6709 91.0878 36.6709C91.6545 36.6709 92.1412 36.7976 92.5478 37.0509C92.9612 37.2976 93.2778 37.6276 93.4978 38.0409C93.7178 38.4542 93.8278 38.9042 93.8278 39.3909C93.8278 39.8709 93.7178 40.3176 93.4978 40.7309C93.2778 41.1442 92.9612 41.4776 92.5478 41.7309C92.1412 41.9776 91.6545 42.1009 91.0878 42.1009ZM89.7178 39.3909C89.7178 39.6976 89.7778 39.9709 89.8978 40.2109C90.0178 40.4442 90.1812 40.6276 90.3878 40.7609C90.5945 40.8942 90.8278 40.9609 91.0878 40.9609C91.3412 40.9609 91.5712 40.8942 91.7778 40.7609C91.9845 40.6209 92.1478 40.4342 92.2678 40.2009C92.3945 39.9609 92.4578 39.6876 92.4578 39.3809C92.4578 39.0809 92.3945 38.8142 92.2678 38.5809C92.1478 38.3409 91.9845 38.1542 91.7778 38.0209C91.5712 37.8809 91.3412 37.8109 91.0878 37.8109C90.8278 37.8109 90.5945 37.8809 90.3878 38.0209C90.1812 38.1542 90.0178 38.3409 89.8978 38.5809C89.7778 38.8142 89.7178 39.0842 89.7178 39.3909Z" fill="#003A8C"/>
<path d="M97.8523 37.9209C97.4456 37.9209 97.0823 38.0009 96.7623 38.1609C96.4423 38.3142 96.2123 38.5376 96.0723 38.8309V42.0009H94.7323V36.7609H95.9623V37.8809C96.1423 37.5209 96.3756 37.2376 96.6623 37.0309C96.9556 36.8242 97.2623 36.7109 97.5823 36.6909C97.7223 36.6909 97.8123 36.6942 97.8523 36.7009V37.9209Z" fill="#003A8C"/>
<path d="M102.179 42.0009L100.649 39.7409L99.9395 40.4409V42.0009H98.5995V34.7009H99.9395V39.1209L102.049 36.7709H103.469L101.519 38.9909L103.609 42.0009H102.179Z" fill="#003A8C"/>
<path d="M51.8909 32.601C48.503 44.1799 40.4835 52.4567 28.4328 52.9714C13.8519 53.6575 0 41.8212 0 29.7277C0 15.9187 14.538 0.136982 28.8616 1.8095C40.8266 3.18182 56.2652 17.677 51.8909 32.601Z" fill="#FFF2E8"/>
<path d="M38.4669 5.54069C38.2525 5.71223 37.5235 5.66934 37.0088 5.32626C36.8373 5.24049 36.6658 5.11184 36.4942 5.06895L35.9796 4.85453C35.6365 4.72587 35.2505 4.55433 34.9504 4.38279C34.8217 4.29702 34.4786 4.16837 34.5644 4.38279C34.7788 4.85453 33.964 4.68299 33.7925 4.85453C33.4494 5.15472 33.1492 4.76876 32.7632 4.72587C32.463 4.6401 32.0771 4.51145 31.734 4.6401C31.5196 4.68299 31.2194 4.72587 31.0478 4.6401C30.6619 4.46856 30.2759 4.46856 29.9328 4.55433C29.5897 4.6401 29.2895 4.85453 28.9893 4.9403C28.7749 5.02607 28.5605 5.06895 28.3889 5.11184C28.1745 5.15472 27.9601 5.24049 27.7457 5.24049C25.8158 5.45492 23.9718 6.26973 22.2135 7.29897L21.3129 7.89936L20.8841 8.19956L20.4552 8.54264L19.6404 9.2288C19.3831 9.44323 19.1258 9.70054 18.8256 9.95785C18.4396 10.3009 18.0108 10.3867 17.7106 10.7727L17.4104 11.0729C16.9815 11.759 16.7671 12.5309 15.9523 12.9598C15.7807 13.3458 15.5234 13.6888 15.2661 13.989C15.0088 14.2464 14.7086 14.5894 14.6657 15.0183C14.6657 15.1469 14.58 15.3614 14.4942 15.4471C14.2798 15.7473 14.1082 16.0904 13.8938 16.3906C13.7223 16.7337 13.5936 17.0768 13.465 17.4198C13.3363 17.7629 13.1648 18.106 13.079 18.492L12.8217 19.5641C12.7788 19.8214 12.6501 20.1216 12.4786 20.2503C12.3499 20.8935 12.3071 21.5368 12.2642 22.1801C12.2642 22.8234 12.1784 23.4666 12.0497 24.1099C11.9211 24.9676 11.964 25.8682 12.1355 26.683C12.2213 27.069 12.2213 27.4549 12.3071 27.8409C12.3928 28.2269 12.4357 28.6128 12.5215 28.9988C12.6073 29.5134 12.7788 29.9423 12.9503 30.414C13.0361 30.6284 13.1648 30.8857 13.2505 31.1431C13.3792 31.4004 13.5078 31.6148 13.5936 31.8721C13.7223 32.0865 13.808 32.3438 13.8938 32.5583C13.9796 32.7727 14.0653 33.03 14.1082 33.2015C14.3655 34.0592 14.5371 34.7454 15.309 35.26C15.3519 35.3029 15.5663 35.5602 15.5663 35.7318C15.5663 35.9462 15.695 36.2035 15.8665 36.375C16.3811 36.761 16.81 37.2756 17.2388 37.7902C17.7106 38.262 18.1394 38.7337 18.654 39.0768C19.3831 39.4627 19.8977 39.9345 20.4981 40.4062C20.7983 40.6206 21.0985 40.8351 21.3987 41.0495C21.6989 41.2639 21.9991 41.4783 22.3422 41.607C22.8139 41.8214 23.2856 42.0359 23.7574 42.2503C24.2291 42.4647 24.7437 42.6362 25.2155 42.8936L25.773 43.1509C25.9445 43.2366 26.1589 43.2795 26.3305 43.3224C26.7164 43.4511 27.1024 43.5368 27.4884 43.6655L27.7886 43.7513L28.0887 43.7941L28.6891 43.8799C29.0751 43.9228 29.504 43.9657 29.8899 44.0086C30.5332 44.0086 31.1765 44.0515 31.8197 44.1372C32.463 44.1372 33.1063 44.1801 33.7925 44.1801C34.1355 44.1372 34.4786 44.1372 34.7788 44.223C34.8217 44.223 34.8217 44.223 34.8646 44.2659C35.1219 44.1801 35.4221 44.0514 35.6794 44.0514C36.2369 43.9657 36.8373 43.8799 37.3948 43.7513C37.9523 43.6226 38.5098 43.3653 39.0244 43.1937L39.4533 43.0651L39.8392 42.8936C40.0966 42.7649 40.3539 42.6791 40.6112 42.5505C41.1687 42.3789 41.6404 42.0787 42.1979 41.8643C42.4981 41.7357 42.7125 41.607 42.927 41.4355C43.1414 41.2639 43.3129 41.0495 43.5702 40.878C45.5858 39.5485 47.4728 37.8331 48.6736 35.7318C48.9738 35.1314 49.4026 34.5739 49.9172 34.145C50.003 34.0592 50.0888 34.0592 50.0888 33.8877C50.0888 33.416 50.2174 32.9871 50.4319 32.6011C50.6463 32.1723 50.8607 31.7434 51.0322 31.3575C52.3188 28.184 52.7476 24.7532 52.233 21.4939C51.8899 19.7356 51.3753 18.0202 50.6463 16.4335C50.4319 16.0046 50.2603 15.49 50.1317 15.0183C49.8315 14.1606 49.7886 14.1606 50.4319 14.2892C50.1745 13.9462 49.9601 13.646 49.7457 13.3029C49.5313 12.9598 49.274 12.6596 49.1024 12.3165C48.7164 11.6304 48.2876 10.9871 47.9445 10.3009C47.8587 10.0865 47.8159 9.91496 47.9016 9.78631C47.8587 9.70054 47.8159 9.61477 47.8159 9.529C47.773 9.14303 47.773 8.97149 47.9016 8.92861C47.9445 8.92861 48.0732 8.92861 48.2018 9.01438C48.3305 9.10015 48.502 9.18592 48.7164 9.35746C48.888 9.48611 49.1024 9.78631 49.1453 9.65765C49.2311 9.48611 48.888 9.40034 48.7593 9.27169C48.5878 9.10015 48.4591 8.92861 48.3734 8.75707C48.2447 8.58553 48.1589 8.41399 48.0303 8.24245C47.773 7.94225 47.5157 7.59917 47.2155 7.34186C46.9153 7.08455 46.5722 6.78435 46.3149 6.48416C46.0576 6.18396 45.7145 5.88377 45.9289 5.71223C46.1433 5.54069 46.4435 5.41203 47.0439 5.84088C47.5586 6.22685 48.2018 6.48416 48.502 7.08455C48.5449 7.17032 48.7164 7.25609 48.8022 7.34186C49.1024 7.5134 49.3597 7.72783 49.617 7.98514C49.8743 8.24245 50.1317 8.49976 50.4319 8.6713C50.732 8.84284 50.9036 9.01438 51.0751 8.88572C51.2467 8.75707 51.4611 8.75707 51.7184 8.88572C51.9757 9.01438 52.233 9.31457 52.5332 9.70054C54.3344 12.0592 55.6638 14.761 56.3929 17.6772C56.736 18.7922 56.8217 19.9501 56.8646 21.108C56.8217 21.7512 57.079 22.4374 57.1219 23.1664C57.2506 26.8974 56.2213 30.5855 54.7632 33.9306C53.4338 36.9754 51.4611 39.8916 48.9309 42.2074C48.5449 42.5505 48.1589 42.8507 47.773 43.1937C47.387 43.5368 47.001 43.8799 46.6151 44.1372L45.3714 44.9949L45.0712 45.2093L44.7281 45.3809L44.042 45.724C43.6131 45.9384 43.2272 46.1957 42.7554 46.3672L41.4689 46.9247L40.8256 47.1821L40.1394 47.3965L38.7671 47.8253C38.2954 47.954 37.8665 48.0398 37.3948 48.1255C36.9231 48.2113 36.4513 48.34 35.9796 48.3828L34.5644 48.5115C34.35 48.5115 34.0927 48.5544 33.8782 48.5544H33.1492C32.6346 48.5544 32.0771 48.5973 31.5196 48.5973C30.962 48.5973 30.4045 48.5544 29.847 48.5115L29.2038 48.4257L28.5605 48.2971L27.2739 48.0398C26.8451 47.954 26.4162 47.8253 25.9874 47.6967C25.5585 47.568 25.1297 47.4823 24.7008 47.3536C24.1433 47.1821 23.5858 46.9676 23.0283 46.7532L22.2135 46.453L21.3987 46.067C20.8841 45.8097 20.3266 45.5524 19.8119 45.2522C19.3402 44.9092 18.8256 44.609 18.3538 44.3088C17.8821 44.0086 17.4961 43.6655 17.0673 43.3653C16.6384 43.0222 16.2096 42.722 15.7807 42.3789C15.0088 41.6499 14.1511 40.9208 13.5078 40.0631C13.2505 39.7629 12.9932 39.4628 12.7359 39.1626C12.4786 38.8624 12.2642 38.5193 12.0069 38.2191L11.2778 37.2756C11.0634 36.9325 10.849 36.6323 10.6345 36.2893C10.3772 35.8604 10.1199 35.4316 9.90549 34.9598C9.73395 34.4881 9.56241 34.0592 9.39087 33.5446C9.34799 33.3731 9.26222 33.2015 9.17645 32.9871C9.09068 32.8156 9.04779 32.6011 8.96202 32.4296C8.79048 32.0436 8.61894 31.6577 8.49029 31.2717C8.31875 30.8 8.14721 30.3282 7.97567 29.8565C7.84701 29.3848 7.76124 28.8701 7.93278 28.3984C7.67547 27.8838 7.71836 27.1547 7.5897 26.6401C7.46105 26.1684 7.50393 25.6967 7.50393 25.2249C7.54682 24.7532 7.50393 24.2815 7.50393 23.8097C7.50393 23.2951 7.76124 23.3809 7.84701 23.1664C7.93278 22.952 8.23298 22.7376 7.84701 22.3516C7.67547 22.1801 7.5897 21.837 7.67547 21.4939C7.71836 21.108 7.8899 20.722 8.10432 20.4218C8.27586 20.1645 8.36163 19.9072 8.23298 19.6928C8.06144 19.2639 8.14721 18.8779 8.49029 18.4491C8.57606 18.3204 8.70471 18.0631 8.66183 17.9345C8.36163 16.9481 9.26222 16.0904 9.47664 15.1469C9.51953 14.9325 9.64818 14.8039 9.77684 14.8039C10.0341 14.8896 10.1628 14.6323 10.1628 14.2464C10.1628 13.9033 10.2915 13.5602 10.4201 13.2171C10.5917 12.874 10.7632 12.5309 10.9776 12.2736C12.2642 10.3867 13.5936 8.49976 15.2661 6.95589C17.6248 4.72587 20.155 2.83893 23.0712 1.72392C23.4572 1.55238 23.886 1.42372 24.3149 1.25218C24.7437 1.12353 25.1726 0.951989 25.6014 0.823334C26.0303 0.694679 26.4591 0.566024 26.9309 0.480254C27.1453 0.437369 27.3597 0.351599 27.5741 0.308714L28.2603 0.180058C28.9036 0.0942883 29.5897 -0.0343668 30.233 0.00851825C30.5761 0.00851825 30.8763 0.0514033 31.2194 0.0514033C31.3909 0.0514033 31.5196 0.0942883 31.6911 0.0942883C31.8626 0.137173 31.9913 0.180058 32.1628 0.222943C33.4923 0.566024 34.9932 0.694679 36.4084 1.12353C36.8802 1.33795 37.309 1.46661 37.6092 1.7668C37.9094 2.02412 38.0381 2.3672 37.8237 2.49585C37.6092 2.66739 37.1804 2.75316 36.6229 2.58162C36.3656 2.49585 36.1082 2.45297 35.8938 2.3672C35.6365 2.32431 35.4221 2.23854 35.1648 2.23854C34.693 2.19566 34.2213 2.19566 33.7067 2.19566C33.4923 2.19566 33.235 2.19566 33.0205 2.19566C32.7632 2.19566 32.5488 2.15277 32.2915 2.15277C32.0342 2.10989 31.7769 2.10989 31.5196 2.067C31.2622 2.067 31.0049 2.067 30.7476 2.067C30.3188 2.067 29.8899 2.067 29.4611 2.10989L28.1745 2.23854C28.0459 2.23854 27.8743 2.23854 27.7886 2.28143C27.5741 2.3672 27.4026 2.49585 27.4455 2.62451C27.4455 2.71028 27.7028 2.62451 27.8743 2.58162C29.9757 2.15277 32.1199 2.41008 34.1355 2.9247C34.693 3.09624 35.2934 3.2249 35.8509 3.48221L36.6658 3.82529L37.0517 3.99683L37.4377 4.21125C37.6092 4.29702 37.8237 4.42568 37.9952 4.55433C38.5098 4.89741 38.7671 5.24049 38.4669 5.54069ZM48.8451 7.42763C48.8022 7.38474 48.7593 7.34186 48.7164 7.29897C48.7164 7.34186 48.7164 7.38474 48.7593 7.42763C48.8022 7.5134 48.888 7.5134 48.8451 7.42763ZM50.2603 14.2892C50.2603 14.2464 50.2603 14.2464 50.2603 14.2892V14.2892Z" fill="#003A8C"/>
<path d="M26.1596 29.7706C26.2025 29.8993 26.1596 30.0708 26.0309 30.0708C25.9023 30.0708 25.7736 30.1137 25.645 30.0708C25.6021 30.0708 25.5592 30.0279 25.6021 30.1137C25.7307 30.3281 25.6021 30.371 25.645 30.4997C25.6878 30.7141 25.5592 30.5854 25.4734 30.5854C25.4305 30.5854 25.3448 30.5426 25.3019 30.6283C25.3019 30.6712 25.2161 30.7141 25.1732 30.6712C24.9588 30.4997 24.9588 30.757 24.873 30.8856C24.8301 30.9714 24.7444 31.0143 24.6586 31.0143C24.2726 30.9714 23.9296 31.1001 23.5436 31.1001C23.2863 31.1001 23.029 31.1858 22.7288 31.1429C22.643 31.1429 22.5572 31.0143 22.4715 31.0143H22.3857C22.257 31.1001 22.0855 31.2716 21.914 31.0143C21.7424 31.1429 21.6138 30.7999 21.4422 30.9285C21.3993 30.9285 21.3565 30.9714 21.3565 30.9285C21.0991 30.757 20.799 30.7141 20.4988 30.6283C20.4559 30.6283 20.3701 30.5854 20.413 30.4568C20.2843 30.4139 20.1557 30.371 20.027 30.2852C19.8984 30.2424 19.7697 30.1566 19.7268 30.0279C19.6411 29.8564 19.5124 29.7277 19.3837 29.642C19.2551 29.5133 19.1693 29.3847 19.0836 29.256C19.0407 29.1702 18.9978 29.0845 18.912 28.9987C18.7834 28.87 18.6118 28.6985 18.6547 28.4841C18.6976 28.2696 18.7405 28.141 18.526 28.0552C18.526 28.0552 18.4832 28.0123 18.526 27.9266C18.6118 27.8837 18.6118 27.8408 18.5689 27.7979C18.3545 27.6264 18.4832 27.3262 18.3545 27.1546C18.1401 26.8973 18.3545 26.64 18.2687 26.3827C18.2259 26.2112 18.183 26.0396 18.2259 25.8681C18.3116 25.6108 18.2687 25.3106 18.183 25.0962C18.1401 24.8817 18.2259 24.7102 18.2259 24.4958C18.2259 24.4529 18.2259 24.41 18.3116 24.3671C18.2687 24.3242 18.2259 24.2813 18.2259 24.2385C18.3545 23.8954 18.1401 23.5094 18.3545 23.2092C18.3974 23.1234 18.3116 23.0377 18.3116 22.9519C18.3545 22.5659 18.4403 22.2229 18.3545 21.8369C18.3116 21.7511 18.3545 21.6225 18.4832 21.5367C18.526 21.5367 18.5689 21.5367 18.526 21.4938C18.2687 21.3223 18.4403 21.1936 18.4403 21.065C18.4832 20.5503 18.5689 20.0357 18.4832 19.4782C18.4403 19.178 18.4403 18.8778 18.4832 18.6205C18.4832 18.5347 18.526 18.449 18.6118 18.4061C18.7405 18.2774 18.6976 18.2774 18.9978 18.4061C18.9549 18.1488 19.0407 17.9344 19.3837 17.7628C19.4266 17.7199 19.4695 17.7199 19.5982 17.7628C19.6411 17.7628 19.6411 17.7628 19.6839 17.7628C19.9841 17.7628 20.027 17.7628 20.1128 17.9344C20.1128 17.9772 20.0699 18.0201 20.1557 18.0201C20.2414 18.0201 20.1557 17.9772 20.1557 17.9344C20.1557 17.8486 20.2843 17.8486 20.3272 17.8057C20.4559 17.7199 20.413 17.5913 20.5416 17.5055C20.5845 17.4626 20.6274 17.4197 20.799 17.4626C20.9705 17.5055 21.0991 17.5484 21.0991 17.677C21.0991 17.7628 21.142 17.8486 21.0134 17.8915V17.9344C21.0991 18.0201 20.9705 18.1059 21.0991 18.2345C21.142 18.2774 21.142 18.3203 21.2707 18.3632C21.528 18.4061 21.6138 18.4919 21.6138 18.6205C21.5709 18.9636 21.528 19.3496 21.4422 19.6926C21.3993 19.8213 21.3565 19.9499 21.2707 20.0786C21.2278 20.1644 21.3136 20.2501 21.3136 20.3359C21.2707 20.8077 21.0991 21.2365 21.0563 21.6654L20.9276 22.7375C20.8847 22.9948 20.9276 23.2092 20.8847 23.4665C20.799 23.8954 20.8418 24.3671 20.7132 24.796C20.6703 24.9246 20.7561 25.0533 20.7132 25.1819C20.6703 25.3963 20.5845 25.5679 20.6274 25.7394C20.6703 25.9967 20.7132 26.2112 20.6703 26.4256C20.6703 26.64 20.7561 26.8116 20.7561 26.9831C20.7561 27.1118 20.8418 27.1975 20.9276 27.3262C20.9705 27.3691 20.9705 27.4548 20.9276 27.5406C20.9276 27.6264 21.0134 27.6264 21.0563 27.6693C21.0991 27.7121 21.3136 27.6264 21.0991 27.8408C21.1849 27.7979 21.1849 27.8837 21.2278 27.8408C21.3136 27.7979 21.2707 27.9266 21.3565 27.9266C21.3993 27.9266 21.2707 28.0552 21.2707 28.0981C21.2707 28.141 21.1849 28.2696 21.3136 28.0981C21.4422 27.9266 21.4851 27.9695 21.3993 28.141C21.3565 28.2268 21.3993 28.2268 21.4422 28.1839C21.528 28.0552 21.5709 28.0552 21.528 28.1839C21.528 28.2268 21.528 28.2696 21.528 28.2268C21.6995 27.9266 21.6567 28.2268 21.7424 28.1839C21.7424 28.1839 21.7424 28.2268 21.7424 28.2696C21.6995 28.4412 21.7424 28.4412 21.7853 28.3554C21.8711 28.1839 21.914 28.2268 21.9568 28.2696C22.0855 28.3983 22.2999 28.3125 22.4715 28.3983C22.7288 28.4841 23.029 28.3983 23.3721 28.3983C23.5436 28.3983 23.7151 28.2696 23.9296 28.1839C24.0582 28.141 24.1869 28.0981 24.4013 28.1839C24.6157 28.2696 24.7444 28.1839 24.9159 28.141C24.9588 28.141 25.0446 28.0981 25.1303 28.1839C25.2161 28.2696 25.3019 28.3554 25.3019 28.527C25.3448 28.6556 25.3448 28.8272 25.259 28.8272C25.1303 28.87 25.0446 28.9987 24.9588 29.1273C24.873 29.256 24.7015 29.2131 24.5728 29.256C24.4442 29.2989 24.3584 29.2989 24.2298 29.2989H24.1869C24.144 29.3418 24.144 29.3847 24.1869 29.4704C24.2298 29.5562 24.2298 29.5133 24.2726 29.5133C24.5299 29.3847 24.873 29.4275 25.1732 29.4275C25.3448 29.4275 25.5163 29.4275 25.6878 29.4275C25.7307 29.4275 25.7736 29.4275 25.7736 29.4275C25.988 29.4275 26.0738 29.5562 26.1596 29.7706ZM21.0134 17.8057C21.0563 17.8057 21.0563 17.8057 21.0134 17.8057C21.0134 17.7628 21.0134 17.7628 21.0134 17.8057C20.9705 17.8057 21.0134 17.8057 21.0134 17.8057ZM18.9978 18.3203C18.9978 18.2774 18.9978 18.2774 18.9978 18.3203V18.3203Z" fill="#003A8C"/>
<path d="M34.3936 31.0144C34.2649 31.1002 34.0934 31.0573 34.0505 30.9715C34.0076 30.8429 33.9218 30.7142 33.9218 30.5427C33.9218 30.4998 33.9218 30.414 33.8361 30.4998C33.6645 30.7142 33.5788 30.5856 33.4501 30.6285C33.2357 30.7142 33.3214 30.5427 33.3214 30.4998C33.3214 30.4569 33.3214 30.3283 33.1928 30.3283C33.107 30.3283 33.107 30.2854 33.107 30.2425C33.1928 29.9852 32.9355 30.0281 32.8068 29.9852C32.7211 29.9423 32.6353 29.8994 32.5924 29.8136C32.4637 29.4277 32.2493 29.1704 32.0349 28.8273C31.9062 28.6129 31.7347 28.3984 31.606 28.184C31.5632 28.0982 31.6489 27.9696 31.5632 27.9267L31.606 27.8838C31.4345 27.8409 31.2201 27.8409 31.3487 27.5836C31.1343 27.5407 31.3058 27.2405 31.0914 27.2405C31.0485 27.2405 31.0057 27.1977 31.0057 27.1977C30.7912 26.8117 30.5339 26.4686 30.1908 26.1255C30.1479 26.0826 30.1051 25.9969 30.1479 25.9111C30.0193 25.7396 29.8478 25.6109 29.7191 25.4394C29.7191 25.3536 29.7191 25.2249 29.8049 25.1392C29.9335 25.0105 29.8906 24.8819 29.8906 24.7103C29.8906 24.5817 29.9335 24.453 29.9335 24.3244C29.9335 24.2386 29.9764 24.2386 30.0193 24.1957C30.1051 24.1099 30.1479 24.0242 30.3195 23.9384C30.491 23.8955 30.6626 23.8526 30.6197 23.6811C30.6197 23.6811 30.6197 23.5953 30.7483 23.6382C30.8341 23.6811 30.9199 23.6382 30.9199 23.5953C30.9199 23.5095 30.9628 23.4238 31.0057 23.3809C31.1343 23.338 31.3058 23.338 31.4345 23.2951C31.5203 23.2951 31.5632 23.2522 31.6489 23.2522C31.6918 23.2093 31.7347 23.2093 31.7776 23.1665C32.1635 22.8663 32.3351 22.9949 32.4637 22.8234C32.5066 22.7805 32.5495 22.7376 32.5924 22.6947C32.6353 22.6518 32.6782 22.609 32.7211 22.609C32.8926 22.5232 32.9784 22.3516 32.9355 22.1801C32.9355 22.1372 32.9355 22.0514 32.9784 22.0086C33.0213 21.9657 33.0641 21.8799 33.0641 21.837C33.0641 21.7941 33.0641 21.7513 33.1499 21.7513C33.107 21.7084 33.0641 21.6655 33.0641 21.6655C33.107 21.5368 33.0641 21.3653 33.0212 21.1937C32.9784 21.0651 32.9355 20.9364 32.9784 20.7649C32.9784 20.6791 32.8497 20.6791 32.8497 20.6362C32.7211 20.4218 32.6353 20.1645 32.3351 20.1216C32.2493 20.1216 32.2064 20.0787 32.2064 19.9072C32.2064 19.8643 32.2064 19.8214 32.2064 19.8643C31.992 20.0787 31.9491 19.9072 31.8634 19.8643C31.4774 19.7785 31.0056 19.6928 30.491 19.8214L29.6762 19.993C29.5904 19.993 29.5047 19.993 29.4189 19.9501C29.2474 19.8643 29.2474 19.9072 29.2902 19.5641C29.0329 19.6499 28.7756 19.6499 28.5183 19.4355C28.4754 19.3926 28.4325 19.3497 28.4325 19.2639C28.4325 19.221 28.3897 19.221 28.3897 19.1781C28.261 18.878 28.261 18.8351 28.3897 18.7064C28.4325 18.6635 28.4754 18.7064 28.4754 18.6206C28.4325 18.5349 28.4325 18.6206 28.3897 18.6206C28.3039 18.6635 28.261 18.5349 28.1752 18.5349C28.0466 18.492 27.9179 18.5349 27.7464 18.4491C27.6606 18.4062 27.5748 18.4062 27.5748 18.2347C27.532 18.0631 27.532 17.8916 27.6606 17.8487C27.7464 17.8058 27.8322 17.7201 27.9608 17.8058C27.9608 17.8058 28.0037 17.8058 28.0037 17.7629C28.0895 17.6343 28.2181 17.7201 28.3039 17.5485C28.3468 17.4627 28.3897 17.4627 28.3468 17.3341C28.3039 17.0768 28.3897 16.9481 28.5612 16.9481C29.0329 16.8624 29.5047 16.8195 30.0193 16.8195C30.2337 16.8195 30.4053 16.8624 30.6197 16.9481C30.7483 16.991 30.877 16.9052 31.0057 16.9052C31.6918 16.9052 32.3351 17.1626 33.0212 17.4627C33.6645 17.7201 34.3078 18.1918 34.7367 18.8351C34.994 19.1782 35.2513 19.607 35.3799 19.993C35.4657 20.3789 35.5515 20.7649 35.5944 21.1509C35.5944 21.3224 35.6372 21.4939 35.5944 21.7084C35.5944 21.9228 35.5515 22.1372 35.5086 22.3516C35.4228 22.5661 35.4657 22.8663 35.337 23.1236C35.2513 23.2951 35.1226 23.5095 34.994 23.6811C34.8653 23.8526 34.7367 24.0242 34.6509 24.1957C34.3078 24.6245 33.879 25.0105 33.4501 25.1821L33.2357 25.3107C33.2357 25.3107 33.1928 25.3107 33.1928 25.3536C33.1499 25.3965 33.1928 25.3965 33.1499 25.3965C33.107 25.3965 33.1499 25.4394 33.1928 25.4394C33.2357 25.4394 33.1928 25.4394 33.0641 25.3965C33.0212 25.3965 33.0212 25.3965 33.0641 25.3965H33.107C33.1499 25.4394 33.4501 25.5251 32.9784 25.3965C33.1499 25.4394 33.0212 25.4394 33.107 25.4394C33.2357 25.4822 33.0641 25.4394 33.1499 25.4394C33.1928 25.4394 32.9784 25.4394 32.8926 25.4394C32.8497 25.4394 32.6353 25.4394 32.9355 25.4394C32.9784 25.4394 33.0641 25.4394 33.107 25.4394C33.2357 25.4394 33.1499 25.4394 32.9784 25.4822C32.8926 25.4822 32.8926 25.5251 32.9784 25.4822C33.1499 25.4822 33.1499 25.4394 33.0641 25.4822C33.0212 25.4822 32.9784 25.5251 33.0641 25.4822C33.4072 25.3965 33.107 25.4822 33.1928 25.4822C33.1928 25.4822 33.1499 25.4822 33.107 25.5251C32.9784 25.6109 32.9784 25.6109 33.0641 25.568C33.1928 25.4394 33.2786 25.568 33.2786 25.6538C33.4072 25.954 33.6645 26.2113 33.8361 26.5115C34.0505 26.9403 34.3507 27.2405 34.5651 27.6694C34.6938 27.8838 34.9082 28.0554 35.0797 28.2698C35.2084 28.3984 35.2942 28.57 35.2942 28.7844C35.2942 29.0417 35.4657 29.1704 35.5944 29.3419C35.6372 29.3848 35.6801 29.4706 35.6372 29.5563C35.5944 29.685 35.5086 29.7708 35.3799 29.8565C35.2513 29.9423 35.1226 29.9852 35.0368 29.8994C34.9511 29.7708 34.7795 29.7279 34.608 29.6421C34.4365 29.5992 34.3936 29.3848 34.3078 29.2561C34.222 29.1275 34.1791 28.9988 34.0934 28.9131C34.0934 28.9131 34.0934 28.8702 34.0505 28.8702C34.0076 28.8702 33.9647 28.8702 33.879 28.9131C33.8361 28.9559 33.879 28.9988 33.879 28.9988C34.0934 29.2561 34.222 29.5992 34.3507 29.9423C34.4365 30.1138 34.5222 30.3283 34.5651 30.4998C34.5651 30.5427 34.608 30.5856 34.608 30.6285C34.6509 30.7571 34.608 30.8858 34.3936 31.0144ZM28.0466 17.8058C28.0466 17.8058 28.0037 17.8058 28.0466 17.8058C28.0037 17.8058 28.0037 17.8487 28.0466 17.8058C28.0466 17.8487 28.0466 17.8058 28.0466 17.8058Z" fill="#003A8C"/>
<path d="M29.3752 20.2499C29.5038 20.2499 29.6754 20.3357 29.6325 20.3786C29.5896 20.4643 29.5896 20.5072 29.5038 20.593C29.4609 20.593 29.4181 20.6359 29.5467 20.6359C29.804 20.593 29.7611 20.6788 29.9327 20.6788C30.1471 20.7216 29.9756 20.7216 29.9327 20.7645C29.8898 20.8074 29.8469 20.8074 29.9327 20.8503C29.9756 20.8503 29.9756 20.8932 29.9327 20.8932C29.7183 20.9789 29.9327 21.0218 30.0184 21.0647C30.0613 21.1076 30.1042 21.1505 30.0613 21.1934C29.9327 21.3649 29.9327 21.5365 29.8898 21.708C29.8469 21.8366 29.8898 21.9653 29.8469 22.094C29.8469 22.1368 29.6754 22.1797 29.7183 22.2226V22.2655C29.804 22.3513 29.9756 22.3942 29.7183 22.4799C29.8469 22.5657 29.5467 22.6086 29.7183 22.6944C29.7611 22.6944 29.7611 22.7372 29.7611 22.7372C29.6754 22.8659 29.6754 22.9945 29.7183 23.1232C29.7183 23.1661 29.7183 23.1661 29.6325 23.209C29.6325 23.3376 29.804 23.4234 29.6325 23.5521C29.5467 23.6378 29.5896 23.6807 29.5896 23.7665C29.5896 23.8522 29.5896 23.8951 29.5467 23.9809C29.5467 24.0238 29.5467 24.0667 29.5467 24.1096C29.5896 24.1953 29.6754 24.2811 29.5467 24.3669C29.4181 24.4526 29.3323 24.4955 29.5038 24.5813C29.5038 24.5813 29.5467 24.6242 29.4609 24.6242C29.3752 24.6242 29.3752 24.6671 29.3752 24.6671C29.5467 24.7957 29.3323 24.8815 29.4609 25.0101C29.6325 25.1388 29.4181 25.2675 29.4609 25.3961C29.5038 25.4819 29.5467 25.5676 29.5038 25.6534C29.4181 25.7821 29.4609 25.9107 29.5467 26.0394C29.6325 26.1252 29.5467 26.2538 29.5467 26.3825C29.5467 26.4253 29.5467 26.4253 29.4609 26.4682C29.5038 26.5111 29.5467 26.5111 29.5467 26.554C29.4609 26.7684 29.7183 26.94 29.5467 27.1544C29.5038 27.1973 29.6325 27.2402 29.6325 27.283C29.6325 27.4975 29.5896 27.7119 29.7611 27.9263C29.804 27.9692 29.804 28.055 29.6754 28.0979C29.6754 28.0979 29.5896 28.0979 29.6325 28.1408C29.9327 28.2265 29.7611 28.3123 29.804 28.3552C29.8469 28.6554 29.8898 28.9556 30.0184 29.2129C30.1042 29.3844 30.1471 29.5131 30.19 29.6846C30.19 29.7275 30.1471 29.7704 30.1042 29.8133C30.0184 29.899 30.0185 29.899 29.7183 29.8562C29.804 29.9848 29.7611 30.1135 29.5038 30.2421C29.4609 30.2421 29.4181 30.285 29.3323 30.285C29.2894 30.285 29.2894 30.285 29.2465 30.285C28.9463 30.3279 28.9034 30.3279 28.8177 30.2421C28.8177 30.2421 28.8177 30.1992 28.7319 30.1992C28.6461 30.1992 28.7319 30.2421 28.7319 30.2421C28.7319 30.285 28.6461 30.3279 28.6032 30.3279C28.5175 30.3708 28.5604 30.4565 28.4317 30.4994C28.3888 30.5423 28.3459 30.5852 28.1744 30.5423C28.0029 30.5423 27.8313 30.5423 27.8313 30.4565C27.8313 30.4137 27.7456 30.3708 27.8742 30.3279C27.8742 30.3279 27.8742 30.3279 27.8742 30.285C27.7884 30.2421 27.8742 30.1992 27.7456 30.1135C27.6598 30.0706 27.6598 30.0706 27.5311 30.0706C27.2738 30.0706 27.1452 30.0277 27.1452 29.9419C27.1023 29.7275 27.1023 29.5131 27.1023 29.2986C27.1023 29.2129 27.1452 29.1271 27.188 29.0413C27.2309 28.9985 27.1023 28.9556 27.1023 28.9127C27.0594 28.6554 27.1452 28.3981 27.1023 28.1408C27.1023 27.8834 27.0594 27.669 27.0594 27.4117C27.0594 27.2831 26.9736 27.1115 26.9736 26.9829C26.9736 26.7255 26.8879 26.4682 26.9736 26.168C27.0165 26.0823 26.8879 25.9965 26.9307 25.9536C26.9736 25.825 27.0165 25.6963 26.9736 25.5676C26.9307 25.3961 26.9307 25.2246 26.9307 25.053C26.9307 24.8815 26.8879 24.7528 26.9307 24.5813C26.9307 24.4526 26.8879 24.3669 26.845 24.2382C26.8021 24.1524 26.845 24.1096 26.9307 24.0238C26.9736 23.9809 26.8879 23.8951 26.8879 23.8522C26.8879 23.7665 26.6734 23.7236 26.9736 23.6378C26.8879 23.5949 26.9307 23.5521 26.8879 23.5092C26.8021 23.4234 26.9307 23.3805 26.8879 23.2947C26.845 23.2519 27.0165 23.2519 27.0594 23.2519C27.1023 23.2519 27.2738 23.209 27.0165 23.209C26.8021 23.209 26.8021 23.1232 27.0165 23.0803C27.1023 23.0803 27.1023 23.0374 27.0165 23.0374C26.8879 22.9945 26.845 22.9945 26.9736 22.9517C27.0165 22.9517 27.0594 22.9088 27.0165 22.9088C26.7163 22.8659 26.9736 22.7801 26.8879 22.6944C26.8879 22.6944 26.9307 22.6515 26.9736 22.6515C27.1452 22.6515 27.1452 22.6086 27.0594 22.6086C26.8879 22.5657 26.9307 22.5228 26.9307 22.437C27.0165 22.2655 26.9307 22.094 27.0165 21.9653C27.1452 21.7509 27.0594 21.5365 27.1452 21.322C27.188 21.1934 27.1452 21.0647 27.1023 20.9361C27.1023 20.8503 27.1023 20.7645 27.2738 20.6788C27.4454 20.593 27.3596 20.4643 27.4025 20.3786C27.4025 20.3357 27.4025 20.2928 27.5311 20.2928C27.6169 20.2499 27.7456 20.2499 27.9171 20.2499C28.0457 20.2499 28.2173 20.2928 28.2173 20.3357C28.2173 20.4214 28.3031 20.4643 28.4317 20.5501C28.5175 20.6359 28.4317 20.7216 28.4317 20.7645C28.4317 20.8503 28.3888 20.8932 28.3888 20.9789V21.0218C28.3888 21.0218 28.4746 21.0647 28.5175 21.0647C28.6032 21.0647 28.5604 21.0218 28.5604 21.0218C28.5175 20.8503 28.689 20.6788 28.7748 20.5072C28.8177 20.4214 28.9034 20.3357 28.9463 20.207L28.9892 20.1641C28.9892 20.2928 29.1179 20.2499 29.3752 20.2499ZM27.8313 30.3279C27.8313 30.3279 27.8742 30.3279 27.8313 30.3279C27.8742 30.3279 27.8313 30.3279 27.8313 30.3279Z" fill="#003A8C"/>
<path d="M44.1284 30.4569C43.9998 30.4569 43.8282 30.2854 43.8711 30.1138C43.914 29.9423 43.914 29.7279 43.9998 29.5563C44.0427 29.5134 44.0855 29.4277 43.9569 29.4705C43.6996 29.5563 43.7425 29.3419 43.5709 29.299C43.3565 29.2132 43.528 29.1275 43.5709 29.0417C43.6138 28.9559 43.6567 28.8701 43.5709 28.7844C43.528 28.7415 43.528 28.6557 43.5709 28.6128C43.7854 28.3984 43.5709 28.2698 43.4852 28.0982C43.4423 27.9696 43.3994 27.8838 43.4423 27.7551C43.5709 27.2834 43.5709 26.7688 43.6138 26.297C43.6567 25.954 43.6138 25.6109 43.6567 25.2678C43.6567 25.1392 43.8282 25.0534 43.7854 24.9676V24.8818C43.6996 24.7103 43.528 24.4959 43.7854 24.3243C43.6567 24.1099 43.9569 23.9384 43.7854 23.7239C43.7425 23.6811 43.7425 23.6382 43.7425 23.5953C43.8282 23.2522 43.8282 22.9091 43.7854 22.5232C43.7854 22.4374 43.7854 22.3945 43.8711 22.3516C43.8711 22.0514 43.6996 21.8799 43.7854 21.6226C43.8282 21.451 43.7854 21.3224 43.6996 21.1937C43.6567 21.0651 43.6138 20.9364 43.5709 20.8078C43.528 20.722 43.4852 20.6362 43.4423 20.5933C43.3136 20.4647 43.1421 20.3789 43.1421 20.1645C43.1421 19.9929 43.0992 19.8214 42.8848 19.8643C42.8848 19.8643 42.799 19.8643 42.8419 19.7785C42.8848 19.6928 42.8419 19.6499 42.799 19.6499C42.5417 19.6499 42.413 19.3926 42.1986 19.4354C41.9413 19.5212 41.7698 19.2639 41.5124 19.3497C41.3409 19.3926 41.2122 19.4354 41.0407 19.4354C40.7834 19.4354 40.5261 19.5641 40.3974 19.7785C40.2688 19.9501 40.0972 20.0358 39.9257 20.2074C39.8828 20.2503 39.8399 20.2931 39.7542 20.2931C39.7542 20.336 39.7542 20.4218 39.7542 20.4647C39.6255 20.5933 39.5397 20.8078 39.4968 20.9793C39.454 21.0651 39.454 21.1937 39.4111 21.2795C39.3682 21.3653 39.3253 21.451 39.2824 21.5368C39.1967 21.6226 39.3253 21.7512 39.3253 21.837C39.3253 21.9228 39.3253 22.0514 39.2824 22.1372C39.2824 22.1801 39.2824 22.2659 39.2824 22.3087V22.5232C39.2824 22.8234 39.3253 23.0807 39.4111 23.3809C39.454 23.5524 39.454 23.7239 39.3253 23.8526C39.3253 23.8955 39.2395 23.8955 39.2824 23.9384C39.5826 24.1099 39.4111 24.3672 39.454 24.5816C39.4968 25.3965 39.5397 26.1684 39.6684 26.9832C39.7542 27.4121 39.797 27.8409 39.8399 28.3126C39.8399 28.4413 39.797 28.57 39.7542 28.6986C39.6684 28.913 39.6684 28.913 39.3682 28.8273C39.454 29.2132 39.4111 29.5992 39.1538 29.9423C39.1109 29.9852 39.068 30.028 38.9822 30.028C38.9393 30.028 38.9393 30.0709 38.8965 30.0709C38.5963 30.1996 38.5534 30.1996 38.4676 29.9423C38.4676 29.8994 38.4676 29.8136 38.3818 29.8136C38.2961 29.8136 38.3818 29.8994 38.3818 29.9423C38.3818 30.028 38.2961 30.1138 38.2532 30.1996C38.1674 30.3711 38.2103 30.5427 38.0816 30.7142C38.0388 30.8 37.9959 30.8857 37.8243 30.8857C37.6528 30.8857 37.4813 30.8429 37.4813 30.6713C37.4813 30.5427 37.3955 30.414 37.5241 30.2854C37.5241 30.2854 37.5241 30.2425 37.5241 30.1996C37.4384 30.0709 37.5241 29.8994 37.3955 29.7707C37.3097 29.685 37.3097 29.6421 37.1811 29.6421C36.9237 29.6421 36.7951 29.5563 36.7951 29.3419C36.7522 28.7844 36.7522 28.184 36.7522 27.6265C36.7522 27.4121 36.7951 27.1976 36.838 26.9403C36.8809 26.8117 36.7522 26.683 36.7522 26.5544C36.7093 25.8253 36.7951 25.0963 36.7522 24.3672L36.7093 22.3945C36.7093 22.1801 36.7093 21.9228 36.7093 21.7083C36.7093 21.451 36.7093 21.1937 36.7951 20.9364C37.0095 19.9929 37.4384 19.0066 38.2103 18.3204C38.4247 18.106 38.5963 17.8487 38.8536 17.6772C39.2824 17.4198 39.7542 17.2483 40.183 17.0339C40.8263 16.7766 41.5124 16.6908 42.1986 16.8195C42.799 16.9052 43.4423 17.0768 43.9569 17.4198C44.3429 17.6772 44.6859 17.8916 45.029 18.1489C45.2434 18.3204 45.3721 18.5777 45.5008 18.7922C45.5865 19.0066 45.8009 19.1352 45.8867 19.3068C46.0154 19.5212 46.3156 19.6928 46.144 20.0358C46.3156 20.1216 46.2727 20.336 46.3585 20.4647C46.53 20.6791 46.4442 20.9793 46.53 21.1937C46.5729 21.3224 46.4013 21.3224 46.3585 21.4082C46.3156 21.451 46.144 21.5368 46.4013 21.6226C46.6158 21.6655 46.6158 21.9657 46.4442 22.1372C46.3585 22.223 46.3585 22.2659 46.4442 22.3087C46.5729 22.3945 46.6158 22.4374 46.4871 22.566C46.4442 22.6089 46.4013 22.6518 46.4442 22.6518C46.7444 22.8234 46.4871 23.0378 46.5729 23.2093C46.5729 23.2522 46.53 23.2951 46.4871 23.2951C46.3156 23.2951 46.3156 23.3809 46.4013 23.4237C46.5729 23.5524 46.53 23.6811 46.53 23.8526C46.4442 24.2815 46.53 24.7532 46.4442 25.182C46.3156 25.7824 46.4013 26.3828 46.3156 26.9832C46.2727 27.3263 46.3156 27.6694 46.3585 28.0125C46.3585 28.2698 46.3585 28.5271 46.1869 28.7415C46.0154 28.9988 46.1011 29.299 46.0583 29.5992C46.0583 29.685 46.0583 29.8136 45.9296 29.8565C45.8438 29.9423 45.7152 29.9852 45.5436 29.9423C45.415 29.8994 45.2434 29.8565 45.2434 29.7279C45.2434 29.5134 45.1577 29.299 45.029 29.1275C44.9432 28.9559 45.029 28.6986 45.029 28.4842C45.029 28.3126 45.0719 28.0982 45.0719 27.9267C45.0719 27.8838 45.0719 27.8838 45.0719 27.8409C45.0719 27.798 44.9861 27.7551 44.9432 27.7551C44.8575 27.7551 44.9004 27.798 44.9004 27.8409C44.9432 28.3126 44.7717 28.7415 44.6859 29.2132C44.6431 29.4705 44.5573 29.7279 44.5144 29.9852C44.5144 30.028 44.4715 30.0709 44.4715 30.1138C44.4715 30.414 44.3429 30.4998 44.1284 30.4569ZM37.4384 30.2854C37.4384 30.2854 37.4384 30.3282 37.4384 30.2854C37.4813 30.3282 37.4813 30.3282 37.4384 30.2854C37.4813 30.2854 37.4813 30.2854 37.4384 30.2854ZM39.3253 28.8702C39.3253 28.913 39.3253 28.913 39.3253 28.8702V28.8702Z" fill="#003A8C"/>
</svg>
