<svg width="22" height="22" viewBox="0 0 22 22" fill="none" xmlns="http://www.w3.org/2000/svg">
<path d="M12.7342 10.9987L21.5233 0.522112C21.6706 0.348005 21.5467 0.0834961 21.319 0.0834961H18.6472C18.4898 0.0834961 18.3391 0.153808 18.2353 0.274344L10.9865 8.91609L3.73757 0.274344C3.63713 0.153808 3.48646 0.0834961 3.32574 0.0834961H0.653868C0.426189 0.0834961 0.302305 0.348005 0.449626 0.522112L9.23869 10.9987L0.449626 21.4752C0.416625 21.514 0.395453 21.5615 0.388624 21.612C0.381795 21.6625 0.389595 21.7139 0.4111 21.76C0.432604 21.8062 0.466909 21.8453 0.509941 21.8725C0.552974 21.8998 0.602926 21.9141 0.653868 21.9139H3.32574C3.48311 21.9139 3.63378 21.8435 3.73757 21.723L10.9865 13.0813L18.2353 21.723C18.3358 21.8435 18.4865 21.9139 18.6472 21.9139H21.319C21.5467 21.9139 21.6706 21.6493 21.5233 21.4752L12.7342 10.9987Z" fill="#002766"/>
</svg>
