<svg width="26" height="28" viewBox="0 0 26 28" fill="none" xmlns="http://www.w3.org/2000/svg">
<path d="M15.0806 13.9981L25.6275 1.42624C25.8043 1.21731 25.6556 0.899902 25.3824 0.899902H22.1762C21.9873 0.899902 21.8065 0.984277 21.682 1.12892L12.9833 11.499L4.28465 1.12892C4.16411 0.984277 3.98331 0.899902 3.79045 0.899902H0.584202C0.310988 0.899902 0.162327 1.21731 0.339112 1.42624L10.886 13.9981L0.339112 26.57C0.299511 26.6166 0.274105 26.6735 0.26591 26.7341C0.257715 26.7947 0.267075 26.8563 0.29288 26.9118C0.318685 26.9672 0.359852 27.014 0.41149 27.0467C0.463129 27.0795 0.523072 27.0967 0.584202 27.0963H3.79045C3.97929 27.0963 4.16009 27.012 4.28465 26.8673L12.9833 16.4972L21.682 26.8673C21.8025 27.012 21.9833 27.0963 22.1762 27.0963H25.3824C25.6556 27.0963 25.8043 26.7789 25.6275 26.57L15.0806 13.9981Z" fill="black" fill-opacity="0.85"/>
</svg>
