<svg width="29" height="60" viewBox="0 0 29 60" fill="none" xmlns="http://www.w3.org/2000/svg">
<g opacity="0.5" clip-path="url(#clip0)">
<path d="M17.6089 3.19149C17.6089 3.00912 17.9749 2.73556 18.3408 2.82675C18.7068 3.00912 19.1642 3.1003 19.4387 3.37386C19.5302 3.46505 19.6217 3.55623 19.6217 3.37386C19.7132 2.91793 19.9876 3.19149 20.1706 3.19149C20.4451 3.19149 20.4451 3.46504 20.6281 3.64742C20.7196 3.82979 20.8111 4.01216 20.994 4.01216C21.177 4.01216 21.177 4.19453 21.177 4.28571C21.0855 4.74164 21.543 4.83283 21.8174 5.0152C22.0004 5.19757 22.0919 5.28875 22.0919 5.47112C22.1834 6.38298 22.3664 7.11246 22.2749 7.84194C22.2749 8.38906 22.2749 8.93617 22.1834 9.48328C22.0919 9.66565 21.9089 9.75684 21.9089 9.93921L21.8174 10.1216C21.9089 10.4863 22.0004 10.8511 21.543 11.0334C21.543 11.2158 21.4515 11.3982 21.2685 11.4894C21.177 11.5805 20.994 11.6717 20.994 11.8541C20.994 11.9453 20.994 11.9453 20.9025 12.0365C20.4451 12.4012 20.1706 12.8571 19.7132 13.3131C19.6217 13.4043 19.5302 13.4043 19.4387 13.4043C19.0727 13.6778 18.7068 14.1337 18.2493 14.1337C17.8834 14.1337 17.6089 14.3161 17.3344 14.4073C17.06 14.4985 16.7855 14.4985 16.511 14.5897C16.328 14.5897 16.1451 14.5897 15.9621 14.6808C15.5961 14.772 15.2302 14.8632 14.9557 14.6808C14.6812 14.4985 14.4982 14.3161 14.1323 14.5897C14.1323 14.5897 13.9493 14.5897 13.9493 14.4985C13.9493 14.4073 13.8578 14.3161 13.7663 14.3161C13.3089 14.4985 12.9429 14.0426 12.4855 14.1337C11.9365 14.1337 11.5706 13.6778 11.1131 13.4954C10.7472 13.4043 10.4727 13.2219 10.1982 12.9483C9.83225 12.5836 9.46629 12.2188 8.91735 11.8541C8.55139 11.5805 8.36841 11.1246 8.18543 10.7599C8.09394 10.6687 8.09394 10.5775 8.18543 10.3951C8.09394 10.3039 8.00245 10.3039 7.91096 10.2128C7.72798 9.3921 7.17904 8.66261 7.36202 7.84194C7.545 7.4772 7.36202 7.29483 7.36202 7.11246C7.45351 6.20061 7.72798 5.37994 7.91096 4.46808C8.00245 4.19453 8.09394 4.01216 8.36841 3.92097C8.36841 3.92097 8.4599 3.92097 8.4599 3.82979C8.27692 3.37386 8.64288 3.19149 8.91735 2.91793C9.28331 2.37082 9.74076 1.91489 10.2897 1.55015C10.8386 1.18541 11.4791 0.820669 12.1195 0.547112C12.8514 0.182371 13.5833 0 14.3153 0C14.4982 0 14.6812 0.0911854 14.9557 0.182371C15.3217 0.364742 15.3217 0.364742 15.0472 0.729483C15.5961 0.638298 16.1451 0.820669 16.511 1.36778C16.6025 1.45897 16.6025 1.55015 16.511 1.64134V1.73252C16.511 2.18845 16.511 2.27963 16.1451 2.27963C16.0536 2.27963 15.9621 2.18845 15.9621 2.37082C15.9621 2.46201 16.0536 2.37082 16.1451 2.37082C16.2366 2.37082 16.328 2.55319 16.4195 2.64438C16.6025 2.82675 16.7855 2.82675 16.9685 3.1003C17.06 3.19149 17.1515 3.28267 17.06 3.46504C16.9685 3.64742 16.7855 3.82979 16.694 3.82979C16.511 3.82979 16.4195 3.82979 16.328 3.64742H16.2366C16.0536 3.7386 15.9621 3.55623 15.7791 3.7386C15.6876 3.82979 15.5961 3.82979 15.5961 4.01216C15.5046 4.3769 15.3217 4.46808 15.2302 4.46808C14.6812 4.3769 14.2238 4.3769 13.7663 4.46808C13.5833 4.46808 13.4004 4.46808 13.2174 4.46808C13.1259 4.46808 13.0344 4.65045 12.9429 4.65045C12.577 4.83283 12.1195 5.0152 11.7535 5.56231C11.4791 5.92705 11.2046 6.47416 11.1131 6.93009C11.0216 7.20365 11.1131 7.4772 11.1131 7.75076C11.1131 8.29787 11.3876 8.66261 11.5706 9.20973C11.6621 9.3921 11.845 9.3921 11.9365 9.57447C12.028 9.75684 12.211 10.0304 12.4855 10.2128C12.8514 10.3951 13.1259 10.5775 13.4919 10.7599C13.7663 10.9422 14.1323 10.9422 14.4068 11.0334C14.6812 11.1246 14.8642 11.0334 15.1387 11.0334C15.3217 11.0334 15.4131 11.0334 15.5961 11.1246C15.6876 11.2158 15.8706 11.0334 15.9621 11.0334C16.1451 11.0334 16.1451 10.6687 16.4195 11.0334C16.4195 10.8511 16.6025 10.9422 16.6025 10.8511C16.694 10.6687 16.877 10.8511 16.877 10.6687C16.877 10.5775 16.9685 10.8511 17.06 10.8511C17.1515 10.9422 17.2429 11.1246 17.1515 10.7599C17.06 10.4863 17.1515 10.3951 17.3344 10.5775C17.4259 10.6687 17.4259 10.6687 17.4259 10.5775C17.3344 10.3951 17.3344 10.3039 17.5174 10.3951C17.6089 10.3951 17.6089 10.3951 17.6089 10.3951C17.3344 10.0304 17.7004 10.2128 17.7004 10.0304H17.7919C17.9749 10.2128 17.9749 10.1216 17.8834 10.0304C17.7004 9.84802 17.7919 9.75684 17.8834 9.66565C18.1578 9.48328 18.0664 9.30091 18.2493 8.93617C18.4323 8.57143 18.3408 8.02431 18.3408 7.56839C18.3408 7.29483 18.1578 7.02128 18.0663 6.8389C17.9749 6.65653 17.8834 6.56535 17.9749 6.38298C18.0663 6.10942 17.8834 6.10942 17.8834 6.10942C17.8834 6.10942 17.8834 6.10942 17.8834 5.92705C17.8834 5.74468 17.8834 5.56231 17.9749 5.37994C18.0663 5.19757 18.1578 5.0152 18.2493 5.0152C18.4323 5.10638 18.6153 5.0152 18.8898 5.10638C19.1642 5.10638 19.2557 5.37994 19.3472 5.65349C19.5302 5.74468 19.5302 6.01824 19.6217 6.20061V6.29179C19.7132 6.29179 19.7132 6.38298 19.8047 6.29179C19.8961 6.29179 19.8047 6.20061 19.8047 6.20061C19.5302 5.74468 19.4387 5.10638 18.9812 4.65045C18.7068 4.3769 18.4323 4.10334 18.0663 4.01216C17.9749 4.01216 17.8834 3.92097 17.8834 3.92097C17.7004 3.7386 17.5174 3.55623 17.6089 3.19149ZM16.1451 3.64742C16.1451 3.55623 16.1451 3.64742 16.1451 3.64742V3.64742Z" fill="#1890FF"/>
<path d="M25.9345 45.1368C25.7516 45.0456 25.5686 44.6809 25.5686 44.4073C25.6601 44.0426 25.6601 43.5866 25.7516 43.2219C25.7516 43.1307 25.8431 42.9483 25.6601 43.0395C25.2941 43.2219 25.2941 42.766 25.1111 42.6748C24.7452 42.4924 25.0196 42.31 25.0196 42.1277C25.0196 41.9453 25.1111 41.7629 25.0196 41.5806C24.9282 41.4894 24.9282 41.307 25.0196 41.2158C25.2941 40.7599 24.9282 40.4863 24.8367 40.1216C24.7452 39.848 24.6537 39.6657 24.6537 39.3921C24.7452 38.3891 24.5622 37.2948 24.4707 36.2918C24.3792 35.5623 24.1962 34.8328 24.1047 34.1034C24.1047 33.8298 24.1962 33.6474 24.1962 33.3739V33.1915C23.9218 32.8268 23.6473 32.462 23.9218 32.0061C23.6473 31.6413 23.9218 31.0942 23.5558 30.8207C23.4643 30.7295 23.4643 30.6383 23.4643 30.6383C23.3728 29.9088 23.0984 29.1793 22.8239 28.4499C22.7324 28.3587 22.7324 28.1763 22.8239 27.9939C22.6409 27.3556 22.092 26.8997 22.092 26.1702C22.0005 25.7143 21.8175 25.3496 21.543 24.9848C21.36 24.6201 21.1771 24.2553 20.9941 23.9818C20.9026 23.7994 20.7196 23.5258 20.6281 23.3435C20.3537 22.9787 19.8962 22.614 19.8047 22.1581C19.7132 21.7021 19.5302 21.4286 19.0728 21.2462C19.0728 21.2462 18.8898 21.155 18.9813 21.0638C18.9813 20.9727 18.9813 20.7903 18.7983 20.7903C18.2494 20.5167 17.8834 19.9696 17.426 19.8784C16.7855 19.7872 16.3281 19.2401 15.7792 19.2401C15.6877 19.2401 15.5962 19.2401 15.5047 19.2401C15.4132 19.2401 15.4132 19.2401 15.3217 19.2401C15.2302 19.2401 14.8643 19.3313 14.6813 19.3313C14.3153 19.3313 13.9494 19.4225 13.5834 19.5137C13.2174 19.6961 12.943 19.7872 12.6685 20.0608C12.211 20.4255 11.6621 20.6079 11.2047 20.9727C11.1132 21.0638 10.9302 21.155 10.7472 21.155C10.6557 21.2462 10.6557 21.4286 10.5642 21.5198C9.64932 22.1581 9.28336 23.1611 8.55144 23.9818C8.36846 24.1641 8.36846 24.5289 8.27697 24.7113C7.72803 25.7143 7.17909 26.8085 7.0876 28.0851C6.99611 28.3587 6.90462 28.7234 6.63015 28.997L6.53866 29.0882C6.81313 29.5441 6.53866 30 6.44717 30.4559C6.1727 32.0973 5.89823 33.8298 5.89823 35.5623V38.3891C5.89823 38.6626 5.80674 38.9362 5.71525 39.2097C5.53227 39.6657 5.62376 39.6657 5.16631 39.4833C5.2578 40.304 5.16631 41.1246 4.80035 41.9453C4.70886 42.0365 4.70886 42.1277 4.52588 42.1277L4.43439 42.2189C3.97694 42.4924 3.88545 42.4924 3.79396 41.9453C3.79396 41.8541 3.79396 41.6717 3.70247 41.6717C3.61098 41.6717 3.70247 41.8541 3.70247 41.9453C3.70247 42.2189 3.61098 42.31 3.51949 42.5836C3.15353 42.9483 3.15353 43.4043 3.06204 43.769C2.97055 43.9514 2.97055 44.1337 2.69608 44.1337C2.42161 44.1337 2.23863 44.0426 2.23863 43.6778C2.23863 43.4043 2.05565 43.0395 2.33012 42.766C2.33012 42.766 2.33012 42.6748 2.33012 42.5836C2.14714 42.31 2.33012 41.9453 2.14714 41.5806C2.05565 41.3982 2.05565 41.307 1.87267 41.307C1.50671 41.307 1.32373 41.0334 1.32373 40.5775C1.32373 39.3009 1.32373 37.9331 1.41522 36.6565C1.41522 36.1094 1.50671 35.6535 1.68969 35.1064C1.78118 34.8328 1.68969 34.4681 1.68969 34.1945C1.78118 32.462 2.23863 30.8207 2.60459 29.1793C2.97055 27.6292 3.428 26.079 4.06843 24.6201C4.43439 23.7082 4.80035 22.7964 5.34929 21.9757C6.35568 20.4255 7.54505 18.8754 9.28336 17.7812C9.74081 17.5076 10.1983 17.0517 10.7472 16.8693C11.5706 16.5046 12.4855 16.231 13.4004 15.9575C13.6749 15.8663 13.9494 15.7751 14.3153 15.7751L14.7728 15.6839L15.1387 15.5927H15.5047C15.9621 15.5927 16.2366 15.5927 16.6026 15.6839C16.9685 15.7751 17.3345 15.8663 17.609 15.9575C18.7983 16.4134 19.8962 17.0517 20.7196 17.7812C21.36 18.3283 21.909 18.8754 22.4579 19.4225C22.8239 19.7872 23.0069 20.152 23.2813 20.6079C23.4643 20.9727 23.7388 21.2462 24.0133 21.5198C24.2877 21.8845 24.7452 22.2492 24.5622 22.7964C24.8367 22.9787 24.8367 23.2523 25.0196 23.5258C25.3856 23.8906 25.3856 24.3465 25.5686 24.7113C25.6601 24.8936 25.4771 24.9848 25.4771 25.076C25.4771 25.1672 25.2941 25.4407 25.6601 25.4407C26.026 25.4407 26.209 25.8967 26.026 26.2614C25.9345 26.4438 26.026 26.535 26.1175 26.6261C26.392 26.7173 26.4835 26.8997 26.392 27.1733C26.392 27.2644 26.392 27.3556 26.4835 27.4468C27.0324 27.6292 26.8494 28.2675 27.0324 28.6322C27.1239 28.7234 27.0324 28.8146 26.9409 28.8146C26.758 28.9058 26.758 28.997 26.9409 29.0882C27.2154 29.2705 27.3069 29.6353 27.3984 30C27.5814 31.003 27.9473 32.0061 28.0388 33.1003C28.2218 34.4681 28.4963 35.8359 28.5878 37.2948C28.5878 38.1155 28.7707 38.845 28.9537 39.6657C29.0452 40.2128 29.0452 40.8511 28.8622 41.3982C28.6792 42.0365 28.7707 42.6748 28.7707 43.3131C28.7707 43.5866 28.7707 43.769 28.5878 43.9514C28.4048 44.1337 28.2218 44.2249 28.0388 44.1337C27.8558 44.0426 27.6729 43.8602 27.6729 43.5866C27.6729 43.1307 27.4899 42.6748 27.3984 42.2189C27.2154 41.8541 27.3069 41.307 27.3069 40.7599V39.4833C27.3069 39.3921 27.3069 39.3921 27.3069 39.3009C27.3069 39.2097 27.2154 39.1185 27.1239 39.1185C27.0324 39.1185 27.0324 39.3009 27.0324 39.3009C27.2154 40.304 27.0324 41.3982 26.9409 42.4012C26.8494 42.9483 26.8494 43.5866 26.758 44.1337C26.758 44.2249 26.758 44.3161 26.6665 44.4073C26.392 44.9544 26.209 45.228 25.9345 45.1368ZM2.33012 42.4924C2.23863 42.4924 2.23863 42.5836 2.33012 42.4924C2.33012 42.5836 2.33012 42.5836 2.33012 42.4924ZM4.98333 39.4833C5.07482 39.4833 5.07482 39.4833 4.98333 39.4833V39.4833Z" fill="#1890FF"/>
<path d="M3.24505 42.8572C3.24505 42.6748 3.33654 42.4924 3.51952 42.4924C3.61101 42.5836 3.79399 42.5836 3.88548 42.6748C3.88548 42.6748 3.97697 42.766 3.97697 42.5836C3.79399 42.31 3.97697 42.4012 3.97697 42.2189C4.06846 41.8541 4.06846 42.1277 4.15995 42.2189C4.25144 42.2189 4.25144 42.31 4.34293 42.2189C4.34293 42.1277 4.43442 42.1277 4.43442 42.2189C4.6174 42.5836 4.70889 42.2189 4.80038 42.0365C4.89187 41.9453 4.98336 41.8541 5.07485 41.9453C5.44081 42.1277 5.71528 42.1277 6.08124 42.2189C6.35571 42.31 6.53869 42.2189 6.81316 42.31C6.90465 42.31 6.99614 42.4924 6.99614 42.4924H7.08763C7.17912 42.31 7.3621 42.1277 7.45359 42.4924C7.54508 42.31 7.72806 42.766 7.81955 42.4924C7.81955 42.4924 7.91104 42.4012 7.91104 42.4924C8.18551 42.6748 8.36849 42.5836 8.64296 42.5836C8.64296 42.5836 8.73445 42.5836 8.73445 42.766C8.91743 42.766 9.1919 42.5836 9.37488 42.766C9.55786 42.9483 9.64935 42.8572 9.83233 42.8572C9.92382 42.8572 10.1068 42.8572 10.1983 42.8572C10.2898 42.8572 10.3813 42.8572 10.4728 42.8572C10.6557 42.766 10.8387 42.6748 10.9302 42.8572C11.1132 43.0395 11.2047 43.1307 11.2962 42.8572C11.2962 42.8572 11.3877 42.766 11.3877 42.9483C11.3877 43.0395 11.4792 43.1307 11.4792 43.0395C11.6621 42.766 11.9366 43.1307 12.1196 42.9483C12.3941 42.6748 12.577 43.0395 12.8515 42.9483C13.0345 42.8572 13.2175 42.8572 13.4004 42.9483C13.6749 43.0395 13.9494 43.0395 14.1324 42.8572C14.3153 42.766 14.5898 42.8572 14.7728 42.8572C14.8643 42.8572 14.8643 42.8572 14.9558 42.9483L15.0473 42.8572C15.4132 42.9483 15.7792 42.5836 16.1451 42.8572C16.2366 42.9483 16.3281 42.766 16.4196 42.766C16.7856 42.766 17.243 42.8572 17.609 42.5836C17.7005 42.4924 17.792 42.5836 17.9749 42.766C17.9749 42.766 17.9749 42.8572 18.0664 42.766C18.1579 42.4012 18.3409 42.5836 18.5239 42.5836C19.0728 42.4924 19.6218 42.4924 20.1707 42.31C20.4452 42.2189 20.8111 42.1277 21.0856 42.0365C21.1771 42.0365 21.2686 42.0365 21.3601 42.1277C21.543 42.2189 21.543 42.2189 21.4516 42.6748C21.726 42.5836 22.0005 42.5836 22.1835 43.0395C22.1835 43.1307 22.275 43.1307 22.275 43.3131V43.4043C22.3665 43.8602 22.3665 43.9514 22.1835 44.0426C22.1835 44.0426 22.092 44.0426 22.092 44.1338C22.092 44.2249 22.1835 44.1338 22.1835 44.1338C22.275 44.1338 22.275 44.2249 22.3665 44.3161C22.4579 44.4073 22.6409 44.4073 22.7324 44.4985C22.8239 44.5897 22.8239 44.5897 22.8239 44.8632C22.8239 45.1368 22.8239 45.3192 22.6409 45.3192C22.5494 45.3192 22.4579 45.5015 22.3665 45.228C22.3665 45.228 22.3665 45.228 22.275 45.228C22.1835 45.4103 22.092 45.228 22.0005 45.4103C21.909 45.5015 21.909 45.5015 21.909 45.6839C21.909 46.0486 21.8175 46.231 21.726 46.231C21.3601 46.231 20.9026 46.3222 20.5367 46.3222C20.3537 46.3222 20.2622 46.3222 20.0792 46.231C19.9877 46.1398 19.8962 46.3222 19.8047 46.3222C19.2558 46.4134 18.7984 46.231 18.2494 46.3222C17.792 46.3222 17.3345 46.3222 16.8771 46.3222C16.6026 46.3222 16.3281 46.4134 16.0537 46.4134C15.5047 46.4134 15.0473 46.5046 14.4983 46.4134C14.3153 46.4134 14.2239 46.5046 14.0409 46.5046C13.7664 46.4134 13.5834 46.4134 13.309 46.4134C13.0345 46.5046 12.6685 46.5046 12.3941 46.5046C12.1196 46.5046 11.8451 46.5046 11.4792 46.5046C11.2962 46.5046 11.0217 46.5958 10.8387 46.5958C10.7472 46.5958 10.5643 46.5958 10.4728 46.5046C10.3813 46.4134 10.2898 46.5046 10.1068 46.5958C10.0153 46.5958 9.83233 46.8693 9.74084 46.5046C9.64935 46.6869 9.55786 46.5046 9.46637 46.5958C9.37488 46.6869 9.1919 46.5046 9.10041 46.5958C9.00892 46.6869 9.00892 46.4134 9.00892 46.3222C9.00892 46.231 8.91743 46.0486 8.91743 46.3222C8.91743 46.5958 8.73445 46.5958 8.64296 46.3222C8.64296 46.231 8.55147 46.231 8.55147 46.3222C8.45998 46.5046 8.45998 46.5958 8.36849 46.4134C8.36849 46.3222 8.277 46.3222 8.277 46.4134C8.18551 46.8693 8.00253 46.4134 7.91104 46.5958C7.91104 46.5958 7.81955 46.5958 7.81955 46.5046C7.81955 46.231 7.81955 46.3222 7.72806 46.4134C7.63657 46.6869 7.54508 46.5958 7.45359 46.5958C7.17912 46.5046 6.81316 46.5958 6.53869 46.5046C6.08124 46.3222 5.71528 46.4134 5.25783 46.3222C4.98336 46.231 4.80038 46.3222 4.52591 46.4134C4.34293 46.4134 4.15995 46.4134 3.97697 46.231C3.79399 45.9575 3.61101 46.0486 3.42803 46.0486C3.33654 46.0486 3.33654 46.0486 3.24505 45.8663C3.15356 45.6839 3.15356 45.5015 3.15356 45.3192C3.15356 45.1368 3.24505 44.9544 3.33654 44.9544C3.51952 44.9544 3.61101 44.8632 3.79399 44.6809C3.88548 44.4985 4.06846 44.6809 4.25144 44.6809C4.34293 44.6809 4.52591 44.6809 4.6174 44.772C4.6174 44.772 4.6174 44.772 4.70889 44.772C4.70889 44.772 4.80038 44.6809 4.80038 44.5897C4.80038 44.4985 4.80038 44.4985 4.70889 44.4985C4.34293 44.4985 4.06846 44.3161 3.79399 44.2249C3.61101 44.1338 3.42803 44.0426 3.24505 43.9514C3.24505 43.9514 3.15356 43.9514 3.15356 43.8602C3.24505 43.4043 3.15356 43.2219 3.24505 42.8572ZM22.458 45.0456C22.458 45.0456 22.5494 45.0456 22.458 45.0456C22.5494 45.0456 22.5494 45.0456 22.458 45.0456ZM22.3665 43.0395C22.3665 43.1307 22.3665 43.1307 22.3665 43.0395V43.0395Z" fill="#1890FF"/>
<path d="M6.17248 59.6353C5.9895 59.5441 5.80652 59.4529 5.89801 59.3617C5.9895 59.2705 5.9895 59.1793 6.17248 59.0882C6.17248 59.0882 6.26397 58.997 6.17248 58.997C5.80652 58.997 5.89801 58.8146 5.71503 58.8146C5.44056 58.7234 5.62354 58.7234 5.71503 58.6322C5.80652 58.6322 5.89801 58.541 5.80652 58.4499C5.71503 58.3587 5.71503 58.3587 5.80652 58.3587C6.17248 58.3587 5.80652 58.1763 5.71503 57.9939C5.62354 57.9027 5.62354 57.8116 5.71503 57.8116C5.9895 57.538 5.9895 57.2644 6.17248 56.9909C6.26397 56.8085 6.26397 56.6261 6.35546 56.4438C6.35546 56.3526 6.62993 56.3526 6.62993 56.2614V56.1702C6.53844 55.9878 6.35546 55.8967 6.72142 55.8055C6.53844 55.6231 6.99589 55.6231 6.81291 55.4407V55.3496C6.99589 55.1672 6.99589 54.9848 6.99589 54.7113C6.99589 54.7113 6.99589 54.6201 7.17887 54.6201C7.27036 54.4377 6.99589 54.2553 7.27036 54.073C7.45334 53.9818 7.36185 53.7994 7.36185 53.7082C7.36185 53.617 7.45334 53.5258 7.45334 53.3435C7.45334 53.2523 7.45334 53.2523 7.45334 53.1611C7.45334 52.9787 7.36185 52.7964 7.54483 52.7052C7.72781 52.614 7.91079 52.5228 7.63632 52.3404C7.63632 52.3404 7.63632 52.2492 7.72781 52.2492C7.8193 52.2492 7.91079 52.2492 7.8193 52.1581C7.63632 51.9757 7.91079 51.7933 7.8193 51.6109C7.63632 51.3374 8.00228 51.2462 7.91079 50.9727C7.91079 50.7903 7.8193 50.6991 7.91079 50.5167C8.00228 50.3344 8.00228 50.0608 7.91079 49.7872C7.8193 49.6049 7.91079 49.4225 8.00228 49.2401C8.00228 49.1489 8.00228 49.1489 8.18526 49.1489L8.09377 49.0578C8.27675 48.7842 7.91079 48.3283 8.18526 48.0547C8.27675 47.9635 8.09377 47.8723 8.09377 47.7812C8.09377 47.4164 8.18526 47.0517 8.00228 46.6869C7.91079 46.5957 8.00228 46.5046 8.18526 46.4134C8.18526 46.4134 8.27675 46.4134 8.18526 46.4134C7.8193 46.231 8.00228 46.1398 8.00228 46.0486C8.00228 45.5927 8.00228 45.0456 7.8193 44.5897C7.63632 44.4985 7.63632 44.2249 7.54483 43.9514C7.54483 43.8602 7.63632 43.769 7.63632 43.769C7.72781 43.6778 7.72781 43.6778 8.18526 43.769C8.09377 43.4954 8.18526 43.3131 8.55122 43.1307C8.64271 43.1307 8.7342 43.0395 8.82569 43.1307H8.91718C9.37463 43.0395 9.46612 43.1307 9.55761 43.2219C9.55761 43.2219 9.55761 43.3131 9.6491 43.3131C9.74059 43.3131 9.6491 43.2219 9.6491 43.2219C9.6491 43.1307 9.74059 43.1307 9.83208 43.0395C9.92357 42.9483 9.92357 42.8571 10.1065 42.766C10.198 42.6748 10.198 42.6748 10.4725 42.6748C10.747 42.6748 10.93 42.766 10.93 42.8571C10.93 42.9483 11.0214 43.0395 10.8385 43.1307C10.8385 43.1307 10.8385 43.1307 10.8385 43.2219C11.0214 43.3131 10.8385 43.4043 11.0214 43.4954C11.1129 43.5866 11.1129 43.5866 11.2959 43.5866C11.6619 43.5866 11.8449 43.6778 11.8449 43.8602C11.8449 44.2249 11.8449 44.5897 11.8449 44.9544C11.8449 45.1368 11.7534 45.228 11.6619 45.4103C11.5704 45.5015 11.7534 45.5927 11.7534 45.6839C11.8449 46.1398 11.5704 46.5957 11.5704 47.0517C11.5704 47.5076 11.4789 47.8723 11.4789 48.3283C11.4789 48.6018 11.5704 48.8754 11.4789 49.0578C11.3874 49.5137 11.4789 49.9696 11.2959 50.4255C11.2044 50.5167 11.3874 50.6991 11.2959 50.8815C11.2044 51.0638 11.1129 51.3374 11.1129 51.5198C11.1129 51.7933 11.1129 52.0669 11.0214 52.4316C10.93 52.7052 11.0214 52.9787 10.93 53.2523C10.8385 53.4347 10.93 53.617 10.93 53.7994C10.93 53.8906 10.8385 54.073 10.747 54.1641C10.6555 54.2553 10.747 54.3465 10.747 54.4377C10.747 54.5289 11.0214 54.7113 10.564 54.8024C10.6555 54.8936 10.564 54.9848 10.6555 55.076C10.747 55.2584 10.564 55.2584 10.6555 55.4407C10.6555 55.5319 10.4725 55.4407 10.381 55.4407C10.2895 55.4407 10.1065 55.4407 10.381 55.5319C10.6555 55.6231 10.6555 55.7143 10.381 55.8055C10.2895 55.8055 10.2895 55.8055 10.381 55.8967C10.564 55.9878 10.564 56.079 10.381 56.079C10.2895 56.079 10.2895 56.079 10.381 56.1702C10.8385 56.3526 10.381 56.4438 10.4725 56.535H10.381C10.1065 56.535 10.1065 56.535 10.2895 56.6261C10.564 56.7173 10.4725 56.8085 10.381 56.8997C10.198 57.1733 10.2895 57.4468 10.1065 57.7204C9.83208 58.0851 9.83208 58.4499 9.6491 58.8146C9.55761 58.997 9.55761 59.2705 9.55761 59.4529C9.55761 59.6353 9.46612 59.7264 9.19165 59.8176C8.91718 59.9088 8.91718 60.0912 8.91718 60.2736C8.91718 60.3647 8.91718 60.3647 8.7342 60.3647C8.55122 60.3647 8.36824 60.3647 8.18526 60.2736C8.00228 60.1824 7.8193 60.0912 7.8193 60C7.8193 59.9088 7.72781 59.7265 7.63632 59.5441C7.54483 59.3617 7.63632 59.2705 7.72781 59.1793C7.72781 59.0882 7.8193 58.997 7.91079 58.8146C7.91079 58.8146 7.91079 58.8146 7.91079 58.7234C7.91079 58.7234 7.8193 58.6322 7.72781 58.6322C7.63632 58.6322 7.63632 58.6322 7.63632 58.6322C7.63632 58.9058 7.36185 59.1793 7.17887 59.3617C7.08738 59.5441 6.9044 59.6353 6.81291 59.8176L6.72142 59.9088C6.62993 59.7264 6.44695 59.7265 6.17248 59.6353ZM10.93 43.0395C10.8385 43.0395 10.93 43.0395 10.93 43.0395V43.0395Z" fill="#1890FF"/>
<path d="M19.4389 58.8146C19.2559 58.8146 19.0729 58.7234 19.0729 58.6322C19.1644 58.541 19.1644 58.3587 19.2559 58.2675C19.2559 58.2675 19.3474 58.1763 19.1644 58.1763C18.7984 58.2675 18.7984 58.0851 18.6155 58.0851C18.2495 58.0851 18.524 57.9939 18.6155 57.9027C18.6155 57.8116 18.7069 57.8116 18.6155 57.7204C18.524 57.7204 18.524 57.6292 18.6155 57.6292C18.9814 57.538 18.6154 57.4468 18.4325 57.2645C18.341 57.1733 18.341 57.1733 18.341 57.0821C18.524 56.8085 18.524 56.4438 18.524 56.1702C18.524 55.9879 18.524 55.7143 18.6155 55.5319C18.6155 55.4407 18.7984 55.3496 18.7984 55.3496V55.2584C18.6155 55.1672 18.4325 55.076 18.7984 54.8936C18.6155 54.8024 19.0729 54.6201 18.7984 54.5289C18.7984 54.5289 18.7069 54.4377 18.7984 54.4377C18.8899 54.1641 18.8899 53.9818 18.7984 53.7994C18.7984 53.7994 18.7984 53.7082 18.8899 53.7082C18.8899 53.5258 18.6155 53.3435 18.7984 53.1611C18.8899 53.0699 18.8899 52.8876 18.7984 52.7964C18.7984 52.7052 18.7984 52.5228 18.7984 52.4316C18.7984 52.3404 18.7984 52.2493 18.7984 52.2493C18.7069 52.0669 18.6155 51.9757 18.7984 51.7933C18.9814 51.611 19.0729 51.5198 18.7984 51.4286C18.7984 51.4286 18.7069 51.3374 18.8899 51.3374C18.9814 51.3374 19.0729 51.2462 18.9814 51.2462C18.7069 51.0638 18.9814 50.8815 18.7984 50.6991C18.524 50.5167 18.7984 50.2432 18.7069 50.0608C18.6155 49.8784 18.6155 49.7872 18.6155 49.6049C18.7069 49.3313 18.6155 49.1489 18.524 48.8754C18.4325 48.693 18.524 48.5107 18.524 48.3283C18.524 48.2371 18.524 48.2371 18.6155 48.1459C18.524 48.1459 18.4325 48.0547 18.524 48.0547C18.6155 47.69 18.2495 47.4164 18.4325 47.0517C18.524 46.9605 18.341 46.8693 18.2495 46.7781C18.2495 46.4134 18.2495 46.0486 17.975 45.6839C17.8835 45.5927 17.8835 45.5015 18.0665 45.4103C18.0665 45.4103 18.158 45.4103 18.0665 45.3192C17.7006 45.228 17.8835 45.0456 17.792 44.9544C17.7006 44.4073 17.6091 43.9514 17.4261 43.4043C17.3346 43.1307 17.2431 42.8572 17.1516 42.5836C17.1516 42.4924 17.1516 42.4012 17.2431 42.31C17.3346 42.1277 17.3346 42.1277 17.792 42.2189C17.7006 41.9453 17.7006 41.6717 18.0665 41.4894C18.158 41.4894 18.158 41.3982 18.341 41.3982H18.4325C18.8899 41.307 18.9814 41.307 19.0729 41.4894C19.0729 41.4894 19.0729 41.5806 19.1644 41.5806C19.2559 41.5806 19.1644 41.4894 19.1644 41.4894C19.1644 41.3982 19.2559 41.3982 19.3474 41.307C19.4389 41.2158 19.4389 41.0334 19.5303 40.9423C19.6218 40.8511 19.6218 40.8511 19.8963 40.8511C20.1708 40.8511 20.3538 40.8511 20.3538 40.9423C20.3538 41.0334 20.5367 41.1246 20.2623 41.2158C20.2623 41.2158 20.2623 41.2158 20.2623 41.307C20.4452 41.3982 20.2623 41.4894 20.4452 41.5806C20.5367 41.5806 20.5367 41.6717 20.7197 41.6717C21.0857 41.6717 21.2687 41.7629 21.2687 41.8541C21.2687 42.2189 21.3601 42.5836 21.3601 42.9483C21.3601 43.1307 21.3601 43.2219 21.2687 43.4043C21.1772 43.4955 21.3601 43.5866 21.3601 43.6778C21.4516 44.1338 21.3601 44.5897 21.3601 45.0456L21.4516 46.3222C21.4516 46.5958 21.6346 46.7781 21.6346 47.0517C21.6346 47.5076 21.8176 47.9635 21.7261 48.4195C21.7261 48.5106 21.8176 48.693 21.8176 48.7842C21.8176 48.9666 21.7261 49.2401 21.8176 49.4225C21.9091 49.6961 21.9091 49.9696 21.9091 50.3344C21.9091 50.6079 22.0006 50.8815 22.0006 51.155C22.0006 51.3374 22.0921 51.5198 22.1836 51.7021C22.1836 51.7933 22.1836 51.9757 22.0921 52.0669C22.0006 52.1581 22.1836 52.2493 22.1836 52.3404C22.1836 52.4316 22.5495 52.614 22.0921 52.7052C22.275 52.7964 22.1836 52.8876 22.1836 52.8876C22.3665 52.9787 22.0921 53.1611 22.1836 53.2523C22.275 53.3435 22.0006 53.3435 21.9091 53.3435C21.8176 53.3435 21.6346 53.4347 22.0006 53.4347C22.275 53.4347 22.275 53.617 22.0006 53.7082C21.9091 53.7082 21.9091 53.7994 22.0006 53.7994C22.1836 53.7994 22.275 53.8906 22.0921 53.9818C22.0006 53.9818 22.0006 54.073 22.0921 54.073C22.5495 54.1641 22.1836 54.3465 22.275 54.4377C22.275 54.4377 22.275 54.5289 22.1836 54.5289C21.9091 54.5289 22.0006 54.6201 22.0921 54.6201C22.3665 54.7113 22.275 54.8024 22.275 54.8936C22.1836 55.1672 22.275 55.4407 22.1836 55.8055C22.0006 56.1702 22.1836 56.6262 22.0006 56.9909C21.9091 57.1733 22.0006 57.4468 22.0921 57.6292C22.0921 57.8116 22.0921 57.9939 21.9091 58.0851C21.6346 58.2675 21.7261 58.4499 21.7261 58.6322C21.7261 58.7234 21.7261 58.7234 21.5431 58.8146C21.3601 58.9058 21.1772 58.9058 20.9942 58.9058C20.8112 58.9058 20.6282 58.8146 20.6282 58.7234C20.6282 58.541 20.5367 58.4499 20.3538 58.3587C20.1708 58.2675 20.3538 58.0851 20.3538 57.9939C20.3538 57.9027 20.3538 57.7204 20.4452 57.6292C20.4452 57.6292 20.4452 57.6292 20.4452 57.538C20.4452 57.538 20.3538 57.4468 20.2623 57.4468C20.1708 57.4468 20.1708 57.4468 20.1708 57.538C20.1708 57.8116 19.9878 58.1763 19.8963 58.4499C19.8048 58.6322 19.7133 58.8146 19.6218 58.997C19.6218 58.997 19.6218 59.0882 19.5303 59.0882C19.9878 58.7234 19.8048 58.8146 19.4389 58.8146ZM20.7197 40.9423C20.6282 40.9423 20.7197 40.9423 20.7197 40.9423V40.9423Z" fill="#1890FF"/>
</g>
<defs>
<clipPath id="clip0">
<rect width="28.6364" height="60" fill="white" transform="translate(0.317383)"/>
</clipPath>
</defs>
</svg>
