<svg width="30" height="60" viewBox="0 0 30 60" fill="none" xmlns="http://www.w3.org/2000/svg">
<g clip-path="url(#clip0)">
<path d="M14.3353 45.8663C7.74799 45.8663 1.61816 46.6869 1.06922 44.1337C0.520285 41.5805 1.06922 19.2401 13.0544 17.7812C21.38 17.7812 28.6992 43.1307 25.0396 45.1368C21.2885 47.1429 14.3353 45.8663 14.3353 45.8663Z" fill="#BAE7FF"/>
<path d="M16.9885 2.37083C14.8842 1.45897 12.597 1.00305 10.5842 1.9149C8.57143 2.82675 6.74164 5.47113 6.83313 8.48025C6.92462 12.31 9.94378 14.8632 12.78 15.5927C15.5247 16.231 18.7268 15.5927 20.3736 12.5836C22.0205 9.57448 20.4651 4.01216 17.7204 4.37691" fill="#BAE7FF"/>
<path d="M18.1777 3.19149C18.1777 3.00912 18.5437 2.73556 18.9097 2.82675C19.2756 3.00912 19.7331 3.1003 20.0075 3.37386C20.099 3.46505 20.1905 3.55623 20.1905 3.37386C20.282 2.91793 20.5565 3.19149 20.7395 3.19149C21.0139 3.19149 21.0139 3.46504 21.1969 3.64742C21.2884 3.82979 21.3799 4.01216 21.5629 4.01216C21.7459 4.01216 21.7459 4.19453 21.7459 4.28571C21.6544 4.74164 22.1118 4.83283 22.3863 5.0152C22.5693 5.19757 22.6608 5.28875 22.6608 5.47112C22.7522 6.38298 22.9352 7.11246 22.8437 7.84194C22.8437 8.38906 22.8437 8.93617 22.7522 9.48328C22.6608 9.66565 22.4778 9.75684 22.4778 9.93921L22.3863 10.1216C22.4778 10.4863 22.5693 10.8511 22.1118 11.0334C22.1118 11.2158 22.0203 11.3982 21.8373 11.4894C21.7459 11.5805 21.5629 11.6717 21.5629 11.8541C21.5629 11.9453 21.5629 11.9453 21.4714 12.0365C21.0139 12.4012 20.7395 12.8571 20.282 13.3131C20.1905 13.4043 20.099 13.4043 20.0075 13.4043C19.6416 13.6778 19.2756 14.1337 18.8182 14.1337C18.4522 14.1337 18.1777 14.3161 17.9033 14.4073C17.6288 14.4985 17.3543 14.4985 17.0799 14.5897C16.8969 14.5897 16.7139 14.5897 16.5309 14.6808C16.165 14.772 15.799 14.8632 15.5245 14.6808C15.2501 14.4985 15.0671 14.3161 14.7011 14.5897C14.7011 14.5897 14.5181 14.5897 14.5181 14.4985C14.5181 14.4073 14.4267 14.3161 14.3352 14.3161C13.8777 14.4985 13.5118 14.0426 13.0543 14.1337C12.5054 14.1337 12.1394 13.6778 11.682 13.4954C11.316 13.4043 11.0415 13.2219 10.7671 12.9483C10.4011 12.5836 10.0351 12.2188 9.4862 11.8541C9.12024 11.5805 8.93726 11.1246 8.75428 10.7599C8.66279 10.6687 8.66279 10.5775 8.75428 10.3951C8.66279 10.3039 8.5713 10.3039 8.47981 10.2128C8.29683 9.3921 7.74789 8.66261 7.93087 7.84194C8.11385 7.4772 7.93087 7.29483 7.93087 7.11246C8.02236 6.20061 8.29683 5.37994 8.47981 4.46808C8.5713 4.19453 8.66279 4.01216 8.93726 3.92097C8.93726 3.92097 9.02875 3.92097 9.02875 3.82979C8.84577 3.37386 9.21173 3.19149 9.4862 2.91793C9.85216 2.37082 10.3096 1.91489 10.8585 1.55015C11.4075 1.18541 12.0479 0.820669 12.6883 0.547112C13.4203 0.182371 14.1522 0 14.8841 0C15.0671 0 15.2501 0.0911854 15.5245 0.182371C15.8905 0.364742 15.8905 0.364742 15.616 0.729483C16.165 0.638298 16.7139 0.820669 17.0799 1.36778C17.1714 1.45897 17.1714 1.55015 17.0799 1.64134V1.73252C17.0799 2.18845 17.0799 2.27963 16.7139 2.27963C16.6224 2.27963 16.5309 2.18845 16.5309 2.37082C16.5309 2.46201 16.6224 2.37082 16.7139 2.37082C16.8054 2.37082 16.8969 2.55319 16.9884 2.64438C17.1714 2.82675 17.3543 2.82675 17.5373 3.1003C17.6288 3.19149 17.7203 3.28267 17.6288 3.46504C17.5373 3.64742 17.3543 3.82979 17.2628 3.82979C17.0799 3.82979 16.9884 3.82979 16.8969 3.64742H16.8054C16.6224 3.7386 16.5309 3.55623 16.3479 3.7386C16.2565 3.82979 16.165 3.82979 16.165 4.01216C16.0735 4.3769 15.8905 4.46808 15.799 4.46808C15.2501 4.3769 14.7926 4.3769 14.3352 4.46808C14.1522 4.46808 13.9692 4.46808 13.7862 4.46808C13.6947 4.46808 13.6033 4.65045 13.5118 4.65045C13.1458 4.83283 12.6883 5.0152 12.3224 5.56231C12.0479 5.92705 11.7735 6.47416 11.682 6.93009C11.5905 7.20365 11.682 7.4772 11.682 7.75076C11.682 8.29787 11.9564 8.66261 12.1394 9.20973C12.2309 9.3921 12.4139 9.3921 12.5054 9.57447C12.5969 9.75684 12.7798 10.0304 13.0543 10.2128C13.4203 10.3951 13.6947 10.5775 14.0607 10.7599C14.3352 10.9422 14.7011 10.9422 14.9756 11.0334C15.2501 11.1246 15.433 11.0334 15.7075 11.0334C15.8905 11.0334 15.982 11.0334 16.165 11.1246C16.2565 11.2158 16.4394 11.0334 16.5309 11.0334C16.7139 11.0334 16.7139 10.6687 16.9884 11.0334C16.9884 10.8511 17.1714 10.9422 17.1714 10.8511C17.2628 10.6687 17.4458 10.8511 17.4458 10.6687C17.4458 10.5775 17.5373 10.8511 17.6288 10.8511C17.7203 10.9422 17.8118 11.1246 17.7203 10.7599C17.6288 10.4863 17.7203 10.3951 17.9033 10.5775C17.9948 10.6687 17.9948 10.6687 17.9948 10.5775C17.9033 10.3951 17.9033 10.3039 18.0863 10.3951C18.1777 10.3951 18.1777 10.3951 18.1777 10.3951C17.9033 10.0304 18.2692 10.2128 18.2692 10.0304H18.3607C18.5437 10.2128 18.5437 10.1216 18.4522 10.0304C18.2692 9.84802 18.3607 9.75684 18.4522 9.66565C18.7267 9.48328 18.6352 9.30091 18.8182 8.93617C19.0012 8.57143 18.9097 8.02431 18.9097 7.56839C18.9097 7.29483 18.7267 7.02128 18.6352 6.8389C18.5437 6.65653 18.4522 6.56535 18.5437 6.38298C18.6352 6.10942 18.4522 6.10942 18.4522 6.10942C18.4522 6.10942 18.4522 6.10942 18.4522 5.92705C18.4522 5.74468 18.4522 5.56231 18.5437 5.37994C18.6352 5.19757 18.7267 5.0152 18.8182 5.0152C19.0012 5.10638 19.1841 5.0152 19.4586 5.10638C19.7331 5.10638 19.8246 5.37994 19.9161 5.65349C20.099 5.74468 20.099 6.01824 20.1905 6.20061V6.29179C20.282 6.29179 20.282 6.38298 20.3735 6.29179C20.465 6.29179 20.3735 6.20061 20.3735 6.20061C20.099 5.74468 20.0075 5.10638 19.5501 4.65045C19.2756 4.3769 19.0012 4.10334 18.6352 4.01216C18.5437 4.01216 18.4522 3.92097 18.4522 3.92097C18.2692 3.7386 18.0863 3.55623 18.1777 3.19149ZM16.7139 3.64742C16.7139 3.55623 16.7139 3.64742 16.7139 3.64742V3.64742Z" fill="#40A9FF"/>
<path d="M26.5034 45.1368C26.3204 45.0456 26.1374 44.6809 26.1374 44.4073C26.2289 44.0426 26.2289 43.5866 26.3204 43.2219C26.3204 43.1307 26.4119 42.9483 26.2289 43.0395C25.863 43.2219 25.863 42.766 25.68 42.6748C25.314 42.4924 25.5885 42.31 25.5885 42.1277C25.5885 41.9453 25.68 41.7629 25.5885 41.5806C25.497 41.4894 25.497 41.307 25.5885 41.2158C25.863 40.7599 25.497 40.4863 25.4055 40.1216C25.314 39.848 25.2225 39.6657 25.2225 39.3921C25.314 38.3891 25.131 37.2948 25.0395 36.2918C24.9481 35.5623 24.7651 34.8328 24.6736 34.1034C24.6736 33.8298 24.7651 33.6474 24.7651 33.3739V33.1915C24.4906 32.8268 24.2161 32.462 24.4906 32.0061C24.2161 31.6413 24.4906 31.0942 24.1246 30.8207C24.0332 30.7295 24.0332 30.6383 24.0332 30.6383C23.9417 29.9088 23.6672 29.1793 23.3927 28.4499C23.3012 28.3587 23.3012 28.1763 23.3927 27.9939C23.2097 27.3556 22.6608 26.8997 22.6608 26.1702C22.5693 25.7143 22.3863 25.3496 22.1119 24.9848C21.9289 24.6201 21.7459 24.2553 21.5629 23.9818C21.4714 23.7994 21.2885 23.5258 21.197 23.3435C20.9225 22.9787 20.465 22.614 20.3736 22.1581C20.2821 21.7021 20.0991 21.4286 19.6416 21.2462C19.6416 21.2462 19.4587 21.155 19.5501 21.0638C19.5501 20.9727 19.5501 20.7903 19.3672 20.7903C18.8182 20.5167 18.4523 19.9696 17.9948 19.8784C17.3544 19.7872 16.8969 19.2401 16.348 19.2401C16.2565 19.2401 16.165 19.2401 16.0735 19.2401C15.982 19.2401 15.982 19.2401 15.8905 19.2401C15.7991 19.2401 15.4331 19.3313 15.2501 19.3313C14.8842 19.3313 14.5182 19.4225 14.1522 19.5137C13.7863 19.6961 13.5118 19.7872 13.2373 20.0608C12.7799 20.4255 12.2309 20.6079 11.7735 20.9727C11.682 21.0638 11.499 21.155 11.316 21.155C11.2246 21.2462 11.2246 21.4286 11.1331 21.5198C10.2182 22.1581 9.85221 23.1611 9.12029 23.9818C8.93731 24.1641 8.93731 24.5289 8.84582 24.7113C8.29688 25.7143 7.74794 26.8085 7.65645 28.0851C7.56496 28.3587 7.47347 28.7234 7.199 28.997L7.10751 29.0882C7.38198 29.5441 7.10751 30 7.01602 30.4559C6.74155 32.0973 6.46708 33.8298 6.46708 35.5623V38.3891C6.46708 38.6626 6.37559 38.9362 6.2841 39.2097C6.10112 39.6657 6.19261 39.6657 5.73516 39.4833C5.82665 40.304 5.73516 41.1246 5.3692 41.9453C5.27771 42.0365 5.27771 42.1277 5.09473 42.1277L5.00324 42.2189C4.54579 42.4924 4.4543 42.4924 4.36281 41.9453C4.36281 41.8541 4.36281 41.6717 4.27132 41.6717C4.17983 41.6717 4.27132 41.8541 4.27132 41.9453C4.27132 42.2189 4.17983 42.31 4.08834 42.5836C3.72238 42.9483 3.72238 43.4043 3.63089 43.769C3.5394 43.9514 3.5394 44.1337 3.26493 44.1337C2.99046 44.1337 2.80748 44.0426 2.80748 43.6778C2.80748 43.4043 2.6245 43.0395 2.89897 42.766C2.89897 42.766 2.89897 42.6748 2.89897 42.5836C2.71599 42.31 2.89897 41.9453 2.71599 41.5806C2.6245 41.3982 2.6245 41.307 2.44152 41.307C2.07556 41.307 1.89258 41.0334 1.89258 40.5775C1.89258 39.3009 1.89258 37.9331 1.98407 36.6565C1.98407 36.1094 2.07556 35.6535 2.25854 35.1064C2.35003 34.8328 2.25854 34.4681 2.25854 34.1945C2.35003 32.462 2.80748 30.8207 3.17344 29.1793C3.5394 27.6292 3.99685 26.079 4.63728 24.6201C5.00324 23.7082 5.3692 22.7964 5.91814 21.9757C6.92453 20.4255 8.1139 18.8754 9.85221 17.7812C10.3097 17.5076 10.7671 17.0517 11.316 16.8693C12.1395 16.5046 13.0544 16.231 13.9693 15.9575C14.2437 15.8663 14.5182 15.7751 14.8842 15.7751L15.3416 15.6839L15.7076 15.5927H16.0735C16.531 15.5927 16.8054 15.5927 17.1714 15.6839C17.5374 15.7751 17.9033 15.8663 18.1778 15.9575C19.3672 16.4134 20.465 17.0517 21.2885 17.7812C21.9289 18.3283 22.4778 18.8754 23.0268 19.4225C23.3927 19.7872 23.5757 20.152 23.8502 20.6079C24.0332 20.9727 24.3076 21.2462 24.5821 21.5198C24.8566 21.8845 25.314 22.2492 25.131 22.7964C25.4055 22.9787 25.4055 23.2523 25.5885 23.5258C25.9544 23.8906 25.9545 24.3465 26.1374 24.7113C26.2289 24.8936 26.0459 24.9848 26.0459 25.076C26.0459 25.1672 25.863 25.4407 26.2289 25.4407C26.5949 25.4407 26.7779 25.8967 26.5949 26.2614C26.5034 26.4438 26.5949 26.535 26.6864 26.6261C26.9608 26.7173 27.0523 26.8997 26.9608 27.1733C26.9608 27.2644 26.9608 27.3556 27.0523 27.4468C27.6013 27.6292 27.4183 28.2675 27.6013 28.6322C27.6928 28.7234 27.6013 28.8146 27.5098 28.8146C27.3268 28.9058 27.3268 28.997 27.5098 29.0882C27.7843 29.2705 27.8757 29.6353 27.9672 30C28.1502 31.003 28.5162 32.0061 28.6077 33.1003C28.7906 34.4681 29.0651 35.8359 29.1566 37.2948C29.1566 38.1155 29.3396 38.845 29.5226 39.6657C29.614 40.2128 29.614 40.8511 29.4311 41.3982C29.2481 42.0365 29.3396 42.6748 29.3396 43.3131C29.3396 43.5866 29.3396 43.769 29.1566 43.9514C28.9736 44.1337 28.7906 44.2249 28.6077 44.1337C28.4247 44.0426 28.2417 43.8602 28.2417 43.5866C28.2417 43.1307 28.0587 42.6748 27.9672 42.2189C27.7843 41.8541 27.8757 41.307 27.8757 40.7599V39.4833C27.8757 39.3921 27.8757 39.3921 27.8757 39.3009C27.8757 39.2097 27.7842 39.1185 27.6928 39.1185C27.6013 39.1185 27.6013 39.3009 27.6013 39.3009C27.7843 40.304 27.6013 41.3982 27.5098 42.4012C27.4183 42.9483 27.4183 43.5866 27.3268 44.1337C27.3268 44.2249 27.3268 44.3161 27.2353 44.4073C26.9608 44.9544 26.7779 45.228 26.5034 45.1368ZM2.89897 42.4924C2.80748 42.4924 2.80748 42.5836 2.89897 42.4924C2.89897 42.5836 2.89897 42.5836 2.89897 42.4924ZM5.55218 39.4833C5.64367 39.4833 5.64367 39.4833 5.55218 39.4833V39.4833Z" fill="#40A9FF"/>
<path d="M3.8139 42.8572C3.8139 42.6748 3.90539 42.4924 4.08837 42.4924C4.17986 42.5836 4.36284 42.5836 4.45433 42.6748C4.45433 42.6748 4.54582 42.766 4.54582 42.5836C4.36284 42.31 4.54582 42.4012 4.54582 42.2189C4.63731 41.8541 4.63731 42.1277 4.7288 42.2189C4.82029 42.2189 4.82029 42.31 4.91178 42.2189C4.91178 42.1277 5.00327 42.1277 5.00327 42.2189C5.18625 42.5836 5.27774 42.2189 5.36923 42.0365C5.46072 41.9453 5.55221 41.8541 5.6437 41.9453C6.00966 42.1277 6.28413 42.1277 6.65009 42.2189C6.92456 42.31 7.10754 42.2189 7.38201 42.31C7.4735 42.31 7.56499 42.4924 7.56499 42.4924H7.65648C7.74797 42.31 7.93095 42.1277 8.02244 42.4924C8.11393 42.31 8.29691 42.766 8.3884 42.4924C8.3884 42.4924 8.47989 42.4012 8.47989 42.4924C8.75436 42.6748 8.93734 42.5836 9.21181 42.5836C9.21181 42.5836 9.3033 42.5836 9.3033 42.766C9.48628 42.766 9.76075 42.5836 9.94373 42.766C10.1267 42.9483 10.2182 42.8572 10.4012 42.8572C10.4927 42.8572 10.6757 42.8572 10.7671 42.8572C10.8586 42.8572 10.9501 42.8572 11.0416 42.8572C11.2246 42.766 11.4076 42.6748 11.4991 42.8572C11.682 43.0395 11.7735 43.1307 11.865 42.8572C11.865 42.8572 11.9565 42.766 11.9565 42.9483C11.9565 43.0395 12.048 43.1307 12.048 43.0395C12.231 42.766 12.5054 43.1307 12.6884 42.9483C12.9629 42.6748 13.1459 43.0395 13.4204 42.9483C13.6033 42.8572 13.7863 42.8572 13.9693 42.9483C14.2438 43.0395 14.5182 43.0395 14.7012 42.8572C14.8842 42.766 15.1587 42.8572 15.3416 42.8572C15.4331 42.8572 15.4331 42.8572 15.5246 42.9483L15.6161 42.8572C15.9821 42.9483 16.348 42.5836 16.714 42.8572C16.8055 42.9483 16.897 42.766 16.9885 42.766C17.3544 42.766 17.8119 42.8572 18.1778 42.5836C18.2693 42.4924 18.3608 42.5836 18.5438 42.766C18.5438 42.766 18.5438 42.8572 18.6353 42.766C18.7268 42.4012 18.9097 42.5836 19.0927 42.5836C19.6417 42.4924 20.1906 42.4924 20.7395 42.31C21.014 42.2189 21.38 42.1277 21.6544 42.0365C21.7459 42.0365 21.8374 42.0365 21.9289 42.1277C22.1119 42.2189 22.1119 42.2189 22.0204 42.6748C22.2949 42.5836 22.5693 42.5836 22.7523 43.0395C22.7523 43.1307 22.8438 43.1307 22.8438 43.3131V43.4043C22.9353 43.8602 22.9353 43.9514 22.7523 44.0426C22.7523 44.0426 22.6608 44.0426 22.6608 44.1338C22.6608 44.2249 22.7523 44.1338 22.7523 44.1338C22.8438 44.1338 22.8438 44.2249 22.9353 44.3161C23.0268 44.4073 23.2098 44.4073 23.3013 44.4985C23.3928 44.5897 23.3928 44.5897 23.3928 44.8632C23.3928 45.1368 23.3928 45.3192 23.2098 45.3192C23.1183 45.3192 23.0268 45.5015 22.9353 45.228C22.9353 45.228 22.9353 45.228 22.8438 45.228C22.7523 45.4103 22.6608 45.228 22.5693 45.4103C22.4779 45.5015 22.4779 45.5015 22.4779 45.6839C22.4779 46.0486 22.3864 46.231 22.2949 46.231C21.9289 46.231 21.4715 46.3222 21.1055 46.3222C20.9225 46.3222 20.831 46.3222 20.6481 46.231C20.5566 46.1398 20.4651 46.3222 20.3736 46.3222C19.8246 46.4134 19.3672 46.231 18.8183 46.3222C18.3608 46.3222 17.9034 46.3222 17.4459 46.3222C17.1714 46.3222 16.897 46.4134 16.6225 46.4134C16.0736 46.4134 15.6161 46.5046 15.0672 46.4134C14.8842 46.4134 14.7927 46.5046 14.6097 46.5046C14.3352 46.4134 14.1523 46.4134 13.8778 46.4134C13.6033 46.5046 13.2374 46.5046 12.9629 46.5046C12.6884 46.5046 12.414 46.5046 12.048 46.5046C11.865 46.5046 11.5905 46.5958 11.4076 46.5958C11.3161 46.5958 11.1331 46.5958 11.0416 46.5046C10.9501 46.4134 10.8586 46.5046 10.6757 46.5958C10.5842 46.5958 10.4012 46.8693 10.3097 46.5046C10.2182 46.6869 10.1267 46.5046 10.0352 46.5958C9.94373 46.6869 9.76075 46.5046 9.66926 46.5958C9.57777 46.6869 9.57777 46.4134 9.57777 46.3222C9.57777 46.231 9.48628 46.0486 9.48628 46.3222C9.48628 46.5958 9.3033 46.5958 9.21181 46.3222C9.21181 46.231 9.12032 46.231 9.12032 46.3222C9.02883 46.5046 9.02883 46.5958 8.93734 46.4134C8.93734 46.3222 8.84585 46.3222 8.84585 46.4134C8.75436 46.8693 8.57138 46.4134 8.47989 46.5958C8.47989 46.5958 8.3884 46.5958 8.3884 46.5046C8.3884 46.231 8.3884 46.3222 8.29691 46.4134C8.20542 46.6869 8.11393 46.5958 8.02244 46.5958C7.74797 46.5046 7.38201 46.5958 7.10754 46.5046C6.65009 46.3222 6.28413 46.4134 5.82668 46.3222C5.55221 46.231 5.36923 46.3222 5.09476 46.4134C4.91178 46.4134 4.7288 46.4134 4.54582 46.231C4.36284 45.9575 4.17986 46.0486 3.99688 46.0486C3.90539 46.0486 3.90539 46.0486 3.8139 45.8663C3.72241 45.6839 3.72241 45.5015 3.72241 45.3192C3.72241 45.1368 3.8139 44.9544 3.90539 44.9544C4.08837 44.9544 4.17986 44.8632 4.36284 44.6809C4.45433 44.4985 4.63731 44.6809 4.82029 44.6809C4.91178 44.6809 5.09476 44.6809 5.18625 44.772C5.18625 44.772 5.18625 44.772 5.27774 44.772C5.27774 44.772 5.36923 44.6809 5.36923 44.5897C5.36923 44.4985 5.36923 44.4985 5.27774 44.4985C4.91178 44.4985 4.63731 44.3161 4.36284 44.2249C4.17986 44.1338 3.99688 44.0426 3.8139 43.9514C3.8139 43.9514 3.72241 43.9514 3.72241 43.8602C3.8139 43.4043 3.72241 43.2219 3.8139 42.8572ZM23.0268 45.0456C23.0268 45.0456 23.1183 45.0456 23.0268 45.0456C23.1183 45.0456 23.1183 45.0456 23.0268 45.0456ZM22.9353 43.0395C22.9353 43.1307 22.9353 43.1307 22.9353 43.0395V43.0395Z" fill="#40A9FF"/>
<path d="M6.74133 59.6353C6.55835 59.5441 6.37537 59.4529 6.46686 59.3617C6.55835 59.2705 6.55835 59.1793 6.74133 59.0882C6.74133 59.0882 6.83282 58.997 6.74133 58.997C6.37537 58.997 6.46686 58.8146 6.28388 58.8146C6.00941 58.7234 6.19239 58.7234 6.28388 58.6322C6.37537 58.6322 6.46686 58.541 6.37537 58.4499C6.28388 58.3587 6.28388 58.3587 6.37537 58.3587C6.74133 58.3587 6.37537 58.1763 6.28388 57.9939C6.19239 57.9027 6.19239 57.8116 6.28388 57.8116C6.55835 57.538 6.55835 57.2644 6.74133 56.9909C6.83282 56.8085 6.83282 56.6261 6.92431 56.4438C6.92431 56.3526 7.19878 56.3526 7.19878 56.2614V56.1702C7.10729 55.9878 6.92431 55.8967 7.29027 55.8055C7.10729 55.6231 7.56474 55.6231 7.38176 55.4407V55.3496C7.56474 55.1672 7.56474 54.9848 7.56474 54.7113C7.56474 54.7113 7.56474 54.6201 7.74772 54.6201C7.83921 54.4377 7.56474 54.2553 7.83921 54.073C8.02219 53.9818 7.9307 53.7994 7.9307 53.7082C7.9307 53.617 8.02219 53.5258 8.02219 53.3435C8.02219 53.2523 8.02219 53.2523 8.02219 53.1611C8.02219 52.9787 7.9307 52.7964 8.11368 52.7052C8.29666 52.614 8.47964 52.5228 8.20517 52.3404C8.20517 52.3404 8.20517 52.2492 8.29666 52.2492C8.38815 52.2492 8.47964 52.2492 8.38815 52.1581C8.20517 51.9757 8.47964 51.7933 8.38815 51.6109C8.20517 51.3374 8.57113 51.2462 8.47964 50.9727C8.47964 50.7903 8.38815 50.6991 8.47964 50.5167C8.57113 50.3344 8.57113 50.0608 8.47964 49.7872C8.38815 49.6049 8.47964 49.4225 8.57113 49.2401C8.57113 49.1489 8.57113 49.1489 8.75411 49.1489L8.66262 49.0578C8.8456 48.7842 8.47964 48.3283 8.75411 48.0547C8.8456 47.9635 8.66262 47.8723 8.66262 47.7812C8.66262 47.4164 8.75411 47.0517 8.57113 46.6869C8.47964 46.5957 8.57113 46.5046 8.75411 46.4134C8.75411 46.4134 8.8456 46.4134 8.75411 46.4134C8.38815 46.231 8.57113 46.1398 8.57113 46.0486C8.57113 45.5927 8.57113 45.0456 8.38815 44.5897C8.20517 44.4985 8.20517 44.2249 8.11368 43.9514C8.11368 43.8602 8.20517 43.769 8.20517 43.769C8.29666 43.6778 8.29666 43.6778 8.75411 43.769C8.66262 43.4954 8.75411 43.3131 9.12007 43.1307C9.21156 43.1307 9.30305 43.0395 9.39454 43.1307H9.48603C9.94348 43.0395 10.035 43.1307 10.1265 43.2219C10.1265 43.2219 10.1265 43.3131 10.2179 43.3131C10.3094 43.3131 10.2179 43.2219 10.2179 43.2219C10.2179 43.1307 10.3094 43.1307 10.4009 43.0395C10.4924 42.9483 10.4924 42.8571 10.6754 42.766C10.7669 42.6748 10.7669 42.6748 11.0414 42.6748C11.3158 42.6748 11.4988 42.766 11.4988 42.8571C11.4988 42.9483 11.5903 43.0395 11.4073 43.1307C11.4073 43.1307 11.4073 43.1307 11.4073 43.2219C11.5903 43.3131 11.4073 43.4043 11.5903 43.4954C11.6818 43.5866 11.6818 43.5866 11.8648 43.5866C12.2307 43.5866 12.4137 43.6778 12.4137 43.8602C12.4137 44.2249 12.4137 44.5897 12.4137 44.9544C12.4137 45.1368 12.3222 45.228 12.2307 45.4103C12.1392 45.5015 12.3222 45.5927 12.3222 45.6839C12.4137 46.1398 12.1392 46.5957 12.1392 47.0517C12.1392 47.5076 12.0477 47.8723 12.0477 48.3283C12.0477 48.6018 12.1392 48.8754 12.0477 49.0578C11.9563 49.5137 12.0477 49.9696 11.8648 50.4255C11.7733 50.5167 11.9563 50.6991 11.8648 50.8815C11.7733 51.0638 11.6818 51.3374 11.6818 51.5198C11.6818 51.7933 11.6818 52.0669 11.5903 52.4316C11.4988 52.7052 11.5903 52.9787 11.4988 53.2523C11.4073 53.4347 11.4988 53.617 11.4988 53.7994C11.4988 53.8906 11.4073 54.073 11.3158 54.1641C11.2243 54.2553 11.3158 54.3465 11.3158 54.4377C11.3158 54.5289 11.5903 54.7113 11.1328 54.8024C11.2243 54.8936 11.1328 54.9848 11.2243 55.076C11.3158 55.2584 11.1328 55.2584 11.2243 55.4407C11.2243 55.5319 11.0414 55.4407 10.9499 55.4407C10.8584 55.4407 10.6754 55.4407 10.9499 55.5319C11.2243 55.6231 11.2243 55.7143 10.9499 55.8055C10.8584 55.8055 10.8584 55.8055 10.9499 55.8967C11.1328 55.9878 11.1328 56.079 10.9499 56.079C10.8584 56.079 10.8584 56.079 10.9499 56.1702C11.4073 56.3526 10.9499 56.4438 11.0414 56.535H10.9499C10.6754 56.535 10.6754 56.535 10.8584 56.6261C11.1328 56.7173 11.0414 56.8085 10.9499 56.8997C10.7669 57.1733 10.8584 57.4468 10.6754 57.7204C10.4009 58.0851 10.4009 58.4499 10.2179 58.8146C10.1265 58.997 10.1265 59.2705 10.1265 59.4529C10.1265 59.6353 10.035 59.7264 9.7605 59.8176C9.48603 59.9088 9.48603 60.0912 9.48603 60.2736C9.48603 60.3647 9.48603 60.3647 9.30305 60.3647C9.12007 60.3647 8.93709 60.3647 8.75411 60.2736C8.57113 60.1824 8.38815 60.0912 8.38815 60C8.38815 59.9088 8.29666 59.7265 8.20517 59.5441C8.11368 59.3617 8.20517 59.2705 8.29666 59.1793C8.29666 59.0882 8.38815 58.997 8.47964 58.8146C8.47964 58.8146 8.47964 58.8146 8.47964 58.7234C8.47964 58.7234 8.38815 58.6322 8.29666 58.6322C8.20517 58.6322 8.20517 58.6322 8.20517 58.6322C8.20517 58.9058 7.9307 59.1793 7.74772 59.3617C7.65623 59.5441 7.47325 59.6353 7.38176 59.8176L7.29027 59.9088C7.19878 59.7264 7.0158 59.7265 6.74133 59.6353ZM11.4988 43.0395C11.4073 43.0395 11.4988 43.0395 11.4988 43.0395V43.0395Z" fill="#40A9FF"/>
<path d="M20.0077 58.8146C19.8247 58.8146 19.6417 58.7234 19.6417 58.6322C19.7332 58.541 19.7332 58.3587 19.8247 58.2675C19.8247 58.2675 19.9162 58.1763 19.7332 58.1763C19.3673 58.2675 19.3673 58.0851 19.1843 58.0851C18.8183 58.0851 19.0928 57.9939 19.1843 57.9027C19.1843 57.8116 19.2758 57.8116 19.1843 57.7204C19.0928 57.7204 19.0928 57.6292 19.1843 57.6292C19.5503 57.538 19.1843 57.4468 19.0013 57.2645C18.9098 57.1733 18.9098 57.1733 18.9098 57.0821C19.0928 56.8085 19.0928 56.4438 19.0928 56.1702C19.0928 55.9879 19.0928 55.7143 19.1843 55.5319C19.1843 55.4407 19.3673 55.3496 19.3673 55.3496V55.2584C19.1843 55.1672 19.0013 55.076 19.3673 54.8936C19.1843 54.8024 19.6417 54.6201 19.3673 54.5289C19.3673 54.5289 19.2758 54.4377 19.3673 54.4377C19.4588 54.1641 19.4588 53.9818 19.3673 53.7994C19.3673 53.7994 19.3673 53.7082 19.4588 53.7082C19.4588 53.5258 19.1843 53.3435 19.3673 53.1611C19.4588 53.0699 19.4588 52.8876 19.3673 52.7964C19.3673 52.7052 19.3673 52.5228 19.3673 52.4316C19.3673 52.3404 19.3673 52.2493 19.3673 52.2493C19.2758 52.0669 19.1843 51.9757 19.3673 51.7933C19.5503 51.611 19.6417 51.5198 19.3673 51.4286C19.3673 51.4286 19.2758 51.3374 19.4588 51.3374C19.5503 51.3374 19.6417 51.2462 19.5503 51.2462C19.2758 51.0638 19.5503 50.8815 19.3673 50.6991C19.0928 50.5167 19.3673 50.2432 19.2758 50.0608C19.1843 49.8784 19.1843 49.7872 19.1843 49.6049C19.2758 49.3313 19.1843 49.1489 19.0928 48.8754C19.0013 48.693 19.0928 48.5107 19.0928 48.3283C19.0928 48.2371 19.0928 48.2371 19.1843 48.1459C19.0928 48.1459 19.0013 48.0547 19.0928 48.0547C19.1843 47.69 18.8183 47.4164 19.0013 47.0517C19.0928 46.9605 18.9098 46.8693 18.8183 46.7781C18.8183 46.4134 18.8183 46.0486 18.5439 45.6839C18.4524 45.5927 18.4524 45.5015 18.6354 45.4103C18.6354 45.4103 18.7268 45.4103 18.6354 45.3192C18.2694 45.228 18.4524 45.0456 18.3609 44.9544C18.2694 44.4073 18.1779 43.9514 17.9949 43.4043C17.9034 43.1307 17.8119 42.8572 17.7205 42.5836C17.7205 42.4924 17.7205 42.4012 17.8119 42.31C17.9034 42.1277 17.9034 42.1277 18.3609 42.2189C18.2694 41.9453 18.2694 41.6717 18.6354 41.4894C18.7268 41.4894 18.7268 41.3982 18.9098 41.3982H19.0013C19.4588 41.307 19.5503 41.307 19.6417 41.4894C19.6417 41.4894 19.6417 41.5806 19.7332 41.5806C19.8247 41.5806 19.7332 41.4894 19.7332 41.4894C19.7332 41.3982 19.8247 41.3982 19.9162 41.307C20.0077 41.2158 20.0077 41.0334 20.0992 40.9423C20.1907 40.8511 20.1907 40.8511 20.4652 40.8511C20.7396 40.8511 20.9226 40.8511 20.9226 40.9423C20.9226 41.0334 21.1056 41.1246 20.8311 41.2158C20.8311 41.2158 20.8311 41.2158 20.8311 41.307C21.0141 41.3982 20.8311 41.4894 21.0141 41.5806C21.1056 41.5806 21.1056 41.6717 21.2886 41.6717C21.6545 41.6717 21.8375 41.7629 21.8375 41.8541C21.8375 42.2189 21.929 42.5836 21.929 42.9483C21.929 43.1307 21.929 43.2219 21.8375 43.4043C21.746 43.4955 21.929 43.5866 21.929 43.6778C22.0205 44.1338 21.929 44.5897 21.929 45.0456L22.0205 46.3222C22.0205 46.5958 22.2035 46.7781 22.2035 47.0517C22.2035 47.5076 22.3864 47.9635 22.295 48.4195C22.295 48.5106 22.3864 48.693 22.3864 48.7842C22.3864 48.9666 22.295 49.2401 22.3864 49.4225C22.4779 49.6961 22.4779 49.9696 22.4779 50.3344C22.4779 50.6079 22.5694 50.8815 22.5694 51.155C22.5694 51.3374 22.6609 51.5198 22.7524 51.7021C22.7524 51.7933 22.7524 51.9757 22.6609 52.0669C22.5694 52.1581 22.7524 52.2493 22.7524 52.3404C22.7524 52.4316 23.1184 52.614 22.6609 52.7052C22.8439 52.7964 22.7524 52.8876 22.7524 52.8876C22.9354 52.9787 22.6609 53.1611 22.7524 53.2523C22.8439 53.3435 22.5694 53.3435 22.4779 53.3435C22.3864 53.3435 22.2035 53.4347 22.5694 53.4347C22.8439 53.4347 22.8439 53.617 22.5694 53.7082C22.4779 53.7082 22.4779 53.7994 22.5694 53.7994C22.7524 53.7994 22.8439 53.8906 22.6609 53.9818C22.5694 53.9818 22.5694 54.073 22.6609 54.073C23.1184 54.1641 22.7524 54.3465 22.8439 54.4377C22.8439 54.4377 22.8439 54.5289 22.7524 54.5289C22.4779 54.5289 22.5694 54.6201 22.6609 54.6201C22.9354 54.7113 22.8439 54.8024 22.8439 54.8936C22.7524 55.1672 22.8439 55.4407 22.7524 55.8055C22.5694 56.1702 22.7524 56.6262 22.5694 56.9909C22.4779 57.1733 22.5694 57.4468 22.6609 57.6292C22.6609 57.8116 22.6609 57.9939 22.4779 58.0851C22.2035 58.2675 22.295 58.4499 22.295 58.6322C22.295 58.7234 22.295 58.7234 22.112 58.8146C21.929 58.9058 21.746 58.9058 21.563 58.9058C21.3801 58.9058 21.1971 58.8146 21.1971 58.7234C21.1971 58.541 21.1056 58.4499 20.9226 58.3587C20.7396 58.2675 20.9226 58.0851 20.9226 57.9939C20.9226 57.9027 20.9226 57.7204 21.0141 57.6292C21.0141 57.6292 21.0141 57.6292 21.0141 57.538C21.0141 57.538 20.9226 57.4468 20.8311 57.4468C20.7396 57.4468 20.7396 57.4468 20.7396 57.538C20.7396 57.8116 20.5566 58.1763 20.4652 58.4499C20.3737 58.6322 20.2822 58.8146 20.1907 58.997C20.1907 58.997 20.1907 59.0882 20.0992 59.0882C20.5566 58.7234 20.3737 58.8146 20.0077 58.8146ZM21.2886 40.9423C21.1971 40.9423 21.2886 40.9423 21.2886 40.9423V40.9423Z" fill="#40A9FF"/>
</g>
<defs>
<clipPath id="clip0">
<rect width="28.6364" height="60" fill="white" transform="translate(0.88623)"/>
</clipPath>
</defs>
</svg>
