<svg width="36" height="36" viewBox="0 0 36 36" fill="none" xmlns="http://www.w3.org/2000/svg">
<path fill-rule="evenodd" clip-rule="evenodd" d="M4.29289 19.2451C3.90237 19.6356 3.90237 20.2688 4.29289 20.6593L15.253 31.6195C15.6436 32.01 16.2767 32.01 16.6673 31.6195L31.6195 16.6673C31.8253 16.4614 31.9313 16.1761 31.9096 15.8857L31.1485 5.6867C31.1116 5.19311 30.7193 4.80073 30.2257 4.7639L20.0266 4.00278C19.7363 3.98111 19.451 4.08704 19.2451 4.2929L4.29289 19.2451Z" fill="#BAE7FF"/>
<path fill-rule="evenodd" clip-rule="evenodd" d="M24.1132 9.9667C23.6055 10.4744 23.6055 11.2975 24.1132 11.8052C24.6209 12.3129 25.444 12.3129 25.9517 11.8052C26.4593 11.2975 26.4593 10.4744 25.9517 9.9667C25.444 9.45902 24.6209 9.45902 24.1132 9.9667Z" fill="white"/>
<path fill-rule="evenodd" clip-rule="evenodd" d="M5.56569 19.9522L15.9602 30.3467L30.4998 15.807L29.778 6.13438L20.1054 5.41254L5.56569 19.9522ZM4.29289 19.2451C3.90237 19.6356 3.90237 20.2688 4.29289 20.6593L15.253 31.6195C15.6436 32.01 16.2767 32.01 16.6673 31.6195L31.6195 16.6673C31.8253 16.4614 31.9313 16.1761 31.9096 15.8857L31.1485 5.6867C31.1116 5.19311 30.7193 4.80073 30.2257 4.7639L20.0266 4.00278C19.7363 3.98111 19.451 4.08704 19.2451 4.2929L4.29289 19.2451Z" fill="#003A8C"/>
<path fill-rule="evenodd" clip-rule="evenodd" d="M24.1131 9.96664C23.6054 10.4743 23.6054 11.2974 24.1131 11.8051C24.6208 12.3128 25.4439 12.3128 25.9516 11.8051C26.4593 11.2974 26.4593 10.4743 25.9516 9.96664C25.4439 9.45895 24.6208 9.45895 24.1131 9.96664ZM23.1232 12.7951C22.0688 11.7406 22.0688 10.0311 23.1232 8.97669C24.1776 7.92227 25.8871 7.92227 26.9415 8.97669C27.996 10.0311 27.996 11.7406 26.9415 12.7951C25.8871 13.8495 24.1776 13.8495 23.1232 12.7951Z" fill="#003A8C"/>
<path fill-rule="evenodd" clip-rule="evenodd" d="M16.0384 14.93C15.7943 15.1742 15.6039 15.4454 15.4661 15.7455C15.3285 16.0454 15.2738 16.3714 15.2988 16.7235C15.3249 17.0811 15.4481 17.4652 15.6647 17.875C15.8852 18.2903 16.2285 18.7308 16.6923 19.1946C17.1692 19.6714 17.6191 20.0243 18.0391 20.2495C18.4533 20.4707 18.8404 20.5971 19.1978 20.6222C19.5498 20.6472 19.8756 20.5925 20.1754 20.4548C20.4756 20.3171 20.7468 20.1267 20.9909 19.8825C21.2397 19.6338 21.4332 19.3596 21.5701 19.0601C21.7076 18.7607 21.7643 18.4333 21.7405 18.0784C21.7174 17.7188 21.5919 17.3303 21.3706 16.9158C21.1454 16.4959 20.7926 16.0461 20.3158 15.5693C19.8529 15.1063 19.4123 14.763 18.9961 14.5416C18.5889 14.3257 18.2036 14.2035 17.8425 14.1805C17.487 14.1576 17.1605 14.2133 16.8608 14.3509C16.5604 14.4887 16.2863 14.6822 16.0384 14.93ZM16.5343 16.1489C16.5683 15.9927 16.6556 15.8412 16.8018 15.6949C16.947 15.5497 17.1 15.4609 17.2585 15.4241C17.4184 15.387 17.5837 15.3866 17.7404 15.4222C17.9005 15.4574 18.0586 15.5204 18.2144 15.6116C18.3671 15.7014 18.5149 15.8013 18.6553 15.9092C18.7969 16.0164 18.9268 16.1273 19.046 16.2427L19.0981 16.2931C19.1953 16.387 19.2796 16.4685 19.3497 16.5386C19.4883 16.6752 19.6491 16.8457 19.8351 17.0513C20.0216 17.2568 20.1797 17.4757 20.3114 17.7079C20.4449 17.9432 20.5189 18.1826 20.5358 18.4264C20.5534 18.6712 20.4561 18.9063 20.2356 19.1267C20.0201 19.3423 19.7883 19.4356 19.5437 19.4172C19.3036 19.3984 19.0651 19.3234 18.8295 19.1897C18.5973 19.0581 18.3774 18.899 18.1728 18.7133C17.9673 18.5274 17.7966 18.3664 17.6596 18.2294C17.5771 18.1469 17.4786 18.0464 17.365 17.927L17.3643 17.9263C17.2494 17.8075 17.1369 17.6778 17.0271 17.5391C16.9171 17.4007 16.8175 17.2538 16.7294 17.0975C16.6401 16.9394 16.5766 16.7818 16.5394 16.6246C16.5015 16.4643 16.4995 16.3053 16.5343 16.1489Z" fill="#003A8C"/>
<path fill-rule="evenodd" clip-rule="evenodd" d="M11.0945 19.509C11.0003 19.4147 11.0003 19.2611 11.0945 19.1668L11.3944 18.8669C11.4887 18.7727 11.6423 18.7727 11.7366 18.8669L12.0094 19.1398C12.8286 18.517 13.8249 18.4045 14.5858 19.0298L14.587 19.0307C14.6946 19.1214 14.7045 19.287 14.6031 19.3884L14.1239 19.8676C14.0396 19.952 13.9043 19.9642 13.8066 19.8888C13.5295 19.6788 13.1369 19.649 12.7489 19.8878L14.011 21.1499L14.2648 20.9918C14.7039 20.7266 15.1415 20.5494 15.5731 20.5413C16.0107 20.533 16.4273 20.6986 16.8185 21.0887C17.2433 21.5135 17.4206 22.0093 17.3856 22.5211C17.3529 22.9978 17.1371 23.4781 16.7865 23.9223L17.0486 24.1811C17.1433 24.2758 17.1452 24.4299 17.0502 24.5249L16.7471 24.828C16.6528 24.9222 16.4993 24.9222 16.405 24.828L16.1484 24.5714C15.6513 24.9757 15.1559 25.1646 14.697 25.1838C14.2111 25.2041 13.7768 25.0337 13.4379 24.7461C13.3292 24.6541 13.3232 24.4897 13.4232 24.3897L13.9162 23.8967C13.998 23.8149 14.1304 23.7996 14.2279 23.8704C14.4025 23.9967 14.6018 24.0559 14.8172 24.0395C15.0013 24.0255 15.2029 23.9556 15.4146 23.8163L14.0597 22.4613L13.8106 22.6092C13.4536 22.8283 13.0402 22.9904 12.6157 22.9998C12.1865 23.0093 11.7543 22.8624 11.3699 22.478C10.9563 22.0643 10.7914 21.5834 10.8252 21.0943C10.8565 20.6416 11.0572 20.1909 11.3702 19.7847L11.0945 19.509ZM14.838 21.9722L16.0571 23.1913C16.2001 22.9913 16.2778 22.7886 16.2892 22.5992C16.3024 22.3799 16.2277 22.1679 16.0426 21.9829C15.8953 21.8355 15.7452 21.7603 15.5633 21.7536C15.3795 21.7469 15.1481 21.8096 14.838 21.9722ZM12.1569 21.589C11.9872 21.4193 11.9217 21.2273 11.9326 21.0296C11.9417 20.8641 12.0049 20.6883 12.1168 20.515L13.2219 21.6202C13.2024 21.6294 13.1831 21.638 13.1636 21.6463L13.1594 21.6482C12.9265 21.7576 12.7309 21.7971 12.5686 21.7836C12.409 21.7704 12.2732 21.7053 12.1569 21.589Z" fill="#003A8C"/>
</svg>
