<svg width="18" height="18" viewBox="0 0 18 18" fill="none" xmlns="http://www.w3.org/2000/svg">
<g clip-path="url(#clip0_2246_49343)">
<path d="M15.6875 14.7258C15.6914 14.72 15.6973 14.7141 15.7012 14.7083C16.9805 13.1868 17.75 11.2258 17.75 9.08325C17.75 6.94067 16.9805 4.97974 15.7031 3.45825C15.6992 3.45239 15.6934 3.44849 15.6895 3.44263C15.668 3.41724 15.6484 3.3938 15.627 3.37036C15.6191 3.3606 15.6113 3.35278 15.6035 3.34302L15.5234 3.25122L15.5215 3.24927C15.4922 3.21606 15.4609 3.18286 15.4316 3.14966L15.4297 3.14771C15.3672 3.0813 15.3047 3.01489 15.2402 2.95044L15.2383 2.94849L15.1445 2.85474L15.1387 2.84888C15.1094 2.81958 15.0801 2.79224 15.0508 2.76489C15.041 2.75513 15.0312 2.74536 15.0195 2.7356C15 2.71606 14.9805 2.69849 14.9609 2.68091C14.9551 2.67505 14.9473 2.66919 14.9414 2.66138C13.3828 1.21606 11.2949 0.333252 9 0.333252C6.70508 0.333252 4.61719 1.21606 3.05664 2.66138C3.05078 2.66724 3.04297 2.6731 3.03711 2.68091C3.01758 2.69849 2.99805 2.71802 2.97852 2.73755C2.96875 2.74731 2.95898 2.75708 2.94727 2.76685C2.91797 2.79419 2.88867 2.82349 2.85938 2.85083L2.85352 2.85669L2.75977 2.95044L2.75781 2.95239C2.69336 3.01685 2.63086 3.08325 2.56836 3.14966L2.56641 3.15161C2.53516 3.18481 2.50586 3.21802 2.47656 3.25122L2.47461 3.25317C2.44727 3.28247 2.41992 3.31372 2.39453 3.34497C2.38672 3.35474 2.37891 3.36255 2.37109 3.37231C2.34961 3.39575 2.33008 3.42114 2.30859 3.44458C2.30469 3.45044 2.29883 3.45435 2.29492 3.46021C1.01953 4.97974 0.25 6.94067 0.25 9.08325C0.25 11.2258 1.01953 13.1868 2.29688 14.7083C2.30078 14.7141 2.30664 14.72 2.31055 14.7258L2.37109 14.7981C2.37891 14.8079 2.38672 14.8157 2.39453 14.8254L2.47461 14.9172C2.47461 14.9192 2.47656 14.9192 2.47656 14.9211C2.50586 14.9543 2.53516 14.9875 2.56641 15.0188L2.56836 15.0208C2.63086 15.0872 2.69336 15.1536 2.75586 15.218L2.75781 15.22C2.78906 15.2512 2.81836 15.2825 2.84961 15.3118L2.85547 15.3176C2.91992 15.3821 2.98633 15.4446 3.05273 15.5051C4.61719 16.9504 6.70508 17.8333 9 17.8333C11.2949 17.8333 13.3828 16.9504 14.9434 15.5051C15.0099 15.4441 15.075 15.3816 15.1387 15.3176L15.1445 15.3118C15.1758 15.2805 15.207 15.2512 15.2363 15.22L15.2383 15.218C15.3027 15.1536 15.3652 15.0872 15.4258 15.0208L15.4277 15.0188C15.457 14.9856 15.4883 14.9543 15.5176 14.9211C15.5176 14.9192 15.5195 14.9192 15.5195 14.9172C15.5469 14.8879 15.5742 14.8567 15.5996 14.8254C15.6074 14.8157 15.6152 14.8079 15.623 14.7981C15.6451 14.7745 15.6666 14.7505 15.6875 14.7258ZM15.7676 11.9407C15.498 12.5774 15.1426 13.1672 14.709 13.7024C14.2207 13.2804 13.6868 12.9142 13.1172 12.6106C13.3438 11.6946 13.4844 10.6887 13.5215 9.63013H16.3242C16.2656 10.429 16.0781 11.2043 15.7676 11.9407ZM16.3242 8.53638H13.5215C13.4844 7.47778 13.3438 6.47192 13.1172 5.55591C13.6895 5.25122 14.2227 4.88403 14.709 4.46411C15.6515 5.62422 16.2153 7.04563 16.3242 8.53638ZM11.8574 2.31567C12.6328 2.6438 13.3379 3.09692 13.959 3.66724C13.5982 3.97445 13.2098 4.24774 12.7988 4.48364C12.4922 3.60474 12.0996 2.84106 11.6426 2.22974C11.7148 2.25708 11.7871 2.28638 11.8574 2.31567ZM10.0879 15.9993C9.9082 16.1399 9.72852 16.2473 9.54688 16.3196V12.6965C10.3219 12.7506 11.084 12.9232 11.8066 13.2083C11.6445 13.6887 11.457 14.1321 11.2402 14.5325C10.9004 15.1653 10.502 15.6711 10.0879 15.9993ZM11.2402 3.63403C11.4551 4.03638 11.6445 4.47974 11.8066 4.95825C11.084 5.24332 10.3219 5.4159 9.54688 5.46997V1.84888C9.72656 1.92114 9.9082 2.02661 10.0879 2.16919C10.502 2.49536 10.9004 3.00122 11.2402 3.63403ZM9.54688 11.6008V9.63013H12.4277C12.3965 10.4934 12.2891 11.3313 12.1094 12.1262L12.1035 12.1497C11.2839 11.8388 10.4219 11.6538 9.54688 11.6008ZM9.54688 8.53638V6.56567C10.4414 6.51099 11.3008 6.32153 12.1035 6.01685L12.1094 6.04028C12.2891 6.83521 12.3965 7.67114 12.4277 8.53638H9.54688ZM8.45312 9.63013V11.6008C7.55859 11.6555 6.69922 11.845 5.89648 12.1497L5.89062 12.1262C5.71094 11.3313 5.60352 10.4954 5.57227 9.63013H8.45312ZM5.57227 8.53638C5.60352 7.6731 5.71094 6.83521 5.89062 6.04028L5.89648 6.01685C6.69922 6.32153 7.55664 6.51099 8.45312 6.56567V8.53638H5.57227ZM8.45312 12.6965V16.3176C8.27344 16.2454 8.0918 16.1399 7.91211 15.9973C7.49805 15.6711 7.09766 15.1633 6.75781 14.5305C6.54297 14.1282 6.35352 13.6848 6.19141 13.2063C6.91797 12.9211 7.67383 12.7512 8.45312 12.6965ZM8.45312 5.46997C7.67814 5.4159 6.91603 5.24332 6.19336 4.95825C6.35547 4.47778 6.54297 4.03442 6.75977 3.63403C7.09961 3.00122 7.49805 2.49341 7.91406 2.16724C8.09375 2.02661 8.27344 1.91919 8.45508 1.84692V5.46997H8.45312ZM6.14258 2.31567C6.21484 2.28638 6.28516 2.25708 6.35742 2.22974C5.90039 2.84106 5.50781 3.60474 5.20117 4.48364C4.79102 4.24927 4.40234 3.97583 4.04102 3.66724C4.66211 3.09692 5.36719 2.6438 6.14258 2.31567ZM2.23242 6.22583C2.50195 5.58911 2.85742 4.99927 3.29102 4.46411C3.77734 4.88403 4.31055 5.25122 4.88281 5.55591C4.65625 6.47192 4.51562 7.47778 4.47852 8.53638H1.67578C1.73438 7.73755 1.92188 6.96216 2.23242 6.22583ZM1.67578 9.63013H4.47852C4.51562 10.6887 4.65625 11.6946 4.88281 12.6106C4.31324 12.9142 3.77934 13.2804 3.29102 13.7024C2.3485 12.5423 1.7847 11.1209 1.67578 9.63013ZM6.14258 15.8508C5.36719 15.5227 4.66211 15.0696 4.04102 14.4993C4.40234 14.1907 4.79102 13.9192 5.20117 13.6829C5.50781 14.5618 5.90039 15.3254 6.35742 15.9368C6.28516 15.9094 6.21289 15.8801 6.14258 15.8508ZM11.8574 15.8508C11.7852 15.8801 11.7148 15.9094 11.6426 15.9368C12.0996 15.3254 12.4922 14.5618 12.7988 13.6829C13.209 13.9172 13.5977 14.1907 13.959 14.4993C13.3413 15.0672 12.6304 15.5244 11.8574 15.8508Z" fill="#003A8C"/>
</g>
<defs>
<clipPath id="clip0_2246_49343">
<rect width="17.5" height="17.5" fill="white" transform="translate(0.25 0.333252)"/>
</clipPath>
</defs>
</svg>
