<svg width="36" height="36" viewBox="0 0 36 36" fill="none" xmlns="http://www.w3.org/2000/svg">
<path d="M14 25C19.5228 25 24 20.5228 24 15C24 9.47715 19.5228 5 14 5V25Z" fill="#BAE7FF"/>
<path fill-rule="evenodd" clip-rule="evenodd" d="M14 23.6C18.7496 23.6 22.6 19.7496 22.6 15C22.6 10.2504 18.7496 6.4 14 6.4C9.25035 6.4 5.4 10.2504 5.4 15C5.4 19.7496 9.25035 23.6 14 23.6ZM14 25C19.5228 25 24 20.5228 24 15C24 9.47715 19.5228 5 14 5C8.47715 5 4 9.47715 4 15C4 20.5228 8.47715 25 14 25Z" fill="#003A8C"/>
<path fill-rule="evenodd" clip-rule="evenodd" d="M16.6624 21.3964C17.5237 19.8303 18.1 17.5715 18.1 15C18.1 12.4285 17.5237 10.1697 16.6624 8.60362C15.7733 6.98715 14.7723 6.4 14 6.4C13.2277 6.4 12.2267 6.98715 11.3376 8.60362C10.4763 10.1697 9.9 12.4285 9.9 15C9.9 17.5715 10.4763 19.8303 11.3376 21.3964C12.2267 23.0129 13.2277 23.6 14 23.6C14.7723 23.6 15.7733 23.0129 16.6624 21.3964ZM14 25C17.0376 25 19.5 20.5228 19.5 15C19.5 9.47715 17.0376 5 14 5C10.9624 5 8.5 9.47715 8.5 15C8.5 20.5228 10.9624 25 14 25Z" fill="#003A8C"/>
<path fill-rule="evenodd" clip-rule="evenodd" d="M14.0002 10.05C16.3396 10.05 18.4596 9.11684 20.0107 7.60089L20.9893 8.60213C19.1872 10.3634 16.7199 11.45 14.0002 11.45C11.2805 11.45 8.81321 10.3634 7.01112 8.60213L7.98966 7.60089C9.54077 9.11684 11.6608 10.05 14.0002 10.05Z" fill="#003A8C"/>
<path fill-rule="evenodd" clip-rule="evenodd" d="M14.0003 19.95C11.6607 19.95 9.54046 20.8833 7.98931 22.3995L7.0107 21.3984C8.81283 19.6368 11.2803 18.55 14.0003 18.55C16.7202 18.55 19.1878 19.6368 20.9899 21.3984L20.0113 22.3995C18.4601 20.8833 16.3399 19.95 14.0003 19.95Z" fill="#003A8C"/>
<path fill-rule="evenodd" clip-rule="evenodd" d="M13.45 24.5V5.5H14.55V24.5H13.45Z" fill="#003A8C"/>
<path fill-rule="evenodd" clip-rule="evenodd" d="M4 14.45L23 14.45V15.55L4 15.55L4 14.45Z" fill="#003A8C"/>
<path d="M16 19C15.4477 19 15 19.4477 15 20V30C15 30.5523 15.4477 31 16 31H31C31.5523 31 32 30.5523 32 30V20C32 19.4477 31.5523 19 31 19H16Z" fill="white"/>
<path fill-rule="evenodd" clip-rule="evenodd" d="M16.4 20.4V29.6H30.6V20.4H16.4ZM16 19C15.4477 19 15 19.4477 15 20V30C15 30.5523 15.4477 31 16 31H31C31.5523 31 32 30.5523 32 30V20C32 19.4477 31.5523 19 31 19H16Z" fill="#003A8C"/>
<path fill-rule="evenodd" clip-rule="evenodd" d="M31 23.2H15V21.8H31V23.2Z" fill="#003A8C"/>
<path fill-rule="evenodd" clip-rule="evenodd" d="M29 28.7H25V27.3H29V28.7Z" fill="#003A8C"/>
</svg>
