<svg width="34" height="34" viewBox="0 0 34 34" fill="none" xmlns="http://www.w3.org/2000/svg">
<path d="M16.9989 8.75378C12.4387 8.75378 8.75831 12.4341 8.75831 16.9944C8.75831 21.5547 12.4387 25.235 16.9989 25.235C21.5592 25.235 25.2396 21.5547 25.2396 16.9944C25.2396 12.4341 21.5592 8.75378 16.9989 8.75378ZM16.9989 22.3502C14.0498 22.3502 11.6431 19.9435 11.6431 16.9944C11.6431 14.0453 14.0498 11.6386 16.9989 11.6386C19.948 11.6386 22.3547 14.0453 22.3547 16.9944C22.3547 19.9435 19.948 22.3502 16.9989 22.3502ZM25.5771 6.49575C24.5123 6.49575 23.6525 7.35557 23.6525 8.4203C23.6525 9.48503 24.5123 10.3449 25.5771 10.3449C26.6418 10.3449 27.5016 9.48905 27.5016 8.4203C27.5019 8.16748 27.4524 7.91707 27.3558 7.68343C27.2592 7.44979 27.1174 7.2375 26.9386 7.05873C26.7599 6.87995 26.5476 6.7382 26.3139 6.6416C26.0803 6.54499 25.8299 6.49543 25.5771 6.49575ZM33.0623 16.9944C33.0623 14.7766 33.0824 12.5788 32.9579 10.3649C32.8333 7.79351 32.2467 5.51137 30.3664 3.63101C28.482 1.74664 26.2038 1.16405 23.6324 1.0395C21.4146 0.914944 19.2168 0.935033 17.003 0.935033C14.7851 0.935033 12.5873 0.914944 10.3735 1.0395C7.80206 1.16405 5.51992 1.75066 3.63956 3.63101C1.75519 5.51539 1.1726 7.79351 1.04804 10.3649C0.923489 12.5828 0.943578 14.7806 0.943578 16.9944C0.943578 19.2082 0.923489 21.41 1.04804 23.6239C1.1726 26.1953 1.7592 28.4774 3.63956 30.3578C5.52394 32.2422 7.80206 32.8248 10.3735 32.9493C12.5913 33.0739 14.7891 33.0538 17.003 33.0538C19.2208 33.0538 21.4186 33.0739 23.6324 32.9493C26.2038 32.8248 28.486 32.2382 30.3664 30.3578C32.2507 28.4734 32.8333 26.1953 32.9579 23.6239C33.0864 21.41 33.0623 19.2123 33.0623 16.9944ZM29.5266 26.4685C29.2333 27.1998 28.8797 27.7462 28.3132 28.3087C27.7467 28.8752 27.2043 29.2288 26.473 29.5221C24.3597 30.3618 19.3413 30.173 16.9989 30.173C14.6565 30.173 9.6342 30.3618 7.52081 29.5261C6.78956 29.2328 6.24313 28.8792 5.68063 28.3127C5.11411 27.7462 4.76054 27.2038 4.46724 26.4725C3.63153 24.3551 3.82036 19.3368 3.82036 16.9944C3.82036 14.652 3.63153 9.62968 4.46724 7.51628C4.76054 6.78503 5.11411 6.2386 5.68063 5.6761C6.24715 5.1136 6.78956 4.75602 7.52081 4.46271C9.6342 3.627 14.6565 3.81584 16.9989 3.81584C19.3413 3.81584 24.3637 3.627 26.4771 4.46271C27.2083 4.75602 27.7547 5.10959 28.3172 5.6761C28.8838 6.24262 29.2373 6.78503 29.5306 7.51628C30.3664 9.62968 30.1775 14.652 30.1775 16.9944C30.1775 19.3368 30.3664 24.3551 29.5266 26.4685Z" fill="#002766"/>
</svg>
