<svg width="115" height="51" viewBox="0 0 115 51" fill="none" xmlns="http://www.w3.org/2000/svg">
<path d="M58.7307 16.0993V8.9993H60.1107V14.8893H63.7307V16.0993H58.7307ZM66.8315 16.1993C66.2648 16.1993 65.7748 16.076 65.3615 15.8293C64.9548 15.5826 64.6382 15.256 64.4115 14.8493C64.1848 14.436 64.0715 13.9893 64.0715 13.5093C64.0715 13.016 64.1815 12.5626 64.4015 12.1493C64.6282 11.7293 64.9482 11.396 65.3615 11.1493C65.7748 10.896 66.2682 10.7693 66.8415 10.7693C67.4148 10.7693 67.9048 10.896 68.3115 11.1493C68.7182 11.396 69.0282 11.726 69.2415 12.1393C69.4615 12.546 69.5715 12.986 69.5715 13.4593C69.5715 13.6326 69.5615 13.7826 69.5415 13.9093H65.4915C65.5248 14.316 65.6748 14.636 65.9415 14.8693C66.2148 15.1026 66.5282 15.2193 66.8815 15.2193C67.1482 15.2193 67.3982 15.156 67.6315 15.0293C67.8715 14.896 68.0348 14.7226 68.1215 14.5093L69.2715 14.8293C69.0782 15.2293 68.7682 15.5593 68.3415 15.8193C67.9148 16.0726 67.4115 16.1993 66.8315 16.1993ZM65.4615 13.0593H68.2015C68.1615 12.666 68.0115 12.3493 67.7515 12.1093C67.4982 11.8626 67.1882 11.7393 66.8215 11.7393C66.4615 11.7393 66.1515 11.8626 65.8915 12.1093C65.6382 12.3493 65.4948 12.666 65.4615 13.0593ZM73.3678 16.1993C72.9678 16.1993 72.6112 16.1093 72.2978 15.9293C71.9845 15.7493 71.7378 15.5026 71.5578 15.1893V16.0993H70.3878V8.7993H71.7278V11.7793C71.9145 11.466 72.1578 11.2193 72.4578 11.0393C72.7645 10.8593 73.1212 10.7693 73.5278 10.7693C73.9812 10.7693 74.3778 10.896 74.7178 11.1493C75.0645 11.396 75.3345 11.726 75.5278 12.1393C75.7212 12.5526 75.8178 13.006 75.8178 13.4993C75.8178 14.006 75.7112 14.4626 75.4978 14.8693C75.2845 15.276 74.9912 15.5993 74.6178 15.8393C74.2512 16.0793 73.8345 16.1993 73.3678 16.1993ZM72.9978 15.0593C73.2845 15.0593 73.5345 14.9893 73.7478 14.8493C73.9678 14.7093 74.1378 14.5226 74.2578 14.2893C74.3845 14.0493 74.4478 13.7893 74.4478 13.5093C74.4478 13.2226 74.3878 12.9593 74.2678 12.7193C74.1545 12.4726 73.9945 12.276 73.7878 12.1293C73.5812 11.9826 73.3445 11.9093 73.0778 11.9093C72.7845 11.9093 72.5145 12.0093 72.2678 12.2093C72.0278 12.4026 71.8478 12.6426 71.7278 12.9293V14.1793C71.8145 14.4393 71.9845 14.6526 72.2378 14.8193C72.4912 14.9793 72.7445 15.0593 72.9978 15.0593ZM76.3657 14.5493C76.3657 14.2093 76.4591 13.9126 76.6457 13.6593C76.8391 13.3993 77.1057 13.1993 77.4457 13.0593C77.7857 12.9193 78.1757 12.8493 78.6157 12.8493C78.8357 12.8493 79.0591 12.8693 79.2857 12.9093C79.5124 12.9426 79.7091 12.9926 79.8757 13.0593V12.7793C79.8757 12.446 79.7757 12.1893 79.5757 12.0093C79.3824 11.8293 79.0924 11.7393 78.7057 11.7393C78.4191 11.7393 78.1457 11.7893 77.8857 11.8893C77.6257 11.9893 77.3524 12.136 77.0657 12.3293L76.6357 11.4493C76.9824 11.2226 77.3357 11.0526 77.6957 10.9393C78.0624 10.826 78.4457 10.7693 78.8457 10.7693C79.5924 10.7693 80.1724 10.956 80.5857 11.3293C81.0057 11.7026 81.2157 12.236 81.2157 12.9293V14.5993C81.2157 14.746 81.2391 14.8493 81.2857 14.9093C81.3324 14.9626 81.4157 14.996 81.5357 15.0093V16.0993C81.4157 16.126 81.3057 16.1426 81.2057 16.1493C81.1124 16.1626 81.0324 16.1693 80.9657 16.1693C80.6991 16.1693 80.4957 16.1093 80.3557 15.9893C80.2157 15.8693 80.1324 15.7226 80.1057 15.5493L80.0757 15.2793C79.8424 15.5793 79.5557 15.8093 79.2157 15.9693C78.8824 16.1226 78.5391 16.1993 78.1857 16.1993C77.8324 16.1993 77.5191 16.1293 77.2457 15.9893C76.9724 15.8426 76.7557 15.646 76.5957 15.3993C76.4424 15.146 76.3657 14.8626 76.3657 14.5493ZM79.6257 14.8193C79.7924 14.6593 79.8757 14.506 79.8757 14.3593V13.8293C79.5291 13.6893 79.1791 13.6193 78.8257 13.6193C78.4724 13.6193 78.1857 13.696 77.9657 13.8493C77.7457 13.996 77.6357 14.1926 77.6357 14.4393C77.6357 14.6393 77.7157 14.8193 77.8757 14.9793C78.0357 15.1393 78.2657 15.2193 78.5657 15.2193C78.7657 15.2193 78.9591 15.1826 79.1457 15.1093C79.3391 15.036 79.4991 14.9393 79.6257 14.8193ZM87.3379 16.0993H85.9979V13.1593C85.9979 12.7393 85.9246 12.4326 85.7779 12.2393C85.6312 12.046 85.4279 11.9493 85.1679 11.9493C84.9879 11.9493 84.8046 11.996 84.6179 12.0893C84.4379 12.1826 84.2746 12.3126 84.1279 12.4793C83.9812 12.6393 83.8746 12.826 83.8079 13.0393V16.0993H82.4679V10.8593H83.6779V11.8293C83.8712 11.5026 84.1512 11.246 84.5179 11.0593C84.8846 10.866 85.2979 10.7693 85.7579 10.7693C86.0846 10.7693 86.3512 10.8293 86.5579 10.9493C86.7646 11.0626 86.9246 11.2193 87.0379 11.4193C87.1512 11.6126 87.2279 11.8326 87.2679 12.0793C87.3146 12.326 87.3379 12.576 87.3379 12.8293V16.0993ZM90.9331 16.1993C90.3664 16.1993 89.8764 16.076 89.4631 15.8293C89.0564 15.5826 88.7397 15.256 88.5131 14.8493C88.2864 14.436 88.1731 13.9893 88.1731 13.5093C88.1731 13.016 88.2831 12.5626 88.5031 12.1493C88.7297 11.7293 89.0497 11.396 89.4631 11.1493C89.8764 10.896 90.3697 10.7693 90.9431 10.7693C91.5164 10.7693 92.0064 10.896 92.4131 11.1493C92.8197 11.396 93.1297 11.726 93.3431 12.1393C93.5631 12.546 93.6731 12.986 93.6731 13.4593C93.6731 13.6326 93.6631 13.7826 93.6431 13.9093H89.5931C89.6264 14.316 89.7764 14.636 90.0431 14.8693C90.3164 15.1026 90.6297 15.2193 90.9831 15.2193C91.2497 15.2193 91.4997 15.156 91.7331 15.0293C91.9731 14.896 92.1364 14.7226 92.2231 14.5093L93.3731 14.8293C93.1797 15.2293 92.8697 15.5593 92.4431 15.8193C92.0164 16.0726 91.5131 16.1993 90.9331 16.1993ZM89.5631 13.0593H92.3031C92.2631 12.666 92.1131 12.3493 91.8531 12.1093C91.5997 11.8626 91.2897 11.7393 90.9231 11.7393C90.5631 11.7393 90.2531 11.8626 89.9931 12.1093C89.7397 12.3493 89.5964 12.666 89.5631 13.0593ZM96.4194 16.1993C95.9727 16.1993 95.5461 16.126 95.1394 15.9793C94.7327 15.8326 94.3827 15.616 94.0894 15.3293L94.5694 14.4593C94.8827 14.7126 95.1894 14.8993 95.4894 15.0193C95.7894 15.1393 96.0827 15.1993 96.3694 15.1993C96.6294 15.1993 96.8361 15.1526 96.9894 15.0593C97.1494 14.966 97.2294 14.826 97.2294 14.6393C97.2294 14.446 97.1327 14.316 96.9394 14.2493C96.7461 14.176 96.4761 14.086 96.1294 13.9793C95.7427 13.8593 95.4194 13.736 95.1594 13.6093C94.8994 13.4826 94.7027 13.3293 94.5694 13.1493C94.4427 12.9693 94.3794 12.736 94.3794 12.4493C94.3794 11.936 94.5727 11.526 94.9594 11.2193C95.3461 10.9126 95.8594 10.7593 96.4994 10.7593C96.8727 10.7593 97.2261 10.8193 97.5594 10.9393C97.8927 11.0526 98.1961 11.2393 98.4694 11.4993L97.9294 12.3493C97.4161 11.9493 96.9194 11.7493 96.4394 11.7493C96.2261 11.7493 96.0361 11.7893 95.8694 11.8693C95.7094 11.9493 95.6294 12.0893 95.6294 12.2893C95.6294 12.476 95.7061 12.6093 95.8594 12.6893C96.0194 12.7693 96.2594 12.856 96.5794 12.9493C96.9927 13.076 97.3427 13.1993 97.6294 13.3193C97.9227 13.4393 98.1427 13.5926 98.2894 13.7793C98.4427 13.966 98.5194 14.2193 98.5194 14.5393C98.5194 15.0593 98.3294 15.466 97.9494 15.7593C97.5694 16.0526 97.0594 16.1993 96.4194 16.1993ZM101.861 16.1993C101.294 16.1993 100.804 16.076 100.391 15.8293C99.9841 15.5826 99.6675 15.256 99.4408 14.8493C99.2141 14.436 99.1008 13.9893 99.1008 13.5093C99.1008 13.016 99.2108 12.5626 99.4308 12.1493C99.6575 11.7293 99.9775 11.396 100.391 11.1493C100.804 10.896 101.297 10.7693 101.871 10.7693C102.444 10.7693 102.934 10.896 103.341 11.1493C103.747 11.396 104.057 11.726 104.271 12.1393C104.491 12.546 104.601 12.986 104.601 13.4593C104.601 13.6326 104.591 13.7826 104.571 13.9093H100.521C100.554 14.316 100.704 14.636 100.971 14.8693C101.244 15.1026 101.557 15.2193 101.911 15.2193C102.177 15.2193 102.427 15.156 102.661 15.0293C102.901 14.896 103.064 14.7226 103.151 14.5093L104.301 14.8293C104.107 15.2293 103.797 15.5593 103.371 15.8193C102.944 16.0726 102.441 16.1993 101.861 16.1993ZM100.491 13.0593H103.231C103.191 12.666 103.041 12.3493 102.781 12.1093C102.527 11.8626 102.217 11.7393 101.851 11.7393C101.491 11.7393 101.181 11.8626 100.921 12.1093C100.667 12.3493 100.524 12.666 100.491 13.0593ZM58.7307 28.0993V20.9993H61.8707C62.1974 20.9993 62.4974 21.066 62.7707 21.1993C63.0507 21.3326 63.2907 21.5126 63.4907 21.7393C63.6974 21.966 63.8541 22.2193 63.9607 22.4993C64.0741 22.7793 64.1307 23.066 64.1307 23.3593C64.1307 23.8126 64.0141 24.2293 63.7807 24.6093C63.5541 24.9893 63.2441 25.2626 62.8507 25.4293L64.4707 28.0993H62.9507L61.4907 25.7193H60.1107V28.0993H58.7307ZM60.1107 24.5093H61.8407C62.1007 24.5093 62.3141 24.3993 62.4807 24.1793C62.6541 23.9526 62.7407 23.6793 62.7407 23.3593C62.7407 23.1393 62.6941 22.9426 62.6007 22.7693C62.5074 22.596 62.3874 22.4593 62.2407 22.3593C62.1007 22.2593 61.9474 22.2093 61.7807 22.2093H60.1107V24.5093ZM67.5053 28.1993C66.9387 28.1993 66.4487 28.076 66.0353 27.8293C65.6287 27.5826 65.312 27.256 65.0853 26.8493C64.8587 26.436 64.7453 25.9893 64.7453 25.5093C64.7453 25.016 64.8553 24.5626 65.0753 24.1493C65.302 23.7293 65.622 23.396 66.0353 23.1493C66.4487 22.896 66.942 22.7693 67.5153 22.7693C68.0887 22.7693 68.5787 22.896 68.9853 23.1493C69.392 23.396 69.702 23.726 69.9153 24.1393C70.1353 24.546 70.2453 24.986 70.2453 25.4593C70.2453 25.6326 70.2353 25.7826 70.2153 25.9093H66.1653C66.1987 26.316 66.3487 26.636 66.6153 26.8693C66.8887 27.1026 67.202 27.2193 67.5553 27.2193C67.822 27.2193 68.072 27.156 68.3053 27.0293C68.5453 26.896 68.7087 26.7226 68.7953 26.5093L69.9453 26.8293C69.752 27.2293 69.442 27.5593 69.0153 27.8193C68.5887 28.0726 68.0853 28.1993 67.5053 28.1993ZM66.1353 25.0593H68.8753C68.8353 24.666 68.6853 24.3493 68.4253 24.1093C68.172 23.8626 67.862 23.7393 67.4953 23.7393C67.1353 23.7393 66.8253 23.8626 66.5653 24.1093C66.312 24.3493 66.1687 24.666 66.1353 25.0593ZM71.0517 20.7993H72.3917V26.4193C72.3917 26.666 72.4317 26.8293 72.5117 26.9093C72.5917 26.9893 72.7017 27.0293 72.8417 27.0293C72.9483 27.0293 73.0583 27.016 73.1717 26.9893C73.285 26.9626 73.385 26.9293 73.4717 26.8893L73.6517 27.9093C73.4717 27.996 73.2617 28.0626 73.0217 28.1093C72.7817 28.156 72.565 28.1793 72.3717 28.1793C71.9517 28.1793 71.625 28.0693 71.3917 27.8493C71.165 27.6226 71.0517 27.3026 71.0517 26.8893V20.7993ZM74.2355 22.1293V20.7993H75.5755V22.1293H74.2355ZM74.2355 28.0993V22.8593H75.5755V28.0993H74.2355ZM79.2143 28.1993C78.6476 28.1993 78.1576 28.076 77.7443 27.8293C77.3376 27.5826 77.021 27.256 76.7943 26.8493C76.5676 26.436 76.4543 25.9893 76.4543 25.5093C76.4543 25.016 76.5643 24.5626 76.7843 24.1493C77.011 23.7293 77.331 23.396 77.7443 23.1493C78.1576 22.896 78.651 22.7693 79.2243 22.7693C79.7976 22.7693 80.2877 22.896 80.6943 23.1493C81.101 23.396 81.411 23.726 81.6243 24.1393C81.8443 24.546 81.9543 24.986 81.9543 25.4593C81.9543 25.6326 81.9443 25.7826 81.9243 25.9093H77.8743C77.9076 26.316 78.0576 26.636 78.3243 26.8693C78.5976 27.1026 78.911 27.2193 79.2643 27.2193C79.531 27.2193 79.781 27.156 80.0143 27.0293C80.2543 26.896 80.4176 26.7226 80.5043 26.5093L81.6543 26.8293C81.461 27.2293 81.151 27.5593 80.7243 27.8193C80.2976 28.0726 79.7943 28.1993 79.2143 28.1993ZM77.8443 25.0593H80.5843C80.5443 24.666 80.3943 24.3493 80.1343 24.1093C79.881 23.8626 79.571 23.7393 79.2043 23.7393C78.8443 23.7393 78.5343 23.8626 78.2743 24.1093C78.021 24.3493 77.8776 24.666 77.8443 25.0593ZM83.0613 28.0993V24.1593H82.3713V23.1393H83.0613V22.8193C83.0613 22.1726 83.218 21.6593 83.5313 21.2793C83.8513 20.8926 84.278 20.6993 84.8113 20.6993C85.238 20.6993 85.668 20.8026 86.1013 21.0093L85.8313 22.0193C85.7313 21.966 85.6113 21.9226 85.4713 21.8893C85.338 21.8493 85.2147 21.8293 85.1013 21.8293C84.6347 21.8293 84.4013 22.1426 84.4013 22.7693V23.1393H85.6813V24.1593H84.4013V28.0993H83.0613ZM60.1107 35.5393V40.0993H58.7307V32.9993H59.8307L63.5007 37.6793V33.0093H64.8807V40.0993H63.7307L60.1107 35.5393ZM68.5698 40.1993C68.0031 40.1993 67.5131 40.076 67.0998 39.8293C66.6931 39.5826 66.3765 39.256 66.1498 38.8493C65.9231 38.436 65.8098 37.9893 65.8098 37.5093C65.8098 37.016 65.9198 36.5626 66.1398 36.1493C66.3665 35.7293 66.6865 35.396 67.0998 35.1493C67.5131 34.896 68.0065 34.7693 68.5798 34.7693C69.1531 34.7693 69.6431 34.896 70.0498 35.1493C70.4565 35.396 70.7665 35.726 70.9798 36.1393C71.1998 36.546 71.3098 36.986 71.3098 37.4593C71.3098 37.6326 71.2998 37.7826 71.2798 37.9093H67.2298C67.2631 38.316 67.4131 38.636 67.6798 38.8693C67.9531 39.1026 68.2665 39.2193 68.6198 39.2193C68.8865 39.2193 69.1365 39.156 69.3698 39.0293C69.6098 38.896 69.7731 38.7226 69.8598 38.5093L71.0098 38.8293C70.8165 39.2293 70.5065 39.5593 70.0798 39.8193C69.6531 40.0726 69.1498 40.1993 68.5698 40.1993ZM67.1998 37.0593H69.9398C69.8998 36.666 69.7498 36.3493 69.4898 36.1093C69.2365 35.8626 68.9265 35.7393 68.5598 35.7393C68.1998 35.7393 67.8898 35.8626 67.6298 36.1093C67.3765 36.3493 67.2331 36.666 67.1998 37.0593ZM75.2173 39.8293C75.0373 39.9093 74.814 39.9893 74.5473 40.0693C74.2873 40.1493 74.0173 40.1893 73.7373 40.1893C73.4906 40.1893 73.264 40.146 73.0573 40.0593C72.8506 39.9726 72.684 39.836 72.5573 39.6493C72.4373 39.456 72.3773 39.206 72.3773 38.8993V35.8893H71.6873V34.8593H72.3773V33.1593H73.7173V34.8593H74.8173V35.8893H73.7173V38.4493C73.7173 38.6293 73.764 38.7593 73.8573 38.8393C73.9573 38.9193 74.0773 38.9593 74.2173 38.9593C74.3573 38.9593 74.494 38.936 74.6273 38.8893C74.7606 38.8426 74.8673 38.8026 74.9473 38.7693L75.2173 39.8293ZM82.3956 34.8593H83.6656L81.4756 40.0993H80.3556L79.4756 37.8493L78.6156 40.0993H77.4856L75.3056 34.8593H76.5656L78.1256 38.8193L78.7356 37.1093L77.8256 34.8693H78.9356L79.4756 36.4693L80.0256 34.8693H81.1356L80.2256 37.1093L80.8456 38.8193L82.3956 34.8593ZM86.5285 40.1993C85.9552 40.1993 85.4619 40.076 85.0485 39.8293C84.6419 39.576 84.3285 39.2426 84.1085 38.8293C83.8885 38.416 83.7785 37.9693 83.7785 37.4893C83.7785 37.0026 83.8885 36.5526 84.1085 36.1393C84.3352 35.726 84.6519 35.396 85.0585 35.1493C85.4719 34.896 85.9619 34.7693 86.5285 34.7693C87.0952 34.7693 87.5819 34.896 87.9885 35.1493C88.4019 35.396 88.7185 35.726 88.9385 36.1393C89.1585 36.5526 89.2685 37.0026 89.2685 37.4893C89.2685 37.9693 89.1585 38.416 88.9385 38.8293C88.7185 39.2426 88.4019 39.576 87.9885 39.8293C87.5819 40.076 87.0952 40.1993 86.5285 40.1993ZM85.1585 37.4893C85.1585 37.796 85.2185 38.0693 85.3385 38.3093C85.4585 38.5426 85.6219 38.726 85.8285 38.8593C86.0352 38.9926 86.2685 39.0593 86.5285 39.0593C86.7819 39.0593 87.0119 38.9926 87.2185 38.8593C87.4252 38.7193 87.5885 38.5326 87.7085 38.2993C87.8352 38.0593 87.8985 37.786 87.8985 37.4793C87.8985 37.1793 87.8352 36.9126 87.7085 36.6793C87.5885 36.4393 87.4252 36.2526 87.2185 36.1193C87.0119 35.9793 86.7819 35.9093 86.5285 35.9093C86.2685 35.9093 86.0352 35.9793 85.8285 36.1193C85.6219 36.2526 85.4585 36.4393 85.3385 36.6793C85.2185 36.9126 85.1585 37.1826 85.1585 37.4893ZM93.293 36.0193C92.8863 36.0193 92.523 36.0993 92.203 36.2593C91.883 36.4126 91.653 36.636 91.513 36.9293V40.0993H90.173V34.8593H91.403V35.9793C91.583 35.6193 91.8163 35.336 92.103 35.1293C92.3963 34.9226 92.703 34.8093 93.023 34.7893C93.163 34.7893 93.253 34.7926 93.293 34.7993V36.0193ZM97.6202 40.0993L96.0902 37.8393L95.3802 38.5393V40.0993H94.0402V32.7993H95.3802V37.2193L97.4902 34.8693H98.9102L96.9602 37.0893L99.0502 40.0993H97.6202Z" fill="#0E4BA2"/>
<path d="M34.8965 3.62463C37.0812 4.51837 39.1666 5.75968 41.103 7.39821C43.1388 9.13605 44.8766 11.2215 46.1676 13.5551C54.8567 29.2453 41.3513 51.6882 23.6254 50.0497C11.7088 48.9573 -0.803632 37.5372 0.0404595 25.6207C1.08316 10.6753 21.0434 -2.03575 34.8965 3.62463Z" fill="#FBEDE4"/>
<path d="M19 17.275H22.1625V23.6459C22.1625 24.15 22.2542 24.4709 22.3917 24.6542C22.5292 24.8375 22.85 24.8834 23.3542 24.8834H23.9958V28H22.7125C21.5667 28 20.65 27.6792 20.0083 26.9917C19.3667 26.3042 19.0458 25.3875 19.0458 24.1959V17.275H19Z" fill="#0E4BA2"/>
<path d="M28.2587 20.1625V28H25.0962V17.275H29.1754C30.4129 17.275 31.3754 17.5959 32.0629 18.1917C32.842 18.8792 33.2087 19.75 33.2087 20.8042C33.2087 21.9042 32.7504 22.775 31.7879 23.5542L33.6212 27.9542H30.2754L28.717 24.5167V21.7667H28.9462C29.6337 21.7667 29.9545 21.4917 29.9545 20.8959C29.9545 20.3917 29.5879 20.1167 28.8087 20.1167H28.2587V20.1625Z" fill="#0E4BA2"/>
<path d="M34.4458 28V21.0333C34.4458 19.7958 34.8125 18.8333 35.5458 18.1C36.2791 17.3667 37.2416 17 38.4333 17C39.625 17 40.5416 17.3667 41.1833 18.0542C41.825 18.7417 42.1458 19.7958 42.1458 21.125V27.9542H38.9833V21.1708C38.9833 20.5292 38.7541 20.2083 38.2958 20.2083C37.8375 20.2083 37.6083 20.5292 37.6083 21.1708V28H34.4458Z" fill="#0E4BA2"/>
<path d="M35.5351 4.81629C35.3365 5.0149 34.691 4.91559 34.2441 4.66733C33.9462 4.51837 33.5986 4.36941 33.3007 4.27011C32.9531 4.1708 32.6552 4.02185 32.3573 3.87289C32.2083 3.82324 31.9104 3.67428 32.0097 3.87289C32.258 4.31976 31.5132 4.1708 31.3146 4.31976C31.0167 4.66733 30.7188 4.36941 30.3712 4.27011C30.0733 4.22046 29.7257 4.12115 29.4278 4.27011C29.2292 4.36941 28.9809 4.36941 28.832 4.31976C28.6334 4.27011 28.4844 4.22046 28.2858 4.22046C28.1369 4.22046 27.9382 4.27011 27.7893 4.31976C27.4914 4.41907 27.2431 4.61768 26.9452 4.71698C26.7466 4.81629 26.548 4.86594 26.399 4.91559C26.2004 4.96524 26.0018 5.0149 25.8032 5.06455C24.0157 5.36246 22.3275 6.20655 20.7386 7.1996C19.6463 7.89474 18.6532 8.78848 17.6602 9.68223C17.3126 10.0298 16.9154 10.0794 16.6671 10.4767L16.3692 10.7746C16.1706 11.1221 16.0217 11.4201 15.8727 11.7676C15.6741 12.0655 15.4258 12.3635 15.0783 12.5621C14.979 12.9593 14.681 13.2075 14.4328 13.5055C14.1845 13.8034 13.9363 14.1013 13.8866 14.4985C13.8866 14.6475 13.7873 14.7964 13.7376 14.8957C12.9929 16.0874 12.546 17.3784 12.2977 18.719C12.2481 18.9672 12.1488 19.2155 11.9998 19.3645C11.7515 20.5561 11.9005 21.7478 11.7019 22.8898C11.6522 23.287 11.6522 23.6842 11.6522 24.0814C11.7019 24.4787 11.7515 24.8759 11.8509 25.2731C11.9998 25.9682 12.0991 26.713 12.2977 27.4081C12.397 27.855 12.546 28.2522 12.7446 28.6991C12.9432 29.146 13.1915 29.5929 13.3901 29.9901C13.6383 30.4369 13.7873 30.8342 13.9363 31.2314C14.1845 32.0258 14.4328 32.6217 15.0783 33.1182C15.1279 33.1678 15.3265 33.3664 15.3265 33.565C15.3265 33.7637 15.4755 34.0119 15.6244 34.1112C16.5678 34.856 17.263 35.998 18.2064 36.5442C19.4477 37.289 20.3414 38.282 21.6324 38.8779C22.4765 39.2751 23.3702 39.6723 24.264 40.0695C25.6046 40.715 27.0445 41.0626 28.5341 41.1122C29.6761 41.1619 30.9174 41.3605 32.109 41.3108C32.407 41.3108 32.7545 41.3108 33.0028 41.4101H33.0524C33.3007 41.3108 33.549 41.2115 33.7972 41.2115C34.8399 41.1619 35.8826 40.8143 36.8757 40.4667C37.8687 40.0695 38.7625 39.6226 39.8052 39.2254C40.3513 39.0268 40.5996 38.5799 41.0961 38.282C42.0395 37.6365 42.9333 36.9911 43.7774 36.1966C44.6215 35.4022 45.3166 34.5581 45.9124 33.565C46.0614 33.3168 46.26 33.0685 46.4586 32.8203C46.6572 32.572 46.8558 32.3237 47.1041 32.1251C47.2034 32.0755 47.3027 32.0258 47.3027 31.9265C47.3027 31.4796 47.4516 31.1321 47.6503 30.7349C47.8489 30.3376 48.0475 29.9901 48.2461 29.5929C49.4377 26.713 49.9343 23.5353 49.5867 20.4568C49.3881 18.7686 48.9909 17.1301 48.4447 15.5909C48.3454 15.3923 48.2957 15.144 48.2461 14.8957C48.1964 14.6475 48.1468 14.4489 48.0971 14.2006C47.6999 13.5055 47.6503 13.5055 48.2461 13.6544C47.5509 12.3138 46.8558 11.0725 46.4089 9.68223C46.3593 9.48361 46.3096 9.28501 46.4089 9.23535C46.4089 9.13605 46.3593 9.03674 46.3593 8.98709C46.4089 8.29196 46.5083 8.2423 47.2034 8.93744C47.3523 9.0864 47.5013 9.38431 47.551 9.23535C47.6503 9.0864 47.3523 8.98709 47.253 8.83813C46.9551 8.49057 46.9055 8.143 46.7069 7.84509C46.5579 7.49752 46.26 7.24926 46.0117 6.95134C45.7635 6.65343 45.5152 6.35551 45.3166 6.0576C45.118 5.75968 44.8201 5.46177 45.0187 5.31281C45.2173 5.16385 45.5152 5.1142 46.0614 5.56107C46.5083 5.95829 47.0048 6.30586 47.253 6.85204C47.3027 6.90169 47.402 7.05065 47.5013 7.1003C47.7496 7.29891 47.9482 7.54717 48.1964 7.79543C48.395 8.04369 48.5937 8.34161 48.8916 8.54022C49.1398 8.73883 49.2888 8.88779 49.4874 8.78848C49.835 8.58987 50.2322 8.88779 50.7287 9.68223C51.4238 10.8739 51.97 12.0655 52.4665 13.3565C52.9134 14.6475 53.3106 15.9384 53.5092 17.279C53.6086 17.7756 53.6582 18.3218 53.7079 18.8183C53.7575 19.3645 53.7575 19.861 53.7079 20.3575C53.6582 20.9533 53.8568 21.5988 53.8568 22.2443C53.8568 25.6703 52.9134 28.997 51.4735 32.0755C50.1825 34.9057 48.2461 37.4876 45.9124 39.573C44.5718 40.7646 43.0822 41.9563 41.4437 42.8004C38.4149 44.4389 34.8399 45.4816 31.3643 45.3327C30.8677 45.3327 30.3712 45.3327 29.825 45.3327C29.3285 45.3327 28.7823 45.3327 28.2858 45.2334C26.6969 44.9851 25.1081 44.5382 23.6185 44.0417C21.5331 43.4459 19.547 42.4528 17.8091 41.2115C16.1706 40.0695 14.6314 38.8282 13.2908 37.3386C12.3474 36.2463 11.404 35.1539 10.6095 33.9126C10.3613 33.5154 10.113 33.1182 9.91441 32.721C9.7158 32.3237 9.56684 31.8769 9.41788 31.43C9.21927 30.7349 8.7724 30.0397 8.52414 29.3446C8.37518 28.8977 8.17657 28.5005 8.02762 28.0536C7.87866 27.6068 7.82901 27.1599 7.97796 26.713C7.82901 26.4647 7.77935 26.1668 7.7297 25.9186C7.68005 25.6207 7.68005 25.3724 7.58074 25.1241C7.43179 24.6773 7.43179 24.2304 7.43179 23.7835C7.43179 23.3366 7.43179 22.8898 7.43179 22.4926C7.38213 21.996 7.6304 22.0953 7.7297 21.8967C7.77935 21.6981 8.07727 21.4995 7.7297 21.1519C7.38213 20.854 7.48144 19.9106 7.92831 19.3645C8.07727 19.1162 8.12692 18.9176 8.07727 18.6693C7.92831 18.2721 7.97796 17.9245 8.27588 17.5273C8.37518 17.3784 8.47449 17.1797 8.42483 17.0308C8.27588 16.5839 8.42483 16.137 8.57379 15.7398C8.7724 15.293 8.97101 14.8957 9.07032 14.4489C9.11997 14.2502 9.26893 14.1013 9.36823 14.1509C9.61649 14.2006 9.7158 13.9523 9.7158 13.6544C9.7158 13.0089 10.0634 12.3635 10.4606 11.8173C11.6026 10.0298 12.7942 8.29196 14.3335 6.85204C16.4189 4.91559 18.6532 3.17776 21.2848 1.9861C22.7247 1.34062 24.264 0.695134 25.9025 0.297915C26.4983 0.148957 27.0941 0.0496524 27.69 0C27.9879 0 28.2858 0 28.5837 0C28.8816 0 29.1796 0.0496524 29.4775 0.0993049C30.7684 0.297915 32.1587 0.39722 33.4497 0.695134C33.9462 0.844091 34.3434 0.943396 34.6413 1.24131C34.9392 1.48957 35.0882 1.78749 34.8896 1.93645C34.691 2.0854 34.2938 2.18471 33.7972 2.03575C32.8538 1.78749 32.0097 1.73784 31.116 1.83714C30.9174 1.83714 30.7188 1.83714 30.4705 1.83714C30.2719 1.83714 30.0236 1.83714 29.7754 1.83714C29.3285 1.78749 28.832 1.78749 28.3355 1.83714C27.541 1.88679 26.7466 1.9861 25.9521 2.13505C25.8528 2.13505 25.7039 2.18471 25.6046 2.23436C25.4556 2.43297 25.257 2.58193 25.3067 2.68123C25.3563 2.78054 25.6046 2.68123 25.7039 2.63158C27.6403 2.13505 29.6264 2.18471 31.4636 2.53227C32.5559 2.78054 33.549 3.07845 34.542 3.57498C34.7406 3.62463 34.8896 3.77359 35.0385 3.87289C35.5351 4.22046 35.833 4.51837 35.5351 4.81629ZM47.6999 7.29891C47.6999 7.24926 47.6503 7.1996 47.6006 7.14995C47.6006 7.1996 47.6006 7.24926 47.6006 7.29891C47.6503 7.34856 47.6999 7.34856 47.6999 7.29891ZM48.2461 13.7537C48.2461 13.7041 48.2461 13.7041 48.2461 13.7537V13.7537Z" fill="#0E4BA2"/>
</svg>
