<svg width="20" height="20" viewBox="0 0 20 20" fill="none" xmlns="http://www.w3.org/2000/svg">
<path d="M15.1426 4.86135C14.4773 4.19379 13.6877 3.66297 12.8184 3.29885C11.9268 2.92423 10.9691 2.7323 10.002 2.73439H9.96881C8.02154 2.7422 6.19928 3.50392 4.836 4.88088C3.47076 6.25783 2.72662 8.08596 2.73444 10.0332C2.7403 11.211 3.03326 12.3809 3.58405 13.4141L3.67194 13.5781V16.3281H6.42194L6.586 16.416C7.6192 16.9668 8.78912 17.2598 9.96686 17.2656H10.0001C11.9337 17.2656 13.7501 16.5195 15.1192 15.1641C16.4942 13.8008 17.2579 11.9785 17.2696 10.0332C17.2735 9.04494 17.084 8.08791 16.7051 7.18556C16.3408 6.31638 15.81 5.52683 15.1426 4.86135ZM6.09381 10.9375C5.84848 10.9325 5.61489 10.8315 5.44317 10.6563C5.27144 10.481 5.17525 10.2454 5.17525 10C5.17525 9.75464 5.27144 9.51904 5.44317 9.34377C5.61489 9.1685 5.84848 9.06753 6.09381 9.06252C6.33914 9.06753 6.57273 9.1685 6.74446 9.34377C6.91618 9.51904 7.01237 9.75464 7.01237 10C7.01237 10.2454 6.91618 10.481 6.74446 10.6563C6.57273 10.8315 6.33914 10.9325 6.09381 10.9375ZM10.0001 10.9375C9.75473 10.9325 9.52114 10.8315 9.34942 10.6563C9.17769 10.481 9.0815 10.2454 9.0815 10C9.0815 9.75464 9.17769 9.51904 9.34942 9.34377C9.52114 9.1685 9.75473 9.06753 10.0001 9.06252C10.2454 9.06753 10.479 9.1685 10.6507 9.34377C10.8224 9.51904 10.9186 9.75464 10.9186 10C10.9186 10.2454 10.8224 10.481 10.6507 10.6563C10.479 10.8315 10.2454 10.9325 10.0001 10.9375ZM13.9063 10.9375C13.661 10.9325 13.4274 10.8315 13.2557 10.6563C13.0839 10.481 12.9878 10.2454 12.9878 10C12.9878 9.75464 13.0839 9.51904 13.2557 9.34377C13.4274 9.1685 13.661 9.06753 13.9063 9.06252C14.1516 9.06753 14.3852 9.1685 14.557 9.34377C14.7287 9.51904 14.8249 9.75464 14.8249 10C14.8249 10.2454 14.7287 10.481 14.557 10.6563C14.3852 10.8315 14.1516 10.9325 13.9063 10.9375Z" fill="#BAE7FF"/>
<path d="M12.9688 10C12.9688 10.2486 13.0675 10.4871 13.2433 10.6629C13.4192 10.8387 13.6576 10.9375 13.9062 10.9375C14.1549 10.9375 14.3933 10.8387 14.5692 10.6629C14.745 10.4871 14.8438 10.2486 14.8438 10C14.8438 9.75136 14.745 9.5129 14.5692 9.33709C14.3933 9.16127 14.1549 9.0625 13.9062 9.0625C13.6576 9.0625 13.4192 9.16127 13.2433 9.33709C13.0675 9.5129 12.9688 9.75136 12.9688 10ZM5.15625 10C5.15625 10.2486 5.25502 10.4871 5.43084 10.6629C5.60665 10.8387 5.84511 10.9375 6.09375 10.9375C6.34239 10.9375 6.58085 10.8387 6.75666 10.6629C6.93248 10.4871 7.03125 10.2486 7.03125 10C7.03125 9.75136 6.93248 9.5129 6.75666 9.33709C6.58085 9.16127 6.34239 9.0625 6.09375 9.0625C5.84511 9.0625 5.60665 9.16127 5.43084 9.33709C5.25502 9.5129 5.15625 9.75136 5.15625 10Z" fill="#003A8C"/>
<path d="M18.0704 6.60938C17.629 5.56055 16.9962 4.61914 16.1896 3.81055C15.3886 3.00663 14.4377 2.36762 13.3907 1.92969C12.3165 1.47852 11.1759 1.25 10.0001 1.25H9.96105C8.77746 1.25586 7.63097 1.49023 6.55285 1.95117C5.51487 2.3936 4.57289 3.03374 3.77941 3.83594C2.98058 4.64258 2.35363 5.58008 1.92003 6.625C1.47081 7.70703 1.24425 8.85742 1.25011 10.041C1.25674 11.3974 1.57763 12.7338 2.18761 13.9453V16.9141C2.18761 17.1523 2.28227 17.3809 2.45076 17.5494C2.61925 17.7178 2.84777 17.8125 3.08605 17.8125H6.05675C7.26826 18.4225 8.60466 18.7434 9.96105 18.75H10.0021C11.172 18.75 12.3068 18.5234 13.3751 18.0801C14.4168 17.6474 15.3641 17.0158 16.1642 16.2207C16.9708 15.4219 17.6056 14.4883 18.0489 13.4473C18.5099 12.3691 18.7443 11.2227 18.7501 10.0391C18.756 8.84961 18.5255 7.69531 18.0704 6.60938ZM15.1193 15.1641C13.7501 16.5195 11.9337 17.2656 10.0001 17.2656H9.96691C8.78917 17.2598 7.61925 16.9668 6.58605 16.416L6.42199 16.3281H3.67199V13.5781L3.5841 13.4141C3.03331 12.3809 2.74035 11.2109 2.73449 10.0332C2.72667 8.08594 3.47081 6.25781 4.83605 4.88086C6.19933 3.50391 8.0216 2.74219 9.96886 2.73438H10.0021C10.9786 2.73438 11.9259 2.92383 12.8185 3.29883C13.6896 3.66406 14.4708 4.18945 15.1427 4.86133C15.8126 5.53125 16.34 6.31445 16.7052 7.18555C17.0841 8.08789 17.2736 9.04492 17.2696 10.0332C17.2579 11.9785 16.4943 13.8008 15.1193 15.1641Z" fill="#003A8C"/>
<path d="M9.0625 10C9.0625 10.2486 9.16127 10.4871 9.33709 10.6629C9.5129 10.8387 9.75136 10.9375 10 10.9375C10.2486 10.9375 10.4871 10.8387 10.6629 10.6629C10.8387 10.4871 10.9375 10.2486 10.9375 10C10.9375 9.75136 10.8387 9.5129 10.6629 9.33709C10.4871 9.16127 10.2486 9.0625 10 9.0625C9.75136 9.0625 9.5129 9.16127 9.33709 9.33709C9.16127 9.5129 9.0625 9.75136 9.0625 10Z" fill="#003A8C"/>
</svg>
