<svg width="32" height="32" viewBox="0 0 32 32" fill="none" xmlns="http://www.w3.org/2000/svg">
  <g clip-path="url(#clip0)">
    <path d="M22.5712 14.8588H17.1426V9.43025C17.1426 9.2731 17.014 9.14453 16.8569 9.14453H15.1426C14.9854 9.14453 14.8569 9.2731 14.8569 9.43025V14.8588H9.42829C9.27115 14.8588 9.14258 14.9874 9.14258 15.1445V16.8588C9.14258 17.016 9.27115 17.1445 9.42829 17.1445H14.8569V22.5731C14.8569 22.7302 14.9854 22.8588 15.1426 22.8588H16.8569C17.014 22.8588 17.1426 22.7302 17.1426 22.5731V17.1445H22.5712C22.7283 17.1445 22.8569 17.016 22.8569 16.8588V15.1445C22.8569 14.9874 22.7283 14.8588 22.5712 14.8588Z" fill="#FAAD14" />
    <path d="M16 0C7.16429 0 0 7.16429 0 16C0 24.8357 7.16429 32 16 32C24.8357 32 32 24.8357 32 16C32 7.16429 24.8357 0 16 0ZM16 29.2857C8.66429 29.2857 2.71429 23.3357 2.71429 16C2.71429 8.66429 8.66429 2.71429 16 2.71429C23.3357 2.71429 29.2857 8.66429 29.2857 16C29.2857 23.3357 23.3357 29.2857 16 29.2857Z" fill="#FAAD14" />
  </g>
  <defs>
  <clipPath id="clip0">
  <rect width="32" height="32" fill="white"/>
  </clipPath>
  </defs>
  </svg>
