<svg width="14" height="14" viewBox="0 0 14 14" fill="none" xmlns="http://www.w3.org/2000/svg">
<path d="M13.2125 12.3506L9.15466 8.29274C9.78435 7.47868 10.125 6.48337 10.125 5.43649C10.125 4.18337 9.63591 3.00837 8.75153 2.12243C7.86716 1.23649 6.68903 0.748993 5.43747 0.748993C4.18591 0.748993 3.00778 1.23806 2.12341 2.12243C1.23747 3.00681 0.749969 4.18337 0.749969 5.43649C0.749969 6.68806 1.23903 7.86618 2.12341 8.75056C3.00778 9.63649 4.18435 10.124 5.43747 10.124C6.48434 10.124 7.4781 9.78337 8.29216 9.15524L12.35 13.2115C12.3619 13.2234 12.376 13.2328 12.3915 13.2393C12.4071 13.2457 12.4238 13.249 12.4406 13.249C12.4574 13.249 12.4741 13.2457 12.4896 13.2393C12.5052 13.2328 12.5193 13.2234 12.5312 13.2115L13.2125 12.5318C13.2244 12.5199 13.2338 12.5058 13.2403 12.4902C13.2467 12.4747 13.25 12.458 13.25 12.4412C13.25 12.4243 13.2467 12.4077 13.2403 12.3921C13.2338 12.3766 13.2244 12.3625 13.2125 12.3506ZM7.91247 7.91149C7.24997 8.57243 6.37185 8.93649 5.43747 8.93649C4.50309 8.93649 3.62497 8.57243 2.96247 7.91149C2.30153 7.24899 1.93747 6.37087 1.93747 5.43649C1.93747 4.50212 2.30153 3.62243 2.96247 2.96149C3.62497 2.30056 4.50309 1.93649 5.43747 1.93649C6.37185 1.93649 7.25153 2.29899 7.91247 2.96149C8.57341 3.62399 8.93747 4.50212 8.93747 5.43649C8.93747 6.37087 8.57341 7.25056 7.91247 7.91149Z" fill="black" fill-opacity="0.25"/>
</svg>
