<svg width="110" height="110" viewBox="0 0 110 110" fill="none" xmlns="http://www.w3.org/2000/svg">
<mask id="mask0_2246_49460" style="mask-type:alpha" maskUnits="userSpaceOnUse" x="0" y="0" width="110" height="110">
<circle cx="55" cy="55" r="55" fill="#FFF2E8"/>
</mask>
<g mask="url(#mask0_2246_49460)">
<circle cx="55" cy="55" r="55" fill="#FFF2E8"/>
<path d="M87.2538 91.206C85.4978 86.996 82.9496 83.1718 79.7512 79.9466C76.5624 76.7121 72.785 74.1332 68.6276 72.3524C68.5903 72.3335 68.5531 72.3241 68.5159 72.3053C74.315 68.0653 78.0849 61.1589 78.0849 53.3668C78.0849 40.4585 67.7526 30 55 30C42.2474 30 31.915 40.4585 31.915 53.3668C31.915 61.1589 35.685 68.0653 41.4841 72.3147C41.4469 72.3335 41.4097 72.343 41.3724 72.3618C37.2022 74.1426 33.4602 76.696 30.2488 79.956C27.0533 83.1837 24.5056 87.0073 22.7462 91.2155C21.0179 95.3353 20.0857 99.7523 20.0002 104.227C19.9977 104.328 20.0152 104.428 20.0515 104.522C20.0878 104.615 20.1423 104.701 20.2116 104.773C20.281 104.845 20.364 104.902 20.4556 104.941C20.5471 104.98 20.6455 105 20.7449 105H26.33C26.7395 105 27.0653 104.67 27.0747 104.265C27.2608 96.9912 30.1464 90.179 35.2475 85.0157C40.5254 79.6734 47.5346 76.7337 55 76.7337C62.4654 76.7337 69.4746 79.6734 74.7525 85.0157C79.8536 90.179 82.7392 96.9912 82.9253 104.265C82.9347 104.68 83.2604 105 83.67 105H89.2551C89.3545 105 89.4529 104.98 89.5444 104.941C89.636 104.902 89.7189 104.845 89.7883 104.773C89.8577 104.701 89.9122 104.615 89.9485 104.522C89.9848 104.428 90.0023 104.328 89.9998 104.227C89.9067 99.7236 88.9851 95.3423 87.2538 91.206ZM55 69.5729C50.7274 69.5729 46.7062 67.8863 43.6809 64.8241C40.6557 61.7619 38.9895 57.6916 38.9895 53.3668C38.9895 49.0421 40.6557 44.9717 43.6809 41.9095C46.7062 38.8474 50.7274 37.1608 55 37.1608C59.2726 37.1608 63.2938 38.8474 66.3191 41.9095C69.3443 44.9717 71.0105 49.0421 71.0105 53.3668C71.0105 57.6916 69.3443 61.7619 66.3191 64.8241C63.2938 67.8863 59.2726 69.5729 55 69.5729Z" fill="#002766"/>
</g>
</svg>
