<svg width="36" height="36" viewBox="0 0 36 36" fill="none" xmlns="http://www.w3.org/2000/svg">
<path d="M18 0C8.05982 0 0 8.05982 0 18C0 27.9402 8.05982 36 18 36C27.9402 36 36 27.9402 36 18C36 8.05982 27.9402 0 18 0ZM25.7746 12.1219L17.3129 23.854C17.1947 24.0191 17.0388 24.1536 16.8582 24.2464C16.6775 24.3392 16.4774 24.3876 16.2743 24.3876C16.0713 24.3876 15.8711 24.3392 15.6905 24.2464C15.5099 24.1536 15.354 24.0191 15.2357 23.854L10.2254 16.9112C10.0728 16.6982 10.2254 16.4009 10.4866 16.4009H12.371C12.7808 16.4009 13.1705 16.5978 13.4116 16.9353L16.2723 20.9049L22.5884 12.146C22.8295 11.8125 23.2152 11.6116 23.629 11.6116H25.5134C25.7746 11.6116 25.9272 11.9089 25.7746 12.1219Z" fill="#73D13D"/>
</svg>
