<svg width="36" height="36" viewBox="0 0 36 36" fill="none" xmlns="http://www.w3.org/2000/svg">
<path d="M18 2.25C9.30234 2.25 2.25 9.30234 2.25 18C2.25 26.6977 9.30234 33.75 18 33.75C26.6977 33.75 33.75 26.6977 33.75 18C33.75 9.30234 26.6977 2.25 18 2.25ZM18 31.0781C10.7789 31.0781 4.92188 25.2211 4.92188 18C4.92188 10.7789 10.7789 4.92188 18 4.92188C25.2211 4.92188 31.0781 10.7789 31.0781 18C31.0781 25.2211 25.2211 31.0781 18 31.0781Z" fill="#389E0D"/>
<path d="M24.5743 12.4102H22.9254C22.5669 12.4102 22.2258 12.5824 22.0149 12.8777L16.4883 20.5418L13.9852 17.0684C13.7743 16.7766 13.4368 16.6008 13.0746 16.6008H11.4258C11.1973 16.6008 11.0637 16.8609 11.1973 17.0473L15.5778 23.1223C15.6813 23.2667 15.8177 23.3844 15.9757 23.4656C16.1338 23.5468 16.3089 23.5891 16.4866 23.5891C16.6642 23.5891 16.8394 23.5468 16.9974 23.4656C17.1555 23.3844 17.2919 23.2667 17.3954 23.1223L24.7993 12.8566C24.9364 12.6703 24.8028 12.4102 24.5743 12.4102Z" fill="#389E0D"/>
</svg>
