<svg width="34" height="28" viewBox="0 0 34 28" fill="none" xmlns="http://www.w3.org/2000/svg">
<path d="M33.7136 3.64725C32.4841 4.17761 31.1462 4.55931 29.7681 4.70797C31.1989 3.85793 32.2703 2.51502 32.7815 0.931183C31.4388 1.72989 29.968 2.28996 28.4341 2.58654C27.7931 1.9012 27.0177 1.35523 26.1564 0.982641C25.2951 0.610056 24.3663 0.418842 23.4279 0.420915C19.631 0.420915 16.5774 3.49859 16.5774 7.27538C16.5774 7.80574 16.6417 8.33609 16.7462 8.84636C11.0609 8.54904 5.99038 5.83297 2.6194 1.67449C2.00517 2.72361 1.68329 3.91816 1.68726 5.13386C1.68726 7.51243 2.89663 9.60975 4.74083 10.8432C3.65401 10.8004 2.59265 10.5017 1.64306 9.97136V10.0557C1.64306 13.3865 3.99752 16.1468 7.13547 16.7816C6.54629 16.9347 5.94019 17.013 5.33145 17.0147C4.88547 17.0147 4.4636 16.9705 4.0377 16.9102C4.90556 19.6263 7.43279 21.599 10.4422 21.6633C8.0877 23.5075 5.1386 24.5923 1.93636 24.5923C1.36181 24.5923 0.831452 24.5723 0.281006 24.508C3.31851 26.4566 6.92252 27.5816 10.8038 27.5816C23.4038 27.5816 30.2984 17.1432 30.2984 8.08297C30.2984 7.78565 30.2984 7.48833 30.2783 7.191C31.6123 6.21466 32.7815 5.00529 33.7136 3.64725Z" fill="#002766"/>
</svg>
