<svg width="36" height="36" viewBox="0 0 36 36" fill="none" xmlns="http://www.w3.org/2000/svg">
<path d="M5 6C4.44772 6 4 6.33579 4 6.75V20.25C4 20.6642 4.44771 21 5 21H31C31.5523 21 32 20.6642 32 20.25V6.75C32 6.33579 31.5523 6 31 6H5Z" fill="#BAE7FF"/>
<path fill-rule="evenodd" clip-rule="evenodd" d="M14.7998 14.15C14.7998 12.3826 16.2325 10.95 17.9998 10.95C19.7671 10.95 21.1998 12.3826 21.1998 14.15C21.1998 15.9173 19.7671 17.35 17.9998 17.35C16.2325 17.35 14.7998 15.9173 14.7998 14.15Z" fill="white"/>
<path d="M12.7998 21.15C12.7998 18.2781 15.1279 15.95 17.9998 15.95C20.8717 15.95 23.1998 18.2781 23.1998 21.15H12.7998Z" fill="white"/>
<path fill-rule="evenodd" clip-rule="evenodd" d="M24 30.5H12V29.1H24V30.5Z" fill="#003A8C"/>
<path fill-rule="evenodd" clip-rule="evenodd" d="M5.4 6.9V24.6H30.6V6.9H5.4ZM5 5.5C4.44772 5.5 4 5.94772 4 6.5V25C4 25.5523 4.44771 26 5 26H31C31.5523 26 32 25.5523 32 25V6.5C32 5.94772 31.5523 5.5 31 5.5H5Z" fill="#003A8C"/>
<path fill-rule="evenodd" clip-rule="evenodd" d="M17.3 30V25.5H18.7V30H17.3Z" fill="#003A8C"/>
<path fill-rule="evenodd" clip-rule="evenodd" d="M31 21.7H5V20.3H31V21.7Z" fill="#003A8C"/>
<path fill-rule="evenodd" clip-rule="evenodd" d="M18 12.2C17.0059 12.2 16.2 13.0059 16.2 14C16.2 14.9941 17.0059 15.8 18 15.8C18.9941 15.8 19.8 14.9941 19.8 14C19.8 13.0059 18.9941 12.2 18 12.2ZM14.8 14C14.8 12.2327 16.2327 10.8 18 10.8C19.7673 10.8 21.2 12.2327 21.2 14C21.2 15.7673 19.7673 17.2 18 17.2C16.2327 17.2 14.8 15.7673 14.8 14Z" fill="#003A8C"/>
<path fill-rule="evenodd" clip-rule="evenodd" d="M18 17.2C15.9013 17.2 14.2 18.9013 14.2 21H12.8C12.8 18.1281 15.1281 15.8 18 15.8C20.8719 15.8 23.2 18.1281 23.2 21H21.8C21.8 18.9013 20.0987 17.2 18 17.2Z" fill="#003A8C"/>
</svg>
