<svg width="58" height="58" viewBox="0 0 58 58" fill="none" xmlns="http://www.w3.org/2000/svg">
<g clip-path="url(#clip0)">
<path d="M51.8909 34.601C48.503 46.1799 40.4835 54.4567 28.4328 54.9714C13.8519 55.6575 0 43.8212 0 31.7277C0 17.9187 14.538 2.13698 28.8616 3.8095C40.8266 5.18182 56.2652 19.677 51.8909 34.601Z" fill="#FFF2E8"/>
<path d="M38.4669 7.54069C38.2525 7.71223 37.5235 7.66934 37.0088 7.32626C36.8373 7.24049 36.6658 7.11184 36.4942 7.06895L35.9796 6.85453C35.6365 6.72587 35.2505 6.55433 34.9504 6.38279C34.8217 6.29702 34.4786 6.16837 34.5644 6.38279C34.7788 6.85453 33.964 6.68299 33.7925 6.85453C33.4494 7.15472 33.1492 6.76876 32.7632 6.72587C32.463 6.6401 32.0771 6.51145 31.734 6.6401C31.5196 6.68299 31.2194 6.72587 31.0478 6.6401C30.6619 6.46856 30.2759 6.46856 29.9328 6.55433C29.5897 6.6401 29.2895 6.85453 28.9893 6.9403C28.7749 7.02607 28.5605 7.06895 28.3889 7.11184C28.1745 7.15472 27.9601 7.24049 27.7457 7.24049C25.8158 7.45492 23.9718 8.26973 22.2135 9.29897L21.3129 9.89936L20.8841 10.1996L20.4552 10.5426L19.6404 11.2288C19.3831 11.4432 19.1258 11.7005 18.8256 11.9578C18.4396 12.3009 18.0108 12.3867 17.7106 12.7727L17.4104 13.0729C16.9815 13.759 16.7671 14.5309 15.9523 14.9598C15.7807 15.3458 15.5234 15.6888 15.2661 15.989C15.0088 16.2464 14.7086 16.5894 14.6657 17.0183C14.6657 17.1469 14.58 17.3614 14.4942 17.4471C14.2798 17.7473 14.1082 18.0904 13.8938 18.3906C13.7223 18.7337 13.5936 19.0768 13.465 19.4198C13.3363 19.7629 13.1648 20.106 13.079 20.492L12.8217 21.5641C12.7788 21.8214 12.6501 22.1216 12.4786 22.2503C12.3499 22.8935 12.3071 23.5368 12.2642 24.1801C12.2642 24.8234 12.1784 25.4666 12.0497 26.1099C11.9211 26.9676 11.964 27.8682 12.1355 28.683C12.2213 29.069 12.2213 29.4549 12.3071 29.8409C12.3928 30.2269 12.4357 30.6128 12.5215 30.9988C12.6073 31.5134 12.7788 31.9423 12.9503 32.414C13.0361 32.6284 13.1648 32.8857 13.2505 33.1431C13.3792 33.4004 13.5078 33.6148 13.5936 33.8721C13.7223 34.0865 13.808 34.3438 13.8938 34.5583C13.9796 34.7727 14.0653 35.03 14.1082 35.2015C14.3655 36.0592 14.5371 36.7454 15.309 37.26C15.3519 37.3029 15.5663 37.5602 15.5663 37.7318C15.5663 37.9462 15.695 38.2035 15.8665 38.375C16.3811 38.761 16.81 39.2756 17.2388 39.7902C17.7106 40.262 18.1394 40.7337 18.654 41.0768C19.3831 41.4627 19.8977 41.9345 20.4981 42.4062C20.7983 42.6206 21.0985 42.8351 21.3987 43.0495C21.6989 43.2639 21.9991 43.4783 22.3422 43.607C22.8139 43.8214 23.2856 44.0359 23.7574 44.2503C24.2291 44.4647 24.7437 44.6362 25.2155 44.8936L25.773 45.1509C25.9445 45.2366 26.1589 45.2795 26.3305 45.3224C26.7164 45.4511 27.1024 45.5368 27.4884 45.6655L27.7886 45.7513L28.0887 45.7941L28.6891 45.8799C29.0751 45.9228 29.504 45.9657 29.8899 46.0086C30.5332 46.0086 31.1765 46.0515 31.8197 46.1372C32.463 46.1372 33.1063 46.1801 33.7925 46.1801C34.1355 46.1372 34.4786 46.1372 34.7788 46.223C34.8217 46.223 34.8217 46.223 34.8646 46.2659C35.1219 46.1801 35.4221 46.0514 35.6794 46.0514C36.2369 45.9657 36.8373 45.8799 37.3948 45.7513C37.9523 45.6226 38.5098 45.3653 39.0244 45.1937L39.4533 45.0651L39.8392 44.8936C40.0966 44.7649 40.3539 44.6791 40.6112 44.5505C41.1687 44.3789 41.6404 44.0787 42.1979 43.8643C42.4981 43.7357 42.7125 43.607 42.927 43.4355C43.1414 43.2639 43.3129 43.0495 43.5702 42.878C45.5858 41.5485 47.4728 39.8331 48.6736 37.7318C48.9738 37.1314 49.4026 36.5739 49.9172 36.145C50.003 36.0592 50.0888 36.0592 50.0888 35.8877C50.0888 35.416 50.2174 34.9871 50.4319 34.6011C50.6463 34.1723 50.8607 33.7434 51.0322 33.3575C52.3188 30.184 52.7476 26.7532 52.233 23.4939C51.8899 21.7356 51.3753 20.0202 50.6463 18.4335C50.4319 18.0046 50.2603 17.49 50.1317 17.0183C49.8315 16.1606 49.7886 16.1606 50.4319 16.2892C50.1745 15.9462 49.9601 15.646 49.7457 15.3029C49.5313 14.9598 49.274 14.6596 49.1024 14.3165C48.7164 13.6304 48.2876 12.9871 47.9445 12.3009C47.8587 12.0865 47.8159 11.915 47.9016 11.7863C47.8587 11.7005 47.8159 11.6148 47.8159 11.529C47.773 11.143 47.773 10.9715 47.9016 10.9286C47.9445 10.9286 48.0732 10.9286 48.2018 11.0144C48.3305 11.1001 48.502 11.1859 48.7164 11.3575C48.888 11.4861 49.1024 11.7863 49.1453 11.6577C49.2311 11.4861 48.888 11.4003 48.7593 11.2717C48.5878 11.1001 48.4591 10.9286 48.3734 10.7571C48.2447 10.5855 48.1589 10.414 48.0303 10.2424C47.773 9.94225 47.5157 9.59917 47.2155 9.34186C46.9153 9.08455 46.5722 8.78435 46.3149 8.48416C46.0576 8.18396 45.7145 7.88377 45.9289 7.71223C46.1433 7.54069 46.4435 7.41203 47.0439 7.84088C47.5586 8.22685 48.2018 8.48416 48.502 9.08455C48.5449 9.17032 48.7164 9.25609 48.8022 9.34186C49.1024 9.5134 49.3597 9.72783 49.617 9.98514C49.8743 10.2424 50.1317 10.4998 50.4319 10.6713C50.732 10.8428 50.9036 11.0144 51.0751 10.8857C51.2467 10.7571 51.4611 10.7571 51.7184 10.8857C51.9757 11.0144 52.233 11.3146 52.5332 11.7005C54.3344 14.0592 55.6638 16.761 56.3929 19.6772C56.736 20.7922 56.8217 21.9501 56.8646 23.108C56.8217 23.7512 57.079 24.4374 57.1219 25.1664C57.2506 28.8974 56.2213 32.5855 54.7632 35.9306C53.4338 38.9754 51.4611 41.8916 48.9309 44.2074C48.5449 44.5505 48.1589 44.8507 47.773 45.1937C47.387 45.5368 47.001 45.8799 46.6151 46.1372L45.3714 46.9949L45.0712 47.2093L44.7281 47.3809L44.042 47.724C43.6131 47.9384 43.2272 48.1957 42.7554 48.3672L41.4689 48.9247L40.8256 49.1821L40.1394 49.3965L38.7671 49.8253C38.2954 49.954 37.8665 50.0398 37.3948 50.1255C36.9231 50.2113 36.4513 50.34 35.9796 50.3828L34.5644 50.5115C34.35 50.5115 34.0927 50.5544 33.8782 50.5544H33.1492C32.6346 50.5544 32.0771 50.5973 31.5196 50.5973C30.962 50.5973 30.4045 50.5544 29.847 50.5115L29.2038 50.4257L28.5605 50.2971L27.2739 50.0398C26.8451 49.954 26.4162 49.8253 25.9874 49.6967C25.5585 49.568 25.1297 49.4823 24.7008 49.3536C24.1433 49.1821 23.5858 48.9676 23.0283 48.7532L22.2135 48.453L21.3987 48.067C20.8841 47.8097 20.3266 47.5524 19.8119 47.2522C19.3402 46.9092 18.8256 46.609 18.3538 46.3088C17.8821 46.0086 17.4961 45.6655 17.0673 45.3653C16.6384 45.0222 16.2096 44.722 15.7807 44.3789C15.0088 43.6499 14.1511 42.9208 13.5078 42.0631C13.2505 41.7629 12.9932 41.4628 12.7359 41.1626C12.4786 40.8624 12.2642 40.5193 12.0069 40.2191L11.2778 39.2756C11.0634 38.9325 10.849 38.6323 10.6345 38.2893C10.3772 37.8604 10.1199 37.4316 9.90549 36.9598C9.73395 36.4881 9.56241 36.0592 9.39087 35.5446C9.34799 35.3731 9.26222 35.2015 9.17645 34.9871C9.09068 34.8156 9.04779 34.6011 8.96202 34.4296C8.79048 34.0436 8.61894 33.6577 8.49029 33.2717C8.31875 32.8 8.14721 32.3282 7.97567 31.8565C7.84701 31.3848 7.76124 30.8701 7.93278 30.3984C7.67547 29.8838 7.71836 29.1547 7.5897 28.6401C7.46105 28.1684 7.50393 27.6967 7.50393 27.2249C7.54682 26.7532 7.50393 26.2815 7.50393 25.8097C7.50393 25.2951 7.76124 25.3809 7.84701 25.1664C7.93278 24.952 8.23298 24.7376 7.84701 24.3516C7.67547 24.1801 7.5897 23.837 7.67547 23.4939C7.71836 23.108 7.8899 22.722 8.10432 22.4218C8.27586 22.1645 8.36163 21.9072 8.23298 21.6928C8.06144 21.2639 8.14721 20.8779 8.49029 20.4491C8.57606 20.3204 8.70471 20.0631 8.66183 19.9345C8.36163 18.9481 9.26222 18.0904 9.47664 17.1469C9.51953 16.9325 9.64818 16.8039 9.77684 16.8039C10.0341 16.8896 10.1628 16.6323 10.1628 16.2464C10.1628 15.9033 10.2915 15.5602 10.4201 15.2171C10.5917 14.874 10.7632 14.5309 10.9776 14.2736C12.2642 12.3867 13.5936 10.4998 15.2661 8.95589C17.6248 6.72587 20.155 4.83893 23.0712 3.72392C23.4572 3.55238 23.886 3.42372 24.3149 3.25218C24.7437 3.12353 25.1726 2.95199 25.6014 2.82333C26.0303 2.69468 26.4591 2.56602 26.9309 2.48025C27.1453 2.43737 27.3597 2.3516 27.5741 2.30871L28.2603 2.18006C28.9036 2.09429 29.5897 1.96563 30.233 2.00852C30.5761 2.00852 30.8763 2.0514 31.2194 2.0514C31.3909 2.0514 31.5196 2.09429 31.6911 2.09429C31.8626 2.13717 31.9913 2.18006 32.1628 2.22294C33.4923 2.56602 34.9932 2.69468 36.4084 3.12353C36.8802 3.33795 37.309 3.46661 37.6092 3.7668C37.9094 4.02412 38.0381 4.3672 37.8237 4.49585C37.6092 4.66739 37.1804 4.75316 36.6229 4.58162C36.3656 4.49585 36.1082 4.45297 35.8938 4.3672C35.6365 4.32431 35.4221 4.23854 35.1648 4.23854C34.693 4.19566 34.2213 4.19566 33.7067 4.19566C33.4923 4.19566 33.235 4.19566 33.0205 4.19566C32.7632 4.19566 32.5488 4.15277 32.2915 4.15277C32.0342 4.10989 31.7769 4.10989 31.5196 4.067C31.2622 4.067 31.0049 4.067 30.7476 4.067C30.3188 4.067 29.8899 4.067 29.4611 4.10989L28.1745 4.23854C28.0459 4.23854 27.8743 4.23854 27.7886 4.28143C27.5741 4.3672 27.4026 4.49585 27.4455 4.62451C27.4455 4.71028 27.7028 4.62451 27.8743 4.58162C29.9757 4.15277 32.1199 4.41008 34.1355 4.9247C34.693 5.09624 35.2934 5.2249 35.8509 5.48221L36.6658 5.82529L37.0517 5.99683L37.4377 6.21125C37.6092 6.29702 37.8237 6.42568 37.9952 6.55433C38.5098 6.89741 38.7671 7.24049 38.4669 7.54069ZM48.8451 9.42763C48.8022 9.38474 48.7593 9.34186 48.7164 9.29897C48.7164 9.34186 48.7164 9.38474 48.7593 9.42763C48.8022 9.5134 48.888 9.5134 48.8451 9.42763ZM50.2603 16.2892C50.2603 16.2464 50.2603 16.2464 50.2603 16.2892V16.2892Z" fill="#003A8C"/>
<path d="M26.1596 31.7706C26.2025 31.8993 26.1596 32.0708 26.0309 32.0708C25.9023 32.0708 25.7736 32.1137 25.645 32.0708C25.6021 32.0708 25.5592 32.0279 25.6021 32.1137C25.7307 32.3281 25.6021 32.371 25.645 32.4997C25.6879 32.7141 25.5592 32.5855 25.4734 32.5855C25.4305 32.5855 25.3448 32.5426 25.3019 32.6283C25.3019 32.6712 25.2161 32.7141 25.1732 32.6712C24.9588 32.4997 24.9588 32.757 24.873 32.8856C24.8302 32.9714 24.7444 33.0143 24.6586 33.0143C24.2726 32.9714 23.9296 33.1001 23.5436 33.1001C23.2863 33.1001 23.029 33.1858 22.7288 33.143C22.643 33.143 22.5572 33.0143 22.4715 33.0143H22.3857C22.2571 33.1001 22.0855 33.2716 21.914 33.0143C21.7424 33.143 21.6138 32.7999 21.4422 32.9285C21.3994 32.9285 21.3565 32.9714 21.3565 32.9285C21.0992 32.757 20.799 32.7141 20.4988 32.6283C20.4559 32.6283 20.3701 32.5855 20.413 32.4568C20.2843 32.4139 20.1557 32.371 20.027 32.2853C19.8984 32.2424 19.7697 32.1566 19.7268 32.0279C19.6411 31.8564 19.5124 31.7278 19.3838 31.642C19.2551 31.5133 19.1693 31.3847 19.0836 31.256C19.0407 31.1702 18.9978 31.0845 18.912 30.9987C18.7834 30.8701 18.6118 30.6985 18.6547 30.4841C18.6976 30.2697 18.7405 30.141 18.5261 30.0552C18.5261 30.0552 18.4832 30.0124 18.5261 29.9266C18.6118 29.8837 18.6118 29.8408 18.5689 29.7979C18.3545 29.6264 18.4832 29.3262 18.3545 29.1547C18.1401 28.8973 18.3545 28.64 18.2687 28.3827C18.2259 28.2112 18.183 28.0396 18.2259 27.8681C18.3116 27.6108 18.2687 27.3106 18.183 27.0962C18.1401 26.8817 18.2259 26.7102 18.2259 26.4958C18.2259 26.4529 18.2259 26.41 18.3116 26.3671C18.2687 26.3242 18.2259 26.2814 18.2259 26.2385C18.3545 25.8954 18.1401 25.5094 18.3545 25.2092C18.3974 25.1235 18.3116 25.0377 18.3116 24.9519C18.3545 24.566 18.4403 24.2229 18.3545 23.8369C18.3116 23.7511 18.3545 23.6225 18.4832 23.5367C18.5261 23.5367 18.5689 23.5367 18.5261 23.4938C18.2687 23.3223 18.4403 23.1936 18.4403 23.065C18.4832 22.5504 18.5689 22.0357 18.4832 21.4782C18.4403 21.178 18.4403 20.8778 18.4832 20.6205C18.4832 20.5348 18.5261 20.449 18.6118 20.4061C18.7405 20.2774 18.6976 20.2774 18.9978 20.4061C18.9549 20.1488 19.0407 19.9344 19.3838 19.7628C19.4266 19.7199 19.4695 19.7199 19.5982 19.7628C19.6411 19.7628 19.6411 19.7628 19.684 19.7628C19.9841 19.7628 20.027 19.7628 20.1128 19.9344C20.1128 19.9773 20.0699 20.0201 20.1557 20.0201C20.2415 20.0201 20.1557 19.9773 20.1557 19.9344C20.1557 19.8486 20.2843 19.8486 20.3272 19.8057C20.4559 19.7199 20.413 19.5913 20.5417 19.5055C20.5845 19.4626 20.6274 19.4197 20.799 19.4626C20.9705 19.5055 21.0992 19.5484 21.0992 19.6771C21.0992 19.7628 21.142 19.8486 21.0134 19.8915V19.9344C21.0992 20.0201 20.9705 20.1059 21.0992 20.2346C21.142 20.2774 21.142 20.3203 21.2707 20.3632C21.528 20.4061 21.6138 20.4919 21.6138 20.6205C21.5709 20.9636 21.528 21.3496 21.4422 21.6927C21.3994 21.8213 21.3565 21.95 21.2707 22.0786C21.2278 22.1644 21.3136 22.2502 21.3136 22.3359C21.2707 22.8077 21.0992 23.2365 21.0563 23.6654L20.9276 24.7375C20.8847 24.9948 20.9276 25.2092 20.8847 25.4665C20.799 25.8954 20.8418 26.3671 20.7132 26.796C20.6703 26.9246 20.7561 27.0533 20.7132 27.1819C20.6703 27.3964 20.5845 27.5679 20.6274 27.7394C20.6703 27.9968 20.7132 28.2112 20.6703 28.4256C20.6703 28.64 20.7561 28.8116 20.7561 28.9831C20.7561 29.1118 20.8418 29.1975 20.9276 29.3262C20.9705 29.3691 20.9705 29.4548 20.9276 29.5406C20.9276 29.6264 21.0134 29.6264 21.0563 29.6693C21.0992 29.7122 21.3136 29.6264 21.0992 29.8408C21.1849 29.7979 21.1849 29.8837 21.2278 29.8408C21.3136 29.7979 21.2707 29.9266 21.3565 29.9266C21.3994 29.9266 21.2707 30.0552 21.2707 30.0981C21.2707 30.141 21.1849 30.2697 21.3136 30.0981C21.4422 29.9266 21.4851 29.9695 21.3994 30.141C21.3565 30.2268 21.3994 30.2268 21.4422 30.1839C21.528 30.0552 21.5709 30.0552 21.528 30.1839C21.528 30.2268 21.528 30.2697 21.528 30.2268C21.6995 29.9266 21.6567 30.2268 21.7424 30.1839C21.7424 30.1839 21.7424 30.2268 21.7424 30.2697C21.6995 30.4412 21.7424 30.4412 21.7853 30.3554C21.8711 30.1839 21.914 30.2268 21.9569 30.2697C22.0855 30.3983 22.2999 30.3125 22.4715 30.3983C22.7288 30.4841 23.029 30.3983 23.3721 30.3983C23.5436 30.3983 23.7151 30.2697 23.9296 30.1839C24.0582 30.141 24.1869 30.0981 24.4013 30.1839C24.6157 30.2697 24.7444 30.1839 24.9159 30.141C24.9588 30.141 25.0446 30.0981 25.1303 30.1839C25.2161 30.2697 25.3019 30.3554 25.3019 30.527C25.3448 30.6556 25.3448 30.8272 25.259 30.8272C25.1303 30.8701 25.0446 30.9987 24.9588 31.1274C24.873 31.256 24.7015 31.2131 24.5728 31.256C24.4442 31.2989 24.3584 31.2989 24.2298 31.2989H24.1869C24.144 31.3418 24.144 31.3847 24.1869 31.4704C24.2298 31.5562 24.2298 31.5133 24.2726 31.5133C24.53 31.3847 24.873 31.4276 25.1732 31.4276C25.3448 31.4276 25.5163 31.4276 25.6879 31.4276C25.7307 31.4276 25.7736 31.4276 25.7736 31.4276C25.988 31.4276 26.0738 31.5562 26.1596 31.7706ZM21.0134 19.8057C21.0563 19.8057 21.0563 19.8057 21.0134 19.8057C21.0134 19.7628 21.0134 19.7628 21.0134 19.8057C20.9705 19.8057 21.0134 19.8057 21.0134 19.8057ZM18.9978 20.3203C18.9978 20.2774 18.9978 20.2774 18.9978 20.3203V20.3203Z" fill="#003A8C"/>
<path d="M34.3936 33.0144C34.2649 33.1002 34.0934 33.0573 34.0505 32.9715C34.0076 32.8429 33.9218 32.7142 33.9218 32.5427C33.9218 32.4998 33.9218 32.414 33.8361 32.4998C33.6645 32.7142 33.5788 32.5856 33.4501 32.6285C33.2357 32.7142 33.3214 32.5427 33.3214 32.4998C33.3214 32.4569 33.3214 32.3283 33.1928 32.3283C33.107 32.3283 33.107 32.2854 33.107 32.2425C33.1928 31.9852 32.9355 32.0281 32.8068 31.9852C32.721 31.9423 32.6353 31.8994 32.5924 31.8136C32.4637 31.4277 32.2493 31.1704 32.0349 30.8273C31.9062 30.6129 31.7347 30.3984 31.606 30.184C31.5631 30.0982 31.6489 29.9696 31.5631 29.9267L31.606 29.8838C31.4345 29.8409 31.2201 29.8409 31.3487 29.5836C31.1343 29.5407 31.3058 29.2405 31.0914 29.2405C31.0485 29.2405 31.0056 29.1977 31.0056 29.1977C30.7912 28.8117 30.5339 28.4686 30.1908 28.1255C30.1479 28.0826 30.1051 27.9969 30.1479 27.9111C30.0193 27.7396 29.8477 27.6109 29.7191 27.4394C29.7191 27.3536 29.7191 27.2249 29.8049 27.1392C29.9335 27.0105 29.8906 26.8819 29.8906 26.7103C29.8906 26.5817 29.9335 26.453 29.9335 26.3244C29.9335 26.2386 29.9764 26.2386 30.0193 26.1957C30.1051 26.1099 30.1479 26.0242 30.3195 25.9384C30.491 25.8955 30.6626 25.8526 30.6197 25.6811C30.6197 25.6811 30.6197 25.5953 30.7483 25.6382C30.8341 25.6811 30.9199 25.6382 30.9199 25.5953C30.9199 25.5095 30.9628 25.4238 31.0056 25.3809C31.1343 25.338 31.3058 25.338 31.4345 25.2951C31.5203 25.2951 31.5632 25.2522 31.6489 25.2522C31.6918 25.2094 31.7347 25.2094 31.7776 25.1665C32.1635 24.8663 32.3351 24.9949 32.4637 24.8234C32.5066 24.7805 32.5495 24.7376 32.5924 24.6947C32.6353 24.6518 32.6782 24.609 32.721 24.609C32.8926 24.5232 32.9784 24.3516 32.9355 24.1801C32.9355 24.1372 32.9355 24.0515 32.9784 24.0086C33.0212 23.9657 33.0641 23.8799 33.0641 23.837C33.0641 23.7941 33.0641 23.7513 33.1499 23.7513C33.107 23.7084 33.0641 23.6655 33.0641 23.6655C33.107 23.5368 33.0641 23.3653 33.0212 23.1938C32.9784 23.0651 32.9355 22.9364 32.9784 22.7649C32.9784 22.6791 32.8497 22.6791 32.8497 22.6362C32.721 22.4218 32.6353 22.1645 32.3351 22.1216C32.2493 22.1216 32.2064 22.0787 32.2064 21.9072C32.2064 21.8643 32.2064 21.8214 32.2064 21.8643C31.992 22.0787 31.9491 21.9072 31.8633 21.8643C31.4774 21.7785 31.0056 21.6928 30.491 21.8214L29.6762 21.993C29.5904 21.993 29.5047 21.993 29.4189 21.9501C29.2474 21.8643 29.2474 21.9072 29.2902 21.5641C29.0329 21.6499 28.7756 21.6499 28.5183 21.4355C28.4754 21.3926 28.4325 21.3497 28.4325 21.2639C28.4325 21.221 28.3897 21.221 28.3897 21.1782C28.261 20.878 28.261 20.8351 28.3897 20.7064C28.4325 20.6635 28.4754 20.7064 28.4754 20.6207C28.4325 20.5349 28.4325 20.6207 28.3897 20.6207C28.3039 20.6635 28.261 20.5349 28.1752 20.5349C28.0466 20.492 27.9179 20.5349 27.7464 20.4491C27.6606 20.4062 27.5748 20.4062 27.5748 20.2347C27.532 20.0631 27.532 19.8916 27.6606 19.8487C27.7464 19.8058 27.8321 19.7201 27.9608 19.8058C27.9608 19.8058 28.0037 19.8058 28.0037 19.763C28.0895 19.6343 28.2181 19.7201 28.3039 19.5485C28.3468 19.4628 28.3897 19.4628 28.3468 19.3341C28.3039 19.0768 28.3897 18.9481 28.5612 18.9481C29.0329 18.8624 29.5047 18.8195 30.0193 18.8195C30.2337 18.8195 30.4053 18.8624 30.6197 18.9481C30.7483 18.991 30.877 18.9053 31.0056 18.9053C31.6918 18.9053 32.3351 19.1626 33.0212 19.4628C33.6645 19.7201 34.3078 20.1918 34.7366 20.8351C34.994 21.1782 35.2513 21.607 35.3799 21.993C35.4657 22.3789 35.5515 22.7649 35.5943 23.1509C35.5943 23.3224 35.6372 23.4939 35.5943 23.7084C35.5943 23.9228 35.5515 24.1372 35.5086 24.3516C35.4228 24.5661 35.4657 24.8663 35.337 25.1236C35.2513 25.2951 35.1226 25.5095 34.994 25.6811C34.8653 25.8526 34.7366 26.0242 34.6509 26.1957C34.3078 26.6246 33.8789 27.0105 33.4501 27.1821L33.2357 27.3107C33.2357 27.3107 33.1928 27.3107 33.1928 27.3536C33.1499 27.3965 33.1928 27.3965 33.1499 27.3965C33.107 27.3965 33.1499 27.4394 33.1928 27.4394C33.2357 27.4394 33.1928 27.4394 33.0641 27.3965C33.0212 27.3965 33.0212 27.3965 33.0641 27.3965H33.107C33.1499 27.4394 33.4501 27.5251 32.9784 27.3965C33.1499 27.4394 33.0212 27.4394 33.107 27.4394C33.2357 27.4823 33.0641 27.4394 33.1499 27.4394C33.1928 27.4394 32.9784 27.4394 32.8926 27.4394C32.8497 27.4394 32.6353 27.4394 32.9355 27.4394C32.9784 27.4394 33.0641 27.4394 33.107 27.4394C33.2357 27.4394 33.1499 27.4394 32.9784 27.4823C32.8926 27.4823 32.8926 27.5251 32.9784 27.4823C33.1499 27.4823 33.1499 27.4394 33.0641 27.4823C33.0212 27.4823 32.9784 27.5251 33.0641 27.4823C33.4072 27.3965 33.107 27.4823 33.1928 27.4823C33.1928 27.4823 33.1499 27.4823 33.107 27.5251C32.9784 27.6109 32.9784 27.6109 33.0641 27.568C33.1928 27.4394 33.2786 27.568 33.2786 27.6538C33.4072 27.954 33.6645 28.2113 33.8361 28.5115C34.0505 28.9403 34.3507 29.2405 34.5651 29.6694C34.6938 29.8838 34.9082 30.0554 35.0797 30.2698C35.2084 30.3984 35.2942 30.57 35.2942 30.7844C35.2942 31.0417 35.4657 31.1704 35.5943 31.3419C35.6372 31.3848 35.6801 31.4706 35.6372 31.5563C35.5943 31.685 35.5086 31.7708 35.3799 31.8565C35.2513 31.9423 35.1226 31.9852 35.0368 31.8994C34.9511 31.7708 34.7795 31.7279 34.608 31.6421C34.4365 31.5992 34.3936 31.3848 34.3078 31.2561C34.222 31.1275 34.1791 30.9988 34.0934 30.9131C34.0934 30.9131 34.0934 30.8702 34.0505 30.8702C34.0076 30.8702 33.9647 30.8702 33.8789 30.9131C33.8361 30.9559 33.8789 30.9988 33.8789 30.9988C34.0934 31.2561 34.222 31.5992 34.3507 31.9423C34.4365 32.1138 34.5222 32.3283 34.5651 32.4998C34.5651 32.5427 34.608 32.5856 34.608 32.6285C34.6509 32.7571 34.608 32.8858 34.3936 33.0144ZM28.0466 19.8058C28.0466 19.8058 28.0037 19.8058 28.0466 19.8058C28.0037 19.8058 28.0037 19.8487 28.0466 19.8058C28.0466 19.8487 28.0466 19.8058 28.0466 19.8058Z" fill="#003A8C"/>
<path d="M29.3752 22.2499C29.5039 22.2499 29.6754 22.3357 29.6325 22.3786C29.5896 22.4643 29.5896 22.5072 29.5039 22.593C29.461 22.593 29.4181 22.6359 29.5467 22.6359C29.804 22.593 29.7612 22.6788 29.9327 22.6788C30.1471 22.7216 29.9756 22.7216 29.9327 22.7645C29.8898 22.8074 29.8469 22.8074 29.9327 22.8503C29.9756 22.8503 29.9756 22.8932 29.9327 22.8932C29.7183 22.979 29.9327 23.0218 30.0185 23.0647C30.0614 23.1076 30.1042 23.1505 30.0614 23.1934C29.9327 23.3649 29.9327 23.5365 29.8898 23.708C29.8469 23.8367 29.8898 23.9653 29.8469 24.094C29.8469 24.1369 29.6754 24.1797 29.7183 24.2226V24.2655C29.804 24.3513 29.9756 24.3942 29.7183 24.4799C29.8469 24.5657 29.5467 24.6086 29.7183 24.6944C29.7612 24.6944 29.7612 24.7372 29.7612 24.7372C29.6754 24.8659 29.6754 24.9946 29.7183 25.1232C29.7183 25.1661 29.7183 25.1661 29.6325 25.209C29.6325 25.3376 29.804 25.4234 29.6325 25.5521C29.5467 25.6378 29.5896 25.6807 29.5896 25.7665C29.5896 25.8523 29.5896 25.8951 29.5467 25.9809C29.5467 26.0238 29.5467 26.0667 29.5467 26.1096C29.5896 26.1953 29.6754 26.2811 29.5467 26.3669C29.4181 26.4526 29.3323 26.4955 29.5039 26.5813C29.5039 26.5813 29.5467 26.6242 29.461 26.6242C29.3752 26.6242 29.3752 26.6671 29.3752 26.6671C29.5467 26.7957 29.3323 26.8815 29.461 27.0101C29.6325 27.1388 29.4181 27.2675 29.461 27.3961C29.5039 27.4819 29.5467 27.5677 29.5039 27.6534C29.4181 27.7821 29.461 27.9107 29.5467 28.0394C29.6325 28.1252 29.5467 28.2538 29.5467 28.3825C29.5467 28.4254 29.5467 28.4254 29.461 28.4682C29.5039 28.5111 29.5467 28.5111 29.5467 28.554C29.461 28.7684 29.7183 28.94 29.5467 29.1544C29.5039 29.1973 29.6325 29.2402 29.6325 29.2831C29.6325 29.4975 29.5896 29.7119 29.7612 29.9263C29.804 29.9692 29.804 30.055 29.6754 30.0979C29.6754 30.0979 29.5896 30.0979 29.6325 30.1408C29.9327 30.2265 29.7612 30.3123 29.804 30.3552C29.8469 30.6554 29.8898 30.9556 30.0185 31.2129C30.1042 31.3844 30.1471 31.5131 30.19 31.6846C30.19 31.7275 30.1471 31.7704 30.1042 31.8133C30.0185 31.899 30.0185 31.899 29.7183 31.8562C29.804 31.9848 29.7612 32.1135 29.5039 32.2421C29.461 32.2421 29.4181 32.285 29.3323 32.285C29.2894 32.285 29.2894 32.285 29.2465 32.285C28.9463 32.3279 28.9035 32.3279 28.8177 32.2421C28.8177 32.2421 28.8177 32.1992 28.7319 32.1992C28.6462 32.1992 28.7319 32.2421 28.7319 32.2421C28.7319 32.285 28.6462 32.3279 28.6033 32.3279C28.5175 32.3708 28.5604 32.4566 28.4317 32.4994C28.3888 32.5423 28.346 32.5852 28.1744 32.5423C28.0029 32.5423 27.8313 32.5423 27.8313 32.4566C27.8313 32.4137 27.7456 32.3708 27.8742 32.3279C27.8742 32.3279 27.8742 32.3279 27.8742 32.285C27.7885 32.2421 27.8742 32.1992 27.7456 32.1135C27.6598 32.0706 27.6598 32.0706 27.5311 32.0706C27.2738 32.0706 27.1452 32.0277 27.1452 31.9419C27.1023 31.7275 27.1023 31.5131 27.1023 31.2987C27.1023 31.2129 27.1452 31.1271 27.1881 31.0413C27.231 30.9985 27.1023 30.9556 27.1023 30.9127C27.0594 30.6554 27.1452 30.3981 27.1023 30.1408C27.1023 29.8834 27.0594 29.669 27.0594 29.4117C27.0594 29.2831 26.9736 29.1115 26.9736 28.9829C26.9736 28.7256 26.8879 28.4682 26.9736 28.168C27.0165 28.0823 26.8879 27.9965 26.9308 27.9536C26.9736 27.825 27.0165 27.6963 26.9736 27.5677C26.9308 27.3961 26.9308 27.2246 26.9308 27.053C26.9308 26.8815 26.8879 26.7528 26.9308 26.5813C26.9308 26.4526 26.8879 26.3669 26.845 26.2382C26.8021 26.1524 26.845 26.1096 26.9308 26.0238C26.9736 25.9809 26.8879 25.8951 26.8879 25.8523C26.8879 25.7665 26.6735 25.7236 26.9736 25.6378C26.8879 25.5949 26.9308 25.5521 26.8879 25.5092C26.8021 25.4234 26.9308 25.3805 26.8879 25.2947C26.845 25.2519 27.0165 25.2519 27.0594 25.2519C27.1023 25.2519 27.2738 25.209 27.0165 25.209C26.8021 25.209 26.8021 25.1232 27.0165 25.0803C27.1023 25.0803 27.1023 25.0374 27.0165 25.0374C26.8879 24.9946 26.845 24.9946 26.9736 24.9517C27.0165 24.9517 27.0594 24.9088 27.0165 24.9088C26.7163 24.8659 26.9736 24.7801 26.8879 24.6944C26.8879 24.6944 26.9308 24.6515 26.9736 24.6515C27.1452 24.6515 27.1452 24.6086 27.0594 24.6086C26.8879 24.5657 26.9308 24.5228 26.9308 24.437C27.0165 24.2655 26.9308 24.094 27.0165 23.9653C27.1452 23.7509 27.0594 23.5365 27.1452 23.322C27.1881 23.1934 27.1452 23.0647 27.1023 22.9361C27.1023 22.8503 27.1023 22.7645 27.2738 22.6788C27.4454 22.593 27.3596 22.4643 27.4025 22.3786C27.4025 22.3357 27.4025 22.2928 27.5311 22.2928C27.6169 22.2499 27.7456 22.2499 27.9171 22.2499C28.0458 22.2499 28.2173 22.2928 28.2173 22.3357C28.2173 22.4214 28.3031 22.4643 28.4317 22.5501C28.5175 22.6359 28.4317 22.7216 28.4317 22.7645C28.4317 22.8503 28.3888 22.8932 28.3888 22.979V23.0218C28.3888 23.0218 28.4746 23.0647 28.5175 23.0647C28.6033 23.0647 28.5604 23.0218 28.5604 23.0218C28.5175 22.8503 28.689 22.6788 28.7748 22.5072C28.8177 22.4214 28.9035 22.3357 28.9463 22.207L28.9892 22.1641C28.9892 22.2928 29.1179 22.2499 29.3752 22.2499ZM27.8313 32.3279C27.8313 32.3279 27.8742 32.3279 27.8313 32.3279C27.8742 32.3279 27.8313 32.3279 27.8313 32.3279Z" fill="#003A8C"/>
<path d="M44.1284 32.4569C43.9998 32.4569 43.8282 32.2854 43.8711 32.1138C43.914 31.9423 43.914 31.7279 43.9998 31.5563C44.0427 31.5134 44.0856 31.4277 43.9569 31.4706C43.6996 31.5563 43.7425 31.3419 43.5709 31.299C43.3565 31.2132 43.528 31.1275 43.5709 31.0417C43.6138 30.9559 43.6567 30.8702 43.5709 30.7844C43.528 30.7415 43.528 30.6557 43.5709 30.6129C43.7854 30.3984 43.5709 30.2698 43.4852 30.0982C43.4423 29.9696 43.3994 29.8838 43.4423 29.7552C43.5709 29.2834 43.5709 28.7688 43.6138 28.2971C43.6567 27.954 43.6138 27.6109 43.6567 27.2678C43.6567 27.1392 43.8282 27.0534 43.7854 26.9676V26.8819C43.6996 26.7103 43.528 26.4959 43.7854 26.3244C43.6567 26.1099 43.9569 25.9384 43.7854 25.724C43.7425 25.6811 43.7425 25.6382 43.7425 25.5953C43.8282 25.2522 43.8282 24.9091 43.7854 24.5232C43.7854 24.4374 43.7854 24.3945 43.8711 24.3516C43.8711 24.0514 43.6996 23.8799 43.7854 23.6226C43.8282 23.4511 43.7854 23.3224 43.6996 23.1937C43.6567 23.0651 43.6138 22.9364 43.5709 22.8078C43.528 22.722 43.4852 22.6362 43.4423 22.5934C43.3136 22.4647 43.1421 22.3789 43.1421 22.1645C43.1421 21.993 43.0992 21.8214 42.8848 21.8643C42.8848 21.8643 42.799 21.8643 42.8419 21.7785C42.8848 21.6928 42.8419 21.6499 42.799 21.6499C42.5417 21.6499 42.413 21.3926 42.1986 21.4355C41.9413 21.5212 41.7698 21.2639 41.5125 21.3497C41.3409 21.3926 41.2123 21.4355 41.0407 21.4355C40.7834 21.4355 40.5261 21.5641 40.3974 21.7785C40.2688 21.9501 40.0972 22.0358 39.9257 22.2074C39.8828 22.2503 39.8399 22.2932 39.7542 22.2932C39.7542 22.336 39.7542 22.4218 39.7542 22.4647C39.6255 22.5934 39.5397 22.8078 39.4969 22.9793C39.454 23.0651 39.454 23.1937 39.4111 23.2795C39.3682 23.3653 39.3253 23.4511 39.2824 23.5368C39.1967 23.6226 39.3253 23.7512 39.3253 23.837C39.3253 23.9228 39.3253 24.0514 39.2824 24.1372C39.2824 24.1801 39.2824 24.2659 39.2824 24.3088V24.5232C39.2824 24.8234 39.3253 25.0807 39.4111 25.3809C39.454 25.5524 39.454 25.724 39.3253 25.8526C39.3253 25.8955 39.2395 25.8955 39.2824 25.9384C39.5826 26.1099 39.4111 26.3672 39.454 26.5817C39.4969 27.3965 39.5397 28.1684 39.6684 28.9832C39.7542 29.4121 39.797 29.8409 39.8399 30.3127C39.8399 30.4413 39.797 30.57 39.7542 30.6986C39.6684 30.9131 39.6684 30.913 39.3682 30.8273C39.454 31.2132 39.4111 31.5992 39.1538 31.9423C39.1109 31.9852 39.068 32.0281 38.9822 32.0281C38.9393 32.0281 38.9393 32.0709 38.8965 32.0709C38.5963 32.1996 38.5534 32.1996 38.4676 31.9423C38.4676 31.8994 38.4676 31.8136 38.3818 31.8136C38.2961 31.8136 38.3818 31.8994 38.3818 31.9423C38.3818 32.0281 38.2961 32.1138 38.2532 32.1996C38.1674 32.3711 38.2103 32.5427 38.0816 32.7142C38.0388 32.8 37.9959 32.8858 37.8243 32.8858C37.6528 32.8858 37.4813 32.8429 37.4813 32.6713C37.4813 32.5427 37.3955 32.414 37.5241 32.2854C37.5241 32.2854 37.5241 32.2425 37.5241 32.1996C37.4384 32.0709 37.5241 31.8994 37.3955 31.7708C37.3097 31.685 37.3097 31.6421 37.1811 31.6421C36.9238 31.6421 36.7951 31.5563 36.7951 31.3419C36.7522 30.7844 36.7522 30.184 36.7522 29.6265C36.7522 29.4121 36.7951 29.1976 36.838 28.9403C36.8809 28.8117 36.7522 28.683 36.7522 28.5544C36.7093 27.8253 36.7951 27.0963 36.7522 26.3672L36.7093 24.3945C36.7093 24.1801 36.7093 23.9228 36.7093 23.7084C36.7093 23.4511 36.7093 23.1937 36.7951 22.9364C37.0095 21.993 37.4384 21.0066 38.2103 20.3204C38.4247 20.106 38.5963 19.8487 38.8536 19.6772C39.2824 19.4199 39.7542 19.2483 40.183 19.0339C40.8263 18.7766 41.5125 18.6908 42.1986 18.8195C42.799 18.9052 43.4423 19.0768 43.9569 19.4199C44.3429 19.6772 44.6859 19.8916 45.029 20.1489C45.2434 20.3204 45.3721 20.5778 45.5008 20.7922C45.5865 21.0066 45.801 21.1353 45.8867 21.3068C46.0154 21.5212 46.3156 21.6928 46.144 22.0358C46.3156 22.1216 46.2727 22.336 46.3585 22.4647C46.53 22.6791 46.4442 22.9793 46.53 23.1937C46.5729 23.3224 46.4013 23.3224 46.3585 23.4082C46.3156 23.4511 46.144 23.5368 46.4013 23.6226C46.6158 23.6655 46.6158 23.9657 46.4442 24.1372C46.3585 24.223 46.3585 24.2659 46.4442 24.3088C46.5729 24.3945 46.6158 24.4374 46.4871 24.5661C46.4442 24.6089 46.4013 24.6518 46.4442 24.6518C46.7444 24.8234 46.4871 25.0378 46.5729 25.2093C46.5729 25.2522 46.53 25.2951 46.4871 25.2951C46.3156 25.2951 46.3156 25.3809 46.4013 25.4238C46.5729 25.5524 46.53 25.6811 46.53 25.8526C46.4442 26.2815 46.53 26.7532 46.4442 27.1821C46.3156 27.7824 46.4013 28.3828 46.3156 28.9832C46.2727 29.3263 46.3156 29.6694 46.3585 30.0125C46.3585 30.2698 46.3585 30.5271 46.1869 30.7415C46.0154 30.9988 46.1011 31.299 46.0583 31.5992C46.0583 31.685 46.0583 31.8136 45.9296 31.8565C45.8438 31.9423 45.7152 31.9852 45.5436 31.9423C45.415 31.8994 45.2434 31.8565 45.2434 31.7279C45.2434 31.5134 45.1577 31.299 45.029 31.1275C44.9433 30.9559 45.029 30.6986 45.029 30.4842C45.029 30.3127 45.0719 30.0982 45.0719 29.9267C45.0719 29.8838 45.0719 29.8838 45.0719 29.8409C45.0719 29.798 44.9861 29.7552 44.9433 29.7552C44.8575 29.7552 44.9004 29.798 44.9004 29.8409C44.9433 30.3127 44.7717 30.7415 44.6859 31.2132C44.6431 31.4706 44.5573 31.7279 44.5144 31.9852C44.5144 32.0281 44.4715 32.0709 44.4715 32.1138C44.4715 32.414 44.3429 32.4998 44.1284 32.4569ZM37.4384 32.2854C37.4384 32.2854 37.4384 32.3283 37.4384 32.2854C37.4813 32.3283 37.4813 32.3283 37.4384 32.2854C37.4813 32.2854 37.4813 32.2854 37.4384 32.2854ZM39.3253 30.8702C39.3253 30.9131 39.3253 30.9131 39.3253 30.8702V30.8702Z" fill="#003A8C"/>
</g>
<defs>
<clipPath id="clip0">
<rect width="57.1328" height="57.13" fill="white"/>
</clipPath>
</defs>
</svg>
