<svg width="144" height="144" viewBox="0 0 144 144" fill="none" xmlns="http://www.w3.org/2000/svg">
<path d="M130.788 87.214C122.249 116.4 102.036 137.262 71.6633 138.559C34.9129 140.289 0 110.454 0 79.9717C0 45.1652 36.6423 5.38641 72.7442 9.6021C102.901 13.0611 141.813 49.5971 130.788 87.214Z" fill="#FFF2E8"/>
<path d="M96.9538 19.0068C96.4133 19.4392 94.5758 19.3311 93.2787 18.4663C92.8464 18.2502 92.414 17.9259 91.9817 17.8178L90.6846 17.2773C89.8199 16.953 88.8471 16.5206 88.0905 16.0883C87.7662 15.8721 86.9015 15.5478 87.1176 16.0883C87.6581 17.2773 85.6044 16.8449 85.172 17.2773C84.3073 18.034 83.5507 17.0611 82.5779 16.953C81.8213 16.7368 80.8485 16.4125 79.9837 16.7368C79.4433 16.8449 78.6867 16.953 78.2543 16.7368C77.2815 16.3044 76.3087 16.3045 75.444 16.5206C74.5793 16.7368 73.8226 17.2773 73.066 17.4935C72.5256 17.7097 71.9851 17.8178 71.5528 17.9259C71.0123 18.034 70.4719 18.2502 69.9314 18.2502C65.0674 18.7906 60.4196 20.8444 55.9879 23.4387L53.718 24.952L52.6371 25.7087L51.5562 26.5734L49.5025 28.303C48.854 28.8434 48.2055 29.492 47.4488 30.1406C46.476 31.0053 45.3951 31.2215 44.6385 32.1944L43.8819 32.951C42.801 34.6805 42.2606 36.6262 40.2069 37.7072C39.7745 38.68 39.126 39.5448 38.4774 40.3015C37.8289 40.95 37.0723 41.8148 36.9642 42.8957C36.9642 43.22 36.748 43.7605 36.5318 43.9767C35.9914 44.7333 35.559 45.5981 35.0186 46.3548C34.5862 47.2195 34.2619 48.0843 33.9377 48.949C33.6134 49.8138 33.181 50.6785 32.9649 51.6514L32.3163 54.3538C32.2082 55.0023 31.884 55.759 31.4516 56.0833C31.1273 57.7047 31.0193 59.3261 30.9112 60.9475C30.9112 62.5689 30.695 64.1904 30.3707 65.8118C30.0465 67.9737 30.1545 70.2437 30.5869 72.2975C30.8031 73.2703 30.8031 74.2432 31.0193 75.216C31.2354 76.1889 31.3435 77.1617 31.5597 78.1346C31.7759 79.4317 32.2082 80.5126 32.6406 81.7017C32.8568 82.2422 33.181 82.8907 33.3972 83.5393C33.7215 84.1879 34.0458 84.7283 34.2619 85.3769C34.5862 85.9174 34.8024 86.5659 35.0186 87.1064C35.2347 87.6469 35.4509 88.2955 35.559 88.7278C36.2076 90.8897 36.6399 92.6192 38.5855 93.9164C38.6936 94.0245 39.234 94.673 39.234 95.1054C39.234 95.6459 39.5583 96.2945 39.9907 96.7268C41.2877 97.6997 42.3686 98.9968 43.4495 100.294C44.6385 101.483 45.7194 102.672 47.0165 103.537C48.854 104.51 50.1511 105.699 51.6643 106.888C52.421 107.428 53.1776 107.969 53.9342 108.509C54.6908 109.05 55.4475 109.59 56.3122 109.914C57.5012 110.455 58.6901 110.995 59.8791 111.536C61.0681 112.076 62.3652 112.509 63.5542 113.157L64.9593 113.806C65.3917 114.022 65.9321 114.13 66.3645 114.238C67.3373 114.562 68.3101 114.779 69.2829 115.103L70.0395 115.319L70.7961 115.427L72.3094 115.643C73.2822 115.752 74.3631 115.86 75.3359 115.968C76.9572 115.968 78.5786 116.076 80.1999 116.292C81.8213 116.292 83.4426 116.4 85.172 116.4C86.0368 116.292 86.9015 116.292 87.6581 116.508C87.7662 116.508 87.7662 116.508 87.8743 116.616C88.5228 116.4 89.2794 116.076 89.928 116.076C91.3331 115.86 92.8464 115.643 94.2515 115.319C95.6567 114.995 97.0619 114.346 98.3589 113.914L99.4398 113.59L100.413 113.157C101.061 112.833 101.71 112.617 102.358 112.292C103.763 111.86 104.952 111.103 106.358 110.563C107.114 110.239 107.655 109.914 108.195 109.482C108.736 109.05 109.168 108.509 109.816 108.077C114.897 104.726 119.653 100.402 122.679 95.1054C123.436 93.5921 124.517 92.1869 125.814 91.1059C126.03 90.8897 126.246 90.8897 126.246 90.4574C126.246 89.2683 126.57 88.1874 127.111 87.2145C127.651 86.1336 128.192 85.0526 128.624 84.0798C131.867 76.0808 132.948 67.4332 131.65 59.218C130.786 54.7861 129.489 50.4623 127.651 46.4628C127.111 45.3819 126.678 44.0848 126.354 42.8957C125.597 40.7338 125.489 40.7338 127.111 41.0581C126.462 40.1934 125.922 39.4367 125.381 38.5719C124.841 37.7072 124.192 36.9505 123.76 36.0858C122.787 34.3563 121.706 32.7348 120.842 31.0053C120.625 30.4648 120.517 30.0325 120.733 29.7082C120.625 29.492 120.517 29.2758 120.517 29.0596C120.409 28.0868 120.409 27.6544 120.733 27.5463C120.842 27.5463 121.166 27.5463 121.49 27.7625C121.814 27.9787 122.247 28.1949 122.787 28.6272C123.219 28.9515 123.76 29.7082 123.868 29.3839C124.084 28.9515 123.219 28.7353 122.895 28.411C122.463 27.9787 122.139 27.5463 121.922 27.1139C121.598 26.6815 121.382 26.2492 121.058 25.8168C120.409 25.0601 119.761 24.1954 119.004 23.5468C118.247 22.8982 117.383 22.1416 116.734 21.3849C116.086 20.6282 115.221 19.8716 115.761 19.4392C116.302 19.0068 117.058 18.6825 118.572 19.7635C119.869 20.7363 121.49 21.3849 122.247 22.8982C122.355 23.1144 122.787 23.3306 123.003 23.5468C123.76 23.9792 124.408 24.5196 125.057 25.1682C125.706 25.8168 126.354 26.4653 127.111 26.8977C127.867 27.3301 128.3 27.7625 128.732 27.4382C129.164 27.1139 129.705 27.1139 130.353 27.4382C131.002 27.7625 131.65 28.5191 132.407 29.492C136.947 35.4372 140.298 42.2472 142.135 49.5976C143 52.4081 143.216 55.3266 143.324 58.2452C143.216 59.8666 143.865 61.5961 143.973 63.4337C144.297 72.8379 141.703 82.1341 138.028 90.5654C134.677 98.2402 129.705 105.591 123.328 111.428C122.355 112.292 121.382 113.049 120.409 113.914C119.436 114.779 118.464 115.643 117.491 116.292L114.356 118.454L113.6 118.994L112.735 119.427L111.005 120.291C109.924 120.832 108.952 121.481 107.763 121.913L104.52 123.318L102.899 123.967L101.169 124.507L97.7104 125.588C96.5214 125.912 95.4405 126.129 94.2515 126.345C93.0626 126.561 91.8736 126.885 90.6846 126.993L87.1176 127.318C86.5772 127.318 85.9287 127.426 85.3882 127.426H83.5507C82.2536 127.426 80.8485 127.534 79.4433 127.534C78.0381 127.534 76.633 127.426 75.2278 127.318L73.6065 127.101L71.9851 126.777L68.7424 126.129C67.6616 125.912 66.5807 125.588 65.4998 125.264C64.4189 124.94 63.338 124.723 62.2571 124.399C60.8519 123.967 59.4468 123.426 58.0416 122.886L55.9879 122.129L53.9342 121.156C52.6371 120.508 51.232 119.859 49.9349 119.102C48.7459 118.238 47.4488 117.481 46.2599 116.724C45.0709 115.968 44.0981 115.103 43.0172 114.346C41.9363 113.482 40.8554 112.725 39.7745 111.86C37.8289 110.022 35.6671 108.185 34.0458 106.023C33.3972 105.266 32.7487 104.51 32.1002 103.753C31.4516 102.996 30.9112 102.132 30.2626 101.375L28.4251 98.9968C27.8847 98.1321 27.3442 97.3754 26.8038 96.5107C26.1552 95.4297 25.5067 94.3488 24.9663 93.1597C24.5339 91.9707 24.1015 90.8897 23.6692 89.5926C23.5611 89.1602 23.3449 88.7278 23.1287 88.1874C22.9126 87.755 22.8045 87.2145 22.5883 86.7821C22.1559 85.8093 21.7236 84.8364 21.3993 83.8636C20.9669 82.6745 20.5346 81.4855 20.1022 80.2965C19.778 79.1074 19.5618 77.8103 19.9941 76.6212C19.3456 75.3241 19.4537 73.4865 19.1294 72.1894C18.8052 71.0003 18.9132 69.8113 18.9132 68.6222C19.0213 67.4332 18.9132 66.2442 18.9132 65.0551C18.9132 63.758 19.5618 63.9742 19.778 63.4337C19.9941 62.8932 20.7508 62.3528 19.778 61.3799C19.3456 60.9475 19.1294 60.0828 19.3456 59.218C19.4537 58.2452 19.8861 57.2723 20.4265 56.5156C20.8589 55.8671 21.075 55.2185 20.7508 54.678C20.3184 53.5971 20.5346 52.6242 21.3993 51.5433C21.6155 51.219 21.9398 50.5704 21.8317 50.2462C21.075 47.76 23.3449 45.5981 23.8854 43.22C23.9934 42.6795 24.3177 42.3553 24.642 42.3553C25.2905 42.5714 25.6148 41.9229 25.6148 40.95C25.6148 40.0853 25.9391 39.2205 26.2633 38.3558C26.6957 37.491 27.128 36.6262 27.6685 35.9777C30.9112 31.2215 34.2619 26.4653 38.4774 22.5739C44.4223 16.953 50.7996 12.1969 58.1497 9.38639C59.1225 8.95402 60.2034 8.62973 61.2843 8.19735C62.3652 7.87307 63.4461 7.44069 64.527 7.11641C65.6079 6.79212 66.6888 6.46784 67.8777 6.25165C68.4182 6.14355 68.9586 5.92737 69.4991 5.81927L71.2285 5.49499C72.8498 5.2788 74.5793 4.95451 76.2006 5.06261C77.0653 5.06261 77.822 5.1707 78.6867 5.1707C79.119 5.1707 79.4433 5.2788 79.8757 5.2788C80.308 5.38689 80.6323 5.49499 81.0646 5.60308C84.4154 6.46784 88.1985 6.79212 91.7655 7.87307C92.9545 8.41354 94.0354 8.73783 94.792 9.49449C95.5486 10.1431 95.8729 11.0078 95.3324 11.3321C94.792 11.7645 93.7111 11.9807 92.3059 11.5483C91.6574 11.3321 91.0089 11.224 90.4684 11.0078C89.8199 10.8997 89.2794 10.6835 88.6309 10.6835C87.4419 10.5754 86.2529 10.5754 84.9559 10.5754C84.4154 10.5754 83.7669 10.5754 83.2264 10.5754C82.5779 10.5754 82.0374 10.4673 81.3889 10.4673C80.7404 10.3592 80.0918 10.3592 79.4433 10.2512C78.7948 10.2512 78.1462 10.2512 77.4977 10.2512C76.4168 10.2512 75.3359 10.2512 74.255 10.3592L71.0123 10.6835C70.6881 10.6835 70.2557 10.6835 70.0395 10.7916C69.4991 11.0078 69.0667 11.3321 69.1748 11.6564C69.1748 11.8726 69.8233 11.6564 70.2557 11.5483C75.5521 10.4673 80.9565 11.1159 86.0367 12.413C87.4419 12.8454 88.9552 13.1697 90.3603 13.8183L92.414 14.683L93.3868 15.1154L94.3596 15.6559C94.792 15.8721 95.3324 16.1964 95.7648 16.5206C97.0619 17.3854 97.7104 18.2502 96.9538 19.0068ZM123.111 23.763C123.003 23.6549 122.895 23.5468 122.787 23.4387C122.787 23.5468 122.787 23.6549 122.895 23.763C123.003 23.9792 123.219 23.9792 123.111 23.763ZM126.678 41.0581C126.678 40.95 126.678 40.95 126.678 41.0581V41.0581Z" fill="#003A8C"/>
<path d="M65.9338 80.08C66.0419 80.4043 65.9338 80.8367 65.6095 80.8367C65.2853 80.8367 64.961 80.9448 64.6367 80.8367C64.5286 80.8367 64.4206 80.7286 64.5286 80.9448C64.8529 81.4852 64.5286 81.5933 64.6367 81.9176C64.7448 82.4581 64.4206 82.1338 64.2044 82.1338C64.0963 82.1338 63.8801 82.0257 63.772 82.2419C63.772 82.35 63.5558 82.4581 63.4477 82.35C62.9073 81.9176 62.9073 82.5662 62.6911 82.8905C62.583 83.1067 62.3669 83.2148 62.1507 83.2148C61.1779 83.1067 60.3132 83.431 59.3404 83.431C58.6918 83.431 58.0433 83.6471 57.2867 83.539C57.0705 83.539 56.8543 83.2148 56.6381 83.2148H56.4219C56.0977 83.431 55.6653 83.8633 55.233 83.2148C54.8006 83.539 54.4763 82.6743 54.044 82.9986C53.9359 82.9986 53.8278 83.1067 53.8278 82.9986C53.1793 82.5662 52.4226 82.4581 51.666 82.2419C51.5579 82.2419 51.3417 82.1338 51.4498 81.8095C51.1256 81.7014 50.8013 81.5933 50.477 81.3772C50.1528 81.2691 49.8285 81.0529 49.7204 80.7286C49.5042 80.2962 49.18 79.9719 48.8557 79.7557C48.5314 79.4314 48.3152 79.1072 48.0991 78.7829C47.991 78.5667 47.8829 78.3505 47.6667 78.1343C47.3424 77.81 46.9101 77.3777 47.0182 76.8372C47.1263 76.2967 47.2343 75.9724 46.6939 75.7562C46.6939 75.7562 46.5858 75.6481 46.6939 75.4319C46.9101 75.3239 46.9101 75.2158 46.802 75.1077C46.2615 74.6753 46.5858 73.9186 46.2615 73.4862C45.7211 72.8377 46.2615 72.1891 46.0454 71.5405C45.9373 71.1082 45.8292 70.6758 45.9373 70.2434C46.1535 69.5948 46.0454 68.8382 45.8292 68.2977C45.7211 67.7572 45.9373 67.3249 45.9373 66.7844C45.9373 66.6763 45.9373 66.5682 46.1535 66.4601C46.0454 66.352 45.9373 66.2439 45.9373 66.1358C46.2615 65.2711 45.7211 64.2982 46.2615 63.5415C46.3696 63.3254 46.1535 63.1092 46.1535 62.893C46.2615 61.9201 46.4777 61.0554 46.2615 60.0825C46.1535 59.8663 46.2615 59.542 46.5858 59.3259C46.6939 59.3259 46.802 59.3259 46.6939 59.2178C46.0454 58.7854 46.4777 58.4611 46.4777 58.1368C46.5858 56.8397 46.802 55.5426 46.5858 54.1373C46.4777 53.3807 46.4777 52.624 46.5858 51.9754C46.5858 51.7592 46.6939 51.5431 46.9101 51.435C47.2343 51.1107 47.1263 51.1107 47.8829 51.435C47.7748 50.7864 47.991 50.2459 48.8557 49.8135C48.9638 49.7054 49.0719 49.7054 49.3961 49.8135C49.5042 49.8135 49.5042 49.8135 49.6123 49.8135C50.3689 49.8135 50.477 49.8135 50.6932 50.2459C50.6932 50.354 50.5851 50.4621 50.8013 50.4621C51.0175 50.4621 50.8013 50.354 50.8013 50.2459C50.8013 50.0297 51.1256 50.0297 51.2337 49.9216C51.5579 49.7054 51.4498 49.3812 51.7741 49.165C51.8822 49.0569 51.9903 48.9488 52.4226 49.0569C52.855 49.165 53.1793 49.2731 53.1793 49.5973C53.1793 49.8135 53.2874 50.0297 52.9631 50.1378V50.2459C53.1793 50.4621 52.855 50.6783 53.1793 51.0026C53.2874 51.1107 53.2873 51.2188 53.6116 51.3269C54.2602 51.435 54.4763 51.6511 54.4763 51.9754C54.3682 52.8402 54.2602 53.813 54.044 54.6778C53.9359 55.0021 53.8278 55.3264 53.6116 55.6506C53.5035 55.8668 53.7197 56.083 53.7197 56.2992C53.6116 57.4883 53.1793 58.5692 53.0712 59.6501L52.7469 62.3525C52.6388 63.0011 52.7469 63.5415 52.6388 64.1901C52.4226 65.2711 52.5307 66.4601 52.2065 67.541C52.0984 67.8653 52.3145 68.1896 52.2065 68.5139C52.0984 69.0544 51.8822 69.4867 51.9903 69.9191C52.0984 70.5677 52.2065 71.1082 52.0984 71.6486C52.0984 72.1891 52.3145 72.6215 52.3145 73.0539C52.3145 73.3782 52.5307 73.5943 52.7469 73.9186C52.855 74.0267 52.855 74.2429 52.7469 74.4591C52.7469 74.6753 52.9631 74.6753 53.0712 74.7834C53.1793 74.8915 53.7197 74.6753 53.1793 75.2158C53.3954 75.1077 53.3954 75.3239 53.5035 75.2158C53.7197 75.1077 53.6116 75.4319 53.8278 75.4319C53.9359 75.4319 53.6116 75.7562 53.6116 75.8643C53.6116 75.9724 53.3954 76.2967 53.7197 75.8643C54.044 75.4319 54.1521 75.54 53.9359 75.9724C53.8278 76.1886 53.9359 76.1886 54.044 76.0805C54.2602 75.7562 54.3682 75.7562 54.2602 76.0805C54.2602 76.1886 54.2602 76.2967 54.2602 76.1886C54.6925 75.432 54.5844 76.1886 54.8006 76.0805C54.8006 76.0805 54.8006 76.1886 54.8006 76.2967C54.6925 76.7291 54.8006 76.7291 54.9087 76.5129C55.1249 76.0805 55.233 76.1886 55.341 76.2967C55.6653 76.621 56.2058 76.4048 56.6381 76.621C57.2867 76.8372 58.0433 76.621 58.908 76.621C59.3404 76.621 59.7727 76.2967 60.3132 76.0805C60.6374 75.9724 60.9617 75.8643 61.5021 76.0805C62.0426 76.2967 62.3669 76.0805 62.7992 75.9724C62.9073 75.9724 63.1235 75.8643 63.3397 76.0805C63.5558 76.2967 63.772 76.5129 63.772 76.9453C63.8801 77.2696 63.8801 77.7019 63.6639 77.7019C63.3397 77.81 63.1235 78.1343 62.9073 78.4586C62.6911 78.7829 62.2588 78.6748 61.9345 78.7829C61.6102 78.891 61.394 78.891 61.0698 78.891H60.9617C60.8536 78.9991 60.8536 79.1072 60.9617 79.3234C61.0698 79.5395 61.0698 79.4315 61.1779 79.4315C61.8264 79.1072 62.6911 79.2153 63.4477 79.2153C63.8801 79.2153 64.3125 79.2153 64.7448 79.2153C64.8529 79.2153 64.961 79.2153 64.961 79.2153C65.5014 79.2153 65.7176 79.5395 65.9338 80.08ZM52.9631 49.9216C53.0712 49.9216 53.0712 49.9216 52.9631 49.9216C52.9631 49.8135 52.9631 49.8135 52.9631 49.9216C52.855 49.9216 52.9631 49.9216 52.9631 49.9216ZM47.8829 51.2188C47.8829 51.1107 47.8829 51.1107 47.8829 51.2188V51.2188Z" fill="#003A8C"/>
<path d="M86.6871 83.2151C86.3628 83.4313 85.9305 83.3232 85.8224 83.107C85.7143 82.7827 85.4981 82.4584 85.4981 82.026C85.4981 81.9179 85.4981 81.7018 85.2819 81.9179C84.8496 82.4584 84.6334 82.1341 84.3091 82.2422C83.7687 82.4584 83.9848 82.026 83.9848 81.9179C83.9848 81.8099 83.9849 81.4856 83.6606 81.4856C83.4444 81.4856 83.4444 81.3775 83.4444 81.2694C83.6606 80.6208 83.012 80.7289 82.6878 80.6208C82.4716 80.5127 82.2554 80.4046 82.1473 80.1884C81.8231 79.2156 81.2826 78.567 80.7422 77.7023C80.4179 77.1618 79.9855 76.6213 79.6613 76.0808C79.5532 75.8646 79.7694 75.5404 79.5532 75.4323L79.6613 75.3242C79.2289 75.2161 78.6885 75.2161 79.0127 74.5675C78.4723 74.4594 78.9046 73.7028 78.3642 73.7028C78.2561 73.7028 78.148 73.5947 78.148 73.5947C77.6076 72.6218 76.959 71.7571 76.0943 70.8923C75.9862 70.7842 75.8781 70.568 75.9862 70.3518C75.662 69.9194 75.2296 69.5952 74.9053 69.1628C74.9053 68.9466 74.9053 68.6223 75.1215 68.4061C75.4458 68.0818 75.3377 67.7576 75.3377 67.3252C75.3377 67.0009 75.4458 66.6766 75.4458 66.3523C75.4458 66.1361 75.5539 66.1361 75.662 66.028C75.8781 65.8119 75.9862 65.5957 76.4186 65.3795C76.8509 65.2714 77.2833 65.1633 77.1752 64.7309C77.1752 64.7309 77.1752 64.5147 77.4995 64.6228C77.7157 64.7309 77.9318 64.6228 77.9318 64.5147C77.9318 64.2985 78.0399 64.0823 78.148 63.9742C78.4723 63.8661 78.9046 63.8661 79.2289 63.7581C79.4451 63.7581 79.5532 63.65 79.7694 63.65C79.8775 63.5419 79.9855 63.5419 80.0936 63.4338C81.0664 62.6771 81.4988 63.0014 81.8231 62.569C81.9311 62.4609 82.0392 62.3528 82.1473 62.2447C82.2554 62.1366 82.3635 62.0285 82.4716 62.0285C82.904 61.8124 83.1201 61.38 83.012 60.9476C83.012 60.8395 83.012 60.6233 83.1201 60.5152C83.2282 60.4071 83.3363 60.1909 83.3363 60.0828C83.3363 59.9747 83.3363 59.8666 83.5525 59.8666C83.4444 59.7586 83.3363 59.6505 83.3363 59.6505C83.4444 59.3262 83.3363 58.8938 83.2282 58.4614C83.1201 58.1371 83.012 57.8129 83.1201 57.3805C83.1201 57.1643 82.7959 57.1643 82.7959 57.0562C82.4716 56.5157 82.2554 55.8671 81.4988 55.7591C81.2826 55.7591 81.1745 55.651 81.1745 55.2186C81.1745 55.1105 81.1745 55.0024 81.1745 55.1105C80.6341 55.651 80.526 55.2186 80.3098 55.1105C79.337 54.8943 78.148 54.6781 76.8509 55.0024L74.7972 55.4348C74.5811 55.4348 74.3649 55.4348 74.1487 55.3267C73.7163 55.1105 73.7163 55.2186 73.8244 54.3538C73.1759 54.57 72.5274 54.57 71.8788 54.0295C71.7707 53.9214 71.6626 53.8134 71.6626 53.5972C71.6626 53.4891 71.5546 53.4891 71.5546 53.381C71.2303 52.6243 71.2303 52.5162 71.5546 52.1919C71.6626 52.0838 71.7707 52.1919 71.7707 51.9757C71.6626 51.7596 71.6626 51.9757 71.5546 51.9757C71.3384 52.0838 71.2303 51.7596 71.0141 51.7596C70.6898 51.6515 70.3656 51.7596 69.9332 51.5434C69.717 51.4353 69.5009 51.4353 69.5009 51.0029C69.3928 50.5705 69.3928 50.1381 69.717 50.03C69.9332 49.9219 70.1494 49.7058 70.4737 49.9219C70.4737 49.9219 70.5818 49.9219 70.5818 49.8139C70.7979 49.4896 71.1222 49.7058 71.3384 49.2734C71.4465 49.0572 71.5546 49.0572 71.4465 48.7329C71.3384 48.0843 71.5546 47.7601 71.9869 47.7601C73.1759 47.5439 74.3649 47.4358 75.662 47.4358C76.2024 47.4358 76.6348 47.5439 77.1752 47.7601C77.4995 47.8681 77.8238 47.652 78.148 47.652C79.8775 47.652 81.4988 48.3005 83.2282 49.0572C84.8496 49.7058 86.4709 50.8948 87.5518 52.5162C88.2003 53.381 88.8489 54.4619 89.1731 55.4348C89.3893 56.4076 89.6055 57.3805 89.7136 58.3533C89.7136 58.7857 89.8217 59.2181 89.7136 59.7586C89.7136 60.299 89.6055 60.8395 89.4974 61.38C89.2812 61.9204 89.3893 62.6771 89.0651 63.3257C88.8489 63.7581 88.5246 64.2985 88.2003 64.7309C87.8761 65.1633 87.5518 65.5957 87.3356 66.028C86.4709 67.109 85.39 68.0818 84.3091 68.5142L83.7687 68.8385C83.7687 68.8385 83.6606 68.8385 83.6606 68.9466C83.5525 69.0547 83.6606 69.0547 83.5525 69.0547C83.4444 69.0547 83.5525 69.1628 83.6606 69.1628C83.7687 69.1628 83.6606 69.1628 83.3363 69.0547C83.2282 69.0547 83.2282 69.0547 83.3363 69.0547H83.4444C83.5525 69.1628 84.3091 69.379 83.1201 69.0547C83.5525 69.1628 83.2282 69.1628 83.4444 69.1628C83.7687 69.2709 83.3363 69.1628 83.5525 69.1628C83.6606 69.1628 83.1201 69.1628 82.904 69.1628C82.7959 69.1628 82.2554 69.1628 83.012 69.1628C83.1201 69.1628 83.3363 69.1628 83.4444 69.1628C83.7687 69.1628 83.5525 69.1628 83.1201 69.2709C82.904 69.2709 82.904 69.379 83.1201 69.2709C83.5525 69.2709 83.5525 69.1628 83.3363 69.2709C83.2282 69.2709 83.1201 69.379 83.3363 69.2709C84.201 69.0547 83.4444 69.2709 83.6606 69.2709C83.6606 69.2709 83.5525 69.2709 83.4444 69.379C83.1201 69.5952 83.1201 69.5952 83.3363 69.4871C83.6606 69.1628 83.8768 69.4871 83.8768 69.7033C84.201 70.4599 84.8496 71.1085 85.2819 71.8651C85.8224 72.9461 86.579 73.7028 87.1194 74.7837C87.4437 75.3242 87.9842 75.7566 88.4165 76.297C88.7408 76.6213 88.957 77.0537 88.957 77.5942C88.957 78.2427 89.3893 78.567 89.7136 78.9994C89.8217 79.1075 89.9298 79.3237 89.8217 79.5399C89.7136 79.8642 89.4974 80.0803 89.1731 80.2965C88.8489 80.5127 88.5246 80.6208 88.3084 80.4046C88.0922 80.0803 87.6599 79.9722 87.2275 79.7561C86.7952 79.648 86.6871 79.1075 86.4709 78.7832C86.2547 78.4589 86.1466 78.1346 85.9305 77.9184C85.9305 77.9184 85.9305 77.8104 85.8224 77.8104C85.7143 77.8104 85.6062 77.8104 85.39 77.9184C85.2819 78.0265 85.39 78.1346 85.39 78.1346C85.9305 78.7832 86.2547 79.648 86.579 80.5127C86.7952 80.9451 87.0114 81.4856 87.1194 81.9179C87.1194 82.026 87.2275 82.1341 87.2275 82.2422C87.3356 82.5665 87.2275 82.8908 86.6871 83.2151ZM70.6898 49.9219C70.6898 49.9219 70.5818 49.9219 70.6898 49.9219C70.5818 49.9219 70.5818 50.03 70.6898 49.9219C70.6898 50.03 70.6898 49.9219 70.6898 49.9219Z" fill="#003A8C"/>
<path d="M74.0386 56.0824C74.3628 56.0824 74.7952 56.2986 74.6871 56.4067C74.579 56.6229 74.579 56.731 74.3628 56.9471C74.2548 56.9471 74.1467 57.0552 74.4709 57.0552C75.1195 56.9471 75.0114 57.1633 75.4437 57.1633C75.9842 57.2714 75.5518 57.2714 75.4437 57.3795C75.3356 57.4876 75.2276 57.4876 75.4437 57.5957C75.5518 57.5957 75.5518 57.7038 75.4437 57.7038C74.9033 57.92 75.4437 58.0281 75.6599 58.1362C75.768 58.2443 75.8761 58.3524 75.768 58.4605C75.4437 58.8929 75.4437 59.3252 75.3356 59.7576C75.2276 60.0819 75.3356 60.4062 75.2276 60.7305C75.2276 60.8386 74.7952 60.9467 74.9033 61.0547V61.1628C75.1195 61.379 75.5518 61.4871 74.9033 61.7033C75.2276 61.9195 74.4709 62.0276 74.9033 62.2438C75.0114 62.2438 75.0114 62.3519 75.0114 62.3519C74.7952 62.6762 74.7952 63.0005 74.9033 63.3247C74.9033 63.4328 74.9033 63.4328 74.6871 63.5409C74.6871 63.8652 75.1195 64.0814 74.6871 64.4057C74.4709 64.6219 74.579 64.73 74.579 64.9462C74.579 65.1623 74.579 65.2704 74.4709 65.4866C74.4709 65.5947 74.4709 65.7028 74.4709 65.8109C74.579 66.0271 74.7952 66.2433 74.4709 66.4595C74.1467 66.6757 73.9305 66.7838 74.3628 67C74.3628 67 74.4709 67.108 74.2548 67.108C74.0386 67.108 74.0386 67.2161 74.0386 67.2161C74.4709 67.5404 73.9305 67.7566 74.2548 68.0809C74.6871 68.4052 74.1467 68.7295 74.2548 69.0538C74.3628 69.2699 74.4709 69.4861 74.3628 69.7023C74.1467 70.0266 74.2548 70.3509 74.4709 70.6752C74.6871 70.8914 74.4709 71.2156 74.4709 71.5399C74.4709 71.648 74.4709 71.648 74.2548 71.7561C74.3628 71.8642 74.4709 71.8642 74.4709 71.9723C74.2548 72.5128 74.9033 72.9452 74.4709 73.4856C74.3628 73.5937 74.6871 73.7018 74.6871 73.8099C74.6871 74.3504 74.579 74.8909 75.0114 75.4313C75.1195 75.5394 75.1195 75.7556 74.7952 75.8637C74.7952 75.8637 74.579 75.8637 74.6871 75.9718C75.4437 76.188 75.0114 76.4042 75.1195 76.5123C75.2276 77.2689 75.3356 78.0256 75.6599 78.6742C75.8761 79.1066 75.9842 79.4308 76.0923 79.8632C76.0923 79.9713 75.9842 80.0794 75.8761 80.1875C75.6599 80.4037 75.6599 80.4037 74.9033 80.2956C75.1195 80.6199 75.0114 80.9442 74.3628 81.2684C74.2548 81.2684 74.1467 81.3765 73.9305 81.3765C73.8224 81.3765 73.8224 81.3765 73.7143 81.3765C72.9577 81.4846 72.8496 81.4846 72.6334 81.2684C72.6334 81.2684 72.6334 81.1604 72.4172 81.1604C72.2011 81.1604 72.4172 81.2684 72.4172 81.2684C72.4172 81.3765 72.2011 81.4846 72.093 81.4846C71.8768 81.5927 71.9849 81.8089 71.6606 81.917C71.5525 82.0251 71.4444 82.1332 71.0121 82.0251C70.5797 82.0251 70.1474 82.0251 70.1474 81.8089C70.1474 81.7008 69.9312 81.5927 70.2555 81.4846C70.2555 81.4846 70.2555 81.4846 70.2555 81.3765C70.0393 81.2684 70.2555 81.1603 69.9312 80.9442C69.715 80.8361 69.715 80.8361 69.3907 80.8361C68.7422 80.8361 68.4179 80.728 68.4179 80.5118C68.3099 79.9713 68.3099 79.4308 68.3099 78.8904C68.3099 78.6742 68.418 78.458 68.526 78.2418C68.6341 78.1337 68.3099 78.0256 68.3099 77.9175C68.2018 77.2689 68.418 76.6204 68.3099 75.9718C68.3099 75.3232 68.2018 74.7828 68.2018 74.1342C68.2018 73.8099 67.9856 73.3775 67.9856 73.0533C67.9856 72.4047 67.7694 71.7561 67.9856 70.9995C68.0937 70.7833 67.7694 70.5671 67.8775 70.459C67.9856 70.1347 68.0937 69.8104 67.9856 69.4861C67.8775 69.0538 67.8775 68.6214 67.8775 68.189C67.8775 67.7566 67.7694 67.4323 67.8775 67C67.8775 66.6757 67.7694 66.4595 67.6613 66.1352C67.5532 65.919 67.6613 65.8109 67.8775 65.5947C67.9856 65.4866 67.7694 65.2704 67.7694 65.1623C67.7694 64.9462 67.229 64.8381 67.9856 64.6219C67.7694 64.5138 67.8775 64.4057 67.7694 64.2976C67.5532 64.0814 67.8775 63.9733 67.7694 63.7571C67.6613 63.649 68.0937 63.649 68.2018 63.649C68.3099 63.649 68.7422 63.5409 68.0937 63.5409C67.5532 63.5409 67.5532 63.3247 68.0937 63.2166C68.3099 63.2166 68.3099 63.1085 68.0937 63.1085C67.7694 63.0005 67.6613 63.0005 67.9856 62.8924C68.0937 62.8924 68.2018 62.7843 68.0937 62.7843C67.3371 62.6762 67.9856 62.46 67.7694 62.2438C67.7694 62.2438 67.8775 62.1357 67.9856 62.1357C68.418 62.1357 68.4179 62.0276 68.2018 62.0276C67.7694 61.9195 67.8775 61.8114 67.8775 61.5952C68.0937 61.1628 67.8775 60.7305 68.0937 60.4062C68.418 59.8657 68.2018 59.3252 68.4179 58.7848C68.526 58.4605 68.418 58.1362 68.3099 57.8119C68.3099 57.5957 68.3099 57.3795 68.7422 57.1633C69.1746 56.9472 68.9584 56.6229 69.0665 56.4067C69.0665 56.2986 69.0665 56.1905 69.3907 56.1905C69.6069 56.0824 69.9312 56.0824 70.3636 56.0824C70.6878 56.0824 71.1202 56.1905 71.1202 56.2986C71.1202 56.5148 71.3364 56.6229 71.6606 56.8391C71.8768 57.0552 71.6606 57.2714 71.6606 57.3795C71.6606 57.5957 71.5525 57.7038 71.5525 57.92V58.0281C71.5525 58.0281 71.7687 58.1362 71.8768 58.1362C72.093 58.1362 71.9849 58.0281 71.9849 58.0281C71.8768 57.5957 72.3092 57.1633 72.5253 56.731C72.6334 56.5148 72.8496 56.2986 72.9577 55.9743L73.0658 55.8662C73.0658 56.1905 73.39 56.0824 74.0386 56.0824ZM70.1474 81.4846C70.1474 81.4846 70.2555 81.4846 70.1474 81.4846C70.2555 81.4846 70.1474 81.4846 70.1474 81.4846Z" fill="#003A8C"/>
<path d="M111.223 81.8098C110.899 81.8098 110.467 81.3774 110.575 80.9451C110.683 80.5127 110.683 79.9722 110.899 79.5398C111.007 79.4317 111.115 79.2156 110.791 79.3237C110.142 79.5398 110.25 78.9994 109.818 78.8913C109.278 78.6751 109.71 78.4589 109.818 78.2427C109.926 78.0265 110.034 77.8103 109.818 77.5941C109.71 77.486 109.71 77.2699 109.818 77.1618C110.359 76.6213 109.818 76.297 109.602 75.8646C109.494 75.5403 109.386 75.3241 109.494 74.9999C109.818 73.8108 109.818 72.5137 109.926 71.3246C110.034 70.4599 109.926 69.5951 110.034 68.7304C110.034 68.4061 110.467 68.1899 110.359 67.9737V67.7575C110.142 67.3251 109.71 66.7847 110.359 66.3523C110.034 65.8118 110.791 65.3794 110.359 64.839C110.25 64.7309 110.25 64.6228 110.25 64.5147C110.467 63.6499 110.467 62.7852 110.359 61.8123C110.359 61.5961 110.359 61.488 110.575 61.3799C110.575 60.6233 110.142 60.1909 110.359 59.5423C110.467 59.11 110.359 58.7857 110.142 58.4614C110.034 58.1371 109.926 57.8128 109.818 57.4885C109.71 57.2723 109.602 57.0562 109.494 56.9481C109.17 56.6238 108.737 56.4076 108.737 55.8671C108.737 55.4347 108.629 55.0024 108.089 55.1105C108.089 55.1105 107.873 55.1105 107.981 54.8943C108.089 54.6781 107.981 54.57 107.873 54.57C107.224 54.57 106.9 53.9214 106.359 54.0295C105.711 54.2457 105.278 53.5971 104.63 53.8133C104.197 53.9214 103.873 54.0295 103.441 54.0295C102.792 54.0295 102.144 54.3538 101.82 54.8943C101.495 55.3266 101.063 55.5428 100.631 55.9752C100.522 56.0833 100.414 56.1914 100.198 56.1914C100.198 56.2995 100.198 56.5157 100.198 56.6238C99.8739 56.9481 99.6577 57.4885 99.5497 57.9209C99.4416 58.1371 99.4416 58.4614 99.3335 58.6776C99.2254 58.8938 99.1173 59.11 99.0092 59.3261C98.793 59.5423 99.1173 59.8666 99.1173 60.0828C99.1173 60.299 99.1173 60.6233 99.0092 60.8395C99.0092 60.9476 99.0092 61.1638 99.0092 61.2718V61.8123C99.0092 62.569 99.1173 63.2176 99.3335 63.9742C99.4416 64.4066 99.4416 64.839 99.1173 65.1633C99.1173 65.2713 98.9011 65.2713 99.0092 65.3794C99.7658 65.8118 99.3335 66.4604 99.4416 67.0009C99.5497 69.0547 99.6577 71.0004 99.982 73.0542C100.198 74.1351 100.306 75.2161 100.414 76.4051C100.414 76.7294 100.306 77.0537 100.198 77.378C99.982 77.9184 99.982 77.9184 99.2254 77.7022C99.4416 78.6751 99.3335 79.6479 98.6849 80.5127C98.5769 80.6208 98.4688 80.7289 98.2526 80.7289C98.1445 80.7289 98.1445 80.837 98.0364 80.837C97.2798 81.1613 97.1717 81.1613 96.9555 80.5127C96.9555 80.4046 96.9555 80.1884 96.7393 80.1884C96.5231 80.1884 96.7393 80.4046 96.7393 80.5127C96.7393 80.7289 96.5231 80.9451 96.4151 81.1613C96.1989 81.5936 96.307 82.026 95.9827 82.4584C95.8746 82.6746 95.7665 82.8908 95.3342 82.8908C94.9018 82.8908 94.4695 82.7827 94.4695 82.3503C94.4695 82.026 94.2533 81.7017 94.5775 81.3774C94.5775 81.3774 94.5775 81.2694 94.5775 81.1613C94.3614 80.837 94.5775 80.4046 94.2533 80.0803C94.0371 79.8641 94.0371 79.756 93.7128 79.756C93.0643 79.756 92.74 79.5398 92.74 78.9994C92.6319 77.5941 92.6319 76.0808 92.6319 74.6756C92.6319 74.1351 92.74 73.5946 92.8481 72.9461C92.9562 72.6218 92.6319 72.2975 92.6319 71.9732C92.5238 70.1356 92.74 68.298 92.6319 66.4604L92.5238 61.488C92.5238 60.9476 92.5238 60.299 92.5238 59.7585C92.5238 59.11 92.5238 58.4614 92.74 57.8128C93.2805 55.4347 94.3614 52.9486 96.307 51.219C96.8474 50.6786 97.2798 50.03 97.9283 49.5976C99.0092 48.9491 100.198 48.5167 101.279 47.9762C102.9 47.3276 104.63 47.1115 106.359 47.4357C107.873 47.6519 109.494 48.0843 110.791 48.9491C111.764 49.5976 112.628 50.1381 113.493 50.7867C114.034 51.219 114.358 51.8676 114.682 52.4081C114.898 52.9486 115.439 53.2728 115.655 53.7052C115.979 54.2457 116.736 54.6781 116.304 55.5428C116.736 55.759 116.628 56.2995 116.844 56.6238C117.276 57.1643 117.06 57.9209 117.276 58.4614C117.384 58.7857 116.952 58.7857 116.844 59.0019C116.736 59.11 116.303 59.3261 116.952 59.5423C117.492 59.6504 117.492 60.4071 117.06 60.8395C116.844 61.0557 116.844 61.1638 117.06 61.2718C117.384 61.488 117.492 61.5961 117.168 61.9204C117.06 62.0285 116.952 62.1366 117.06 62.1366C117.817 62.569 117.168 63.1095 117.384 63.5418C117.384 63.6499 117.276 63.758 117.168 63.758C116.736 63.758 116.736 63.9742 116.952 64.0823C117.384 64.4066 117.276 64.7309 117.276 65.1633C117.06 66.2442 117.276 67.4332 117.06 68.5142C116.736 70.0275 116.952 71.5408 116.736 73.0542C116.628 73.9189 116.736 74.7837 116.844 75.6484C116.844 76.297 116.844 76.9456 116.412 77.486C115.979 78.1346 116.195 78.8913 116.087 79.6479C116.087 79.8641 116.087 80.1884 115.763 80.2965C115.547 80.5127 115.223 80.6208 114.79 80.5127C114.466 80.4046 114.034 80.2965 114.034 79.9722C114.034 79.4318 113.817 78.8913 113.493 78.4589C113.277 78.0265 113.493 77.378 113.493 76.8375C113.493 76.4051 113.601 75.8646 113.601 75.4322C113.601 75.3241 113.601 75.3242 113.601 75.2161C113.601 75.108 113.385 74.9999 113.277 74.9999C113.061 74.9999 113.169 75.108 113.169 75.2161C113.277 76.4051 112.845 77.486 112.628 78.6751C112.52 79.3237 112.304 79.9722 112.196 80.6208C112.196 80.7289 112.088 80.837 112.088 80.9451C112.088 81.7017 111.764 81.9179 111.223 81.8098ZM94.3614 81.3774C94.3614 81.3774 94.3614 81.4855 94.3614 81.3774C94.4695 81.4855 94.4695 81.4855 94.3614 81.3774C94.4695 81.3774 94.4695 81.3774 94.3614 81.3774ZM99.1173 77.8103C99.1173 77.9184 99.1173 77.9184 99.1173 77.8103V77.8103Z" fill="#003A8C"/>
</svg>
